<?xml version="1.0" encoding="utf-8" standalone="no"?>
<!DOCTYPE svg PUBLIC "-//W3C//DTD SVG 1.1//EN"
  "http://www.w3.org/Graphics/SVG/1.1/DTD/svg11.dtd">
<svg xmlns:xlink="http://www.w3.org/1999/xlink" width="723.56726pt" height="246.605625pt" viewBox="0 0 723.56726 246.605625" xmlns="http://www.w3.org/2000/svg" version="1.1">
 <metadata>
  <rdf:RDF xmlns:dc="http://purl.org/dc/elements/1.1/" xmlns:cc="http://creativecommons.org/ns#" xmlns:rdf="http://www.w3.org/1999/02/22-rdf-syntax-ns#">
   <cc:Work>
    <dc:type rdf:resource="http://purl.org/dc/dcmitype/StillImage"/>
    <dc:date>2024-01-03T22:40:24.367754</dc:date>
    <dc:format>image/svg+xml</dc:format>
    <dc:creator>
     <cc:Agent>
      <dc:title>Matplotlib v3.7.2, https://matplotlib.org/</dc:title>
     </cc:Agent>
    </dc:creator>
   </cc:Work>
  </rdf:RDF>
 </metadata>
 <defs>
  <style type="text/css">*{stroke-linejoin: round; stroke-linecap: butt}</style>
 </defs>
 <g id="figure_1">
  <g id="patch_1">
   <path d="M 0 246.605625 
L 723.56726 246.605625 
L 723.56726 0 
L 0 0 
z
" style="fill: #ffffff"/>
  </g>
  <g id="axes_1">
   <g id="patch_2">
    <path d="M 39.782813 210.24 
L 236.723989 210.24 
L 236.723989 43.92 
L 39.782813 43.92 
z
" style="fill: #ffffff"/>
   </g>
   <g id="matplotlib.axis_1">
    <g id="xtick_1">
     <g id="line2d_1">
      <defs>
       <path id="m5f30b41835" d="M 0 0 
L 0 3.5 
" style="stroke: #000000; stroke-width: 0.8"/>
      </defs>
      <g>
       <use xlink:href="#m5f30b41835" x="48.734684" y="210.24" style="stroke: #000000; stroke-width: 0.8"/>
      </g>
     </g>
     <g id="text_1">
      <!-- 0 -->
      <g transform="translate(46.234684 224.18375) scale(0.1 -0.1)">
       <defs>
        <path id="TimesNewRomanPSMT-30" d="M 231 2094 
Q 231 2819 450 3342 
Q 669 3866 1031 4122 
Q 1313 4325 1613 4325 
Q 2100 4325 2488 3828 
Q 2972 3213 2972 2159 
Q 2972 1422 2759 906 
Q 2547 391 2217 158 
Q 1888 -75 1581 -75 
Q 975 -75 572 641 
Q 231 1244 231 2094 
z
M 844 2016 
Q 844 1141 1059 588 
Q 1238 122 1591 122 
Q 1759 122 1940 273 
Q 2122 425 2216 781 
Q 2359 1319 2359 2297 
Q 2359 3022 2209 3506 
Q 2097 3866 1919 4016 
Q 1791 4119 1609 4119 
Q 1397 4119 1231 3928 
Q 1006 3669 925 3112 
Q 844 2556 844 2016 
z
" transform="scale(0.015625)"/>
       </defs>
       <use xlink:href="#TimesNewRomanPSMT-30"/>
      </g>
     </g>
    </g>
    <g id="xtick_2">
     <g id="line2d_2">
      <g>
       <use xlink:href="#m5f30b41835" x="95.603122" y="210.24" style="stroke: #000000; stroke-width: 0.8"/>
      </g>
     </g>
     <g id="text_2">
      <!-- 50 -->
      <g transform="translate(90.603122 224.18375) scale(0.1 -0.1)">
       <defs>
        <path id="TimesNewRomanPSMT-35" d="M 2778 4238 
L 2534 3706 
L 1259 3706 
L 981 3138 
Q 1809 3016 2294 2522 
Q 2709 2097 2709 1522 
Q 2709 1188 2573 903 
Q 2438 619 2231 419 
Q 2025 219 1772 97 
Q 1413 -75 1034 -75 
Q 653 -75 479 54 
Q 306 184 306 341 
Q 306 428 378 495 
Q 450 563 559 563 
Q 641 563 702 538 
Q 763 513 909 409 
Q 1144 247 1384 247 
Q 1750 247 2026 523 
Q 2303 800 2303 1197 
Q 2303 1581 2056 1914 
Q 1809 2247 1375 2428 
Q 1034 2569 447 2591 
L 1259 4238 
L 2778 4238 
z
" transform="scale(0.015625)"/>
       </defs>
       <use xlink:href="#TimesNewRomanPSMT-35"/>
       <use xlink:href="#TimesNewRomanPSMT-30" x="50"/>
      </g>
     </g>
    </g>
    <g id="xtick_3">
     <g id="line2d_3">
      <g>
       <use xlink:href="#m5f30b41835" x="142.47156" y="210.24" style="stroke: #000000; stroke-width: 0.8"/>
      </g>
     </g>
     <g id="text_3">
      <!-- 100 -->
      <g transform="translate(134.97156 224.18375) scale(0.1 -0.1)">
       <defs>
        <path id="TimesNewRomanPSMT-31" d="M 750 3822 
L 1781 4325 
L 1884 4325 
L 1884 747 
Q 1884 391 1914 303 
Q 1944 216 2037 169 
Q 2131 122 2419 116 
L 2419 0 
L 825 0 
L 825 116 
Q 1125 122 1212 167 
Q 1300 213 1334 289 
Q 1369 366 1369 747 
L 1369 3034 
Q 1369 3497 1338 3628 
Q 1316 3728 1258 3775 
Q 1200 3822 1119 3822 
Q 1003 3822 797 3725 
L 750 3822 
z
" transform="scale(0.015625)"/>
       </defs>
       <use xlink:href="#TimesNewRomanPSMT-31"/>
       <use xlink:href="#TimesNewRomanPSMT-30" x="50"/>
       <use xlink:href="#TimesNewRomanPSMT-30" x="100"/>
      </g>
     </g>
    </g>
    <g id="xtick_4">
     <g id="line2d_4">
      <g>
       <use xlink:href="#m5f30b41835" x="189.339998" y="210.24" style="stroke: #000000; stroke-width: 0.8"/>
      </g>
     </g>
     <g id="text_4">
      <!-- 150 -->
      <g transform="translate(181.839998 224.18375) scale(0.1 -0.1)">
       <use xlink:href="#TimesNewRomanPSMT-31"/>
       <use xlink:href="#TimesNewRomanPSMT-35" x="50"/>
       <use xlink:href="#TimesNewRomanPSMT-30" x="100"/>
      </g>
     </g>
    </g>
    <g id="xtick_5">
     <g id="line2d_5">
      <g>
       <use xlink:href="#m5f30b41835" x="236.208436" y="210.24" style="stroke: #000000; stroke-width: 0.8"/>
      </g>
     </g>
     <g id="text_5">
      <!-- 200 -->
      <g transform="translate(228.708436 224.18375) scale(0.1 -0.1)">
       <defs>
        <path id="TimesNewRomanPSMT-32" d="M 2934 816 
L 2638 0 
L 138 0 
L 138 116 
Q 1241 1122 1691 1759 
Q 2141 2397 2141 2925 
Q 2141 3328 1894 3587 
Q 1647 3847 1303 3847 
Q 991 3847 742 3664 
Q 494 3481 375 3128 
L 259 3128 
Q 338 3706 661 4015 
Q 984 4325 1469 4325 
Q 1984 4325 2329 3994 
Q 2675 3663 2675 3213 
Q 2675 2891 2525 2569 
Q 2294 2063 1775 1497 
Q 997 647 803 472 
L 1909 472 
Q 2247 472 2383 497 
Q 2519 522 2628 598 
Q 2738 675 2819 816 
L 2934 816 
z
" transform="scale(0.015625)"/>
       </defs>
       <use xlink:href="#TimesNewRomanPSMT-32"/>
       <use xlink:href="#TimesNewRomanPSMT-30" x="50"/>
       <use xlink:href="#TimesNewRomanPSMT-30" x="100"/>
      </g>
     </g>
    </g>
    <g id="text_6">
     <!-- times -->
     <g transform="translate(127.420588 237.266563) scale(0.1 -0.1)">
      <defs>
       <path id="TimesNewRomanPSMT-74" d="M 1031 3803 
L 1031 2863 
L 1700 2863 
L 1700 2644 
L 1031 2644 
L 1031 788 
Q 1031 509 1111 412 
Q 1191 316 1316 316 
Q 1419 316 1516 380 
Q 1613 444 1666 569 
L 1788 569 
Q 1678 263 1478 108 
Q 1278 -47 1066 -47 
Q 922 -47 784 33 
Q 647 113 581 261 
Q 516 409 516 719 
L 516 2644 
L 63 2644 
L 63 2747 
Q 234 2816 414 2980 
Q 594 3144 734 3369 
Q 806 3488 934 3803 
L 1031 3803 
z
" transform="scale(0.015625)"/>
       <path id="TimesNewRomanPSMT-69" d="M 928 4444 
Q 1059 4444 1151 4351 
Q 1244 4259 1244 4128 
Q 1244 3997 1151 3903 
Q 1059 3809 928 3809 
Q 797 3809 703 3903 
Q 609 3997 609 4128 
Q 609 4259 701 4351 
Q 794 4444 928 4444 
z
M 1188 2947 
L 1188 647 
Q 1188 378 1227 289 
Q 1266 200 1342 156 
Q 1419 113 1622 113 
L 1622 0 
L 231 0 
L 231 113 
Q 441 113 512 153 
Q 584 194 626 287 
Q 669 381 669 647 
L 669 1750 
Q 669 2216 641 2353 
Q 619 2453 572 2492 
Q 525 2531 444 2531 
Q 356 2531 231 2484 
L 188 2597 
L 1050 2947 
L 1188 2947 
z
" transform="scale(0.015625)"/>
       <path id="TimesNewRomanPSMT-6d" d="M 1050 2338 
Q 1363 2650 1419 2697 
Q 1559 2816 1721 2881 
Q 1884 2947 2044 2947 
Q 2313 2947 2506 2790 
Q 2700 2634 2766 2338 
Q 3088 2713 3309 2830 
Q 3531 2947 3766 2947 
Q 3994 2947 4170 2830 
Q 4347 2713 4450 2447 
Q 4519 2266 4519 1878 
L 4519 647 
Q 4519 378 4559 278 
Q 4591 209 4675 161 
Q 4759 113 4950 113 
L 4950 0 
L 3538 0 
L 3538 113 
L 3597 113 
Q 3781 113 3884 184 
Q 3956 234 3988 344 
Q 4000 397 4000 647 
L 4000 1878 
Q 4000 2228 3916 2372 
Q 3794 2572 3525 2572 
Q 3359 2572 3192 2489 
Q 3025 2406 2788 2181 
L 2781 2147 
L 2788 2013 
L 2788 647 
Q 2788 353 2820 281 
Q 2853 209 2943 161 
Q 3034 113 3253 113 
L 3253 0 
L 1806 0 
L 1806 113 
Q 2044 113 2133 169 
Q 2222 225 2256 338 
Q 2272 391 2272 647 
L 2272 1878 
Q 2272 2228 2169 2381 
Q 2031 2581 1784 2581 
Q 1616 2581 1450 2491 
Q 1191 2353 1050 2181 
L 1050 647 
Q 1050 366 1089 281 
Q 1128 197 1204 155 
Q 1281 113 1516 113 
L 1516 0 
L 100 0 
L 100 113 
Q 297 113 375 155 
Q 453 197 493 289 
Q 534 381 534 647 
L 534 1741 
Q 534 2213 506 2350 
Q 484 2453 437 2492 
Q 391 2531 309 2531 
Q 222 2531 100 2484 
L 53 2597 
L 916 2947 
L 1050 2947 
L 1050 2338 
z
" transform="scale(0.015625)"/>
       <path id="TimesNewRomanPSMT-65" d="M 681 1784 
Q 678 1147 991 784 
Q 1303 422 1725 422 
Q 2006 422 2214 576 
Q 2422 731 2563 1106 
L 2659 1044 
Q 2594 616 2278 264 
Q 1963 -88 1488 -88 
Q 972 -88 605 314 
Q 238 716 238 1394 
Q 238 2128 614 2539 
Q 991 2950 1559 2950 
Q 2041 2950 2350 2633 
Q 2659 2316 2659 1784 
L 681 1784 
z
M 681 1966 
L 2006 1966 
Q 1991 2241 1941 2353 
Q 1863 2528 1708 2628 
Q 1553 2728 1384 2728 
Q 1125 2728 920 2526 
Q 716 2325 681 1966 
z
" transform="scale(0.015625)"/>
       <path id="TimesNewRomanPSMT-73" d="M 2050 2947 
L 2050 1972 
L 1947 1972 
Q 1828 2431 1642 2597 
Q 1456 2763 1169 2763 
Q 950 2763 815 2647 
Q 681 2531 681 2391 
Q 681 2216 781 2091 
Q 878 1963 1175 1819 
L 1631 1597 
Q 2266 1288 2266 781 
Q 2266 391 1970 151 
Q 1675 -88 1309 -88 
Q 1047 -88 709 6 
Q 606 38 541 38 
Q 469 38 428 -44 
L 325 -44 
L 325 978 
L 428 978 
Q 516 541 762 319 
Q 1009 97 1316 97 
Q 1531 97 1667 223 
Q 1803 350 1803 528 
Q 1803 744 1651 891 
Q 1500 1038 1047 1263 
Q 594 1488 453 1669 
Q 313 1847 313 2119 
Q 313 2472 555 2709 
Q 797 2947 1181 2947 
Q 1350 2947 1591 2875 
Q 1750 2828 1803 2828 
Q 1853 2828 1881 2850 
Q 1909 2872 1947 2947 
L 2050 2947 
z
" transform="scale(0.015625)"/>
      </defs>
      <use xlink:href="#TimesNewRomanPSMT-74"/>
      <use xlink:href="#TimesNewRomanPSMT-69" x="27.783203"/>
      <use xlink:href="#TimesNewRomanPSMT-6d" x="55.566406"/>
      <use xlink:href="#TimesNewRomanPSMT-65" x="133.349609"/>
      <use xlink:href="#TimesNewRomanPSMT-73" x="177.734375"/>
     </g>
    </g>
   </g>
   <g id="matplotlib.axis_2">
    <g id="ytick_1">
     <g id="line2d_6">
      <defs>
       <path id="ma9ced1b23f" d="M 0 0 
L -3.5 0 
" style="stroke: #000000; stroke-width: 0.8"/>
      </defs>
      <g>
       <use xlink:href="#ma9ced1b23f" x="39.782813" y="192.759443" style="stroke: #000000; stroke-width: 0.8"/>
      </g>
     </g>
     <g id="text_7">
      <!-- 0.4 -->
      <g transform="translate(20.282813 196.231318) scale(0.1 -0.1)">
       <defs>
        <path id="TimesNewRomanPSMT-2e" d="M 800 606 
Q 947 606 1047 504 
Q 1147 403 1147 259 
Q 1147 116 1045 14 
Q 944 -88 800 -88 
Q 656 -88 554 14 
Q 453 116 453 259 
Q 453 406 554 506 
Q 656 606 800 606 
z
" transform="scale(0.015625)"/>
        <path id="TimesNewRomanPSMT-34" d="M 2978 1563 
L 2978 1119 
L 2409 1119 
L 2409 0 
L 1894 0 
L 1894 1119 
L 100 1119 
L 100 1519 
L 2066 4325 
L 2409 4325 
L 2409 1563 
L 2978 1563 
z
M 1894 1563 
L 1894 3666 
L 406 1563 
L 1894 1563 
z
" transform="scale(0.015625)"/>
       </defs>
       <use xlink:href="#TimesNewRomanPSMT-30"/>
       <use xlink:href="#TimesNewRomanPSMT-2e" x="50"/>
       <use xlink:href="#TimesNewRomanPSMT-34" x="75"/>
      </g>
     </g>
    </g>
    <g id="ytick_2">
     <g id="line2d_7">
      <g>
       <use xlink:href="#ma9ced1b23f" x="39.782813" y="162.234673" style="stroke: #000000; stroke-width: 0.8"/>
      </g>
     </g>
     <g id="text_8">
      <!-- 0.6 -->
      <g transform="translate(20.282813 165.706548) scale(0.1 -0.1)">
       <defs>
        <path id="TimesNewRomanPSMT-36" d="M 2869 4325 
L 2869 4209 
Q 2456 4169 2195 4045 
Q 1934 3922 1679 3669 
Q 1425 3416 1258 3105 
Q 1091 2794 978 2366 
Q 1428 2675 1881 2675 
Q 2316 2675 2634 2325 
Q 2953 1975 2953 1425 
Q 2953 894 2631 456 
Q 2244 -75 1606 -75 
Q 1172 -75 869 213 
Q 275 772 275 1663 
Q 275 2231 503 2743 
Q 731 3256 1154 3653 
Q 1578 4050 1965 4187 
Q 2353 4325 2688 4325 
L 2869 4325 
z
M 925 2138 
Q 869 1716 869 1456 
Q 869 1156 980 804 
Q 1091 453 1309 247 
Q 1469 100 1697 100 
Q 1969 100 2183 356 
Q 2397 613 2397 1088 
Q 2397 1622 2184 2012 
Q 1972 2403 1581 2403 
Q 1463 2403 1327 2353 
Q 1191 2303 925 2138 
z
" transform="scale(0.015625)"/>
       </defs>
       <use xlink:href="#TimesNewRomanPSMT-30"/>
       <use xlink:href="#TimesNewRomanPSMT-2e" x="50"/>
       <use xlink:href="#TimesNewRomanPSMT-36" x="75"/>
      </g>
     </g>
    </g>
    <g id="ytick_3">
     <g id="line2d_8">
      <g>
       <use xlink:href="#ma9ced1b23f" x="39.782813" y="131.709902" style="stroke: #000000; stroke-width: 0.8"/>
      </g>
     </g>
     <g id="text_9">
      <!-- 0.8 -->
      <g transform="translate(20.282813 135.181777) scale(0.1 -0.1)">
       <defs>
        <path id="TimesNewRomanPSMT-38" d="M 1228 2134 
Q 725 2547 579 2797 
Q 434 3047 434 3316 
Q 434 3728 753 4026 
Q 1072 4325 1600 4325 
Q 2113 4325 2425 4047 
Q 2738 3769 2738 3413 
Q 2738 3175 2569 2928 
Q 2400 2681 1866 2347 
Q 2416 1922 2594 1678 
Q 2831 1359 2831 1006 
Q 2831 559 2490 242 
Q 2150 -75 1597 -75 
Q 994 -75 656 303 
Q 388 606 388 966 
Q 388 1247 577 1523 
Q 766 1800 1228 2134 
z
M 1719 2469 
Q 2094 2806 2194 3001 
Q 2294 3197 2294 3444 
Q 2294 3772 2109 3958 
Q 1925 4144 1606 4144 
Q 1288 4144 1088 3959 
Q 888 3775 888 3528 
Q 888 3366 970 3203 
Q 1053 3041 1206 2894 
L 1719 2469 
z
M 1375 2016 
Q 1116 1797 991 1539 
Q 866 1281 866 981 
Q 866 578 1086 336 
Q 1306 94 1647 94 
Q 1984 94 2187 284 
Q 2391 475 2391 747 
Q 2391 972 2272 1150 
Q 2050 1481 1375 2016 
z
" transform="scale(0.015625)"/>
       </defs>
       <use xlink:href="#TimesNewRomanPSMT-30"/>
       <use xlink:href="#TimesNewRomanPSMT-2e" x="50"/>
       <use xlink:href="#TimesNewRomanPSMT-38" x="75"/>
      </g>
     </g>
    </g>
    <g id="ytick_4">
     <g id="line2d_9">
      <g>
       <use xlink:href="#ma9ced1b23f" x="39.782813" y="101.185132" style="stroke: #000000; stroke-width: 0.8"/>
      </g>
     </g>
     <g id="text_10">
      <!-- 1.0 -->
      <g transform="translate(20.282813 104.657007) scale(0.1 -0.1)">
       <use xlink:href="#TimesNewRomanPSMT-31"/>
       <use xlink:href="#TimesNewRomanPSMT-2e" x="50"/>
       <use xlink:href="#TimesNewRomanPSMT-30" x="75"/>
      </g>
     </g>
    </g>
    <g id="ytick_5">
     <g id="line2d_10">
      <g>
       <use xlink:href="#ma9ced1b23f" x="39.782813" y="70.660362" style="stroke: #000000; stroke-width: 0.8"/>
      </g>
     </g>
     <g id="text_11">
      <!-- 1.2 -->
      <g transform="translate(20.282813 74.132237) scale(0.1 -0.1)">
       <use xlink:href="#TimesNewRomanPSMT-31"/>
       <use xlink:href="#TimesNewRomanPSMT-2e" x="50"/>
       <use xlink:href="#TimesNewRomanPSMT-32" x="75"/>
      </g>
     </g>
    </g>
    <g id="text_12">
     <!-- values -->
     <g transform="translate(14.14375 139.854219) rotate(-90) scale(0.1 -0.1)">
      <defs>
       <path id="TimesNewRomanPSMT-76" d="M 53 2863 
L 1400 2863 
L 1400 2747 
L 1313 2747 
Q 1191 2747 1127 2687 
Q 1063 2628 1063 2528 
Q 1063 2419 1128 2269 
L 1794 688 
L 2463 2328 
Q 2534 2503 2534 2594 
Q 2534 2638 2509 2666 
Q 2475 2713 2422 2730 
Q 2369 2747 2206 2747 
L 2206 2863 
L 3141 2863 
L 3141 2747 
Q 2978 2734 2916 2681 
Q 2806 2588 2719 2369 
L 1703 -88 
L 1575 -88 
L 553 2328 
Q 484 2497 421 2570 
Q 359 2644 263 2694 
Q 209 2722 53 2747 
L 53 2863 
z
" transform="scale(0.015625)"/>
       <path id="TimesNewRomanPSMT-61" d="M 1822 413 
Q 1381 72 1269 19 
Q 1100 -59 909 -59 
Q 613 -59 420 144 
Q 228 347 228 678 
Q 228 888 322 1041 
Q 450 1253 767 1440 
Q 1084 1628 1822 1897 
L 1822 2009 
Q 1822 2438 1686 2597 
Q 1550 2756 1291 2756 
Q 1094 2756 978 2650 
Q 859 2544 859 2406 
L 866 2225 
Q 866 2081 792 2003 
Q 719 1925 600 1925 
Q 484 1925 411 2006 
Q 338 2088 338 2228 
Q 338 2497 613 2722 
Q 888 2947 1384 2947 
Q 1766 2947 2009 2819 
Q 2194 2722 2281 2516 
Q 2338 2381 2338 1966 
L 2338 994 
Q 2338 584 2353 492 
Q 2369 400 2405 369 
Q 2441 338 2488 338 
Q 2538 338 2575 359 
Q 2641 400 2828 588 
L 2828 413 
Q 2478 -56 2159 -56 
Q 2006 -56 1915 50 
Q 1825 156 1822 413 
z
M 1822 616 
L 1822 1706 
Q 1350 1519 1213 1441 
Q 966 1303 859 1153 
Q 753 1003 753 825 
Q 753 600 887 451 
Q 1022 303 1197 303 
Q 1434 303 1822 616 
z
" transform="scale(0.015625)"/>
       <path id="TimesNewRomanPSMT-6c" d="M 1184 4444 
L 1184 647 
Q 1184 378 1223 290 
Q 1263 203 1344 158 
Q 1425 113 1647 113 
L 1647 0 
L 244 0 
L 244 113 
Q 441 113 512 153 
Q 584 194 625 287 
Q 666 381 666 647 
L 666 3247 
Q 666 3731 644 3842 
Q 622 3953 573 3993 
Q 525 4034 450 4034 
Q 369 4034 244 3984 
L 191 4094 
L 1044 4444 
L 1184 4444 
z
" transform="scale(0.015625)"/>
       <path id="TimesNewRomanPSMT-75" d="M 2709 2863 
L 2709 1128 
Q 2709 631 2732 520 
Q 2756 409 2807 365 
Q 2859 322 2928 322 
Q 3025 322 3147 375 
L 3191 266 
L 2334 -88 
L 2194 -88 
L 2194 519 
Q 1825 119 1631 15 
Q 1438 -88 1222 -88 
Q 981 -88 804 51 
Q 628 191 559 409 
Q 491 628 491 1028 
L 491 2306 
Q 491 2509 447 2587 
Q 403 2666 317 2708 
Q 231 2750 6 2747 
L 6 2863 
L 1009 2863 
L 1009 947 
Q 1009 547 1148 422 
Q 1288 297 1484 297 
Q 1619 297 1789 381 
Q 1959 466 2194 703 
L 2194 2325 
Q 2194 2569 2105 2655 
Q 2016 2741 1734 2747 
L 1734 2863 
L 2709 2863 
z
" transform="scale(0.015625)"/>
      </defs>
      <use xlink:href="#TimesNewRomanPSMT-76"/>
      <use xlink:href="#TimesNewRomanPSMT-61" x="50"/>
      <use xlink:href="#TimesNewRomanPSMT-6c" x="94.384766"/>
      <use xlink:href="#TimesNewRomanPSMT-75" x="122.167969"/>
      <use xlink:href="#TimesNewRomanPSMT-65" x="172.167969"/>
      <use xlink:href="#TimesNewRomanPSMT-73" x="216.552734"/>
     </g>
    </g>
   </g>
   <g id="line2d_11">
    <path d="M 48.734684 165.439784 
L 49.672053 174.749838 
L 50.609422 174.749838 
L 51.54679 179.48117 
L 52.484159 179.48117 
L 53.421528 174.749838 
L 54.358897 174.749838 
L 55.296265 179.48117 
L 56.233634 179.48117 
L 57.171003 174.749838 
L 58.108372 174.749838 
L 59.045741 160.861062 
L 59.983109 165.439784 
L 60.920478 160.861062 
L 61.857847 165.439784 
L 62.795216 160.861062 
L 63.732584 165.439784 
L 64.669953 156.129729 
L 65.607322 170.171116 
L 66.544691 170.171116 
L 67.482059 174.749838 
L 68.419428 174.749838 
L 69.356797 174.749838 
L 70.294166 174.749838 
L 71.231534 170.171116 
L 72.168903 174.749838 
L 73.106272 174.749838 
L 74.043641 174.749838 
L 74.981009 174.749838 
L 75.918378 179.48117 
L 76.855747 179.48117 
L 77.793116 179.48117 
L 78.730484 174.749838 
L 79.667853 170.171116 
L 80.605222 179.48117 
L 81.542591 174.749838 
L 82.47996 174.749838 
L 83.417328 165.439784 
L 84.354697 170.171116 
L 85.292066 174.749838 
L 86.229435 174.749838 
L 87.166803 174.749838 
L 88.104172 174.749838 
L 89.041541 170.171116 
L 89.97891 174.749838 
L 90.916278 184.059892 
L 91.853647 179.48117 
L 92.791016 179.48117 
L 93.728385 179.48117 
L 94.665753 179.48117 
L 95.603122 174.749838 
L 96.540491 179.48117 
L 97.47786 184.059892 
L 98.415228 184.059892 
L 99.352597 188.791224 
L 100.289966 188.791224 
L 101.227335 179.48117 
L 102.164703 184.059892 
L 103.102072 184.059892 
L 104.039441 174.749838 
L 104.97681 179.48117 
L 105.914179 165.439784 
L 106.851547 170.171116 
L 107.788916 165.439784 
L 108.726285 160.861062 
L 109.663654 165.439784 
L 110.601022 170.171116 
L 111.538391 165.439784 
L 112.47576 170.171116 
L 113.413129 170.171116 
L 114.350497 151.551008 
L 115.287866 156.129729 
L 116.225235 160.861062 
L 117.162604 165.439784 
L 118.099972 170.171116 
L 119.037341 179.48117 
L 119.97471 188.791224 
L 120.912079 184.059892 
L 121.849447 188.791224 
L 122.786816 184.059892 
L 123.724185 188.791224 
L 124.661554 188.791224 
L 125.598922 184.059892 
L 126.536291 174.749838 
L 127.47366 174.749838 
L 128.411029 174.749838 
L 129.348398 179.48117 
L 130.285766 174.749838 
L 131.223135 174.749838 
L 132.160504 165.439784 
L 133.097873 179.48117 
L 134.035241 179.48117 
L 134.97261 174.749838 
L 135.909979 174.749838 
L 136.847348 174.749838 
L 137.784716 170.171116 
L 138.722085 174.749838 
" clip-path="url(#p20c2cca204)" style="fill: none; stroke: #21266e; stroke-width: 0.9; stroke-linecap: square"/>
   </g>
   <g id="line2d_12">
    <path d="M 138.722085 174.749838 
L 139.659454 179.48117 
L 140.596823 188.791224 
L 141.534191 184.059892 
L 142.47156 184.059892 
L 143.408929 184.059892 
L 144.346298 184.059892 
L 145.283666 188.791224 
L 146.221035 184.059892 
L 147.158404 184.059892 
L 148.095773 179.48117 
L 149.033141 170.171116 
L 149.97051 174.749838 
L 150.907879 174.749838 
L 151.845248 179.48117 
L 152.782617 174.749838 
L 153.719985 188.791224 
L 154.657354 184.059892 
L 155.594723 179.48117 
L 156.532092 179.48117 
L 157.46946 174.749838 
L 158.406829 174.749838 
L 159.344198 174.749838 
L 160.281567 174.749838 
L 161.218935 174.749838 
L 162.156304 179.48117 
L 163.093673 184.059892 
L 164.031042 188.791224 
L 164.96841 202.68 
L 165.905779 202.68 
L 166.843148 197.948648 
L 167.780517 197.948648 
L 168.717885 197.948648 
L 169.655254 193.369946 
L 170.592623 193.369946 
L 171.529992 184.059892 
L 172.46736 179.48117 
L 173.404729 188.791224 
L 174.342098 188.791224 
L 175.279467 188.791224 
L 176.216836 179.48117 
L 177.154204 184.059892 
L 178.091573 179.48117 
L 179.028942 179.48117 
L 179.966311 165.439784 
L 180.903679 165.439784 
L 181.841048 165.439784 
L 182.778417 160.861062 
L 183.715786 170.171116 
L 184.653154 179.48117 
L 185.590523 184.059892 
L 186.527892 188.791224 
L 187.465261 188.791224 
L 188.402629 193.369946 
L 189.339998 188.791224 
L 190.277367 193.369946 
L 191.214736 188.791224 
L 192.152104 188.791224 
L 193.089473 188.791224 
L 194.026842 179.48117 
L 194.964211 170.171116 
L 195.901579 174.749838 
L 196.838948 170.171116 
L 197.776317 156.129729 
L 198.713686 160.861062 
L 199.651055 160.861062 
L 200.588423 160.861062 
L 201.525792 165.439784 
L 202.463161 160.861062 
L 203.40053 165.439784 
L 204.337898 165.439784 
L 205.275267 165.439784 
L 206.212636 165.439784 
L 207.150005 170.171116 
L 208.087373 174.749838 
L 209.024742 184.059892 
L 209.962111 184.059892 
L 210.89948 188.791224 
L 211.836848 193.369946 
L 212.774217 188.791224 
L 213.711586 184.059892 
L 214.648955 179.48117 
L 215.586323 174.749838 
L 216.523692 174.749838 
L 217.461061 170.171116 
L 218.39843 179.48117 
L 219.335798 165.439784 
L 220.273167 170.171116 
L 221.210536 165.439784 
L 222.147905 170.171116 
L 223.085274 165.439784 
L 224.022642 170.171116 
L 224.960011 170.171116 
L 225.89738 170.171116 
L 226.834749 165.439784 
L 227.772117 160.861062 
" clip-path="url(#p20c2cca204)" style="fill: none; stroke: #21266e; stroke-width: 0.9; stroke-linecap: square"/>
   </g>
   <g id="line2d_13">
    <path d="M 138.722085 103.421187 
L 139.659454 107.429929 
L 140.596823 108.754411 
L 141.534191 97.922828 
L 142.47156 82.94762 
L 143.408929 70.562072 
L 144.346298 61.073401 
L 145.283666 51.48 
L 146.221035 57.541578 
L 147.158404 81.800651 
L 148.095773 93.77503 
L 149.033141 108.510946 
L 149.97051 116.090124 
L 150.907879 131.233655 
L 151.845248 121.849828 
L 152.782617 122.374813 
L 153.719985 121.957965 
L 154.657354 122.86358 
L 155.594723 130.62953 
L 156.532092 133.663982 
L 157.46946 134.594533 
L 158.406829 138.800582 
L 159.344198 149.078503 
L 160.281567 158.13802 
L 161.218935 144.40913 
L 162.156304 136.910102 
L 163.093673 138.806164 
L 164.031042 139.244739 
L 164.96841 137.637665 
L 165.905779 135.052044 
L 166.843148 132.216927 
L 167.780517 127.753297 
L 168.717885 113.426549 
L 169.655254 95.432953 
L 170.592623 81.141423 
L 171.529992 79.870601 
L 172.46736 91.035539 
L 173.404729 94.386854 
L 174.342098 77.750243 
L 175.279467 72.347359 
L 176.216836 80.432974 
L 177.154204 98.129358 
L 178.091573 115.504638 
L 179.028942 126.298441 
L 179.966311 132.899036 
L 180.903679 137.141155 
L 181.841048 143.872421 
L 182.778417 139.636453 
L 183.715786 113.613994 
L 184.653154 103.898876 
L 185.590523 106.322558 
L 186.527892 107.900623 
L 187.465261 108.228991 
L 188.402629 107.553814 
L 189.339998 103.926195 
L 190.277367 96.155795 
L 191.214736 90.186981 
L 192.152104 85.990695 
L 193.089473 75.309879 
L 194.026842 77.129949 
L 194.964211 89.968637 
L 195.901579 84.163955 
L 196.838948 73.728162 
L 197.776317 73.634344 
L 198.713686 82.018323 
L 199.651055 98.159944 
L 200.588423 114.043783 
L 201.525792 123.733235 
L 202.463161 129.028279 
L 203.40053 133.628827 
L 204.337898 143.183401 
L 205.275267 138.963748 
L 206.212636 125.887547 
L 207.150005 125.278385 
L 208.087373 127.172746 
L 209.024742 127.272495 
L 209.962111 126.722888 
L 210.89948 125.452737 
L 211.836848 122.510622 
L 212.774217 115.430172 
L 213.711586 100.647713 
L 214.648955 86.736476 
L 215.586323 74.549202 
L 216.523692 76.417745 
L 217.461061 92.815881 
L 218.39843 81.231227 
L 219.335798 71.569359 
L 220.273167 73.768501 
L 221.210536 85.939032 
L 222.147905 103.570948 
L 223.085274 117.965534 
L 224.022642 126.13089 
L 224.960011 130.478828 
L 225.89738 136.237787 
L 226.834749 144.41528 
L 227.772117 133.914317 
" clip-path="url(#p20c2cca204)" style="fill: none; stroke: #d70005; stroke-width: 0.9; stroke-linecap: square"/>
   </g>
   <g id="patch_3">
    <path d="M 39.782813 210.24 
L 39.782813 43.92 
" style="fill: none; stroke: #000000; stroke-width: 0.8; stroke-linejoin: miter; stroke-linecap: square"/>
   </g>
   <g id="patch_4">
    <path d="M 236.723989 210.24 
L 236.723989 43.92 
" style="fill: none; stroke: #000000; stroke-width: 0.8; stroke-linejoin: miter; stroke-linecap: square"/>
   </g>
   <g id="patch_5">
    <path d="M 39.782813 210.24 
L 236.723989 210.24 
" style="fill: none; stroke: #000000; stroke-width: 0.8; stroke-linejoin: miter; stroke-linecap: square"/>
   </g>
   <g id="patch_6">
    <path d="M 39.782813 43.92 
L 236.723989 43.92 
" style="fill: none; stroke: #000000; stroke-width: 0.8; stroke-linejoin: miter; stroke-linecap: square"/>
   </g>
   <g id="text_13">
    <!-- lstm_short model -->
    <g transform="translate(96.420276 37.92) scale(0.12 -0.12)">
     <defs>
      <path id="TimesNewRomanPSMT-5f" d="M 3256 -1381 
L -53 -1381 
L -53 -1119 
L 3256 -1119 
L 3256 -1381 
z
" transform="scale(0.015625)"/>
      <path id="TimesNewRomanPSMT-68" d="M 1041 4444 
L 1041 2350 
Q 1388 2731 1591 2839 
Q 1794 2947 1997 2947 
Q 2241 2947 2416 2812 
Q 2591 2678 2675 2391 
Q 2734 2191 2734 1659 
L 2734 647 
Q 2734 375 2778 275 
Q 2809 200 2884 156 
Q 2959 113 3159 113 
L 3159 0 
L 1753 0 
L 1753 113 
L 1819 113 
Q 2019 113 2097 173 
Q 2175 234 2206 353 
Q 2216 403 2216 647 
L 2216 1659 
Q 2216 2128 2167 2275 
Q 2119 2422 2012 2495 
Q 1906 2569 1756 2569 
Q 1603 2569 1437 2487 
Q 1272 2406 1041 2159 
L 1041 647 
Q 1041 353 1073 281 
Q 1106 209 1195 161 
Q 1284 113 1503 113 
L 1503 0 
L 84 0 
L 84 113 
Q 275 113 384 172 
Q 447 203 484 290 
Q 522 378 522 647 
L 522 3238 
Q 522 3728 498 3840 
Q 475 3953 426 3993 
Q 378 4034 297 4034 
Q 231 4034 84 3984 
L 41 4094 
L 897 4444 
L 1041 4444 
z
" transform="scale(0.015625)"/>
      <path id="TimesNewRomanPSMT-6f" d="M 1600 2947 
Q 2250 2947 2644 2453 
Q 2978 2031 2978 1484 
Q 2978 1100 2793 706 
Q 2609 313 2286 112 
Q 1963 -88 1566 -88 
Q 919 -88 538 428 
Q 216 863 216 1403 
Q 216 1797 411 2186 
Q 606 2575 925 2761 
Q 1244 2947 1600 2947 
z
M 1503 2744 
Q 1338 2744 1170 2645 
Q 1003 2547 900 2300 
Q 797 2053 797 1666 
Q 797 1041 1045 587 
Q 1294 134 1700 134 
Q 2003 134 2200 384 
Q 2397 634 2397 1244 
Q 2397 2006 2069 2444 
Q 1847 2744 1503 2744 
z
" transform="scale(0.015625)"/>
      <path id="TimesNewRomanPSMT-72" d="M 1038 2947 
L 1038 2303 
Q 1397 2947 1775 2947 
Q 1947 2947 2059 2842 
Q 2172 2738 2172 2600 
Q 2172 2478 2090 2393 
Q 2009 2309 1897 2309 
Q 1788 2309 1652 2417 
Q 1516 2525 1450 2525 
Q 1394 2525 1328 2463 
Q 1188 2334 1038 2041 
L 1038 669 
Q 1038 431 1097 309 
Q 1138 225 1241 169 
Q 1344 113 1538 113 
L 1538 0 
L 72 0 
L 72 113 
Q 291 113 397 181 
Q 475 231 506 341 
Q 522 394 522 644 
L 522 1753 
Q 522 2253 501 2348 
Q 481 2444 426 2487 
Q 372 2531 291 2531 
Q 194 2531 72 2484 
L 41 2597 
L 906 2947 
L 1038 2947 
z
" transform="scale(0.015625)"/>
      <path id="TimesNewRomanPSMT-20" transform="scale(0.015625)"/>
      <path id="TimesNewRomanPSMT-64" d="M 2222 322 
Q 2013 103 1813 7 
Q 1613 -88 1381 -88 
Q 913 -88 563 304 
Q 213 697 213 1313 
Q 213 1928 600 2439 
Q 988 2950 1597 2950 
Q 1975 2950 2222 2709 
L 2222 3238 
Q 2222 3728 2198 3840 
Q 2175 3953 2125 3993 
Q 2075 4034 2000 4034 
Q 1919 4034 1784 3984 
L 1744 4094 
L 2597 4444 
L 2738 4444 
L 2738 1134 
Q 2738 631 2761 520 
Q 2784 409 2836 365 
Q 2888 322 2956 322 
Q 3041 322 3181 375 
L 3216 266 
L 2366 -88 
L 2222 -88 
L 2222 322 
z
M 2222 541 
L 2222 2016 
Q 2203 2228 2109 2403 
Q 2016 2578 1861 2667 
Q 1706 2756 1559 2756 
Q 1284 2756 1069 2509 
Q 784 2184 784 1559 
Q 784 928 1059 592 
Q 1334 256 1672 256 
Q 1956 256 2222 541 
z
" transform="scale(0.015625)"/>
     </defs>
     <use xlink:href="#TimesNewRomanPSMT-6c"/>
     <use xlink:href="#TimesNewRomanPSMT-73" x="27.783203"/>
     <use xlink:href="#TimesNewRomanPSMT-74" x="66.699219"/>
     <use xlink:href="#TimesNewRomanPSMT-6d" x="94.482422"/>
     <use xlink:href="#TimesNewRomanPSMT-5f" x="172.265625"/>
     <use xlink:href="#TimesNewRomanPSMT-73" x="222.265625"/>
     <use xlink:href="#TimesNewRomanPSMT-68" x="261.181641"/>
     <use xlink:href="#TimesNewRomanPSMT-6f" x="311.181641"/>
     <use xlink:href="#TimesNewRomanPSMT-72" x="361.181641"/>
     <use xlink:href="#TimesNewRomanPSMT-74" x="394.482422"/>
     <use xlink:href="#TimesNewRomanPSMT-20" x="422.265625"/>
     <use xlink:href="#TimesNewRomanPSMT-6d" x="447.265625"/>
     <use xlink:href="#TimesNewRomanPSMT-6f" x="525.048828"/>
     <use xlink:href="#TimesNewRomanPSMT-64" x="575.048828"/>
     <use xlink:href="#TimesNewRomanPSMT-65" x="625.048828"/>
     <use xlink:href="#TimesNewRomanPSMT-6c" x="669.433594"/>
    </g>
   </g>
   <g id="legend_1">
    <g id="patch_7">
     <path d="M 45.382813 206.24 
L 114.776563 206.24 
Q 116.376563 206.24 116.376563 204.64 
L 116.376563 182.8175 
Q 116.376563 181.2175 114.776563 181.2175 
L 45.382813 181.2175 
Q 43.782813 181.2175 43.782813 182.8175 
L 43.782813 204.64 
Q 43.782813 206.24 45.382813 206.24 
z
" style="fill: #ffffff; opacity: 0.8; stroke: #cccccc; stroke-linejoin: miter"/>
    </g>
    <g id="line2d_14">
     <path d="M 46.982813 187.2175 
L 54.982813 187.2175 
L 62.982813 187.2175 
" style="fill: none; stroke: #21266e; stroke-width: 0.9; stroke-linecap: square"/>
    </g>
    <g id="text_14">
     <!-- Ground Truth -->
     <g transform="translate(69.382812 190.0175) scale(0.08 -0.08)">
      <defs>
       <path id="TimesNewRomanPSMT-47" d="M 3928 4334 
L 4038 2997 
L 3928 2997 
Q 3763 3497 3500 3750 
Q 3122 4116 2528 4116 
Q 1719 4116 1297 3475 
Q 944 2934 944 2188 
Q 944 1581 1178 1081 
Q 1413 581 1792 348 
Q 2172 116 2572 116 
Q 2806 116 3025 175 
Q 3244 234 3447 350 
L 3447 1575 
Q 3447 1894 3398 1992 
Q 3350 2091 3248 2142 
Q 3147 2194 2891 2194 
L 2891 2313 
L 4531 2313 
L 4531 2194 
L 4453 2194 
Q 4209 2194 4119 2031 
Q 4056 1916 4056 1575 
L 4056 278 
Q 3697 84 3347 -6 
Q 2997 -97 2569 -97 
Q 1341 -97 703 691 
Q 225 1281 225 2053 
Q 225 2613 494 3125 
Q 813 3734 1369 4063 
Q 1834 4334 2469 4334 
Q 2700 4334 2889 4296 
Q 3078 4259 3425 4131 
Q 3600 4066 3659 4066 
Q 3719 4066 3761 4120 
Q 3803 4175 3813 4334 
L 3928 4334 
z
" transform="scale(0.015625)"/>
       <path id="TimesNewRomanPSMT-6e" d="M 1034 2341 
Q 1538 2947 1994 2947 
Q 2228 2947 2397 2830 
Q 2566 2713 2666 2444 
Q 2734 2256 2734 1869 
L 2734 647 
Q 2734 375 2778 278 
Q 2813 200 2889 156 
Q 2966 113 3172 113 
L 3172 0 
L 1756 0 
L 1756 113 
L 1816 113 
Q 2016 113 2095 173 
Q 2175 234 2206 353 
Q 2219 400 2219 647 
L 2219 1819 
Q 2219 2209 2117 2386 
Q 2016 2563 1775 2563 
Q 1403 2563 1034 2156 
L 1034 647 
Q 1034 356 1069 288 
Q 1113 197 1189 155 
Q 1266 113 1500 113 
L 1500 0 
L 84 0 
L 84 113 
L 147 113 
Q 366 113 442 223 
Q 519 334 519 647 
L 519 1709 
Q 519 2225 495 2337 
Q 472 2450 423 2490 
Q 375 2531 294 2531 
Q 206 2531 84 2484 
L 38 2597 
L 900 2947 
L 1034 2947 
L 1034 2341 
z
" transform="scale(0.015625)"/>
       <path id="TimesNewRomanPSMT-54" d="M 3703 4238 
L 3750 3244 
L 3631 3244 
Q 3597 3506 3538 3619 
Q 3441 3800 3280 3886 
Q 3119 3972 2856 3972 
L 2259 3972 
L 2259 734 
Q 2259 344 2344 247 
Q 2463 116 2709 116 
L 2856 116 
L 2856 0 
L 1059 0 
L 1059 116 
L 1209 116 
Q 1478 116 1591 278 
Q 1659 378 1659 734 
L 1659 3972 
L 1150 3972 
Q 853 3972 728 3928 
Q 566 3869 450 3700 
Q 334 3531 313 3244 
L 194 3244 
L 244 4238 
L 3703 4238 
z
" transform="scale(0.015625)"/>
      </defs>
      <use xlink:href="#TimesNewRomanPSMT-47"/>
      <use xlink:href="#TimesNewRomanPSMT-72" x="72.216797"/>
      <use xlink:href="#TimesNewRomanPSMT-6f" x="105.517578"/>
      <use xlink:href="#TimesNewRomanPSMT-75" x="155.517578"/>
      <use xlink:href="#TimesNewRomanPSMT-6e" x="205.517578"/>
      <use xlink:href="#TimesNewRomanPSMT-64" x="255.517578"/>
      <use xlink:href="#TimesNewRomanPSMT-20" x="305.517578"/>
      <use xlink:href="#TimesNewRomanPSMT-54" x="328.767578"/>
      <use xlink:href="#TimesNewRomanPSMT-72" x="386.351562"/>
      <use xlink:href="#TimesNewRomanPSMT-75" x="419.652344"/>
      <use xlink:href="#TimesNewRomanPSMT-74" x="469.652344"/>
      <use xlink:href="#TimesNewRomanPSMT-68" x="497.435547"/>
     </g>
    </g>
    <g id="line2d_15">
     <path d="M 46.982813 198.52875 
L 54.982813 198.52875 
L 62.982813 198.52875 
" style="fill: none; stroke: #d70005; stroke-width: 0.9; stroke-linecap: square"/>
    </g>
    <g id="text_15">
     <!-- prediction -->
     <g transform="translate(69.382812 201.32875) scale(0.08 -0.08)">
      <defs>
       <path id="TimesNewRomanPSMT-70" d="M -6 2578 
L 875 2934 
L 994 2934 
L 994 2266 
Q 1216 2644 1439 2795 
Q 1663 2947 1909 2947 
Q 2341 2947 2628 2609 
Q 2981 2197 2981 1534 
Q 2981 794 2556 309 
Q 2206 -88 1675 -88 
Q 1444 -88 1275 -22 
Q 1150 25 994 166 
L 994 -706 
Q 994 -1000 1030 -1079 
Q 1066 -1159 1155 -1206 
Q 1244 -1253 1478 -1253 
L 1478 -1369 
L -22 -1369 
L -22 -1253 
L 56 -1253 
Q 228 -1256 350 -1188 
Q 409 -1153 442 -1076 
Q 475 -1000 475 -688 
L 475 2019 
Q 475 2297 450 2372 
Q 425 2447 370 2484 
Q 316 2522 222 2522 
Q 147 2522 31 2478 
L -6 2578 
z
M 994 2081 
L 994 1013 
Q 994 666 1022 556 
Q 1066 375 1236 237 
Q 1406 100 1666 100 
Q 1978 100 2172 344 
Q 2425 663 2425 1241 
Q 2425 1897 2138 2250 
Q 1938 2494 1663 2494 
Q 1513 2494 1366 2419 
Q 1253 2363 994 2081 
z
" transform="scale(0.015625)"/>
       <path id="TimesNewRomanPSMT-63" d="M 2631 1088 
Q 2516 522 2178 217 
Q 1841 -88 1431 -88 
Q 944 -88 581 321 
Q 219 731 219 1428 
Q 219 2103 620 2525 
Q 1022 2947 1584 2947 
Q 2006 2947 2278 2723 
Q 2550 2500 2550 2259 
Q 2550 2141 2473 2067 
Q 2397 1994 2259 1994 
Q 2075 1994 1981 2113 
Q 1928 2178 1911 2362 
Q 1894 2547 1784 2644 
Q 1675 2738 1481 2738 
Q 1169 2738 978 2506 
Q 725 2200 725 1697 
Q 725 1184 976 792 
Q 1228 400 1656 400 
Q 1963 400 2206 609 
Q 2378 753 2541 1131 
L 2631 1088 
z
" transform="scale(0.015625)"/>
      </defs>
      <use xlink:href="#TimesNewRomanPSMT-70"/>
      <use xlink:href="#TimesNewRomanPSMT-72" x="50"/>
      <use xlink:href="#TimesNewRomanPSMT-65" x="83.300781"/>
      <use xlink:href="#TimesNewRomanPSMT-64" x="127.685547"/>
      <use xlink:href="#TimesNewRomanPSMT-69" x="177.685547"/>
      <use xlink:href="#TimesNewRomanPSMT-63" x="205.46875"/>
      <use xlink:href="#TimesNewRomanPSMT-74" x="249.853516"/>
      <use xlink:href="#TimesNewRomanPSMT-69" x="277.636719"/>
      <use xlink:href="#TimesNewRomanPSMT-6f" x="305.419922"/>
      <use xlink:href="#TimesNewRomanPSMT-6e" x="355.419922"/>
     </g>
    </g>
   </g>
  </g>
  <g id="axes_2">
   <g id="patch_8">
    <path d="M 276.112224 210.24 
L 473.053401 210.24 
L 473.053401 43.92 
L 276.112224 43.92 
z
" style="fill: #ffffff"/>
   </g>
   <g id="matplotlib.axis_3">
    <g id="xtick_6">
     <g id="line2d_16">
      <g>
       <use xlink:href="#m5f30b41835" x="285.064096" y="210.24" style="stroke: #000000; stroke-width: 0.8"/>
      </g>
     </g>
     <g id="text_16">
      <!-- 0 -->
      <g transform="translate(282.564096 224.18375) scale(0.1 -0.1)">
       <use xlink:href="#TimesNewRomanPSMT-30"/>
      </g>
     </g>
    </g>
    <g id="xtick_7">
     <g id="line2d_17">
      <g>
       <use xlink:href="#m5f30b41835" x="331.932534" y="210.24" style="stroke: #000000; stroke-width: 0.8"/>
      </g>
     </g>
     <g id="text_17">
      <!-- 50 -->
      <g transform="translate(326.932534 224.18375) scale(0.1 -0.1)">
       <use xlink:href="#TimesNewRomanPSMT-35"/>
       <use xlink:href="#TimesNewRomanPSMT-30" x="50"/>
      </g>
     </g>
    </g>
    <g id="xtick_8">
     <g id="line2d_18">
      <g>
       <use xlink:href="#m5f30b41835" x="378.800972" y="210.24" style="stroke: #000000; stroke-width: 0.8"/>
      </g>
     </g>
     <g id="text_18">
      <!-- 100 -->
      <g transform="translate(371.300972 224.18375) scale(0.1 -0.1)">
       <use xlink:href="#TimesNewRomanPSMT-31"/>
       <use xlink:href="#TimesNewRomanPSMT-30" x="50"/>
       <use xlink:href="#TimesNewRomanPSMT-30" x="100"/>
      </g>
     </g>
    </g>
    <g id="xtick_9">
     <g id="line2d_19">
      <g>
       <use xlink:href="#m5f30b41835" x="425.66941" y="210.24" style="stroke: #000000; stroke-width: 0.8"/>
      </g>
     </g>
     <g id="text_19">
      <!-- 150 -->
      <g transform="translate(418.16941 224.18375) scale(0.1 -0.1)">
       <use xlink:href="#TimesNewRomanPSMT-31"/>
       <use xlink:href="#TimesNewRomanPSMT-35" x="50"/>
       <use xlink:href="#TimesNewRomanPSMT-30" x="100"/>
      </g>
     </g>
    </g>
    <g id="xtick_10">
     <g id="line2d_20">
      <g>
       <use xlink:href="#m5f30b41835" x="472.537848" y="210.24" style="stroke: #000000; stroke-width: 0.8"/>
      </g>
     </g>
     <g id="text_20">
      <!-- 200 -->
      <g transform="translate(465.037848 224.18375) scale(0.1 -0.1)">
       <use xlink:href="#TimesNewRomanPSMT-32"/>
       <use xlink:href="#TimesNewRomanPSMT-30" x="50"/>
       <use xlink:href="#TimesNewRomanPSMT-30" x="100"/>
      </g>
     </g>
    </g>
    <g id="text_21">
     <!-- times -->
     <g transform="translate(363.75 237.266563) scale(0.1 -0.1)">
      <use xlink:href="#TimesNewRomanPSMT-74"/>
      <use xlink:href="#TimesNewRomanPSMT-69" x="27.783203"/>
      <use xlink:href="#TimesNewRomanPSMT-6d" x="55.566406"/>
      <use xlink:href="#TimesNewRomanPSMT-65" x="133.349609"/>
      <use xlink:href="#TimesNewRomanPSMT-73" x="177.734375"/>
     </g>
    </g>
   </g>
   <g id="matplotlib.axis_4">
    <g id="ytick_6">
     <g id="line2d_21">
      <g>
       <use xlink:href="#ma9ced1b23f" x="276.112224" y="207.948843" style="stroke: #000000; stroke-width: 0.8"/>
      </g>
     </g>
     <g id="text_22">
      <!-- 0.1 -->
      <g transform="translate(256.612224 211.420718) scale(0.1 -0.1)">
       <use xlink:href="#TimesNewRomanPSMT-30"/>
       <use xlink:href="#TimesNewRomanPSMT-2e" x="50"/>
       <use xlink:href="#TimesNewRomanPSMT-31" x="75"/>
      </g>
     </g>
    </g>
    <g id="ytick_7">
     <g id="line2d_22">
      <g>
       <use xlink:href="#ma9ced1b23f" x="276.112224" y="184.692756" style="stroke: #000000; stroke-width: 0.8"/>
      </g>
     </g>
     <g id="text_23">
      <!-- 0.2 -->
      <g transform="translate(256.612224 188.164631) scale(0.1 -0.1)">
       <use xlink:href="#TimesNewRomanPSMT-30"/>
       <use xlink:href="#TimesNewRomanPSMT-2e" x="50"/>
       <use xlink:href="#TimesNewRomanPSMT-32" x="75"/>
      </g>
     </g>
    </g>
    <g id="ytick_8">
     <g id="line2d_23">
      <g>
       <use xlink:href="#ma9ced1b23f" x="276.112224" y="161.436668" style="stroke: #000000; stroke-width: 0.8"/>
      </g>
     </g>
     <g id="text_24">
      <!-- 0.3 -->
      <g transform="translate(256.612224 164.908543) scale(0.1 -0.1)">
       <defs>
        <path id="TimesNewRomanPSMT-33" d="M 325 3431 
Q 506 3859 782 4092 
Q 1059 4325 1472 4325 
Q 1981 4325 2253 3994 
Q 2459 3747 2459 3466 
Q 2459 3003 1878 2509 
Q 2269 2356 2469 2072 
Q 2669 1788 2669 1403 
Q 2669 853 2319 450 
Q 1863 -75 997 -75 
Q 569 -75 414 31 
Q 259 138 259 259 
Q 259 350 332 419 
Q 406 488 509 488 
Q 588 488 669 463 
Q 722 447 909 348 
Q 1097 250 1169 231 
Q 1284 197 1416 197 
Q 1734 197 1970 444 
Q 2206 691 2206 1028 
Q 2206 1275 2097 1509 
Q 2016 1684 1919 1775 
Q 1784 1900 1550 2001 
Q 1316 2103 1072 2103 
L 972 2103 
L 972 2197 
Q 1219 2228 1467 2375 
Q 1716 2522 1828 2728 
Q 1941 2934 1941 3181 
Q 1941 3503 1739 3701 
Q 1538 3900 1238 3900 
Q 753 3900 428 3381 
L 325 3431 
z
" transform="scale(0.015625)"/>
       </defs>
       <use xlink:href="#TimesNewRomanPSMT-30"/>
       <use xlink:href="#TimesNewRomanPSMT-2e" x="50"/>
       <use xlink:href="#TimesNewRomanPSMT-33" x="75"/>
      </g>
     </g>
    </g>
    <g id="ytick_9">
     <g id="line2d_24">
      <g>
       <use xlink:href="#ma9ced1b23f" x="276.112224" y="138.18058" style="stroke: #000000; stroke-width: 0.8"/>
      </g>
     </g>
     <g id="text_25">
      <!-- 0.4 -->
      <g transform="translate(256.612224 141.652455) scale(0.1 -0.1)">
       <use xlink:href="#TimesNewRomanPSMT-30"/>
       <use xlink:href="#TimesNewRomanPSMT-2e" x="50"/>
       <use xlink:href="#TimesNewRomanPSMT-34" x="75"/>
      </g>
     </g>
    </g>
    <g id="ytick_10">
     <g id="line2d_25">
      <g>
       <use xlink:href="#ma9ced1b23f" x="276.112224" y="114.924492" style="stroke: #000000; stroke-width: 0.8"/>
      </g>
     </g>
     <g id="text_26">
      <!-- 0.5 -->
      <g transform="translate(256.612224 118.396367) scale(0.1 -0.1)">
       <use xlink:href="#TimesNewRomanPSMT-30"/>
       <use xlink:href="#TimesNewRomanPSMT-2e" x="50"/>
       <use xlink:href="#TimesNewRomanPSMT-35" x="75"/>
      </g>
     </g>
    </g>
    <g id="ytick_11">
     <g id="line2d_26">
      <g>
       <use xlink:href="#ma9ced1b23f" x="276.112224" y="91.668404" style="stroke: #000000; stroke-width: 0.8"/>
      </g>
     </g>
     <g id="text_27">
      <!-- 0.6 -->
      <g transform="translate(256.612224 95.140279) scale(0.1 -0.1)">
       <use xlink:href="#TimesNewRomanPSMT-30"/>
       <use xlink:href="#TimesNewRomanPSMT-2e" x="50"/>
       <use xlink:href="#TimesNewRomanPSMT-36" x="75"/>
      </g>
     </g>
    </g>
    <g id="ytick_12">
     <g id="line2d_27">
      <g>
       <use xlink:href="#ma9ced1b23f" x="276.112224" y="68.412316" style="stroke: #000000; stroke-width: 0.8"/>
      </g>
     </g>
     <g id="text_28">
      <!-- 0.7 -->
      <g transform="translate(256.612224 71.884191) scale(0.1 -0.1)">
       <defs>
        <path id="TimesNewRomanPSMT-37" d="M 644 4238 
L 2916 4238 
L 2916 4119 
L 1503 -88 
L 1153 -88 
L 2419 3728 
L 1253 3728 
Q 900 3728 750 3644 
Q 488 3500 328 3200 
L 238 3234 
L 644 4238 
z
" transform="scale(0.015625)"/>
       </defs>
       <use xlink:href="#TimesNewRomanPSMT-30"/>
       <use xlink:href="#TimesNewRomanPSMT-2e" x="50"/>
       <use xlink:href="#TimesNewRomanPSMT-37" x="75"/>
      </g>
     </g>
    </g>
    <g id="ytick_13">
     <g id="line2d_28">
      <g>
       <use xlink:href="#ma9ced1b23f" x="276.112224" y="45.156228" style="stroke: #000000; stroke-width: 0.8"/>
      </g>
     </g>
     <g id="text_29">
      <!-- 0.8 -->
      <g transform="translate(256.612224 48.628103) scale(0.1 -0.1)">
       <use xlink:href="#TimesNewRomanPSMT-30"/>
       <use xlink:href="#TimesNewRomanPSMT-2e" x="50"/>
       <use xlink:href="#TimesNewRomanPSMT-38" x="75"/>
      </g>
     </g>
    </g>
    <g id="text_30">
     <!-- values -->
     <g transform="translate(250.473162 139.854219) rotate(-90) scale(0.1 -0.1)">
      <use xlink:href="#TimesNewRomanPSMT-76"/>
      <use xlink:href="#TimesNewRomanPSMT-61" x="50"/>
      <use xlink:href="#TimesNewRomanPSMT-6c" x="94.384766"/>
      <use xlink:href="#TimesNewRomanPSMT-75" x="122.167969"/>
      <use xlink:href="#TimesNewRomanPSMT-65" x="172.167969"/>
      <use xlink:href="#TimesNewRomanPSMT-73" x="216.552734"/>
     </g>
    </g>
   </g>
   <g id="line2d_29">
    <path d="M 285.064096 96.552197 
L 286.001465 110.738409 
L 286.938833 110.738409 
L 287.876202 117.947786 
L 288.813571 117.947786 
L 289.75094 110.738409 
L 290.688308 110.738409 
L 291.625677 117.947786 
L 292.563046 117.947786 
L 293.500415 110.738409 
L 294.437784 110.738409 
L 295.375152 89.575361 
L 296.312521 96.552197 
L 297.24989 89.575361 
L 298.187259 96.552197 
L 299.124627 89.575361 
L 300.061996 96.552197 
L 300.999365 82.365985 
L 301.936734 103.761574 
L 302.874102 103.761574 
L 303.811471 110.738409 
L 304.74884 110.738409 
L 305.686209 110.738409 
L 306.623577 110.738409 
L 307.560946 103.761574 
L 308.498315 110.738409 
L 309.435684 110.738409 
L 310.373052 110.738409 
L 311.310421 110.738409 
L 312.24779 117.947786 
L 313.185159 117.947786 
L 314.122527 117.947786 
L 315.059896 110.738409 
L 315.997265 103.761574 
L 316.934634 117.947786 
L 317.872003 110.738409 
L 318.809371 110.738409 
L 319.74674 96.552197 
L 320.684109 103.761574 
L 321.621478 110.738409 
L 322.558846 110.738409 
L 323.496215 110.738409 
L 324.433584 110.738409 
L 325.370953 103.761574 
L 326.308321 110.738409 
L 327.24569 124.924622 
L 328.183059 117.947786 
L 329.120428 117.947786 
L 330.057796 117.947786 
L 330.995165 117.947786 
L 331.932534 110.738409 
L 332.869903 117.947786 
L 333.807271 124.924622 
L 334.74464 124.924622 
L 335.682009 132.133998 
L 336.619378 132.133998 
L 337.556746 117.947786 
L 338.494115 124.924622 
L 339.431484 124.924622 
L 340.368853 110.738409 
L 341.306222 117.947786 
L 342.24359 96.552197 
L 343.180959 103.761574 
L 344.118328 96.552197 
L 345.055697 89.575361 
L 345.993065 96.552197 
L 346.930434 103.761574 
L 347.867803 96.552197 
L 348.805172 103.761574 
L 349.74254 103.761574 
L 350.679909 75.389149 
L 351.617278 82.365985 
L 352.554647 89.575361 
L 353.492015 96.552197 
L 354.429384 103.761574 
L 355.366753 117.947786 
L 356.304122 132.133998 
L 357.24149 124.924622 
L 358.178859 132.133998 
L 359.116228 124.924622 
L 360.053597 132.133998 
L 360.990965 132.133998 
L 361.928334 124.924622 
L 362.865703 110.738409 
L 363.803072 110.738409 
L 364.740441 110.738409 
L 365.677809 117.947786 
L 366.615178 110.738409 
L 367.552547 110.738409 
L 368.489916 96.552197 
L 369.427284 117.947786 
L 370.364653 117.947786 
L 371.302022 110.738409 
L 372.239391 110.738409 
L 373.176759 110.738409 
L 374.114128 103.761574 
L 375.051497 110.738409 
" clip-path="url(#pbb5b840978)" style="fill: none; stroke: #21266e; stroke-width: 0.9; stroke-linecap: square"/>
   </g>
   <g id="line2d_30">
    <path d="M 375.051497 110.738409 
L 375.988866 117.947786 
L 376.926234 132.133998 
L 377.863603 124.924622 
L 378.800972 124.924622 
L 379.738341 124.924622 
L 380.675709 124.924622 
L 381.613078 132.133998 
L 382.550447 124.924622 
L 383.487816 124.924622 
L 384.425184 117.947786 
L 385.362553 103.761574 
L 386.299922 110.738409 
L 387.237291 110.738409 
L 388.17466 117.947786 
L 389.112028 110.738409 
L 390.049397 132.133998 
L 390.986766 124.924622 
L 391.924135 117.947786 
L 392.861503 117.947786 
L 393.798872 110.738409 
L 394.736241 110.738409 
L 395.67361 110.738409 
L 396.610978 110.738409 
L 397.548347 110.738409 
L 398.485716 117.947786 
L 399.423085 124.924622 
L 400.360453 132.133998 
L 401.297822 153.297046 
L 402.235191 153.297046 
L 403.17256 146.087639 
L 404.109928 146.087639 
L 405.047297 146.087639 
L 405.984666 139.110834 
L 406.922035 139.110834 
L 407.859403 124.924622 
L 408.796772 117.947786 
L 409.734141 132.133998 
L 410.67151 132.133998 
L 411.608879 132.133998 
L 412.546247 117.947786 
L 413.483616 124.924622 
L 414.420985 117.947786 
L 415.358354 117.947786 
L 416.295722 96.552197 
L 417.233091 96.552197 
L 418.17046 96.552197 
L 419.107829 89.575361 
L 420.045197 103.761574 
L 420.982566 117.947786 
L 421.919935 124.924622 
L 422.857304 132.133998 
L 423.794672 132.133998 
L 424.732041 139.110834 
L 425.66941 132.133998 
L 426.606779 139.110834 
L 427.544147 132.133998 
L 428.481516 132.133998 
L 429.418885 132.133998 
L 430.356254 117.947786 
L 431.293622 103.761574 
L 432.230991 110.738409 
L 433.16836 103.761574 
L 434.105729 82.365985 
L 435.043098 89.575361 
L 435.980466 89.575361 
L 436.917835 89.575361 
L 437.855204 96.552197 
L 438.792573 89.575361 
L 439.729941 96.552197 
L 440.66731 96.552197 
L 441.604679 96.552197 
L 442.542048 96.552197 
L 443.479416 103.761574 
L 444.416785 110.738409 
L 445.354154 124.924622 
L 446.291523 124.924622 
L 447.228891 132.133998 
L 448.16626 139.110834 
L 449.103629 132.133998 
L 450.040998 124.924622 
L 450.978366 117.947786 
L 451.915735 110.738409 
L 452.853104 110.738409 
L 453.790473 103.761574 
L 454.727841 117.947786 
L 455.66521 96.552197 
L 456.602579 103.761574 
L 457.539948 96.552197 
L 458.477317 103.761574 
L 459.414685 96.552197 
L 460.352054 103.761574 
L 461.289423 103.761574 
L 462.226792 103.761574 
L 463.16416 96.552197 
L 464.101529 89.575361 
" clip-path="url(#pbb5b840978)" style="fill: none; stroke: #21266e; stroke-width: 0.9; stroke-linecap: square"/>
   </g>
   <g id="line2d_31">
    <path d="M 375.051497 53.454453 
L 375.988866 51.48 
L 376.926234 54.500347 
L 377.863603 57.558397 
L 378.800972 60.24672 
L 379.738341 62.133358 
L 380.675709 68.674028 
L 381.613078 77.765612 
L 382.550447 95.294967 
L 383.487816 103.929502 
L 384.425184 107.006468 
L 385.362553 108.548928 
L 386.299922 111.206308 
L 387.237291 116.299829 
L 388.17466 133.744946 
L 389.112028 157.984018 
L 390.049397 180.027021 
L 390.986766 188.678205 
L 391.924135 188.274933 
L 392.861503 183.27846 
L 393.798872 173.966876 
L 394.736241 163.692838 
L 395.67361 152.977563 
L 396.610978 140.25903 
L 397.548347 132.694868 
L 398.485716 127.794069 
L 399.423085 124.846404 
L 400.360453 122.325928 
L 401.297822 117.549692 
L 402.235191 119.434815 
L 403.17256 122.98954 
L 404.109928 130.008228 
L 405.047297 136.134276 
L 405.984666 147.158104 
L 406.922035 153.127728 
L 407.859403 160.070186 
L 408.796772 169.357114 
L 409.734141 178.83738 
L 410.67151 192.092631 
L 411.608879 199.695697 
L 412.546247 202.68 
L 413.483616 201.31393 
L 414.420985 193.50199 
L 415.358354 184.962789 
L 416.295722 177.502838 
L 417.233091 169.241029 
L 418.17046 157.49711 
L 419.107829 145.082261 
L 420.045197 137.144346 
L 420.982566 127.336577 
L 421.919935 123.75041 
L 422.857304 123.274218 
L 423.794672 124.481279 
L 424.732041 122.717386 
L 425.66941 124.507181 
L 426.606779 131.662677 
L 427.544147 137.810373 
L 428.481516 145.115354 
L 429.418885 154.243685 
L 430.356254 160.721334 
L 431.293622 162.837745 
L 432.230991 168.507797 
L 433.16836 168.82395 
L 434.105729 170.83122 
L 435.043098 171.886528 
L 435.980466 167.429192 
L 436.917835 161.718662 
L 437.855204 158.19636 
L 438.792573 148.608912 
L 439.729941 138.700372 
L 440.66731 133.96546 
L 441.604679 125.298907 
L 442.542048 120.171437 
L 443.479416 115.240137 
L 444.416785 111.289495 
L 445.354154 110.584848 
L 446.291523 110.16404 
L 447.228891 113.00513 
L 448.16626 118.007607 
L 449.103629 123.677309 
L 450.040998 135.326632 
L 450.978366 141.233648 
L 451.915735 148.342853 
L 452.853104 153.036955 
L 453.790473 162.579332 
L 454.727841 169.466953 
L 455.66521 178.791853 
L 456.602579 183.457794 
L 457.539948 183.730163 
L 458.477317 184.254083 
L 459.414685 180.034982 
L 460.352054 172.318005 
L 461.289423 166.289888 
L 462.226792 156.797408 
L 463.16416 152.347965 
L 464.101529 142.890572 
" clip-path="url(#pbb5b840978)" style="fill: none; stroke: #d70005; stroke-width: 0.9; stroke-linecap: square"/>
   </g>
   <g id="patch_9">
    <path d="M 276.112224 210.24 
L 276.112224 43.92 
" style="fill: none; stroke: #000000; stroke-width: 0.8; stroke-linejoin: miter; stroke-linecap: square"/>
   </g>
   <g id="patch_10">
    <path d="M 473.053401 210.24 
L 473.053401 43.92 
" style="fill: none; stroke: #000000; stroke-width: 0.8; stroke-linejoin: miter; stroke-linecap: square"/>
   </g>
   <g id="patch_11">
    <path d="M 276.112224 210.24 
L 473.053401 210.24 
" style="fill: none; stroke: #000000; stroke-width: 0.8; stroke-linejoin: miter; stroke-linecap: square"/>
   </g>
   <g id="patch_12">
    <path d="M 276.112224 43.92 
L 473.053401 43.92 
" style="fill: none; stroke: #000000; stroke-width: 0.8; stroke-linejoin: miter; stroke-linecap: square"/>
   </g>
   <g id="text_31">
    <!-- transformer_short model -->
    <g transform="translate(315.098437 37.92) scale(0.12 -0.12)">
     <defs>
      <path id="TimesNewRomanPSMT-66" d="M 1319 2638 
L 1319 756 
Q 1319 356 1406 250 
Q 1522 113 1716 113 
L 1975 113 
L 1975 0 
L 266 0 
L 266 113 
L 394 113 
Q 519 113 622 175 
Q 725 238 764 344 
Q 803 450 803 756 
L 803 2638 
L 247 2638 
L 247 2863 
L 803 2863 
L 803 3050 
Q 803 3478 940 3775 
Q 1078 4072 1361 4255 
Q 1644 4438 1997 4438 
Q 2325 4438 2600 4225 
Q 2781 4084 2781 3909 
Q 2781 3816 2700 3733 
Q 2619 3650 2525 3650 
Q 2453 3650 2373 3701 
Q 2294 3753 2178 3923 
Q 2063 4094 1966 4153 
Q 1869 4213 1750 4213 
Q 1606 4213 1506 4136 
Q 1406 4059 1362 3898 
Q 1319 3738 1319 3069 
L 1319 2863 
L 2056 2863 
L 2056 2638 
L 1319 2638 
z
" transform="scale(0.015625)"/>
     </defs>
     <use xlink:href="#TimesNewRomanPSMT-74"/>
     <use xlink:href="#TimesNewRomanPSMT-72" x="27.783203"/>
     <use xlink:href="#TimesNewRomanPSMT-61" x="61.083984"/>
     <use xlink:href="#TimesNewRomanPSMT-6e" x="105.46875"/>
     <use xlink:href="#TimesNewRomanPSMT-73" x="155.46875"/>
     <use xlink:href="#TimesNewRomanPSMT-66" x="194.384766"/>
     <use xlink:href="#TimesNewRomanPSMT-6f" x="227.685547"/>
     <use xlink:href="#TimesNewRomanPSMT-72" x="277.685547"/>
     <use xlink:href="#TimesNewRomanPSMT-6d" x="310.986328"/>
     <use xlink:href="#TimesNewRomanPSMT-65" x="388.769531"/>
     <use xlink:href="#TimesNewRomanPSMT-72" x="433.154297"/>
     <use xlink:href="#TimesNewRomanPSMT-5f" x="466.455078"/>
     <use xlink:href="#TimesNewRomanPSMT-73" x="516.455078"/>
     <use xlink:href="#TimesNewRomanPSMT-68" x="555.371094"/>
     <use xlink:href="#TimesNewRomanPSMT-6f" x="605.371094"/>
     <use xlink:href="#TimesNewRomanPSMT-72" x="655.371094"/>
     <use xlink:href="#TimesNewRomanPSMT-74" x="688.671875"/>
     <use xlink:href="#TimesNewRomanPSMT-20" x="716.455078"/>
     <use xlink:href="#TimesNewRomanPSMT-6d" x="741.455078"/>
     <use xlink:href="#TimesNewRomanPSMT-6f" x="819.238281"/>
     <use xlink:href="#TimesNewRomanPSMT-64" x="869.238281"/>
     <use xlink:href="#TimesNewRomanPSMT-65" x="919.238281"/>
     <use xlink:href="#TimesNewRomanPSMT-6c" x="963.623047"/>
    </g>
   </g>
   <g id="legend_2">
    <g id="patch_13">
     <path d="M 281.712224 206.24 
L 351.105974 206.24 
Q 352.705974 206.24 352.705974 204.64 
L 352.705974 182.8175 
Q 352.705974 181.2175 351.105974 181.2175 
L 281.712224 181.2175 
Q 280.112224 181.2175 280.112224 182.8175 
L 280.112224 204.64 
Q 280.112224 206.24 281.712224 206.24 
z
" style="fill: #ffffff; opacity: 0.8; stroke: #cccccc; stroke-linejoin: miter"/>
    </g>
    <g id="line2d_32">
     <path d="M 283.312224 187.2175 
L 291.312224 187.2175 
L 299.312224 187.2175 
" style="fill: none; stroke: #21266e; stroke-width: 0.9; stroke-linecap: square"/>
    </g>
    <g id="text_32">
     <!-- Ground Truth -->
     <g transform="translate(305.712224 190.0175) scale(0.08 -0.08)">
      <use xlink:href="#TimesNewRomanPSMT-47"/>
      <use xlink:href="#TimesNewRomanPSMT-72" x="72.216797"/>
      <use xlink:href="#TimesNewRomanPSMT-6f" x="105.517578"/>
      <use xlink:href="#TimesNewRomanPSMT-75" x="155.517578"/>
      <use xlink:href="#TimesNewRomanPSMT-6e" x="205.517578"/>
      <use xlink:href="#TimesNewRomanPSMT-64" x="255.517578"/>
      <use xlink:href="#TimesNewRomanPSMT-20" x="305.517578"/>
      <use xlink:href="#TimesNewRomanPSMT-54" x="328.767578"/>
      <use xlink:href="#TimesNewRomanPSMT-72" x="386.351562"/>
      <use xlink:href="#TimesNewRomanPSMT-75" x="419.652344"/>
      <use xlink:href="#TimesNewRomanPSMT-74" x="469.652344"/>
      <use xlink:href="#TimesNewRomanPSMT-68" x="497.435547"/>
     </g>
    </g>
    <g id="line2d_33">
     <path d="M 283.312224 198.52875 
L 291.312224 198.52875 
L 299.312224 198.52875 
" style="fill: none; stroke: #d70005; stroke-width: 0.9; stroke-linecap: square"/>
    </g>
    <g id="text_33">
     <!-- prediction -->
     <g transform="translate(305.712224 201.32875) scale(0.08 -0.08)">
      <use xlink:href="#TimesNewRomanPSMT-70"/>
      <use xlink:href="#TimesNewRomanPSMT-72" x="50"/>
      <use xlink:href="#TimesNewRomanPSMT-65" x="83.300781"/>
      <use xlink:href="#TimesNewRomanPSMT-64" x="127.685547"/>
      <use xlink:href="#TimesNewRomanPSMT-69" x="177.685547"/>
      <use xlink:href="#TimesNewRomanPSMT-63" x="205.46875"/>
      <use xlink:href="#TimesNewRomanPSMT-74" x="249.853516"/>
      <use xlink:href="#TimesNewRomanPSMT-69" x="277.636719"/>
      <use xlink:href="#TimesNewRomanPSMT-6f" x="305.419922"/>
      <use xlink:href="#TimesNewRomanPSMT-6e" x="355.419922"/>
     </g>
    </g>
   </g>
  </g>
  <g id="axes_3">
   <g id="patch_14">
    <path d="M 512.441636 210.24 
L 709.382812 210.24 
L 709.382812 43.92 
L 512.441636 43.92 
z
" style="fill: #ffffff"/>
   </g>
   <g id="matplotlib.axis_5">
    <g id="xtick_11">
     <g id="line2d_34">
      <g>
       <use xlink:href="#m5f30b41835" x="521.393508" y="210.24" style="stroke: #000000; stroke-width: 0.8"/>
      </g>
     </g>
     <g id="text_34">
      <!-- 0 -->
      <g transform="translate(518.893508 224.18375) scale(0.1 -0.1)">
       <use xlink:href="#TimesNewRomanPSMT-30"/>
      </g>
     </g>
    </g>
    <g id="xtick_12">
     <g id="line2d_35">
      <g>
       <use xlink:href="#m5f30b41835" x="568.261946" y="210.24" style="stroke: #000000; stroke-width: 0.8"/>
      </g>
     </g>
     <g id="text_35">
      <!-- 50 -->
      <g transform="translate(563.261946 224.18375) scale(0.1 -0.1)">
       <use xlink:href="#TimesNewRomanPSMT-35"/>
       <use xlink:href="#TimesNewRomanPSMT-30" x="50"/>
      </g>
     </g>
    </g>
    <g id="xtick_13">
     <g id="line2d_36">
      <g>
       <use xlink:href="#m5f30b41835" x="615.130384" y="210.24" style="stroke: #000000; stroke-width: 0.8"/>
      </g>
     </g>
     <g id="text_36">
      <!-- 100 -->
      <g transform="translate(607.630384 224.18375) scale(0.1 -0.1)">
       <use xlink:href="#TimesNewRomanPSMT-31"/>
       <use xlink:href="#TimesNewRomanPSMT-30" x="50"/>
       <use xlink:href="#TimesNewRomanPSMT-30" x="100"/>
      </g>
     </g>
    </g>
    <g id="xtick_14">
     <g id="line2d_37">
      <g>
       <use xlink:href="#m5f30b41835" x="661.998822" y="210.24" style="stroke: #000000; stroke-width: 0.8"/>
      </g>
     </g>
     <g id="text_37">
      <!-- 150 -->
      <g transform="translate(654.498822 224.18375) scale(0.1 -0.1)">
       <use xlink:href="#TimesNewRomanPSMT-31"/>
       <use xlink:href="#TimesNewRomanPSMT-35" x="50"/>
       <use xlink:href="#TimesNewRomanPSMT-30" x="100"/>
      </g>
     </g>
    </g>
    <g id="xtick_15">
     <g id="line2d_38">
      <g>
       <use xlink:href="#m5f30b41835" x="708.86726" y="210.24" style="stroke: #000000; stroke-width: 0.8"/>
      </g>
     </g>
     <g id="text_38">
      <!-- 200 -->
      <g transform="translate(701.36726 224.18375) scale(0.1 -0.1)">
       <use xlink:href="#TimesNewRomanPSMT-32"/>
       <use xlink:href="#TimesNewRomanPSMT-30" x="50"/>
       <use xlink:href="#TimesNewRomanPSMT-30" x="100"/>
      </g>
     </g>
    </g>
    <g id="text_39">
     <!-- times -->
     <g transform="translate(600.079412 237.266563) scale(0.1 -0.1)">
      <use xlink:href="#TimesNewRomanPSMT-74"/>
      <use xlink:href="#TimesNewRomanPSMT-69" x="27.783203"/>
      <use xlink:href="#TimesNewRomanPSMT-6d" x="55.566406"/>
      <use xlink:href="#TimesNewRomanPSMT-65" x="133.349609"/>
      <use xlink:href="#TimesNewRomanPSMT-73" x="177.734375"/>
     </g>
    </g>
   </g>
   <g id="matplotlib.axis_6">
    <g id="ytick_14">
     <g id="line2d_39">
      <g>
       <use xlink:href="#ma9ced1b23f" x="512.441636" y="195.909833" style="stroke: #000000; stroke-width: 0.8"/>
      </g>
     </g>
     <g id="text_40">
      <!-- 0.35 -->
      <g transform="translate(487.941636 199.381708) scale(0.1 -0.1)">
       <use xlink:href="#TimesNewRomanPSMT-30"/>
       <use xlink:href="#TimesNewRomanPSMT-2e" x="50"/>
       <use xlink:href="#TimesNewRomanPSMT-33" x="75"/>
       <use xlink:href="#TimesNewRomanPSMT-35" x="125"/>
      </g>
     </g>
    </g>
    <g id="ytick_15">
     <g id="line2d_40">
      <g>
       <use xlink:href="#ma9ced1b23f" x="512.441636" y="173.342669" style="stroke: #000000; stroke-width: 0.8"/>
      </g>
     </g>
     <g id="text_41">
      <!-- 0.40 -->
      <g transform="translate(487.941636 176.814544) scale(0.1 -0.1)">
       <use xlink:href="#TimesNewRomanPSMT-30"/>
       <use xlink:href="#TimesNewRomanPSMT-2e" x="50"/>
       <use xlink:href="#TimesNewRomanPSMT-34" x="75"/>
       <use xlink:href="#TimesNewRomanPSMT-30" x="125"/>
      </g>
     </g>
    </g>
    <g id="ytick_16">
     <g id="line2d_41">
      <g>
       <use xlink:href="#ma9ced1b23f" x="512.441636" y="150.775506" style="stroke: #000000; stroke-width: 0.8"/>
      </g>
     </g>
     <g id="text_42">
      <!-- 0.45 -->
      <g transform="translate(487.941636 154.247381) scale(0.1 -0.1)">
       <use xlink:href="#TimesNewRomanPSMT-30"/>
       <use xlink:href="#TimesNewRomanPSMT-2e" x="50"/>
       <use xlink:href="#TimesNewRomanPSMT-34" x="75"/>
       <use xlink:href="#TimesNewRomanPSMT-35" x="125"/>
      </g>
     </g>
    </g>
    <g id="ytick_17">
     <g id="line2d_42">
      <g>
       <use xlink:href="#ma9ced1b23f" x="512.441636" y="128.208342" style="stroke: #000000; stroke-width: 0.8"/>
      </g>
     </g>
     <g id="text_43">
      <!-- 0.50 -->
      <g transform="translate(487.941636 131.680217) scale(0.1 -0.1)">
       <use xlink:href="#TimesNewRomanPSMT-30"/>
       <use xlink:href="#TimesNewRomanPSMT-2e" x="50"/>
       <use xlink:href="#TimesNewRomanPSMT-35" x="75"/>
       <use xlink:href="#TimesNewRomanPSMT-30" x="125"/>
      </g>
     </g>
    </g>
    <g id="ytick_18">
     <g id="line2d_43">
      <g>
       <use xlink:href="#ma9ced1b23f" x="512.441636" y="105.641179" style="stroke: #000000; stroke-width: 0.8"/>
      </g>
     </g>
     <g id="text_44">
      <!-- 0.55 -->
      <g transform="translate(487.941636 109.113054) scale(0.1 -0.1)">
       <use xlink:href="#TimesNewRomanPSMT-30"/>
       <use xlink:href="#TimesNewRomanPSMT-2e" x="50"/>
       <use xlink:href="#TimesNewRomanPSMT-35" x="75"/>
       <use xlink:href="#TimesNewRomanPSMT-35" x="125"/>
      </g>
     </g>
    </g>
    <g id="ytick_19">
     <g id="line2d_44">
      <g>
       <use xlink:href="#ma9ced1b23f" x="512.441636" y="83.074015" style="stroke: #000000; stroke-width: 0.8"/>
      </g>
     </g>
     <g id="text_45">
      <!-- 0.60 -->
      <g transform="translate(487.941636 86.54589) scale(0.1 -0.1)">
       <use xlink:href="#TimesNewRomanPSMT-30"/>
       <use xlink:href="#TimesNewRomanPSMT-2e" x="50"/>
       <use xlink:href="#TimesNewRomanPSMT-36" x="75"/>
       <use xlink:href="#TimesNewRomanPSMT-30" x="125"/>
      </g>
     </g>
    </g>
    <g id="ytick_20">
     <g id="line2d_45">
      <g>
       <use xlink:href="#ma9ced1b23f" x="512.441636" y="60.506852" style="stroke: #000000; stroke-width: 0.8"/>
      </g>
     </g>
     <g id="text_46">
      <!-- 0.65 -->
      <g transform="translate(487.941636 63.978727) scale(0.1 -0.1)">
       <use xlink:href="#TimesNewRomanPSMT-30"/>
       <use xlink:href="#TimesNewRomanPSMT-2e" x="50"/>
       <use xlink:href="#TimesNewRomanPSMT-36" x="75"/>
       <use xlink:href="#TimesNewRomanPSMT-35" x="125"/>
      </g>
     </g>
    </g>
    <g id="text_47">
     <!-- values -->
     <g transform="translate(481.802574 139.854219) rotate(-90) scale(0.1 -0.1)">
      <use xlink:href="#TimesNewRomanPSMT-76"/>
      <use xlink:href="#TimesNewRomanPSMT-61" x="50"/>
      <use xlink:href="#TimesNewRomanPSMT-6c" x="94.384766"/>
      <use xlink:href="#TimesNewRomanPSMT-75" x="122.167969"/>
      <use xlink:href="#TimesNewRomanPSMT-65" x="172.167969"/>
      <use xlink:href="#TimesNewRomanPSMT-73" x="216.552734"/>
     </g>
    </g>
   </g>
   <g id="line2d_46">
    <path d="M 521.393508 92.552253 
L 522.330876 120.08419 
L 523.268245 120.08419 
L 524.205614 134.07581 
L 525.142983 134.07581 
L 526.080351 120.08419 
L 527.01772 120.08419 
L 527.955089 134.07581 
L 528.892458 134.07581 
L 529.829827 120.08419 
L 530.767195 120.08419 
L 531.704564 79.011937 
L 532.641933 92.552253 
L 533.579302 79.011937 
L 534.51667 92.552253 
L 535.454039 79.011937 
L 536.391408 92.552253 
L 537.328777 65.020316 
L 538.266145 106.543874 
L 539.203514 106.543874 
L 540.140883 120.08419 
L 541.078252 120.08419 
L 542.01562 120.08419 
L 542.952989 120.08419 
L 543.890358 106.543874 
L 544.827727 120.08419 
L 545.765095 120.08419 
L 546.702464 120.08419 
L 547.639833 120.08419 
L 548.577202 134.07581 
L 549.51457 134.07581 
L 550.451939 134.07581 
L 551.389308 120.08419 
L 552.326677 106.543874 
L 553.264046 134.07581 
L 554.201414 120.08419 
L 555.138783 120.08419 
L 556.076152 92.552253 
L 557.013521 106.543874 
L 557.950889 120.08419 
L 558.888258 120.08419 
L 559.825627 120.08419 
L 560.762996 120.08419 
L 561.700364 106.543874 
L 562.637733 120.08419 
L 563.575102 147.616126 
L 564.512471 134.07581 
L 565.449839 134.07581 
L 566.387208 134.07581 
L 567.324577 134.07581 
L 568.261946 120.08419 
L 569.199314 134.07581 
L 570.136683 147.616126 
L 571.074052 147.616126 
L 572.011421 161.607747 
L 572.948789 161.607747 
L 573.886158 134.07581 
L 574.823527 147.616126 
L 575.760896 147.616126 
L 576.698265 120.08419 
L 577.635633 134.07581 
L 578.573002 92.552253 
L 579.510371 106.543874 
L 580.44774 92.552253 
L 581.385108 79.011937 
L 582.322477 92.552253 
L 583.259846 106.543874 
L 584.197215 92.552253 
L 585.134583 106.543874 
L 586.071952 106.543874 
L 587.009321 51.48 
L 587.94669 65.020316 
L 588.884058 79.011937 
L 589.821427 92.552253 
L 590.758796 106.543874 
L 591.696165 134.07581 
L 592.633533 161.607747 
L 593.570902 147.616126 
L 594.508271 161.607747 
L 595.44564 147.616126 
L 596.383008 161.607747 
L 597.320377 161.607747 
L 598.257746 147.616126 
L 599.195115 120.08419 
L 600.132484 120.08419 
L 601.069852 120.08419 
L 602.007221 134.07581 
L 602.94459 120.08419 
L 603.881959 120.08419 
L 604.819327 92.552253 
L 605.756696 134.07581 
L 606.694065 134.07581 
L 607.631434 120.08419 
L 608.568802 120.08419 
L 609.506171 120.08419 
L 610.44354 106.543874 
L 611.380909 120.08419 
" clip-path="url(#p35e9d60450)" style="fill: none; stroke: #21266e; stroke-width: 0.9; stroke-linecap: square"/>
   </g>
   <g id="line2d_47">
    <path d="M 611.380909 120.08419 
L 612.318277 134.07581 
L 613.255646 161.607747 
L 614.193015 147.616126 
L 615.130384 147.616126 
L 616.067752 147.616126 
L 617.005121 147.616126 
L 617.94249 161.607747 
L 618.879859 147.616126 
L 619.817227 147.616126 
L 620.754596 134.07581 
L 621.691965 106.543874 
L 622.629334 120.08419 
L 623.566703 120.08419 
L 624.504071 134.07581 
L 625.44144 120.08419 
L 626.378809 161.607747 
L 627.316178 147.616126 
L 628.253546 134.07581 
L 629.190915 134.07581 
L 630.128284 120.08419 
L 631.065653 120.08419 
L 632.003021 120.08419 
L 632.94039 120.08419 
L 633.877759 120.08419 
L 634.815128 134.07581 
L 635.752496 147.616126 
L 636.689865 161.607747 
L 637.627234 202.68 
L 638.564603 202.68 
L 639.501971 188.68832 
L 640.43934 188.68832 
L 641.376709 188.68832 
L 642.314078 175.148063 
L 643.251446 175.148063 
L 644.188815 147.616126 
L 645.126184 134.07581 
L 646.063553 161.607747 
L 647.000922 161.607747 
L 647.93829 161.607747 
L 648.875659 134.07581 
L 649.813028 147.616126 
L 650.750397 134.07581 
L 651.687765 134.07581 
L 652.625134 92.552253 
L 653.562503 92.552253 
L 654.499872 92.552253 
L 655.43724 79.011937 
L 656.374609 106.543874 
L 657.311978 134.07581 
L 658.249347 147.616126 
L 659.186715 161.607747 
L 660.124084 161.607747 
L 661.061453 175.148063 
L 661.998822 161.607747 
L 662.93619 175.148063 
L 663.873559 161.607747 
L 664.810928 161.607747 
L 665.748297 161.607747 
L 666.685665 134.07581 
L 667.623034 106.543874 
L 668.560403 120.08419 
L 669.497772 106.543874 
L 670.435141 65.020316 
L 671.372509 79.011937 
L 672.309878 79.011937 
L 673.247247 79.011937 
L 674.184616 92.552253 
L 675.121984 79.011937 
L 676.059353 92.552253 
L 676.996722 92.552253 
L 677.934091 92.552253 
L 678.871459 92.552253 
L 679.808828 106.543874 
L 680.746197 120.08419 
L 681.683566 147.616126 
L 682.620934 147.616126 
L 683.558303 161.607747 
L 684.495672 175.148063 
L 685.433041 161.607747 
L 686.370409 147.616126 
L 687.307778 134.07581 
L 688.245147 120.08419 
L 689.182516 120.08419 
L 690.119884 106.543874 
L 691.057253 134.07581 
L 691.994622 92.552253 
L 692.931991 106.543874 
L 693.86936 92.552253 
L 694.806728 106.543874 
L 695.744097 92.552253 
L 696.681466 106.543874 
L 697.618835 106.543874 
L 698.556203 106.543874 
L 699.493572 92.552253 
L 700.430941 79.011937 
" clip-path="url(#p35e9d60450)" style="fill: none; stroke: #21266e; stroke-width: 0.9; stroke-linecap: square"/>
   </g>
   <g id="line2d_48">
    <path d="M 611.380909 106.811377 
L 612.318277 110.304458 
L 613.255646 129.373665 
L 614.193015 132.497674 
L 615.130384 140.129564 
L 616.067752 151.5771 
L 617.005121 155.115595 
L 617.94249 160.322346 
L 618.879859 147.267792 
L 619.817227 139.199566 
L 620.754596 135.301752 
L 621.691965 113.671659 
L 622.629334 114.705072 
L 623.566703 105.160029 
L 624.504071 108.204899 
L 625.44144 105.839003 
L 626.378809 100.933308 
L 627.316178 100.956597 
L 628.253546 108.177024 
L 629.190915 109.328762 
L 630.128284 108.368163 
L 631.065653 105.696604 
L 632.003021 104.477548 
L 632.94039 99.765931 
L 633.877759 106.604932 
L 634.815128 111.257212 
L 635.752496 118.898422 
L 636.689865 134.764356 
L 637.627234 144.524131 
L 638.564603 148.183703 
L 639.501971 154.317368 
L 640.43934 149.418028 
L 641.376709 143.97564 
L 642.314078 141.782739 
L 643.251446 130.238836 
L 644.188815 121.469485 
L 645.126184 112.587875 
L 646.063553 108.081321 
L 647.000922 105.507897 
L 647.93829 100.336135 
L 648.875659 107.416673 
L 649.813028 106.276535 
L 650.750397 111.744288 
L 651.687765 114.468307 
L 652.625134 111.714738 
L 653.562503 110.025094 
L 654.499872 109.287717 
L 655.43724 106.956754 
L 656.374609 106.251557 
L 657.311978 115.967809 
L 658.249347 125.187985 
L 659.186715 132.653279 
L 660.124084 140.579919 
L 661.061453 147.044395 
L 661.998822 152.382874 
L 662.93619 145.959989 
L 663.873559 138.846187 
L 664.810928 133.959485 
L 665.748297 127.137756 
L 666.685665 115.833593 
L 667.623034 110.905308 
L 668.560403 105.443491 
L 669.497772 106.16749 
L 670.435141 104.888262 
L 671.372509 101.816992 
L 672.309878 104.510338 
L 673.247247 108.05406 
L 674.184616 106.576078 
L 675.121984 110.371166 
L 676.059353 108.589597 
L 676.996722 103.264152 
L 677.934091 103.250233 
L 678.871459 97.339735 
L 679.808828 111.809028 
L 680.746197 122.787556 
L 681.683566 136.608608 
L 682.620934 142.559704 
L 683.558303 151.65298 
L 684.495672 147.885925 
L 685.433041 150.493696 
L 686.370409 143.534366 
L 687.307778 135.916022 
L 688.245147 130.542915 
L 689.182516 115.250864 
L 690.119884 113.319746 
L 691.057253 100.434934 
L 691.994622 105.844644 
L 692.931991 101.69513 
L 693.86936 98.395269 
L 694.806728 95.48846 
L 695.744097 109.99058 
L 696.681466 106.078603 
L 697.618835 113.223141 
L 698.556203 115.321562 
L 699.493572 103.577322 
L 700.430941 104.511173 
" clip-path="url(#p35e9d60450)" style="fill: none; stroke: #d70005; stroke-width: 0.9; stroke-linecap: square"/>
   </g>
   <g id="patch_15">
    <path d="M 512.441636 210.24 
L 512.441636 43.92 
" style="fill: none; stroke: #000000; stroke-width: 0.8; stroke-linejoin: miter; stroke-linecap: square"/>
   </g>
   <g id="patch_16">
    <path d="M 709.382812 210.24 
L 709.382812 43.92 
" style="fill: none; stroke: #000000; stroke-width: 0.8; stroke-linejoin: miter; stroke-linecap: square"/>
   </g>
   <g id="patch_17">
    <path d="M 512.441636 210.24 
L 709.382812 210.24 
" style="fill: none; stroke: #000000; stroke-width: 0.8; stroke-linejoin: miter; stroke-linecap: square"/>
   </g>
   <g id="patch_18">
    <path d="M 512.441636 43.92 
L 709.382812 43.92 
" style="fill: none; stroke: #000000; stroke-width: 0.8; stroke-linejoin: miter; stroke-linecap: square"/>
   </g>
   <g id="text_48">
    <!-- my_former_short model -->
    <g transform="translate(552.424412 37.92) scale(0.12 -0.12)">
     <defs>
      <path id="TimesNewRomanPSMT-79" d="M 38 2863 
L 1372 2863 
L 1372 2747 
L 1306 2747 
Q 1166 2747 1095 2686 
Q 1025 2625 1025 2534 
Q 1025 2413 1128 2197 
L 1825 753 
L 2466 2334 
Q 2519 2463 2519 2588 
Q 2519 2644 2497 2672 
Q 2472 2706 2419 2726 
Q 2366 2747 2231 2747 
L 2231 2863 
L 3163 2863 
L 3163 2747 
Q 3047 2734 2984 2696 
Q 2922 2659 2847 2556 
Q 2819 2513 2741 2316 
L 1575 -541 
Q 1406 -956 1132 -1168 
Q 859 -1381 606 -1381 
Q 422 -1381 303 -1275 
Q 184 -1169 184 -1031 
Q 184 -900 270 -820 
Q 356 -741 506 -741 
Q 609 -741 788 -809 
Q 913 -856 944 -856 
Q 1038 -856 1148 -759 
Q 1259 -663 1372 -384 
L 1575 113 
L 547 2272 
Q 500 2369 397 2513 
Q 319 2622 269 2659 
Q 197 2709 38 2747 
L 38 2863 
z
" transform="scale(0.015625)"/>
     </defs>
     <use xlink:href="#TimesNewRomanPSMT-6d"/>
     <use xlink:href="#TimesNewRomanPSMT-79" x="77.783203"/>
     <use xlink:href="#TimesNewRomanPSMT-5f" x="127.783203"/>
     <use xlink:href="#TimesNewRomanPSMT-66" x="177.783203"/>
     <use xlink:href="#TimesNewRomanPSMT-6f" x="211.083984"/>
     <use xlink:href="#TimesNewRomanPSMT-72" x="261.083984"/>
     <use xlink:href="#TimesNewRomanPSMT-6d" x="294.384766"/>
     <use xlink:href="#TimesNewRomanPSMT-65" x="372.167969"/>
     <use xlink:href="#TimesNewRomanPSMT-72" x="416.552734"/>
     <use xlink:href="#TimesNewRomanPSMT-5f" x="449.853516"/>
     <use xlink:href="#TimesNewRomanPSMT-73" x="499.853516"/>
     <use xlink:href="#TimesNewRomanPSMT-68" x="538.769531"/>
     <use xlink:href="#TimesNewRomanPSMT-6f" x="588.769531"/>
     <use xlink:href="#TimesNewRomanPSMT-72" x="638.769531"/>
     <use xlink:href="#TimesNewRomanPSMT-74" x="672.070312"/>
     <use xlink:href="#TimesNewRomanPSMT-20" x="699.853516"/>
     <use xlink:href="#TimesNewRomanPSMT-6d" x="724.853516"/>
     <use xlink:href="#TimesNewRomanPSMT-6f" x="802.636719"/>
     <use xlink:href="#TimesNewRomanPSMT-64" x="852.636719"/>
     <use xlink:href="#TimesNewRomanPSMT-65" x="902.636719"/>
     <use xlink:href="#TimesNewRomanPSMT-6c" x="947.021484"/>
    </g>
   </g>
   <g id="legend_3">
    <g id="patch_19">
     <path d="M 518.041636 206.24 
L 587.435386 206.24 
Q 589.035386 206.24 589.035386 204.64 
L 589.035386 182.8175 
Q 589.035386 181.2175 587.435386 181.2175 
L 518.041636 181.2175 
Q 516.441636 181.2175 516.441636 182.8175 
L 516.441636 204.64 
Q 516.441636 206.24 518.041636 206.24 
z
" style="fill: #ffffff; opacity: 0.8; stroke: #cccccc; stroke-linejoin: miter"/>
    </g>
    <g id="line2d_49">
     <path d="M 519.641636 187.2175 
L 527.641636 187.2175 
L 535.641636 187.2175 
" style="fill: none; stroke: #21266e; stroke-width: 0.9; stroke-linecap: square"/>
    </g>
    <g id="text_49">
     <!-- Ground Truth -->
     <g transform="translate(542.041636 190.0175) scale(0.08 -0.08)">
      <use xlink:href="#TimesNewRomanPSMT-47"/>
      <use xlink:href="#TimesNewRomanPSMT-72" x="72.216797"/>
      <use xlink:href="#TimesNewRomanPSMT-6f" x="105.517578"/>
      <use xlink:href="#TimesNewRomanPSMT-75" x="155.517578"/>
      <use xlink:href="#TimesNewRomanPSMT-6e" x="205.517578"/>
      <use xlink:href="#TimesNewRomanPSMT-64" x="255.517578"/>
      <use xlink:href="#TimesNewRomanPSMT-20" x="305.517578"/>
      <use xlink:href="#TimesNewRomanPSMT-54" x="328.767578"/>
      <use xlink:href="#TimesNewRomanPSMT-72" x="386.351562"/>
      <use xlink:href="#TimesNewRomanPSMT-75" x="419.652344"/>
      <use xlink:href="#TimesNewRomanPSMT-74" x="469.652344"/>
      <use xlink:href="#TimesNewRomanPSMT-68" x="497.435547"/>
     </g>
    </g>
    <g id="line2d_50">
     <path d="M 519.641636 198.52875 
L 527.641636 198.52875 
L 535.641636 198.52875 
" style="fill: none; stroke: #d70005; stroke-width: 0.9; stroke-linecap: square"/>
    </g>
    <g id="text_50">
     <!-- prediction -->
     <g transform="translate(542.041636 201.32875) scale(0.08 -0.08)">
      <use xlink:href="#TimesNewRomanPSMT-70"/>
      <use xlink:href="#TimesNewRomanPSMT-72" x="50"/>
      <use xlink:href="#TimesNewRomanPSMT-65" x="83.300781"/>
      <use xlink:href="#TimesNewRomanPSMT-64" x="127.685547"/>
      <use xlink:href="#TimesNewRomanPSMT-69" x="177.685547"/>
      <use xlink:href="#TimesNewRomanPSMT-63" x="205.46875"/>
      <use xlink:href="#TimesNewRomanPSMT-74" x="249.853516"/>
      <use xlink:href="#TimesNewRomanPSMT-69" x="277.636719"/>
      <use xlink:href="#TimesNewRomanPSMT-6f" x="305.419922"/>
      <use xlink:href="#TimesNewRomanPSMT-6e" x="355.419922"/>
     </g>
    </g>
   </g>
  </g>
  <g id="text_51">
   <!-- Comparison chart of LULL variable of three models -->
   <g transform="translate(196.359062 18.31) scale(0.16 -0.16)">
    <defs>
     <path id="TimesNewRomanPSMT-43" d="M 3853 4334 
L 3950 2894 
L 3853 2894 
Q 3659 3541 3300 3825 
Q 2941 4109 2438 4109 
Q 2016 4109 1675 3895 
Q 1334 3681 1139 3212 
Q 944 2744 944 2047 
Q 944 1472 1128 1050 
Q 1313 628 1683 403 
Q 2053 178 2528 178 
Q 2941 178 3256 354 
Q 3572 531 3950 1056 
L 4047 994 
Q 3728 428 3303 165 
Q 2878 -97 2294 -97 
Q 1241 -97 663 684 
Q 231 1266 231 2053 
Q 231 2688 515 3219 
Q 800 3750 1298 4042 
Q 1797 4334 2388 4334 
Q 2847 4334 3294 4109 
Q 3425 4041 3481 4041 
Q 3566 4041 3628 4100 
Q 3709 4184 3744 4334 
L 3853 4334 
z
" transform="scale(0.015625)"/>
     <path id="TimesNewRomanPSMT-4c" d="M 3669 1172 
L 3772 1150 
L 3409 0 
L 128 0 
L 128 116 
L 288 116 
Q 556 116 672 291 
Q 738 391 738 753 
L 738 3488 
Q 738 3884 650 3984 
Q 528 4122 288 4122 
L 128 4122 
L 128 4238 
L 2047 4238 
L 2047 4122 
Q 1709 4125 1573 4059 
Q 1438 3994 1388 3894 
Q 1338 3794 1338 3416 
L 1338 753 
Q 1338 494 1388 397 
Q 1425 331 1503 300 
Q 1581 269 1991 269 
L 2300 269 
Q 2788 269 2984 341 
Q 3181 413 3343 595 
Q 3506 778 3669 1172 
z
" transform="scale(0.015625)"/>
     <path id="TimesNewRomanPSMT-55" d="M 3053 4122 
L 3053 4238 
L 4553 4238 
L 4553 4122 
L 4394 4122 
Q 4144 4122 4009 3913 
Q 3944 3816 3944 3463 
L 3944 1744 
Q 3944 1106 3817 754 
Q 3691 403 3320 151 
Q 2950 -100 2313 -100 
Q 1619 -100 1259 140 
Q 900 381 750 788 
Q 650 1066 650 1831 
L 650 3488 
Q 650 3878 542 4000 
Q 434 4122 194 4122 
L 34 4122 
L 34 4238 
L 1866 4238 
L 1866 4122 
L 1703 4122 
Q 1441 4122 1328 3956 
Q 1250 3844 1250 3488 
L 1250 1641 
Q 1250 1394 1295 1075 
Q 1341 756 1459 578 
Q 1578 400 1801 284 
Q 2025 169 2350 169 
Q 2766 169 3094 350 
Q 3422 531 3542 814 
Q 3663 1097 3663 1772 
L 3663 3488 
Q 3663 3884 3575 3984 
Q 3453 4122 3213 4122 
L 3053 4122 
z
" transform="scale(0.015625)"/>
     <path id="TimesNewRomanPSMT-62" d="M 984 2369 
Q 1400 2947 1881 2947 
Q 2322 2947 2650 2570 
Q 2978 2194 2978 1541 
Q 2978 778 2472 313 
Q 2038 -88 1503 -88 
Q 1253 -88 995 3 
Q 738 94 469 275 
L 469 3241 
Q 469 3728 445 3840 
Q 422 3953 372 3993 
Q 322 4034 247 4034 
Q 159 4034 28 3984 
L -16 4094 
L 844 4444 
L 984 4444 
L 984 2369 
z
M 984 2169 
L 984 456 
Q 1144 300 1314 220 
Q 1484 141 1663 141 
Q 1947 141 2192 453 
Q 2438 766 2438 1363 
Q 2438 1913 2192 2208 
Q 1947 2503 1634 2503 
Q 1469 2503 1303 2419 
Q 1178 2356 984 2169 
z
" transform="scale(0.015625)"/>
    </defs>
    <use xlink:href="#TimesNewRomanPSMT-43"/>
    <use xlink:href="#TimesNewRomanPSMT-6f" x="66.699219"/>
    <use xlink:href="#TimesNewRomanPSMT-6d" x="116.699219"/>
    <use xlink:href="#TimesNewRomanPSMT-70" x="194.482422"/>
    <use xlink:href="#TimesNewRomanPSMT-61" x="244.482422"/>
    <use xlink:href="#TimesNewRomanPSMT-72" x="288.867188"/>
    <use xlink:href="#TimesNewRomanPSMT-69" x="322.167969"/>
    <use xlink:href="#TimesNewRomanPSMT-73" x="349.951172"/>
    <use xlink:href="#TimesNewRomanPSMT-6f" x="388.867188"/>
    <use xlink:href="#TimesNewRomanPSMT-6e" x="438.867188"/>
    <use xlink:href="#TimesNewRomanPSMT-20" x="488.867188"/>
    <use xlink:href="#TimesNewRomanPSMT-63" x="513.867188"/>
    <use xlink:href="#TimesNewRomanPSMT-68" x="558.251953"/>
    <use xlink:href="#TimesNewRomanPSMT-61" x="608.251953"/>
    <use xlink:href="#TimesNewRomanPSMT-72" x="652.636719"/>
    <use xlink:href="#TimesNewRomanPSMT-74" x="685.9375"/>
    <use xlink:href="#TimesNewRomanPSMT-20" x="713.720703"/>
    <use xlink:href="#TimesNewRomanPSMT-6f" x="738.720703"/>
    <use xlink:href="#TimesNewRomanPSMT-66" x="788.720703"/>
    <use xlink:href="#TimesNewRomanPSMT-20" x="822.021484"/>
    <use xlink:href="#TimesNewRomanPSMT-4c" x="847.021484"/>
    <use xlink:href="#TimesNewRomanPSMT-55" x="908.105469"/>
    <use xlink:href="#TimesNewRomanPSMT-4c" x="980.322266"/>
    <use xlink:href="#TimesNewRomanPSMT-4c" x="1041.40625"/>
    <use xlink:href="#TimesNewRomanPSMT-20" x="1098.740234"/>
    <use xlink:href="#TimesNewRomanPSMT-76" x="1123.740234"/>
    <use xlink:href="#TimesNewRomanPSMT-61" x="1173.740234"/>
    <use xlink:href="#TimesNewRomanPSMT-72" x="1218.125"/>
    <use xlink:href="#TimesNewRomanPSMT-69" x="1251.425781"/>
    <use xlink:href="#TimesNewRomanPSMT-61" x="1279.208984"/>
    <use xlink:href="#TimesNewRomanPSMT-62" x="1323.59375"/>
    <use xlink:href="#TimesNewRomanPSMT-6c" x="1373.59375"/>
    <use xlink:href="#TimesNewRomanPSMT-65" x="1401.376953"/>
    <use xlink:href="#TimesNewRomanPSMT-20" x="1445.761719"/>
    <use xlink:href="#TimesNewRomanPSMT-6f" x="1470.761719"/>
    <use xlink:href="#TimesNewRomanPSMT-66" x="1520.761719"/>
    <use xlink:href="#TimesNewRomanPSMT-20" x="1554.0625"/>
    <use xlink:href="#TimesNewRomanPSMT-74" x="1579.0625"/>
    <use xlink:href="#TimesNewRomanPSMT-68" x="1606.845703"/>
    <use xlink:href="#TimesNewRomanPSMT-72" x="1656.845703"/>
    <use xlink:href="#TimesNewRomanPSMT-65" x="1690.146484"/>
    <use xlink:href="#TimesNewRomanPSMT-65" x="1734.53125"/>
    <use xlink:href="#TimesNewRomanPSMT-20" x="1778.916016"/>
    <use xlink:href="#TimesNewRomanPSMT-6d" x="1803.916016"/>
    <use xlink:href="#TimesNewRomanPSMT-6f" x="1881.699219"/>
    <use xlink:href="#TimesNewRomanPSMT-64" x="1931.699219"/>
    <use xlink:href="#TimesNewRomanPSMT-65" x="1981.699219"/>
    <use xlink:href="#TimesNewRomanPSMT-6c" x="2026.083984"/>
    <use xlink:href="#TimesNewRomanPSMT-73" x="2053.867188"/>
   </g>
  </g>
 </g>
 <defs>
  <clipPath id="p20c2cca204">
   <rect x="39.782813" y="43.92" width="196.941176" height="166.32"/>
  </clipPath>
  <clipPath id="pbb5b840978">
   <rect x="276.112224" y="43.92" width="196.941176" height="166.32"/>
  </clipPath>
  <clipPath id="p35e9d60450">
   <rect x="512.441636" y="43.92" width="196.941176" height="166.32"/>
  </clipPath>
 </defs>
</svg>
