<?xml version="1.0" encoding="utf-8" standalone="no"?>
<!DOCTYPE svg PUBLIC "-//W3C//DTD SVG 1.1//EN"
  "http://www.w3.org/Graphics/SVG/1.1/DTD/svg11.dtd">
<svg xmlns:xlink="http://www.w3.org/1999/xlink" width="726.706322pt" height="246.605625pt" viewBox="0 0 726.706322 246.605625" xmlns="http://www.w3.org/2000/svg" version="1.1">
 <metadata>
  <rdf:RDF xmlns:dc="http://purl.org/dc/elements/1.1/" xmlns:cc="http://creativecommons.org/ns#" xmlns:rdf="http://www.w3.org/1999/02/22-rdf-syntax-ns#">
   <cc:Work>
    <dc:type rdf:resource="http://purl.org/dc/dcmitype/StillImage"/>
    <dc:date>2024-01-03T22:40:23.304659</dc:date>
    <dc:format>image/svg+xml</dc:format>
    <dc:creator>
     <cc:Agent>
      <dc:title>Matplotlib v3.7.2, https://matplotlib.org/</dc:title>
     </cc:Agent>
    </dc:creator>
   </cc:Work>
  </rdf:RDF>
 </metadata>
 <defs>
  <style type="text/css">*{stroke-linejoin: round; stroke-linecap: butt}</style>
 </defs>
 <g id="figure_1">
  <g id="patch_1">
   <path d="M 0 246.605625 
L 726.706322 246.605625 
L 726.706322 0 
L 0 0 
z
" style="fill: #ffffff"/>
  </g>
  <g id="axes_1">
   <g id="patch_2">
    <path d="M 42.921875 210.24 
L 239.863051 210.24 
L 239.863051 43.92 
L 42.921875 43.92 
z
" style="fill: #ffffff"/>
   </g>
   <g id="matplotlib.axis_1">
    <g id="xtick_1">
     <g id="line2d_1">
      <defs>
       <path id="md5968336b0" d="M 0 0 
L 0 3.5 
" style="stroke: #000000; stroke-width: 0.8"/>
      </defs>
      <g>
       <use xlink:href="#md5968336b0" x="51.873747" y="210.24" style="stroke: #000000; stroke-width: 0.8"/>
      </g>
     </g>
     <g id="text_1">
      <!-- 0 -->
      <g transform="translate(49.373747 224.18375) scale(0.1 -0.1)">
       <defs>
        <path id="TimesNewRomanPSMT-30" d="M 231 2094 
Q 231 2819 450 3342 
Q 669 3866 1031 4122 
Q 1313 4325 1613 4325 
Q 2100 4325 2488 3828 
Q 2972 3213 2972 2159 
Q 2972 1422 2759 906 
Q 2547 391 2217 158 
Q 1888 -75 1581 -75 
Q 975 -75 572 641 
Q 231 1244 231 2094 
z
M 844 2016 
Q 844 1141 1059 588 
Q 1238 122 1591 122 
Q 1759 122 1940 273 
Q 2122 425 2216 781 
Q 2359 1319 2359 2297 
Q 2359 3022 2209 3506 
Q 2097 3866 1919 4016 
Q 1791 4119 1609 4119 
Q 1397 4119 1231 3928 
Q 1006 3669 925 3112 
Q 844 2556 844 2016 
z
" transform="scale(0.015625)"/>
       </defs>
       <use xlink:href="#TimesNewRomanPSMT-30"/>
      </g>
     </g>
    </g>
    <g id="xtick_2">
     <g id="line2d_2">
      <g>
       <use xlink:href="#md5968336b0" x="98.742185" y="210.24" style="stroke: #000000; stroke-width: 0.8"/>
      </g>
     </g>
     <g id="text_2">
      <!-- 50 -->
      <g transform="translate(93.742185 224.18375) scale(0.1 -0.1)">
       <defs>
        <path id="TimesNewRomanPSMT-35" d="M 2778 4238 
L 2534 3706 
L 1259 3706 
L 981 3138 
Q 1809 3016 2294 2522 
Q 2709 2097 2709 1522 
Q 2709 1188 2573 903 
Q 2438 619 2231 419 
Q 2025 219 1772 97 
Q 1413 -75 1034 -75 
Q 653 -75 479 54 
Q 306 184 306 341 
Q 306 428 378 495 
Q 450 563 559 563 
Q 641 563 702 538 
Q 763 513 909 409 
Q 1144 247 1384 247 
Q 1750 247 2026 523 
Q 2303 800 2303 1197 
Q 2303 1581 2056 1914 
Q 1809 2247 1375 2428 
Q 1034 2569 447 2591 
L 1259 4238 
L 2778 4238 
z
" transform="scale(0.015625)"/>
       </defs>
       <use xlink:href="#TimesNewRomanPSMT-35"/>
       <use xlink:href="#TimesNewRomanPSMT-30" x="50"/>
      </g>
     </g>
    </g>
    <g id="xtick_3">
     <g id="line2d_3">
      <g>
       <use xlink:href="#md5968336b0" x="145.610623" y="210.24" style="stroke: #000000; stroke-width: 0.8"/>
      </g>
     </g>
     <g id="text_3">
      <!-- 100 -->
      <g transform="translate(138.110623 224.18375) scale(0.1 -0.1)">
       <defs>
        <path id="TimesNewRomanPSMT-31" d="M 750 3822 
L 1781 4325 
L 1884 4325 
L 1884 747 
Q 1884 391 1914 303 
Q 1944 216 2037 169 
Q 2131 122 2419 116 
L 2419 0 
L 825 0 
L 825 116 
Q 1125 122 1212 167 
Q 1300 213 1334 289 
Q 1369 366 1369 747 
L 1369 3034 
Q 1369 3497 1338 3628 
Q 1316 3728 1258 3775 
Q 1200 3822 1119 3822 
Q 1003 3822 797 3725 
L 750 3822 
z
" transform="scale(0.015625)"/>
       </defs>
       <use xlink:href="#TimesNewRomanPSMT-31"/>
       <use xlink:href="#TimesNewRomanPSMT-30" x="50"/>
       <use xlink:href="#TimesNewRomanPSMT-30" x="100"/>
      </g>
     </g>
    </g>
    <g id="xtick_4">
     <g id="line2d_4">
      <g>
       <use xlink:href="#md5968336b0" x="192.479061" y="210.24" style="stroke: #000000; stroke-width: 0.8"/>
      </g>
     </g>
     <g id="text_4">
      <!-- 150 -->
      <g transform="translate(184.979061 224.18375) scale(0.1 -0.1)">
       <use xlink:href="#TimesNewRomanPSMT-31"/>
       <use xlink:href="#TimesNewRomanPSMT-35" x="50"/>
       <use xlink:href="#TimesNewRomanPSMT-30" x="100"/>
      </g>
     </g>
    </g>
    <g id="xtick_5">
     <g id="line2d_5">
      <g>
       <use xlink:href="#md5968336b0" x="239.347499" y="210.24" style="stroke: #000000; stroke-width: 0.8"/>
      </g>
     </g>
     <g id="text_5">
      <!-- 200 -->
      <g transform="translate(231.847499 224.18375) scale(0.1 -0.1)">
       <defs>
        <path id="TimesNewRomanPSMT-32" d="M 2934 816 
L 2638 0 
L 138 0 
L 138 116 
Q 1241 1122 1691 1759 
Q 2141 2397 2141 2925 
Q 2141 3328 1894 3587 
Q 1647 3847 1303 3847 
Q 991 3847 742 3664 
Q 494 3481 375 3128 
L 259 3128 
Q 338 3706 661 4015 
Q 984 4325 1469 4325 
Q 1984 4325 2329 3994 
Q 2675 3663 2675 3213 
Q 2675 2891 2525 2569 
Q 2294 2063 1775 1497 
Q 997 647 803 472 
L 1909 472 
Q 2247 472 2383 497 
Q 2519 522 2628 598 
Q 2738 675 2819 816 
L 2934 816 
z
" transform="scale(0.015625)"/>
       </defs>
       <use xlink:href="#TimesNewRomanPSMT-32"/>
       <use xlink:href="#TimesNewRomanPSMT-30" x="50"/>
       <use xlink:href="#TimesNewRomanPSMT-30" x="100"/>
      </g>
     </g>
    </g>
    <g id="text_6">
     <!-- times -->
     <g transform="translate(130.559651 237.266563) scale(0.1 -0.1)">
      <defs>
       <path id="TimesNewRomanPSMT-74" d="M 1031 3803 
L 1031 2863 
L 1700 2863 
L 1700 2644 
L 1031 2644 
L 1031 788 
Q 1031 509 1111 412 
Q 1191 316 1316 316 
Q 1419 316 1516 380 
Q 1613 444 1666 569 
L 1788 569 
Q 1678 263 1478 108 
Q 1278 -47 1066 -47 
Q 922 -47 784 33 
Q 647 113 581 261 
Q 516 409 516 719 
L 516 2644 
L 63 2644 
L 63 2747 
Q 234 2816 414 2980 
Q 594 3144 734 3369 
Q 806 3488 934 3803 
L 1031 3803 
z
" transform="scale(0.015625)"/>
       <path id="TimesNewRomanPSMT-69" d="M 928 4444 
Q 1059 4444 1151 4351 
Q 1244 4259 1244 4128 
Q 1244 3997 1151 3903 
Q 1059 3809 928 3809 
Q 797 3809 703 3903 
Q 609 3997 609 4128 
Q 609 4259 701 4351 
Q 794 4444 928 4444 
z
M 1188 2947 
L 1188 647 
Q 1188 378 1227 289 
Q 1266 200 1342 156 
Q 1419 113 1622 113 
L 1622 0 
L 231 0 
L 231 113 
Q 441 113 512 153 
Q 584 194 626 287 
Q 669 381 669 647 
L 669 1750 
Q 669 2216 641 2353 
Q 619 2453 572 2492 
Q 525 2531 444 2531 
Q 356 2531 231 2484 
L 188 2597 
L 1050 2947 
L 1188 2947 
z
" transform="scale(0.015625)"/>
       <path id="TimesNewRomanPSMT-6d" d="M 1050 2338 
Q 1363 2650 1419 2697 
Q 1559 2816 1721 2881 
Q 1884 2947 2044 2947 
Q 2313 2947 2506 2790 
Q 2700 2634 2766 2338 
Q 3088 2713 3309 2830 
Q 3531 2947 3766 2947 
Q 3994 2947 4170 2830 
Q 4347 2713 4450 2447 
Q 4519 2266 4519 1878 
L 4519 647 
Q 4519 378 4559 278 
Q 4591 209 4675 161 
Q 4759 113 4950 113 
L 4950 0 
L 3538 0 
L 3538 113 
L 3597 113 
Q 3781 113 3884 184 
Q 3956 234 3988 344 
Q 4000 397 4000 647 
L 4000 1878 
Q 4000 2228 3916 2372 
Q 3794 2572 3525 2572 
Q 3359 2572 3192 2489 
Q 3025 2406 2788 2181 
L 2781 2147 
L 2788 2013 
L 2788 647 
Q 2788 353 2820 281 
Q 2853 209 2943 161 
Q 3034 113 3253 113 
L 3253 0 
L 1806 0 
L 1806 113 
Q 2044 113 2133 169 
Q 2222 225 2256 338 
Q 2272 391 2272 647 
L 2272 1878 
Q 2272 2228 2169 2381 
Q 2031 2581 1784 2581 
Q 1616 2581 1450 2491 
Q 1191 2353 1050 2181 
L 1050 647 
Q 1050 366 1089 281 
Q 1128 197 1204 155 
Q 1281 113 1516 113 
L 1516 0 
L 100 0 
L 100 113 
Q 297 113 375 155 
Q 453 197 493 289 
Q 534 381 534 647 
L 534 1741 
Q 534 2213 506 2350 
Q 484 2453 437 2492 
Q 391 2531 309 2531 
Q 222 2531 100 2484 
L 53 2597 
L 916 2947 
L 1050 2947 
L 1050 2338 
z
" transform="scale(0.015625)"/>
       <path id="TimesNewRomanPSMT-65" d="M 681 1784 
Q 678 1147 991 784 
Q 1303 422 1725 422 
Q 2006 422 2214 576 
Q 2422 731 2563 1106 
L 2659 1044 
Q 2594 616 2278 264 
Q 1963 -88 1488 -88 
Q 972 -88 605 314 
Q 238 716 238 1394 
Q 238 2128 614 2539 
Q 991 2950 1559 2950 
Q 2041 2950 2350 2633 
Q 2659 2316 2659 1784 
L 681 1784 
z
M 681 1966 
L 2006 1966 
Q 1991 2241 1941 2353 
Q 1863 2528 1708 2628 
Q 1553 2728 1384 2728 
Q 1125 2728 920 2526 
Q 716 2325 681 1966 
z
" transform="scale(0.015625)"/>
       <path id="TimesNewRomanPSMT-73" d="M 2050 2947 
L 2050 1972 
L 1947 1972 
Q 1828 2431 1642 2597 
Q 1456 2763 1169 2763 
Q 950 2763 815 2647 
Q 681 2531 681 2391 
Q 681 2216 781 2091 
Q 878 1963 1175 1819 
L 1631 1597 
Q 2266 1288 2266 781 
Q 2266 391 1970 151 
Q 1675 -88 1309 -88 
Q 1047 -88 709 6 
Q 606 38 541 38 
Q 469 38 428 -44 
L 325 -44 
L 325 978 
L 428 978 
Q 516 541 762 319 
Q 1009 97 1316 97 
Q 1531 97 1667 223 
Q 1803 350 1803 528 
Q 1803 744 1651 891 
Q 1500 1038 1047 1263 
Q 594 1488 453 1669 
Q 313 1847 313 2119 
Q 313 2472 555 2709 
Q 797 2947 1181 2947 
Q 1350 2947 1591 2875 
Q 1750 2828 1803 2828 
Q 1853 2828 1881 2850 
Q 1909 2872 1947 2947 
L 2050 2947 
z
" transform="scale(0.015625)"/>
      </defs>
      <use xlink:href="#TimesNewRomanPSMT-74"/>
      <use xlink:href="#TimesNewRomanPSMT-69" x="27.783203"/>
      <use xlink:href="#TimesNewRomanPSMT-6d" x="55.566406"/>
      <use xlink:href="#TimesNewRomanPSMT-65" x="133.349609"/>
      <use xlink:href="#TimesNewRomanPSMT-73" x="177.734375"/>
     </g>
    </g>
   </g>
   <g id="matplotlib.axis_2">
    <g id="ytick_1">
     <g id="line2d_6">
      <defs>
       <path id="m9d14a4c7f6" d="M 0 0 
L -3.5 0 
" style="stroke: #000000; stroke-width: 0.8"/>
      </defs>
      <g>
       <use xlink:href="#m9d14a4c7f6" x="42.921875" y="202.486598" style="stroke: #000000; stroke-width: 0.8"/>
      </g>
     </g>
     <g id="text_7">
      <!-- −20 -->
      <g transform="translate(20.282812 205.958473) scale(0.1 -0.1)">
       <defs>
        <path id="TimesNewRomanPSMT-2212" d="M 3484 2000 
L 116 2000 
L 116 2256 
L 3484 2256 
L 3484 2000 
z
" transform="scale(0.015625)"/>
       </defs>
       <use xlink:href="#TimesNewRomanPSMT-2212"/>
       <use xlink:href="#TimesNewRomanPSMT-32" x="56.396484"/>
       <use xlink:href="#TimesNewRomanPSMT-30" x="106.396484"/>
      </g>
     </g>
    </g>
    <g id="ytick_2">
     <g id="line2d_7">
      <g>
       <use xlink:href="#m9d14a4c7f6" x="42.921875" y="179.462386" style="stroke: #000000; stroke-width: 0.8"/>
      </g>
     </g>
     <g id="text_8">
      <!-- −15 -->
      <g transform="translate(20.282812 182.934261) scale(0.1 -0.1)">
       <use xlink:href="#TimesNewRomanPSMT-2212"/>
       <use xlink:href="#TimesNewRomanPSMT-31" x="56.396484"/>
       <use xlink:href="#TimesNewRomanPSMT-35" x="106.396484"/>
      </g>
     </g>
    </g>
    <g id="ytick_3">
     <g id="line2d_8">
      <g>
       <use xlink:href="#m9d14a4c7f6" x="42.921875" y="156.438175" style="stroke: #000000; stroke-width: 0.8"/>
      </g>
     </g>
     <g id="text_9">
      <!-- −10 -->
      <g transform="translate(20.282812 159.91005) scale(0.1 -0.1)">
       <use xlink:href="#TimesNewRomanPSMT-2212"/>
       <use xlink:href="#TimesNewRomanPSMT-31" x="56.396484"/>
       <use xlink:href="#TimesNewRomanPSMT-30" x="106.396484"/>
      </g>
     </g>
    </g>
    <g id="ytick_4">
     <g id="line2d_9">
      <g>
       <use xlink:href="#m9d14a4c7f6" x="42.921875" y="133.413964" style="stroke: #000000; stroke-width: 0.8"/>
      </g>
     </g>
     <g id="text_10">
      <!-- −5 -->
      <g transform="translate(25.282812 136.885839) scale(0.1 -0.1)">
       <use xlink:href="#TimesNewRomanPSMT-2212"/>
       <use xlink:href="#TimesNewRomanPSMT-35" x="56.396484"/>
      </g>
     </g>
    </g>
    <g id="ytick_5">
     <g id="line2d_10">
      <g>
       <use xlink:href="#m9d14a4c7f6" x="42.921875" y="110.389753" style="stroke: #000000; stroke-width: 0.8"/>
      </g>
     </g>
     <g id="text_11">
      <!-- 0 -->
      <g transform="translate(30.921875 113.861628) scale(0.1 -0.1)">
       <use xlink:href="#TimesNewRomanPSMT-30"/>
      </g>
     </g>
    </g>
    <g id="ytick_6">
     <g id="line2d_11">
      <g>
       <use xlink:href="#m9d14a4c7f6" x="42.921875" y="87.365542" style="stroke: #000000; stroke-width: 0.8"/>
      </g>
     </g>
     <g id="text_12">
      <!-- 5 -->
      <g transform="translate(30.921875 90.837417) scale(0.1 -0.1)">
       <use xlink:href="#TimesNewRomanPSMT-35"/>
      </g>
     </g>
    </g>
    <g id="ytick_7">
     <g id="line2d_12">
      <g>
       <use xlink:href="#m9d14a4c7f6" x="42.921875" y="64.34133" style="stroke: #000000; stroke-width: 0.8"/>
      </g>
     </g>
     <g id="text_13">
      <!-- 10 -->
      <g transform="translate(25.921875 67.813205) scale(0.1 -0.1)">
       <use xlink:href="#TimesNewRomanPSMT-31"/>
       <use xlink:href="#TimesNewRomanPSMT-30" x="50"/>
      </g>
     </g>
    </g>
    <g id="text_14">
     <!-- values -->
     <g transform="translate(14.14375 139.854219) rotate(-90) scale(0.1 -0.1)">
      <defs>
       <path id="TimesNewRomanPSMT-76" d="M 53 2863 
L 1400 2863 
L 1400 2747 
L 1313 2747 
Q 1191 2747 1127 2687 
Q 1063 2628 1063 2528 
Q 1063 2419 1128 2269 
L 1794 688 
L 2463 2328 
Q 2534 2503 2534 2594 
Q 2534 2638 2509 2666 
Q 2475 2713 2422 2730 
Q 2369 2747 2206 2747 
L 2206 2863 
L 3141 2863 
L 3141 2747 
Q 2978 2734 2916 2681 
Q 2806 2588 2719 2369 
L 1703 -88 
L 1575 -88 
L 553 2328 
Q 484 2497 421 2570 
Q 359 2644 263 2694 
Q 209 2722 53 2747 
L 53 2863 
z
" transform="scale(0.015625)"/>
       <path id="TimesNewRomanPSMT-61" d="M 1822 413 
Q 1381 72 1269 19 
Q 1100 -59 909 -59 
Q 613 -59 420 144 
Q 228 347 228 678 
Q 228 888 322 1041 
Q 450 1253 767 1440 
Q 1084 1628 1822 1897 
L 1822 2009 
Q 1822 2438 1686 2597 
Q 1550 2756 1291 2756 
Q 1094 2756 978 2650 
Q 859 2544 859 2406 
L 866 2225 
Q 866 2081 792 2003 
Q 719 1925 600 1925 
Q 484 1925 411 2006 
Q 338 2088 338 2228 
Q 338 2497 613 2722 
Q 888 2947 1384 2947 
Q 1766 2947 2009 2819 
Q 2194 2722 2281 2516 
Q 2338 2381 2338 1966 
L 2338 994 
Q 2338 584 2353 492 
Q 2369 400 2405 369 
Q 2441 338 2488 338 
Q 2538 338 2575 359 
Q 2641 400 2828 588 
L 2828 413 
Q 2478 -56 2159 -56 
Q 2006 -56 1915 50 
Q 1825 156 1822 413 
z
M 1822 616 
L 1822 1706 
Q 1350 1519 1213 1441 
Q 966 1303 859 1153 
Q 753 1003 753 825 
Q 753 600 887 451 
Q 1022 303 1197 303 
Q 1434 303 1822 616 
z
" transform="scale(0.015625)"/>
       <path id="TimesNewRomanPSMT-6c" d="M 1184 4444 
L 1184 647 
Q 1184 378 1223 290 
Q 1263 203 1344 158 
Q 1425 113 1647 113 
L 1647 0 
L 244 0 
L 244 113 
Q 441 113 512 153 
Q 584 194 625 287 
Q 666 381 666 647 
L 666 3247 
Q 666 3731 644 3842 
Q 622 3953 573 3993 
Q 525 4034 450 4034 
Q 369 4034 244 3984 
L 191 4094 
L 1044 4444 
L 1184 4444 
z
" transform="scale(0.015625)"/>
       <path id="TimesNewRomanPSMT-75" d="M 2709 2863 
L 2709 1128 
Q 2709 631 2732 520 
Q 2756 409 2807 365 
Q 2859 322 2928 322 
Q 3025 322 3147 375 
L 3191 266 
L 2334 -88 
L 2194 -88 
L 2194 519 
Q 1825 119 1631 15 
Q 1438 -88 1222 -88 
Q 981 -88 804 51 
Q 628 191 559 409 
Q 491 628 491 1028 
L 491 2306 
Q 491 2509 447 2587 
Q 403 2666 317 2708 
Q 231 2750 6 2747 
L 6 2863 
L 1009 2863 
L 1009 947 
Q 1009 547 1148 422 
Q 1288 297 1484 297 
Q 1619 297 1789 381 
Q 1959 466 2194 703 
L 2194 2325 
Q 2194 2569 2105 2655 
Q 2016 2741 1734 2747 
L 1734 2863 
L 2709 2863 
z
" transform="scale(0.015625)"/>
      </defs>
      <use xlink:href="#TimesNewRomanPSMT-76"/>
      <use xlink:href="#TimesNewRomanPSMT-61" x="50"/>
      <use xlink:href="#TimesNewRomanPSMT-6c" x="94.384766"/>
      <use xlink:href="#TimesNewRomanPSMT-75" x="122.167969"/>
      <use xlink:href="#TimesNewRomanPSMT-65" x="172.167969"/>
      <use xlink:href="#TimesNewRomanPSMT-73" x="216.552734"/>
     </g>
    </g>
   </g>
   <g id="line2d_13">
    <path d="M 51.873747 51.80695 
L 52.811115 58.189262 
L 53.748484 67.191725 
L 54.685853 74.881815 
L 55.623222 79.951744 
L 56.56059 82.898844 
L 57.497959 84.699339 
L 58.435328 85.353228 
L 59.372697 84.699339 
L 60.310065 82.571905 
L 61.247434 72.261664 
L 62.184803 96.317358 
L 63.122172 139.681155 
L 64.059541 173.554375 
L 64.996909 188.768772 
L 65.934278 199.405956 
L 66.871647 202.68 
L 67.809016 193.516366 
L 68.746384 166.518176 
L 69.683753 135.587448 
L 70.621122 89.281157 
L 71.558491 76.35536 
L 72.495859 67.518664 
L 73.433228 60.809413 
L 74.370597 58.189262 
L 75.307966 64.083464 
L 76.245334 72.754371 
L 77.182703 79.951744 
L 78.120072 84.372389 
L 79.057441 87.153723 
L 79.994809 88.46149 
L 80.932178 88.627268 
L 81.869547 89.115379 
L 82.806916 87.31949 
L 83.744284 76.189593 
L 84.681653 79.136683 
L 85.619022 137.714887 
L 86.556391 160.462803 
L 87.49376 156.369102 
L 88.431128 167.660176 
L 89.368497 139.188438 
L 90.305866 94.843802 
L 91.243235 91.081652 
L 92.180603 80.610239 
L 93.117972 71.934715 
L 94.055341 70.299998 
L 94.99271 62.282969 
L 95.930078 61.956019 
L 96.867447 63.263797 
L 97.804816 68.499503 
L 98.742185 75.042987 
L 99.679553 81.591067 
L 100.616922 86.826773 
L 101.554291 88.78844 
L 102.49166 90.261985 
L 103.429028 91.081652 
L 104.366397 90.427763 
L 105.303766 88.78844 
L 106.241135 77.170421 
L 107.178503 68.172553 
L 108.115872 75.042987 
L 109.053241 79.790572 
L 109.99061 77.828916 
L 110.927979 85.353228 
L 111.865347 79.297855 
L 112.802716 76.189593 
L 113.740085 68.826442 
L 114.677454 66.210897 
L 115.614822 63.917686 
L 116.552191 59.174696 
L 117.48956 54.100162 
L 118.426929 52.299667 
L 119.364297 54.261334 
L 120.301666 57.862323 
L 121.239035 63.917686 
L 122.176404 69.153392 
L 123.113772 77.336199 
L 124.051141 82.079188 
L 124.98851 84.372389 
L 125.925879 85.192056 
L 126.863247 84.865106 
L 127.800616 82.410734 
L 128.737985 76.843482 
L 129.675354 71.280826 
L 130.612722 79.297855 
L 131.550091 92.716368 
L 132.48746 89.773874 
L 133.424829 105.480993 
L 134.362198 108.589255 
L 135.299566 100.572226 
L 136.236935 97.137014 
L 137.174304 87.31949 
L 138.111673 79.297855 
L 139.049041 68.499503 
L 139.98641 59.989757 
L 140.923779 58.189262 
L 141.861148 60.316696 
" clip-path="url(#pdd1c3e1c26)" style="fill: none; stroke: #21266e; stroke-width: 0.9; stroke-linecap: square"/>
   </g>
   <g id="line2d_14">
    <path d="M 141.861148 60.316696 
L 142.798516 63.098019 
L 143.735885 69.973048 
L 144.673254 77.170421 
L 145.610623 83.225784 
L 146.547991 86.007117 
L 147.48536 88.134551 
L 148.422729 88.46149 
L 149.360098 88.300329 
L 150.297466 86.987945 
L 151.234835 74.554866 
L 152.172204 67.679847 
L 153.109573 118.733728 
L 154.046941 170.114557 
L 154.98431 193.189425 
L 155.921679 201.206452 
L 156.859048 200.059844 
L 157.796417 185.006618 
L 158.733785 160.789747 
L 159.671154 136.899832 
L 160.608523 102.860831 
L 161.545892 77.828916 
L 162.48326 66.045119 
L 163.420629 61.297524 
L 164.357998 62.282969 
L 165.295367 66.372069 
L 166.232735 71.934715 
L 167.170104 77.49736 
L 168.107473 83.879672 
L 169.044842 86.661006 
L 169.98221 89.281157 
L 170.919579 89.773874 
L 171.856948 89.935046 
L 172.794317 88.46149 
L 173.731685 80.610239 
L 174.669054 69.31917 
L 175.606423 76.35536 
L 176.543792 89.281157 
L 177.48116 86.987945 
L 178.418529 84.04545 
L 179.355898 81.591067 
L 180.293267 71.773543 
L 181.230636 69.480331 
L 182.168004 72.915553 
L 183.105373 69.646109 
L 184.042742 60.970585 
L 184.980111 56.388767 
L 185.917479 55.900656 
L 186.854848 59.501646 
L 187.792217 64.571574 
L 188.729586 70.953887 
L 189.666954 77.663138 
L 190.604323 82.571905 
L 191.541692 85.518995 
L 192.479061 86.987945 
L 193.416429 87.973379 
L 194.353798 87.807612 
L 195.291167 87.480662 
L 196.228536 80.610239 
L 197.165904 69.973048 
L 198.103273 70.792715 
L 199.040642 81.264128 
L 199.978011 83.225784 
L 200.915379 77.009249 
L 201.852748 77.170421 
L 202.790117 80.444461 
L 203.727486 75.042987 
L 204.664855 69.480331 
L 205.602223 68.665281 
L 206.539592 65.225463 
L 207.476961 56.061818 
L 208.41433 54.592879 
L 209.351698 57.208434 
L 210.289067 62.117191 
L 211.226436 68.172553 
L 212.163805 76.35536 
L 213.101173 82.079188 
L 214.038542 85.192056 
L 214.975911 88.300329 
L 215.91328 89.115379 
L 216.850648 89.281157 
L 217.788017 87.807612 
L 218.725386 81.4253 
L 219.662755 68.499503 
L 220.600123 72.261664 
L 221.537492 78.482805 
L 222.474861 76.516532 
L 223.41223 80.610239 
L 224.349598 77.170421 
L 225.286967 76.843482 
L 226.224336 74.062148 
L 227.161705 66.045119 
L 228.099074 65.391231 
L 229.036442 61.956019 
L 229.973811 54.261334 
L 230.91118 51.48 
" clip-path="url(#pdd1c3e1c26)" style="fill: none; stroke: #21266e; stroke-width: 0.9; stroke-linecap: square"/>
   </g>
   <g id="line2d_15">
    <path d="M 141.861148 58.621752 
L 142.798516 60.304039 
L 143.735885 61.172614 
L 144.673254 62.109603 
L 145.610623 62.80877 
L 146.547991 63.536224 
L 147.48536 63.744884 
L 148.422729 62.687745 
L 149.360098 65.047483 
L 150.297466 77.233903 
L 151.234835 92.862644 
L 152.172204 104.518633 
L 153.109573 109.333357 
L 154.046941 118.296436 
L 154.98431 107.636182 
L 155.921679 100.344411 
L 156.859048 93.690767 
L 157.796417 87.728305 
L 158.733785 82.988788 
L 159.671154 80.93266 
L 160.608523 81.654873 
L 161.545892 83.358166 
L 162.48326 79.902813 
L 163.420629 71.346186 
L 164.357998 64.74325 
L 165.295367 63.524629 
L 166.232735 64.051336 
L 167.170104 64.860605 
L 168.107473 66.186228 
L 169.044842 67.594237 
L 169.98221 68.303673 
L 170.919579 66.900029 
L 171.856948 64.407912 
L 172.794317 72.209431 
L 173.731685 84.783987 
L 174.669054 85.420369 
L 175.606423 87.164349 
L 176.543792 89.772342 
L 177.48116 83.435694 
L 178.418529 83.240089 
L 179.355898 83.467644 
L 180.293267 81.794407 
L 181.230636 79.873979 
L 182.168004 79.695353 
L 183.105373 81.341105 
L 184.042742 82.872848 
L 184.980111 78.781159 
L 185.917479 69.848208 
L 186.854848 63.347569 
L 187.792217 62.553238 
L 188.729586 63.201088 
L 189.666954 64.065394 
L 190.604323 65.269627 
L 191.541692 66.234089 
L 192.479061 66.016986 
L 193.416429 64.065155 
L 194.353798 65.743712 
L 195.291167 78.843282 
L 196.228536 90.584446 
L 197.165904 90.757022 
L 198.103273 95.16715 
L 199.040642 90.807042 
L 199.978011 84.753988 
L 200.915379 84.20673 
L 201.852748 83.600371 
L 202.790117 80.972527 
L 203.727486 78.655542 
L 204.664855 78.537562 
L 205.602223 80.295759 
L 206.539592 81.366325 
L 207.476961 76.634555 
L 208.41433 68.698939 
L 209.351698 65.09844 
L 210.289067 65.198356 
L 211.226436 65.581401 
L 212.163805 66.234837 
L 213.101173 67.1501 
L 214.038542 67.826791 
L 214.975911 67.630155 
L 215.91328 66.010567 
L 216.850648 68.080043 
L 217.788017 78.381094 
L 218.725386 85.169716 
L 219.662755 83.676895 
L 220.600123 90.479627 
L 221.537492 85.010108 
L 222.474861 82.090365 
L 223.41223 82.148076 
L 224.349598 81.501187 
L 225.286967 78.957066 
L 226.224336 76.978648 
L 227.161705 77.010511 
L 228.099074 78.733748 
L 229.036442 78.857736 
L 229.973811 73.219841 
L 230.91118 66.175503 
" clip-path="url(#pdd1c3e1c26)" style="fill: none; stroke: #d70005; stroke-width: 0.9; stroke-linecap: square"/>
   </g>
   <g id="patch_3">
    <path d="M 42.921875 210.24 
L 42.921875 43.92 
" style="fill: none; stroke: #000000; stroke-width: 0.8; stroke-linejoin: miter; stroke-linecap: square"/>
   </g>
   <g id="patch_4">
    <path d="M 239.863051 210.24 
L 239.863051 43.92 
" style="fill: none; stroke: #000000; stroke-width: 0.8; stroke-linejoin: miter; stroke-linecap: square"/>
   </g>
   <g id="patch_5">
    <path d="M 42.921875 210.24 
L 239.863051 210.24 
" style="fill: none; stroke: #000000; stroke-width: 0.8; stroke-linejoin: miter; stroke-linecap: square"/>
   </g>
   <g id="patch_6">
    <path d="M 42.921875 43.92 
L 239.863051 43.92 
" style="fill: none; stroke: #000000; stroke-width: 0.8; stroke-linejoin: miter; stroke-linecap: square"/>
   </g>
   <g id="text_15">
    <!-- lstm_short model -->
    <g transform="translate(99.559338 37.92) scale(0.12 -0.12)">
     <defs>
      <path id="TimesNewRomanPSMT-5f" d="M 3256 -1381 
L -53 -1381 
L -53 -1119 
L 3256 -1119 
L 3256 -1381 
z
" transform="scale(0.015625)"/>
      <path id="TimesNewRomanPSMT-68" d="M 1041 4444 
L 1041 2350 
Q 1388 2731 1591 2839 
Q 1794 2947 1997 2947 
Q 2241 2947 2416 2812 
Q 2591 2678 2675 2391 
Q 2734 2191 2734 1659 
L 2734 647 
Q 2734 375 2778 275 
Q 2809 200 2884 156 
Q 2959 113 3159 113 
L 3159 0 
L 1753 0 
L 1753 113 
L 1819 113 
Q 2019 113 2097 173 
Q 2175 234 2206 353 
Q 2216 403 2216 647 
L 2216 1659 
Q 2216 2128 2167 2275 
Q 2119 2422 2012 2495 
Q 1906 2569 1756 2569 
Q 1603 2569 1437 2487 
Q 1272 2406 1041 2159 
L 1041 647 
Q 1041 353 1073 281 
Q 1106 209 1195 161 
Q 1284 113 1503 113 
L 1503 0 
L 84 0 
L 84 113 
Q 275 113 384 172 
Q 447 203 484 290 
Q 522 378 522 647 
L 522 3238 
Q 522 3728 498 3840 
Q 475 3953 426 3993 
Q 378 4034 297 4034 
Q 231 4034 84 3984 
L 41 4094 
L 897 4444 
L 1041 4444 
z
" transform="scale(0.015625)"/>
      <path id="TimesNewRomanPSMT-6f" d="M 1600 2947 
Q 2250 2947 2644 2453 
Q 2978 2031 2978 1484 
Q 2978 1100 2793 706 
Q 2609 313 2286 112 
Q 1963 -88 1566 -88 
Q 919 -88 538 428 
Q 216 863 216 1403 
Q 216 1797 411 2186 
Q 606 2575 925 2761 
Q 1244 2947 1600 2947 
z
M 1503 2744 
Q 1338 2744 1170 2645 
Q 1003 2547 900 2300 
Q 797 2053 797 1666 
Q 797 1041 1045 587 
Q 1294 134 1700 134 
Q 2003 134 2200 384 
Q 2397 634 2397 1244 
Q 2397 2006 2069 2444 
Q 1847 2744 1503 2744 
z
" transform="scale(0.015625)"/>
      <path id="TimesNewRomanPSMT-72" d="M 1038 2947 
L 1038 2303 
Q 1397 2947 1775 2947 
Q 1947 2947 2059 2842 
Q 2172 2738 2172 2600 
Q 2172 2478 2090 2393 
Q 2009 2309 1897 2309 
Q 1788 2309 1652 2417 
Q 1516 2525 1450 2525 
Q 1394 2525 1328 2463 
Q 1188 2334 1038 2041 
L 1038 669 
Q 1038 431 1097 309 
Q 1138 225 1241 169 
Q 1344 113 1538 113 
L 1538 0 
L 72 0 
L 72 113 
Q 291 113 397 181 
Q 475 231 506 341 
Q 522 394 522 644 
L 522 1753 
Q 522 2253 501 2348 
Q 481 2444 426 2487 
Q 372 2531 291 2531 
Q 194 2531 72 2484 
L 41 2597 
L 906 2947 
L 1038 2947 
z
" transform="scale(0.015625)"/>
      <path id="TimesNewRomanPSMT-20" transform="scale(0.015625)"/>
      <path id="TimesNewRomanPSMT-64" d="M 2222 322 
Q 2013 103 1813 7 
Q 1613 -88 1381 -88 
Q 913 -88 563 304 
Q 213 697 213 1313 
Q 213 1928 600 2439 
Q 988 2950 1597 2950 
Q 1975 2950 2222 2709 
L 2222 3238 
Q 2222 3728 2198 3840 
Q 2175 3953 2125 3993 
Q 2075 4034 2000 4034 
Q 1919 4034 1784 3984 
L 1744 4094 
L 2597 4444 
L 2738 4444 
L 2738 1134 
Q 2738 631 2761 520 
Q 2784 409 2836 365 
Q 2888 322 2956 322 
Q 3041 322 3181 375 
L 3216 266 
L 2366 -88 
L 2222 -88 
L 2222 322 
z
M 2222 541 
L 2222 2016 
Q 2203 2228 2109 2403 
Q 2016 2578 1861 2667 
Q 1706 2756 1559 2756 
Q 1284 2756 1069 2509 
Q 784 2184 784 1559 
Q 784 928 1059 592 
Q 1334 256 1672 256 
Q 1956 256 2222 541 
z
" transform="scale(0.015625)"/>
     </defs>
     <use xlink:href="#TimesNewRomanPSMT-6c"/>
     <use xlink:href="#TimesNewRomanPSMT-73" x="27.783203"/>
     <use xlink:href="#TimesNewRomanPSMT-74" x="66.699219"/>
     <use xlink:href="#TimesNewRomanPSMT-6d" x="94.482422"/>
     <use xlink:href="#TimesNewRomanPSMT-5f" x="172.265625"/>
     <use xlink:href="#TimesNewRomanPSMT-73" x="222.265625"/>
     <use xlink:href="#TimesNewRomanPSMT-68" x="261.181641"/>
     <use xlink:href="#TimesNewRomanPSMT-6f" x="311.181641"/>
     <use xlink:href="#TimesNewRomanPSMT-72" x="361.181641"/>
     <use xlink:href="#TimesNewRomanPSMT-74" x="394.482422"/>
     <use xlink:href="#TimesNewRomanPSMT-20" x="422.265625"/>
     <use xlink:href="#TimesNewRomanPSMT-6d" x="447.265625"/>
     <use xlink:href="#TimesNewRomanPSMT-6f" x="525.048828"/>
     <use xlink:href="#TimesNewRomanPSMT-64" x="575.048828"/>
     <use xlink:href="#TimesNewRomanPSMT-65" x="625.048828"/>
     <use xlink:href="#TimesNewRomanPSMT-6c" x="669.433594"/>
    </g>
   </g>
   <g id="legend_1">
    <g id="patch_7">
     <path d="M 48.521875 206.24 
L 117.915625 206.24 
Q 119.515625 206.24 119.515625 204.64 
L 119.515625 182.8175 
Q 119.515625 181.2175 117.915625 181.2175 
L 48.521875 181.2175 
Q 46.921875 181.2175 46.921875 182.8175 
L 46.921875 204.64 
Q 46.921875 206.24 48.521875 206.24 
z
" style="fill: #ffffff; opacity: 0.8; stroke: #cccccc; stroke-linejoin: miter"/>
    </g>
    <g id="line2d_16">
     <path d="M 50.121875 187.2175 
L 58.121875 187.2175 
L 66.121875 187.2175 
" style="fill: none; stroke: #21266e; stroke-width: 0.9; stroke-linecap: square"/>
    </g>
    <g id="text_16">
     <!-- Ground Truth -->
     <g transform="translate(72.521875 190.0175) scale(0.08 -0.08)">
      <defs>
       <path id="TimesNewRomanPSMT-47" d="M 3928 4334 
L 4038 2997 
L 3928 2997 
Q 3763 3497 3500 3750 
Q 3122 4116 2528 4116 
Q 1719 4116 1297 3475 
Q 944 2934 944 2188 
Q 944 1581 1178 1081 
Q 1413 581 1792 348 
Q 2172 116 2572 116 
Q 2806 116 3025 175 
Q 3244 234 3447 350 
L 3447 1575 
Q 3447 1894 3398 1992 
Q 3350 2091 3248 2142 
Q 3147 2194 2891 2194 
L 2891 2313 
L 4531 2313 
L 4531 2194 
L 4453 2194 
Q 4209 2194 4119 2031 
Q 4056 1916 4056 1575 
L 4056 278 
Q 3697 84 3347 -6 
Q 2997 -97 2569 -97 
Q 1341 -97 703 691 
Q 225 1281 225 2053 
Q 225 2613 494 3125 
Q 813 3734 1369 4063 
Q 1834 4334 2469 4334 
Q 2700 4334 2889 4296 
Q 3078 4259 3425 4131 
Q 3600 4066 3659 4066 
Q 3719 4066 3761 4120 
Q 3803 4175 3813 4334 
L 3928 4334 
z
" transform="scale(0.015625)"/>
       <path id="TimesNewRomanPSMT-6e" d="M 1034 2341 
Q 1538 2947 1994 2947 
Q 2228 2947 2397 2830 
Q 2566 2713 2666 2444 
Q 2734 2256 2734 1869 
L 2734 647 
Q 2734 375 2778 278 
Q 2813 200 2889 156 
Q 2966 113 3172 113 
L 3172 0 
L 1756 0 
L 1756 113 
L 1816 113 
Q 2016 113 2095 173 
Q 2175 234 2206 353 
Q 2219 400 2219 647 
L 2219 1819 
Q 2219 2209 2117 2386 
Q 2016 2563 1775 2563 
Q 1403 2563 1034 2156 
L 1034 647 
Q 1034 356 1069 288 
Q 1113 197 1189 155 
Q 1266 113 1500 113 
L 1500 0 
L 84 0 
L 84 113 
L 147 113 
Q 366 113 442 223 
Q 519 334 519 647 
L 519 1709 
Q 519 2225 495 2337 
Q 472 2450 423 2490 
Q 375 2531 294 2531 
Q 206 2531 84 2484 
L 38 2597 
L 900 2947 
L 1034 2947 
L 1034 2341 
z
" transform="scale(0.015625)"/>
       <path id="TimesNewRomanPSMT-54" d="M 3703 4238 
L 3750 3244 
L 3631 3244 
Q 3597 3506 3538 3619 
Q 3441 3800 3280 3886 
Q 3119 3972 2856 3972 
L 2259 3972 
L 2259 734 
Q 2259 344 2344 247 
Q 2463 116 2709 116 
L 2856 116 
L 2856 0 
L 1059 0 
L 1059 116 
L 1209 116 
Q 1478 116 1591 278 
Q 1659 378 1659 734 
L 1659 3972 
L 1150 3972 
Q 853 3972 728 3928 
Q 566 3869 450 3700 
Q 334 3531 313 3244 
L 194 3244 
L 244 4238 
L 3703 4238 
z
" transform="scale(0.015625)"/>
      </defs>
      <use xlink:href="#TimesNewRomanPSMT-47"/>
      <use xlink:href="#TimesNewRomanPSMT-72" x="72.216797"/>
      <use xlink:href="#TimesNewRomanPSMT-6f" x="105.517578"/>
      <use xlink:href="#TimesNewRomanPSMT-75" x="155.517578"/>
      <use xlink:href="#TimesNewRomanPSMT-6e" x="205.517578"/>
      <use xlink:href="#TimesNewRomanPSMT-64" x="255.517578"/>
      <use xlink:href="#TimesNewRomanPSMT-20" x="305.517578"/>
      <use xlink:href="#TimesNewRomanPSMT-54" x="328.767578"/>
      <use xlink:href="#TimesNewRomanPSMT-72" x="386.351562"/>
      <use xlink:href="#TimesNewRomanPSMT-75" x="419.652344"/>
      <use xlink:href="#TimesNewRomanPSMT-74" x="469.652344"/>
      <use xlink:href="#TimesNewRomanPSMT-68" x="497.435547"/>
     </g>
    </g>
    <g id="line2d_17">
     <path d="M 50.121875 198.52875 
L 58.121875 198.52875 
L 66.121875 198.52875 
" style="fill: none; stroke: #d70005; stroke-width: 0.9; stroke-linecap: square"/>
    </g>
    <g id="text_17">
     <!-- prediction -->
     <g transform="translate(72.521875 201.32875) scale(0.08 -0.08)">
      <defs>
       <path id="TimesNewRomanPSMT-70" d="M -6 2578 
L 875 2934 
L 994 2934 
L 994 2266 
Q 1216 2644 1439 2795 
Q 1663 2947 1909 2947 
Q 2341 2947 2628 2609 
Q 2981 2197 2981 1534 
Q 2981 794 2556 309 
Q 2206 -88 1675 -88 
Q 1444 -88 1275 -22 
Q 1150 25 994 166 
L 994 -706 
Q 994 -1000 1030 -1079 
Q 1066 -1159 1155 -1206 
Q 1244 -1253 1478 -1253 
L 1478 -1369 
L -22 -1369 
L -22 -1253 
L 56 -1253 
Q 228 -1256 350 -1188 
Q 409 -1153 442 -1076 
Q 475 -1000 475 -688 
L 475 2019 
Q 475 2297 450 2372 
Q 425 2447 370 2484 
Q 316 2522 222 2522 
Q 147 2522 31 2478 
L -6 2578 
z
M 994 2081 
L 994 1013 
Q 994 666 1022 556 
Q 1066 375 1236 237 
Q 1406 100 1666 100 
Q 1978 100 2172 344 
Q 2425 663 2425 1241 
Q 2425 1897 2138 2250 
Q 1938 2494 1663 2494 
Q 1513 2494 1366 2419 
Q 1253 2363 994 2081 
z
" transform="scale(0.015625)"/>
       <path id="TimesNewRomanPSMT-63" d="M 2631 1088 
Q 2516 522 2178 217 
Q 1841 -88 1431 -88 
Q 944 -88 581 321 
Q 219 731 219 1428 
Q 219 2103 620 2525 
Q 1022 2947 1584 2947 
Q 2006 2947 2278 2723 
Q 2550 2500 2550 2259 
Q 2550 2141 2473 2067 
Q 2397 1994 2259 1994 
Q 2075 1994 1981 2113 
Q 1928 2178 1911 2362 
Q 1894 2547 1784 2644 
Q 1675 2738 1481 2738 
Q 1169 2738 978 2506 
Q 725 2200 725 1697 
Q 725 1184 976 792 
Q 1228 400 1656 400 
Q 1963 400 2206 609 
Q 2378 753 2541 1131 
L 2631 1088 
z
" transform="scale(0.015625)"/>
      </defs>
      <use xlink:href="#TimesNewRomanPSMT-70"/>
      <use xlink:href="#TimesNewRomanPSMT-72" x="50"/>
      <use xlink:href="#TimesNewRomanPSMT-65" x="83.300781"/>
      <use xlink:href="#TimesNewRomanPSMT-64" x="127.685547"/>
      <use xlink:href="#TimesNewRomanPSMT-69" x="177.685547"/>
      <use xlink:href="#TimesNewRomanPSMT-63" x="205.46875"/>
      <use xlink:href="#TimesNewRomanPSMT-74" x="249.853516"/>
      <use xlink:href="#TimesNewRomanPSMT-69" x="277.636719"/>
      <use xlink:href="#TimesNewRomanPSMT-6f" x="305.419922"/>
      <use xlink:href="#TimesNewRomanPSMT-6e" x="355.419922"/>
     </g>
    </g>
   </g>
  </g>
  <g id="axes_2">
   <g id="patch_8">
    <path d="M 279.251287 210.24 
L 476.192463 210.24 
L 476.192463 43.92 
L 279.251287 43.92 
z
" style="fill: #ffffff"/>
   </g>
   <g id="matplotlib.axis_3">
    <g id="xtick_6">
     <g id="line2d_18">
      <g>
       <use xlink:href="#md5968336b0" x="288.203158" y="210.24" style="stroke: #000000; stroke-width: 0.8"/>
      </g>
     </g>
     <g id="text_18">
      <!-- 0 -->
      <g transform="translate(285.703158 224.18375) scale(0.1 -0.1)">
       <use xlink:href="#TimesNewRomanPSMT-30"/>
      </g>
     </g>
    </g>
    <g id="xtick_7">
     <g id="line2d_19">
      <g>
       <use xlink:href="#md5968336b0" x="335.071596" y="210.24" style="stroke: #000000; stroke-width: 0.8"/>
      </g>
     </g>
     <g id="text_19">
      <!-- 50 -->
      <g transform="translate(330.071596 224.18375) scale(0.1 -0.1)">
       <use xlink:href="#TimesNewRomanPSMT-35"/>
       <use xlink:href="#TimesNewRomanPSMT-30" x="50"/>
      </g>
     </g>
    </g>
    <g id="xtick_8">
     <g id="line2d_20">
      <g>
       <use xlink:href="#md5968336b0" x="381.940034" y="210.24" style="stroke: #000000; stroke-width: 0.8"/>
      </g>
     </g>
     <g id="text_20">
      <!-- 100 -->
      <g transform="translate(374.440034 224.18375) scale(0.1 -0.1)">
       <use xlink:href="#TimesNewRomanPSMT-31"/>
       <use xlink:href="#TimesNewRomanPSMT-30" x="50"/>
       <use xlink:href="#TimesNewRomanPSMT-30" x="100"/>
      </g>
     </g>
    </g>
    <g id="xtick_9">
     <g id="line2d_21">
      <g>
       <use xlink:href="#md5968336b0" x="428.808472" y="210.24" style="stroke: #000000; stroke-width: 0.8"/>
      </g>
     </g>
     <g id="text_21">
      <!-- 150 -->
      <g transform="translate(421.308472 224.18375) scale(0.1 -0.1)">
       <use xlink:href="#TimesNewRomanPSMT-31"/>
       <use xlink:href="#TimesNewRomanPSMT-35" x="50"/>
       <use xlink:href="#TimesNewRomanPSMT-30" x="100"/>
      </g>
     </g>
    </g>
    <g id="xtick_10">
     <g id="line2d_22">
      <g>
       <use xlink:href="#md5968336b0" x="475.67691" y="210.24" style="stroke: #000000; stroke-width: 0.8"/>
      </g>
     </g>
     <g id="text_22">
      <!-- 200 -->
      <g transform="translate(468.17691 224.18375) scale(0.1 -0.1)">
       <use xlink:href="#TimesNewRomanPSMT-32"/>
       <use xlink:href="#TimesNewRomanPSMT-30" x="50"/>
       <use xlink:href="#TimesNewRomanPSMT-30" x="100"/>
      </g>
     </g>
    </g>
    <g id="text_23">
     <!-- times -->
     <g transform="translate(366.889063 237.266563) scale(0.1 -0.1)">
      <use xlink:href="#TimesNewRomanPSMT-74"/>
      <use xlink:href="#TimesNewRomanPSMT-69" x="27.783203"/>
      <use xlink:href="#TimesNewRomanPSMT-6d" x="55.566406"/>
      <use xlink:href="#TimesNewRomanPSMT-65" x="133.349609"/>
      <use xlink:href="#TimesNewRomanPSMT-73" x="177.734375"/>
     </g>
    </g>
   </g>
   <g id="matplotlib.axis_4">
    <g id="ytick_8">
     <g id="line2d_23">
      <g>
       <use xlink:href="#m9d14a4c7f6" x="279.251287" y="202.486598" style="stroke: #000000; stroke-width: 0.8"/>
      </g>
     </g>
     <g id="text_24">
      <!-- −20 -->
      <g transform="translate(256.612224 205.958473) scale(0.1 -0.1)">
       <use xlink:href="#TimesNewRomanPSMT-2212"/>
       <use xlink:href="#TimesNewRomanPSMT-32" x="56.396484"/>
       <use xlink:href="#TimesNewRomanPSMT-30" x="106.396484"/>
      </g>
     </g>
    </g>
    <g id="ytick_9">
     <g id="line2d_24">
      <g>
       <use xlink:href="#m9d14a4c7f6" x="279.251287" y="179.462386" style="stroke: #000000; stroke-width: 0.8"/>
      </g>
     </g>
     <g id="text_25">
      <!-- −15 -->
      <g transform="translate(256.612224 182.934261) scale(0.1 -0.1)">
       <use xlink:href="#TimesNewRomanPSMT-2212"/>
       <use xlink:href="#TimesNewRomanPSMT-31" x="56.396484"/>
       <use xlink:href="#TimesNewRomanPSMT-35" x="106.396484"/>
      </g>
     </g>
    </g>
    <g id="ytick_10">
     <g id="line2d_25">
      <g>
       <use xlink:href="#m9d14a4c7f6" x="279.251287" y="156.438175" style="stroke: #000000; stroke-width: 0.8"/>
      </g>
     </g>
     <g id="text_26">
      <!-- −10 -->
      <g transform="translate(256.612224 159.91005) scale(0.1 -0.1)">
       <use xlink:href="#TimesNewRomanPSMT-2212"/>
       <use xlink:href="#TimesNewRomanPSMT-31" x="56.396484"/>
       <use xlink:href="#TimesNewRomanPSMT-30" x="106.396484"/>
      </g>
     </g>
    </g>
    <g id="ytick_11">
     <g id="line2d_26">
      <g>
       <use xlink:href="#m9d14a4c7f6" x="279.251287" y="133.413964" style="stroke: #000000; stroke-width: 0.8"/>
      </g>
     </g>
     <g id="text_27">
      <!-- −5 -->
      <g transform="translate(261.612224 136.885839) scale(0.1 -0.1)">
       <use xlink:href="#TimesNewRomanPSMT-2212"/>
       <use xlink:href="#TimesNewRomanPSMT-35" x="56.396484"/>
      </g>
     </g>
    </g>
    <g id="ytick_12">
     <g id="line2d_27">
      <g>
       <use xlink:href="#m9d14a4c7f6" x="279.251287" y="110.389753" style="stroke: #000000; stroke-width: 0.8"/>
      </g>
     </g>
     <g id="text_28">
      <!-- 0 -->
      <g transform="translate(267.251287 113.861628) scale(0.1 -0.1)">
       <use xlink:href="#TimesNewRomanPSMT-30"/>
      </g>
     </g>
    </g>
    <g id="ytick_13">
     <g id="line2d_28">
      <g>
       <use xlink:href="#m9d14a4c7f6" x="279.251287" y="87.365542" style="stroke: #000000; stroke-width: 0.8"/>
      </g>
     </g>
     <g id="text_29">
      <!-- 5 -->
      <g transform="translate(267.251287 90.837417) scale(0.1 -0.1)">
       <use xlink:href="#TimesNewRomanPSMT-35"/>
      </g>
     </g>
    </g>
    <g id="ytick_14">
     <g id="line2d_29">
      <g>
       <use xlink:href="#m9d14a4c7f6" x="279.251287" y="64.34133" style="stroke: #000000; stroke-width: 0.8"/>
      </g>
     </g>
     <g id="text_30">
      <!-- 10 -->
      <g transform="translate(262.251287 67.813205) scale(0.1 -0.1)">
       <use xlink:href="#TimesNewRomanPSMT-31"/>
       <use xlink:href="#TimesNewRomanPSMT-30" x="50"/>
      </g>
     </g>
    </g>
    <g id="text_31">
     <!-- values -->
     <g transform="translate(250.473162 139.854219) rotate(-90) scale(0.1 -0.1)">
      <use xlink:href="#TimesNewRomanPSMT-76"/>
      <use xlink:href="#TimesNewRomanPSMT-61" x="50"/>
      <use xlink:href="#TimesNewRomanPSMT-6c" x="94.384766"/>
      <use xlink:href="#TimesNewRomanPSMT-75" x="122.167969"/>
      <use xlink:href="#TimesNewRomanPSMT-65" x="172.167969"/>
      <use xlink:href="#TimesNewRomanPSMT-73" x="216.552734"/>
     </g>
    </g>
   </g>
   <g id="line2d_30">
    <path d="M 288.203158 51.80695 
L 289.140527 58.189262 
L 290.077896 67.191725 
L 291.015265 74.881815 
L 291.952633 79.951744 
L 292.890002 82.898844 
L 293.827371 84.699339 
L 294.76474 85.353228 
L 295.702109 84.699339 
L 296.639477 82.571905 
L 297.576846 72.261664 
L 298.514215 96.317358 
L 299.451584 139.681155 
L 300.388952 173.554375 
L 301.326321 188.768772 
L 302.26369 199.405956 
L 303.201059 202.68 
L 304.138427 193.516366 
L 305.075796 166.518176 
L 306.013165 135.587448 
L 306.950534 89.281157 
L 307.887902 76.35536 
L 308.825271 67.518664 
L 309.76264 60.809413 
L 310.700009 58.189262 
L 311.637377 64.083464 
L 312.574746 72.754371 
L 313.512115 79.951744 
L 314.449484 84.372389 
L 315.386852 87.153723 
L 316.324221 88.46149 
L 317.26159 88.627268 
L 318.198959 89.115379 
L 319.136328 87.31949 
L 320.073696 76.189593 
L 321.011065 79.136683 
L 321.948434 137.714887 
L 322.885803 160.462803 
L 323.823171 156.369102 
L 324.76054 167.660176 
L 325.697909 139.188438 
L 326.635278 94.843802 
L 327.572646 91.081652 
L 328.510015 80.610239 
L 329.447384 71.934715 
L 330.384753 70.299998 
L 331.322121 62.282969 
L 332.25949 61.956019 
L 333.196859 63.263797 
L 334.134228 68.499503 
L 335.071596 75.042987 
L 336.008965 81.591067 
L 336.946334 86.826773 
L 337.883703 88.78844 
L 338.821071 90.261985 
L 339.75844 91.081652 
L 340.695809 90.427763 
L 341.633178 88.78844 
L 342.570547 77.170421 
L 343.507915 68.172553 
L 344.445284 75.042987 
L 345.382653 79.790572 
L 346.320022 77.828916 
L 347.25739 85.353228 
L 348.194759 79.297855 
L 349.132128 76.189593 
L 350.069497 68.826442 
L 351.006865 66.210897 
L 351.944234 63.917686 
L 352.881603 59.174696 
L 353.818972 54.100162 
L 354.75634 52.299667 
L 355.693709 54.261334 
L 356.631078 57.862323 
L 357.568447 63.917686 
L 358.505815 69.153392 
L 359.443184 77.336199 
L 360.380553 82.079188 
L 361.317922 84.372389 
L 362.25529 85.192056 
L 363.192659 84.865106 
L 364.130028 82.410734 
L 365.067397 76.843482 
L 366.004766 71.280826 
L 366.942134 79.297855 
L 367.879503 92.716368 
L 368.816872 89.773874 
L 369.754241 105.480993 
L 370.691609 108.589255 
L 371.628978 100.572226 
L 372.566347 97.137014 
L 373.503716 87.31949 
L 374.441084 79.297855 
L 375.378453 68.499503 
L 376.315822 59.989757 
L 377.253191 58.189262 
L 378.190559 60.316696 
" clip-path="url(#p1067c6f17e)" style="fill: none; stroke: #21266e; stroke-width: 0.9; stroke-linecap: square"/>
   </g>
   <g id="line2d_31">
    <path d="M 378.190559 60.316696 
L 379.127928 63.098019 
L 380.065297 69.973048 
L 381.002666 77.170421 
L 381.940034 83.225784 
L 382.877403 86.007117 
L 383.814772 88.134551 
L 384.752141 88.46149 
L 385.689509 88.300329 
L 386.626878 86.987945 
L 387.564247 74.554866 
L 388.501616 67.679847 
L 389.438984 118.733728 
L 390.376353 170.114557 
L 391.313722 193.189425 
L 392.251091 201.206452 
L 393.18846 200.059844 
L 394.125828 185.006618 
L 395.063197 160.789747 
L 396.000566 136.899832 
L 396.937935 102.860831 
L 397.875303 77.828916 
L 398.812672 66.045119 
L 399.750041 61.297524 
L 400.68741 62.282969 
L 401.624778 66.372069 
L 402.562147 71.934715 
L 403.499516 77.49736 
L 404.436885 83.879672 
L 405.374253 86.661006 
L 406.311622 89.281157 
L 407.248991 89.773874 
L 408.18636 89.935046 
L 409.123728 88.46149 
L 410.061097 80.610239 
L 410.998466 69.31917 
L 411.935835 76.35536 
L 412.873203 89.281157 
L 413.810572 86.987945 
L 414.747941 84.04545 
L 415.68531 81.591067 
L 416.622679 71.773543 
L 417.560047 69.480331 
L 418.497416 72.915553 
L 419.434785 69.646109 
L 420.372154 60.970585 
L 421.309522 56.388767 
L 422.246891 55.900656 
L 423.18426 59.501646 
L 424.121629 64.571574 
L 425.058997 70.953887 
L 425.996366 77.663138 
L 426.933735 82.571905 
L 427.871104 85.518995 
L 428.808472 86.987945 
L 429.745841 87.973379 
L 430.68321 87.807612 
L 431.620579 87.480662 
L 432.557947 80.610239 
L 433.495316 69.973048 
L 434.432685 70.792715 
L 435.370054 81.264128 
L 436.307422 83.225784 
L 437.244791 77.009249 
L 438.18216 77.170421 
L 439.119529 80.444461 
L 440.056898 75.042987 
L 440.994266 69.480331 
L 441.931635 68.665281 
L 442.869004 65.225463 
L 443.806373 56.061818 
L 444.743741 54.592879 
L 445.68111 57.208434 
L 446.618479 62.117191 
L 447.555848 68.172553 
L 448.493216 76.35536 
L 449.430585 82.079188 
L 450.367954 85.192056 
L 451.305323 88.300329 
L 452.242691 89.115379 
L 453.18006 89.281157 
L 454.117429 87.807612 
L 455.054798 81.4253 
L 455.992166 68.499503 
L 456.929535 72.261664 
L 457.866904 78.482805 
L 458.804273 76.516532 
L 459.741641 80.610239 
L 460.67901 77.170421 
L 461.616379 76.843482 
L 462.553748 74.062148 
L 463.491117 66.045119 
L 464.428485 65.391231 
L 465.365854 61.956019 
L 466.303223 54.261334 
L 467.240592 51.48 
" clip-path="url(#p1067c6f17e)" style="fill: none; stroke: #21266e; stroke-width: 0.9; stroke-linecap: square"/>
   </g>
   <g id="line2d_32">
    <path d="M 378.190559 57.068585 
L 379.127928 62.774823 
L 380.065297 66.611656 
L 381.002666 69.633298 
L 381.940034 72.533243 
L 382.877403 76.581322 
L 383.814772 85.88394 
L 384.752141 102.318299 
L 385.689509 118.898449 
L 386.626878 124.717799 
L 387.564247 124.80558 
L 388.501616 122.35803 
L 389.438984 116.521086 
L 390.376353 107.723969 
L 391.313722 97.52365 
L 392.251091 89.561712 
L 393.18846 84.397061 
L 394.125828 81.737418 
L 395.063197 79.24695 
L 396.000566 77.166592 
L 396.937935 74.952816 
L 397.875303 74.161748 
L 398.812672 73.803052 
L 399.750041 73.495052 
L 400.68741 74.415786 
L 401.624778 75.93344 
L 402.562147 77.498203 
L 403.499516 79.251416 
L 404.436885 82.028608 
L 405.374253 84.690916 
L 406.311622 87.094298 
L 407.248991 90.786373 
L 408.18636 96.045952 
L 409.123728 100.688965 
L 410.061097 103.246927 
L 410.998466 102.004833 
L 411.935835 98.869097 
L 412.873203 94.028504 
L 413.810572 88.125502 
L 414.747941 82.534248 
L 415.68531 78.264665 
L 416.622679 75.145499 
L 417.560047 71.46422 
L 418.497416 69.425417 
L 419.434785 68.061324 
L 420.372154 67.137499 
L 421.309522 65.558054 
L 422.246891 64.298148 
L 423.18426 63.235261 
L 424.121629 63.054553 
L 425.058997 64.035373 
L 425.996366 65.174687 
L 426.933735 67.912551 
L 427.871104 73.600899 
L 428.808472 79.423948 
L 429.745841 83.996089 
L 430.68321 87.683656 
L 431.620579 90.206075 
L 432.557947 91.015461 
L 433.495316 89.727187 
L 434.432685 86.482844 
L 435.370054 84.604554 
L 436.307422 81.876787 
L 437.244791 79.709214 
L 438.18216 77.563129 
L 439.119529 76.209593 
L 440.056898 74.335358 
L 440.994266 72.109985 
L 441.931635 70.668932 
L 442.869004 70.310993 
L 443.806373 70.1389 
L 444.743741 70.380862 
L 445.68111 69.593899 
L 446.618479 70.668641 
L 447.555848 73.419717 
L 448.493216 76.199193 
L 449.430585 80.803998 
L 450.367954 83.534027 
L 451.305323 86.807583 
L 452.242691 90.784658 
L 453.18006 95.309659 
L 454.117429 97.78373 
L 455.054798 98.475169 
L 455.992166 96.907355 
L 456.929535 93.670542 
L 457.866904 89.0266 
L 458.804273 85.402839 
L 459.741641 81.669091 
L 460.67901 78.385979 
L 461.616379 75.865924 
L 462.553748 74.155826 
L 463.491117 72.357348 
L 464.428485 70.876605 
L 465.365854 69.919521 
L 466.303223 69.543911 
L 467.240592 70.282277 
" clip-path="url(#p1067c6f17e)" style="fill: none; stroke: #d70005; stroke-width: 0.9; stroke-linecap: square"/>
   </g>
   <g id="patch_9">
    <path d="M 279.251287 210.24 
L 279.251287 43.92 
" style="fill: none; stroke: #000000; stroke-width: 0.8; stroke-linejoin: miter; stroke-linecap: square"/>
   </g>
   <g id="patch_10">
    <path d="M 476.192463 210.24 
L 476.192463 43.92 
" style="fill: none; stroke: #000000; stroke-width: 0.8; stroke-linejoin: miter; stroke-linecap: square"/>
   </g>
   <g id="patch_11">
    <path d="M 279.251287 210.24 
L 476.192463 210.24 
" style="fill: none; stroke: #000000; stroke-width: 0.8; stroke-linejoin: miter; stroke-linecap: square"/>
   </g>
   <g id="patch_12">
    <path d="M 279.251287 43.92 
L 476.192463 43.92 
" style="fill: none; stroke: #000000; stroke-width: 0.8; stroke-linejoin: miter; stroke-linecap: square"/>
   </g>
   <g id="text_32">
    <!-- transformer_short model -->
    <g transform="translate(318.2375 37.92) scale(0.12 -0.12)">
     <defs>
      <path id="TimesNewRomanPSMT-66" d="M 1319 2638 
L 1319 756 
Q 1319 356 1406 250 
Q 1522 113 1716 113 
L 1975 113 
L 1975 0 
L 266 0 
L 266 113 
L 394 113 
Q 519 113 622 175 
Q 725 238 764 344 
Q 803 450 803 756 
L 803 2638 
L 247 2638 
L 247 2863 
L 803 2863 
L 803 3050 
Q 803 3478 940 3775 
Q 1078 4072 1361 4255 
Q 1644 4438 1997 4438 
Q 2325 4438 2600 4225 
Q 2781 4084 2781 3909 
Q 2781 3816 2700 3733 
Q 2619 3650 2525 3650 
Q 2453 3650 2373 3701 
Q 2294 3753 2178 3923 
Q 2063 4094 1966 4153 
Q 1869 4213 1750 4213 
Q 1606 4213 1506 4136 
Q 1406 4059 1362 3898 
Q 1319 3738 1319 3069 
L 1319 2863 
L 2056 2863 
L 2056 2638 
L 1319 2638 
z
" transform="scale(0.015625)"/>
     </defs>
     <use xlink:href="#TimesNewRomanPSMT-74"/>
     <use xlink:href="#TimesNewRomanPSMT-72" x="27.783203"/>
     <use xlink:href="#TimesNewRomanPSMT-61" x="61.083984"/>
     <use xlink:href="#TimesNewRomanPSMT-6e" x="105.46875"/>
     <use xlink:href="#TimesNewRomanPSMT-73" x="155.46875"/>
     <use xlink:href="#TimesNewRomanPSMT-66" x="194.384766"/>
     <use xlink:href="#TimesNewRomanPSMT-6f" x="227.685547"/>
     <use xlink:href="#TimesNewRomanPSMT-72" x="277.685547"/>
     <use xlink:href="#TimesNewRomanPSMT-6d" x="310.986328"/>
     <use xlink:href="#TimesNewRomanPSMT-65" x="388.769531"/>
     <use xlink:href="#TimesNewRomanPSMT-72" x="433.154297"/>
     <use xlink:href="#TimesNewRomanPSMT-5f" x="466.455078"/>
     <use xlink:href="#TimesNewRomanPSMT-73" x="516.455078"/>
     <use xlink:href="#TimesNewRomanPSMT-68" x="555.371094"/>
     <use xlink:href="#TimesNewRomanPSMT-6f" x="605.371094"/>
     <use xlink:href="#TimesNewRomanPSMT-72" x="655.371094"/>
     <use xlink:href="#TimesNewRomanPSMT-74" x="688.671875"/>
     <use xlink:href="#TimesNewRomanPSMT-20" x="716.455078"/>
     <use xlink:href="#TimesNewRomanPSMT-6d" x="741.455078"/>
     <use xlink:href="#TimesNewRomanPSMT-6f" x="819.238281"/>
     <use xlink:href="#TimesNewRomanPSMT-64" x="869.238281"/>
     <use xlink:href="#TimesNewRomanPSMT-65" x="919.238281"/>
     <use xlink:href="#TimesNewRomanPSMT-6c" x="963.623047"/>
    </g>
   </g>
   <g id="legend_2">
    <g id="patch_13">
     <path d="M 284.851287 206.24 
L 354.245037 206.24 
Q 355.845037 206.24 355.845037 204.64 
L 355.845037 182.8175 
Q 355.845037 181.2175 354.245037 181.2175 
L 284.851287 181.2175 
Q 283.251287 181.2175 283.251287 182.8175 
L 283.251287 204.64 
Q 283.251287 206.24 284.851287 206.24 
z
" style="fill: #ffffff; opacity: 0.8; stroke: #cccccc; stroke-linejoin: miter"/>
    </g>
    <g id="line2d_33">
     <path d="M 286.451287 187.2175 
L 294.451287 187.2175 
L 302.451287 187.2175 
" style="fill: none; stroke: #21266e; stroke-width: 0.9; stroke-linecap: square"/>
    </g>
    <g id="text_33">
     <!-- Ground Truth -->
     <g transform="translate(308.851287 190.0175) scale(0.08 -0.08)">
      <use xlink:href="#TimesNewRomanPSMT-47"/>
      <use xlink:href="#TimesNewRomanPSMT-72" x="72.216797"/>
      <use xlink:href="#TimesNewRomanPSMT-6f" x="105.517578"/>
      <use xlink:href="#TimesNewRomanPSMT-75" x="155.517578"/>
      <use xlink:href="#TimesNewRomanPSMT-6e" x="205.517578"/>
      <use xlink:href="#TimesNewRomanPSMT-64" x="255.517578"/>
      <use xlink:href="#TimesNewRomanPSMT-20" x="305.517578"/>
      <use xlink:href="#TimesNewRomanPSMT-54" x="328.767578"/>
      <use xlink:href="#TimesNewRomanPSMT-72" x="386.351562"/>
      <use xlink:href="#TimesNewRomanPSMT-75" x="419.652344"/>
      <use xlink:href="#TimesNewRomanPSMT-74" x="469.652344"/>
      <use xlink:href="#TimesNewRomanPSMT-68" x="497.435547"/>
     </g>
    </g>
    <g id="line2d_34">
     <path d="M 286.451287 198.52875 
L 294.451287 198.52875 
L 302.451287 198.52875 
" style="fill: none; stroke: #d70005; stroke-width: 0.9; stroke-linecap: square"/>
    </g>
    <g id="text_34">
     <!-- prediction -->
     <g transform="translate(308.851287 201.32875) scale(0.08 -0.08)">
      <use xlink:href="#TimesNewRomanPSMT-70"/>
      <use xlink:href="#TimesNewRomanPSMT-72" x="50"/>
      <use xlink:href="#TimesNewRomanPSMT-65" x="83.300781"/>
      <use xlink:href="#TimesNewRomanPSMT-64" x="127.685547"/>
      <use xlink:href="#TimesNewRomanPSMT-69" x="177.685547"/>
      <use xlink:href="#TimesNewRomanPSMT-63" x="205.46875"/>
      <use xlink:href="#TimesNewRomanPSMT-74" x="249.853516"/>
      <use xlink:href="#TimesNewRomanPSMT-69" x="277.636719"/>
      <use xlink:href="#TimesNewRomanPSMT-6f" x="305.419922"/>
      <use xlink:href="#TimesNewRomanPSMT-6e" x="355.419922"/>
     </g>
    </g>
   </g>
  </g>
  <g id="axes_3">
   <g id="patch_14">
    <path d="M 515.580699 210.24 
L 712.521875 210.24 
L 712.521875 43.92 
L 515.580699 43.92 
z
" style="fill: #ffffff"/>
   </g>
   <g id="matplotlib.axis_5">
    <g id="xtick_11">
     <g id="line2d_35">
      <g>
       <use xlink:href="#md5968336b0" x="524.53257" y="210.24" style="stroke: #000000; stroke-width: 0.8"/>
      </g>
     </g>
     <g id="text_35">
      <!-- 0 -->
      <g transform="translate(522.03257 224.18375) scale(0.1 -0.1)">
       <use xlink:href="#TimesNewRomanPSMT-30"/>
      </g>
     </g>
    </g>
    <g id="xtick_12">
     <g id="line2d_36">
      <g>
       <use xlink:href="#md5968336b0" x="571.401008" y="210.24" style="stroke: #000000; stroke-width: 0.8"/>
      </g>
     </g>
     <g id="text_36">
      <!-- 50 -->
      <g transform="translate(566.401008 224.18375) scale(0.1 -0.1)">
       <use xlink:href="#TimesNewRomanPSMT-35"/>
       <use xlink:href="#TimesNewRomanPSMT-30" x="50"/>
      </g>
     </g>
    </g>
    <g id="xtick_13">
     <g id="line2d_37">
      <g>
       <use xlink:href="#md5968336b0" x="618.269446" y="210.24" style="stroke: #000000; stroke-width: 0.8"/>
      </g>
     </g>
     <g id="text_37">
      <!-- 100 -->
      <g transform="translate(610.769446 224.18375) scale(0.1 -0.1)">
       <use xlink:href="#TimesNewRomanPSMT-31"/>
       <use xlink:href="#TimesNewRomanPSMT-30" x="50"/>
       <use xlink:href="#TimesNewRomanPSMT-30" x="100"/>
      </g>
     </g>
    </g>
    <g id="xtick_14">
     <g id="line2d_38">
      <g>
       <use xlink:href="#md5968336b0" x="665.137884" y="210.24" style="stroke: #000000; stroke-width: 0.8"/>
      </g>
     </g>
     <g id="text_38">
      <!-- 150 -->
      <g transform="translate(657.637884 224.18375) scale(0.1 -0.1)">
       <use xlink:href="#TimesNewRomanPSMT-31"/>
       <use xlink:href="#TimesNewRomanPSMT-35" x="50"/>
       <use xlink:href="#TimesNewRomanPSMT-30" x="100"/>
      </g>
     </g>
    </g>
    <g id="xtick_15">
     <g id="line2d_39">
      <g>
       <use xlink:href="#md5968336b0" x="712.006322" y="210.24" style="stroke: #000000; stroke-width: 0.8"/>
      </g>
     </g>
     <g id="text_39">
      <!-- 200 -->
      <g transform="translate(704.506322 224.18375) scale(0.1 -0.1)">
       <use xlink:href="#TimesNewRomanPSMT-32"/>
       <use xlink:href="#TimesNewRomanPSMT-30" x="50"/>
       <use xlink:href="#TimesNewRomanPSMT-30" x="100"/>
      </g>
     </g>
    </g>
    <g id="text_40">
     <!-- times -->
     <g transform="translate(603.218474 237.266563) scale(0.1 -0.1)">
      <use xlink:href="#TimesNewRomanPSMT-74"/>
      <use xlink:href="#TimesNewRomanPSMT-69" x="27.783203"/>
      <use xlink:href="#TimesNewRomanPSMT-6d" x="55.566406"/>
      <use xlink:href="#TimesNewRomanPSMT-65" x="133.349609"/>
      <use xlink:href="#TimesNewRomanPSMT-73" x="177.734375"/>
     </g>
    </g>
   </g>
   <g id="matplotlib.axis_6">
    <g id="ytick_15">
     <g id="line2d_40">
      <g>
       <use xlink:href="#m9d14a4c7f6" x="515.580699" y="202.486598" style="stroke: #000000; stroke-width: 0.8"/>
      </g>
     </g>
     <g id="text_41">
      <!-- −20 -->
      <g transform="translate(492.941636 205.958473) scale(0.1 -0.1)">
       <use xlink:href="#TimesNewRomanPSMT-2212"/>
       <use xlink:href="#TimesNewRomanPSMT-32" x="56.396484"/>
       <use xlink:href="#TimesNewRomanPSMT-30" x="106.396484"/>
      </g>
     </g>
    </g>
    <g id="ytick_16">
     <g id="line2d_41">
      <g>
       <use xlink:href="#m9d14a4c7f6" x="515.580699" y="179.462386" style="stroke: #000000; stroke-width: 0.8"/>
      </g>
     </g>
     <g id="text_42">
      <!-- −15 -->
      <g transform="translate(492.941636 182.934261) scale(0.1 -0.1)">
       <use xlink:href="#TimesNewRomanPSMT-2212"/>
       <use xlink:href="#TimesNewRomanPSMT-31" x="56.396484"/>
       <use xlink:href="#TimesNewRomanPSMT-35" x="106.396484"/>
      </g>
     </g>
    </g>
    <g id="ytick_17">
     <g id="line2d_42">
      <g>
       <use xlink:href="#m9d14a4c7f6" x="515.580699" y="156.438175" style="stroke: #000000; stroke-width: 0.8"/>
      </g>
     </g>
     <g id="text_43">
      <!-- −10 -->
      <g transform="translate(492.941636 159.91005) scale(0.1 -0.1)">
       <use xlink:href="#TimesNewRomanPSMT-2212"/>
       <use xlink:href="#TimesNewRomanPSMT-31" x="56.396484"/>
       <use xlink:href="#TimesNewRomanPSMT-30" x="106.396484"/>
      </g>
     </g>
    </g>
    <g id="ytick_18">
     <g id="line2d_43">
      <g>
       <use xlink:href="#m9d14a4c7f6" x="515.580699" y="133.413964" style="stroke: #000000; stroke-width: 0.8"/>
      </g>
     </g>
     <g id="text_44">
      <!-- −5 -->
      <g transform="translate(497.941636 136.885839) scale(0.1 -0.1)">
       <use xlink:href="#TimesNewRomanPSMT-2212"/>
       <use xlink:href="#TimesNewRomanPSMT-35" x="56.396484"/>
      </g>
     </g>
    </g>
    <g id="ytick_19">
     <g id="line2d_44">
      <g>
       <use xlink:href="#m9d14a4c7f6" x="515.580699" y="110.389753" style="stroke: #000000; stroke-width: 0.8"/>
      </g>
     </g>
     <g id="text_45">
      <!-- 0 -->
      <g transform="translate(503.580699 113.861628) scale(0.1 -0.1)">
       <use xlink:href="#TimesNewRomanPSMT-30"/>
      </g>
     </g>
    </g>
    <g id="ytick_20">
     <g id="line2d_45">
      <g>
       <use xlink:href="#m9d14a4c7f6" x="515.580699" y="87.365542" style="stroke: #000000; stroke-width: 0.8"/>
      </g>
     </g>
     <g id="text_46">
      <!-- 5 -->
      <g transform="translate(503.580699 90.837417) scale(0.1 -0.1)">
       <use xlink:href="#TimesNewRomanPSMT-35"/>
      </g>
     </g>
    </g>
    <g id="ytick_21">
     <g id="line2d_46">
      <g>
       <use xlink:href="#m9d14a4c7f6" x="515.580699" y="64.34133" style="stroke: #000000; stroke-width: 0.8"/>
      </g>
     </g>
     <g id="text_47">
      <!-- 10 -->
      <g transform="translate(498.580699 67.813205) scale(0.1 -0.1)">
       <use xlink:href="#TimesNewRomanPSMT-31"/>
       <use xlink:href="#TimesNewRomanPSMT-30" x="50"/>
      </g>
     </g>
    </g>
    <g id="text_48">
     <!-- values -->
     <g transform="translate(486.802574 139.854219) rotate(-90) scale(0.1 -0.1)">
      <use xlink:href="#TimesNewRomanPSMT-76"/>
      <use xlink:href="#TimesNewRomanPSMT-61" x="50"/>
      <use xlink:href="#TimesNewRomanPSMT-6c" x="94.384766"/>
      <use xlink:href="#TimesNewRomanPSMT-75" x="122.167969"/>
      <use xlink:href="#TimesNewRomanPSMT-65" x="172.167969"/>
      <use xlink:href="#TimesNewRomanPSMT-73" x="216.552734"/>
     </g>
    </g>
   </g>
   <g id="line2d_47">
    <path d="M 524.53257 51.80695 
L 525.469939 58.189262 
L 526.407308 67.191725 
L 527.344676 74.881815 
L 528.282045 79.951744 
L 529.219414 82.898844 
L 530.156783 84.699339 
L 531.094152 85.353228 
L 532.03152 84.699339 
L 532.968889 82.571905 
L 533.906258 72.261664 
L 534.843627 96.317358 
L 535.780995 139.681155 
L 536.718364 173.554375 
L 537.655733 188.768772 
L 538.593102 199.405956 
L 539.53047 202.68 
L 540.467839 193.516366 
L 541.405208 166.518176 
L 542.342577 135.587448 
L 543.279945 89.281157 
L 544.217314 76.35536 
L 545.154683 67.518664 
L 546.092052 60.809413 
L 547.02942 58.189262 
L 547.966789 64.083464 
L 548.904158 72.754371 
L 549.841527 79.951744 
L 550.778895 84.372389 
L 551.716264 87.153723 
L 552.653633 88.46149 
L 553.591002 88.627268 
L 554.528371 89.115379 
L 555.465739 87.31949 
L 556.403108 76.189593 
L 557.340477 79.136683 
L 558.277846 137.714887 
L 559.215214 160.462803 
L 560.152583 156.369102 
L 561.089952 167.660176 
L 562.027321 139.188438 
L 562.964689 94.843802 
L 563.902058 91.081652 
L 564.839427 80.610239 
L 565.776796 71.934715 
L 566.714164 70.299998 
L 567.651533 62.282969 
L 568.588902 61.956019 
L 569.526271 63.263797 
L 570.463639 68.499503 
L 571.401008 75.042987 
L 572.338377 81.591067 
L 573.275746 86.826773 
L 574.213114 88.78844 
L 575.150483 90.261985 
L 576.087852 91.081652 
L 577.025221 90.427763 
L 577.96259 88.78844 
L 578.899958 77.170421 
L 579.837327 68.172553 
L 580.774696 75.042987 
L 581.712065 79.790572 
L 582.649433 77.828916 
L 583.586802 85.353228 
L 584.524171 79.297855 
L 585.46154 76.189593 
L 586.398908 68.826442 
L 587.336277 66.210897 
L 588.273646 63.917686 
L 589.211015 59.174696 
L 590.148383 54.100162 
L 591.085752 52.299667 
L 592.023121 54.261334 
L 592.96049 57.862323 
L 593.897858 63.917686 
L 594.835227 69.153392 
L 595.772596 77.336199 
L 596.709965 82.079188 
L 597.647333 84.372389 
L 598.584702 85.192056 
L 599.522071 84.865106 
L 600.45944 82.410734 
L 601.396809 76.843482 
L 602.334177 71.280826 
L 603.271546 79.297855 
L 604.208915 92.716368 
L 605.146284 89.773874 
L 606.083652 105.480993 
L 607.021021 108.589255 
L 607.95839 100.572226 
L 608.895759 97.137014 
L 609.833127 87.31949 
L 610.770496 79.297855 
L 611.707865 68.499503 
L 612.645234 59.989757 
L 613.582602 58.189262 
L 614.519971 60.316696 
" clip-path="url(#pe960177dce)" style="fill: none; stroke: #21266e; stroke-width: 0.9; stroke-linecap: square"/>
   </g>
   <g id="line2d_48">
    <path d="M 614.519971 60.316696 
L 615.45734 63.098019 
L 616.394709 69.973048 
L 617.332077 77.170421 
L 618.269446 83.225784 
L 619.206815 86.007117 
L 620.144184 88.134551 
L 621.081552 88.46149 
L 622.018921 88.300329 
L 622.95629 86.987945 
L 623.893659 74.554866 
L 624.831028 67.679847 
L 625.768396 118.733728 
L 626.705765 170.114557 
L 627.643134 193.189425 
L 628.580503 201.206452 
L 629.517871 200.059844 
L 630.45524 185.006618 
L 631.392609 160.789747 
L 632.329978 136.899832 
L 633.267346 102.860831 
L 634.204715 77.828916 
L 635.142084 66.045119 
L 636.079453 61.297524 
L 637.016821 62.282969 
L 637.95419 66.372069 
L 638.891559 71.934715 
L 639.828928 77.49736 
L 640.766296 83.879672 
L 641.703665 86.661006 
L 642.641034 89.281157 
L 643.578403 89.773874 
L 644.515771 89.935046 
L 645.45314 88.46149 
L 646.390509 80.610239 
L 647.327878 69.31917 
L 648.265247 76.35536 
L 649.202615 89.281157 
L 650.139984 86.987945 
L 651.077353 84.04545 
L 652.014722 81.591067 
L 652.95209 71.773543 
L 653.889459 69.480331 
L 654.826828 72.915553 
L 655.764197 69.646109 
L 656.701565 60.970585 
L 657.638934 56.388767 
L 658.576303 55.900656 
L 659.513672 59.501646 
L 660.45104 64.571574 
L 661.388409 70.953887 
L 662.325778 77.663138 
L 663.263147 82.571905 
L 664.200515 85.518995 
L 665.137884 86.987945 
L 666.075253 87.973379 
L 667.012622 87.807612 
L 667.94999 87.480662 
L 668.887359 80.610239 
L 669.824728 69.973048 
L 670.762097 70.792715 
L 671.699466 81.264128 
L 672.636834 83.225784 
L 673.574203 77.009249 
L 674.511572 77.170421 
L 675.448941 80.444461 
L 676.386309 75.042987 
L 677.323678 69.480331 
L 678.261047 68.665281 
L 679.198416 65.225463 
L 680.135784 56.061818 
L 681.073153 54.592879 
L 682.010522 57.208434 
L 682.947891 62.117191 
L 683.885259 68.172553 
L 684.822628 76.35536 
L 685.759997 82.079188 
L 686.697366 85.192056 
L 687.634734 88.300329 
L 688.572103 89.115379 
L 689.509472 89.281157 
L 690.446841 87.807612 
L 691.384209 81.4253 
L 692.321578 68.499503 
L 693.258947 72.261664 
L 694.196316 78.482805 
L 695.133685 76.516532 
L 696.071053 80.610239 
L 697.008422 77.170421 
L 697.945791 76.843482 
L 698.88316 74.062148 
L 699.820528 66.045119 
L 700.757897 65.391231 
L 701.695266 61.956019 
L 702.632635 54.261334 
L 703.570003 51.48 
" clip-path="url(#pe960177dce)" style="fill: none; stroke: #21266e; stroke-width: 0.9; stroke-linecap: square"/>
   </g>
   <g id="line2d_49">
    <path d="M 614.519971 56.382597 
L 615.45734 64.027358 
L 616.394709 70.062994 
L 617.332077 74.300761 
L 618.269446 77.061397 
L 619.206815 83.003858 
L 620.144184 81.94917 
L 621.081552 85.533817 
L 622.018921 79.600566 
L 622.95629 76.650909 
L 623.893659 76.351012 
L 624.831028 79.309764 
L 625.768396 97.445475 
L 626.705765 109.650857 
L 627.643134 121.776464 
L 628.580503 125.806073 
L 629.517871 124.850417 
L 630.45524 113.845543 
L 631.392609 103.963663 
L 632.329978 90.423599 
L 633.267346 74.285314 
L 634.204715 63.722262 
L 635.142084 58.274888 
L 636.079453 51.489911 
L 637.016821 52.545442 
L 637.95419 55.701933 
L 638.891559 63.673439 
L 639.828928 71.022268 
L 640.766296 78.211345 
L 641.703665 77.502096 
L 642.641034 81.681378 
L 643.578403 74.600366 
L 644.515771 73.235339 
L 645.45314 74.773536 
L 646.390509 76.482284 
L 647.327878 79.06221 
L 648.265247 99.719765 
L 649.202615 115.445471 
L 650.139984 129.391805 
L 651.077353 127.788068 
L 652.014722 131.706645 
L 652.95209 121.123124 
L 653.889459 107.066908 
L 654.826828 99.950688 
L 655.764197 78.12906 
L 656.701565 64.884048 
L 657.638934 56.875002 
L 658.576303 58.57395 
L 659.513672 53.70525 
L 660.45104 55.615481 
L 661.388409 69.599853 
L 662.325778 72.647934 
L 663.263147 73.110124 
L 664.200515 80.78371 
L 665.137884 83.323787 
L 666.075253 83.270994 
L 667.012622 80.521859 
L 667.94999 71.296415 
L 668.887359 76.159314 
L 669.824728 80.088677 
L 670.762097 98.502407 
L 671.699466 115.073636 
L 672.636834 120.585506 
L 673.574203 134.926612 
L 674.511572 128.741594 
L 675.448941 116.285137 
L 676.386309 107.063402 
L 677.323678 88.230438 
L 678.261047 72.943447 
L 679.198416 67.511925 
L 680.135784 61.824627 
L 681.073153 58.210761 
L 682.010522 58.776646 
L 682.947891 62.792386 
L 683.885259 63.565101 
L 684.822628 72.333904 
L 685.759997 77.63836 
L 686.697366 80.485809 
L 687.634734 85.27597 
L 688.572103 82.027885 
L 689.509472 80.921634 
L 690.446841 75.882978 
L 691.384209 79.67819 
L 692.321578 80.883697 
L 693.258947 95.290588 
L 694.196316 113.072272 
L 695.133685 117.767992 
L 696.071053 129.095242 
L 697.008422 128.299074 
L 697.945791 115.628163 
L 698.88316 106.509748 
L 699.820528 92.39409 
L 700.757897 76.160392 
L 701.695266 69.902488 
L 702.632635 64.947788 
L 703.570003 56.041567 
" clip-path="url(#pe960177dce)" style="fill: none; stroke: #d70005; stroke-width: 0.9; stroke-linecap: square"/>
   </g>
   <g id="patch_15">
    <path d="M 515.580699 210.24 
L 515.580699 43.92 
" style="fill: none; stroke: #000000; stroke-width: 0.8; stroke-linejoin: miter; stroke-linecap: square"/>
   </g>
   <g id="patch_16">
    <path d="M 712.521875 210.24 
L 712.521875 43.92 
" style="fill: none; stroke: #000000; stroke-width: 0.8; stroke-linejoin: miter; stroke-linecap: square"/>
   </g>
   <g id="patch_17">
    <path d="M 515.580699 210.24 
L 712.521875 210.24 
" style="fill: none; stroke: #000000; stroke-width: 0.8; stroke-linejoin: miter; stroke-linecap: square"/>
   </g>
   <g id="patch_18">
    <path d="M 515.580699 43.92 
L 712.521875 43.92 
" style="fill: none; stroke: #000000; stroke-width: 0.8; stroke-linejoin: miter; stroke-linecap: square"/>
   </g>
   <g id="text_49">
    <!-- my_former_short model -->
    <g transform="translate(555.563474 37.92) scale(0.12 -0.12)">
     <defs>
      <path id="TimesNewRomanPSMT-79" d="M 38 2863 
L 1372 2863 
L 1372 2747 
L 1306 2747 
Q 1166 2747 1095 2686 
Q 1025 2625 1025 2534 
Q 1025 2413 1128 2197 
L 1825 753 
L 2466 2334 
Q 2519 2463 2519 2588 
Q 2519 2644 2497 2672 
Q 2472 2706 2419 2726 
Q 2366 2747 2231 2747 
L 2231 2863 
L 3163 2863 
L 3163 2747 
Q 3047 2734 2984 2696 
Q 2922 2659 2847 2556 
Q 2819 2513 2741 2316 
L 1575 -541 
Q 1406 -956 1132 -1168 
Q 859 -1381 606 -1381 
Q 422 -1381 303 -1275 
Q 184 -1169 184 -1031 
Q 184 -900 270 -820 
Q 356 -741 506 -741 
Q 609 -741 788 -809 
Q 913 -856 944 -856 
Q 1038 -856 1148 -759 
Q 1259 -663 1372 -384 
L 1575 113 
L 547 2272 
Q 500 2369 397 2513 
Q 319 2622 269 2659 
Q 197 2709 38 2747 
L 38 2863 
z
" transform="scale(0.015625)"/>
     </defs>
     <use xlink:href="#TimesNewRomanPSMT-6d"/>
     <use xlink:href="#TimesNewRomanPSMT-79" x="77.783203"/>
     <use xlink:href="#TimesNewRomanPSMT-5f" x="127.783203"/>
     <use xlink:href="#TimesNewRomanPSMT-66" x="177.783203"/>
     <use xlink:href="#TimesNewRomanPSMT-6f" x="211.083984"/>
     <use xlink:href="#TimesNewRomanPSMT-72" x="261.083984"/>
     <use xlink:href="#TimesNewRomanPSMT-6d" x="294.384766"/>
     <use xlink:href="#TimesNewRomanPSMT-65" x="372.167969"/>
     <use xlink:href="#TimesNewRomanPSMT-72" x="416.552734"/>
     <use xlink:href="#TimesNewRomanPSMT-5f" x="449.853516"/>
     <use xlink:href="#TimesNewRomanPSMT-73" x="499.853516"/>
     <use xlink:href="#TimesNewRomanPSMT-68" x="538.769531"/>
     <use xlink:href="#TimesNewRomanPSMT-6f" x="588.769531"/>
     <use xlink:href="#TimesNewRomanPSMT-72" x="638.769531"/>
     <use xlink:href="#TimesNewRomanPSMT-74" x="672.070312"/>
     <use xlink:href="#TimesNewRomanPSMT-20" x="699.853516"/>
     <use xlink:href="#TimesNewRomanPSMT-6d" x="724.853516"/>
     <use xlink:href="#TimesNewRomanPSMT-6f" x="802.636719"/>
     <use xlink:href="#TimesNewRomanPSMT-64" x="852.636719"/>
     <use xlink:href="#TimesNewRomanPSMT-65" x="902.636719"/>
     <use xlink:href="#TimesNewRomanPSMT-6c" x="947.021484"/>
    </g>
   </g>
   <g id="legend_3">
    <g id="patch_19">
     <path d="M 521.180699 206.24 
L 590.574449 206.24 
Q 592.174449 206.24 592.174449 204.64 
L 592.174449 182.8175 
Q 592.174449 181.2175 590.574449 181.2175 
L 521.180699 181.2175 
Q 519.580699 181.2175 519.580699 182.8175 
L 519.580699 204.64 
Q 519.580699 206.24 521.180699 206.24 
z
" style="fill: #ffffff; opacity: 0.8; stroke: #cccccc; stroke-linejoin: miter"/>
    </g>
    <g id="line2d_50">
     <path d="M 522.780699 187.2175 
L 530.780699 187.2175 
L 538.780699 187.2175 
" style="fill: none; stroke: #21266e; stroke-width: 0.9; stroke-linecap: square"/>
    </g>
    <g id="text_50">
     <!-- Ground Truth -->
     <g transform="translate(545.180699 190.0175) scale(0.08 -0.08)">
      <use xlink:href="#TimesNewRomanPSMT-47"/>
      <use xlink:href="#TimesNewRomanPSMT-72" x="72.216797"/>
      <use xlink:href="#TimesNewRomanPSMT-6f" x="105.517578"/>
      <use xlink:href="#TimesNewRomanPSMT-75" x="155.517578"/>
      <use xlink:href="#TimesNewRomanPSMT-6e" x="205.517578"/>
      <use xlink:href="#TimesNewRomanPSMT-64" x="255.517578"/>
      <use xlink:href="#TimesNewRomanPSMT-20" x="305.517578"/>
      <use xlink:href="#TimesNewRomanPSMT-54" x="328.767578"/>
      <use xlink:href="#TimesNewRomanPSMT-72" x="386.351562"/>
      <use xlink:href="#TimesNewRomanPSMT-75" x="419.652344"/>
      <use xlink:href="#TimesNewRomanPSMT-74" x="469.652344"/>
      <use xlink:href="#TimesNewRomanPSMT-68" x="497.435547"/>
     </g>
    </g>
    <g id="line2d_51">
     <path d="M 522.780699 198.52875 
L 530.780699 198.52875 
L 538.780699 198.52875 
" style="fill: none; stroke: #d70005; stroke-width: 0.9; stroke-linecap: square"/>
    </g>
    <g id="text_51">
     <!-- prediction -->
     <g transform="translate(545.180699 201.32875) scale(0.08 -0.08)">
      <use xlink:href="#TimesNewRomanPSMT-70"/>
      <use xlink:href="#TimesNewRomanPSMT-72" x="50"/>
      <use xlink:href="#TimesNewRomanPSMT-65" x="83.300781"/>
      <use xlink:href="#TimesNewRomanPSMT-64" x="127.685547"/>
      <use xlink:href="#TimesNewRomanPSMT-69" x="177.685547"/>
      <use xlink:href="#TimesNewRomanPSMT-63" x="205.46875"/>
      <use xlink:href="#TimesNewRomanPSMT-74" x="249.853516"/>
      <use xlink:href="#TimesNewRomanPSMT-69" x="277.636719"/>
      <use xlink:href="#TimesNewRomanPSMT-6f" x="305.419922"/>
      <use xlink:href="#TimesNewRomanPSMT-6e" x="355.419922"/>
     </g>
    </g>
   </g>
  </g>
  <g id="text_52">
   <!-- Comparison chart of MUFL variable of three models -->
   <g transform="translate(197.708125 18.31) scale(0.16 -0.16)">
    <defs>
     <path id="TimesNewRomanPSMT-43" d="M 3853 4334 
L 3950 2894 
L 3853 2894 
Q 3659 3541 3300 3825 
Q 2941 4109 2438 4109 
Q 2016 4109 1675 3895 
Q 1334 3681 1139 3212 
Q 944 2744 944 2047 
Q 944 1472 1128 1050 
Q 1313 628 1683 403 
Q 2053 178 2528 178 
Q 2941 178 3256 354 
Q 3572 531 3950 1056 
L 4047 994 
Q 3728 428 3303 165 
Q 2878 -97 2294 -97 
Q 1241 -97 663 684 
Q 231 1266 231 2053 
Q 231 2688 515 3219 
Q 800 3750 1298 4042 
Q 1797 4334 2388 4334 
Q 2847 4334 3294 4109 
Q 3425 4041 3481 4041 
Q 3566 4041 3628 4100 
Q 3709 4184 3744 4334 
L 3853 4334 
z
" transform="scale(0.015625)"/>
     <path id="TimesNewRomanPSMT-4d" d="M 2619 0 
L 981 3566 
L 981 734 
Q 981 344 1066 247 
Q 1181 116 1431 116 
L 1581 116 
L 1581 0 
L 106 0 
L 106 116 
L 256 116 
Q 525 116 638 278 
Q 706 378 706 734 
L 706 3503 
Q 706 3784 644 3909 
Q 600 4000 483 4061 
Q 366 4122 106 4122 
L 106 4238 
L 1306 4238 
L 2844 922 
L 4356 4238 
L 5556 4238 
L 5556 4122 
L 5409 4122 
Q 5138 4122 5025 3959 
Q 4956 3859 4956 3503 
L 4956 734 
Q 4956 344 5044 247 
Q 5159 116 5409 116 
L 5556 116 
L 5556 0 
L 3756 0 
L 3756 116 
L 3906 116 
Q 4178 116 4288 278 
Q 4356 378 4356 734 
L 4356 3566 
L 2722 0 
L 2619 0 
z
" transform="scale(0.015625)"/>
     <path id="TimesNewRomanPSMT-55" d="M 3053 4122 
L 3053 4238 
L 4553 4238 
L 4553 4122 
L 4394 4122 
Q 4144 4122 4009 3913 
Q 3944 3816 3944 3463 
L 3944 1744 
Q 3944 1106 3817 754 
Q 3691 403 3320 151 
Q 2950 -100 2313 -100 
Q 1619 -100 1259 140 
Q 900 381 750 788 
Q 650 1066 650 1831 
L 650 3488 
Q 650 3878 542 4000 
Q 434 4122 194 4122 
L 34 4122 
L 34 4238 
L 1866 4238 
L 1866 4122 
L 1703 4122 
Q 1441 4122 1328 3956 
Q 1250 3844 1250 3488 
L 1250 1641 
Q 1250 1394 1295 1075 
Q 1341 756 1459 578 
Q 1578 400 1801 284 
Q 2025 169 2350 169 
Q 2766 169 3094 350 
Q 3422 531 3542 814 
Q 3663 1097 3663 1772 
L 3663 3488 
Q 3663 3884 3575 3984 
Q 3453 4122 3213 4122 
L 3053 4122 
z
" transform="scale(0.015625)"/>
     <path id="TimesNewRomanPSMT-46" d="M 1309 4006 
L 1309 2341 
L 2081 2341 
Q 2347 2341 2470 2458 
Q 2594 2575 2634 2922 
L 2750 2922 
L 2750 1488 
L 2634 1488 
Q 2631 1734 2570 1850 
Q 2509 1966 2401 2023 
Q 2294 2081 2081 2081 
L 1309 2081 
L 1309 750 
Q 1309 428 1350 325 
Q 1381 247 1481 191 
Q 1619 116 1769 116 
L 1922 116 
L 1922 0 
L 103 0 
L 103 116 
L 253 116 
Q 516 116 634 269 
Q 709 369 709 750 
L 709 3488 
Q 709 3809 669 3913 
Q 638 3991 541 4047 
Q 406 4122 253 4122 
L 103 4122 
L 103 4238 
L 3256 4238 
L 3297 3306 
L 3188 3306 
Q 3106 3603 2998 3742 
Q 2891 3881 2733 3943 
Q 2575 4006 2244 4006 
L 1309 4006 
z
" transform="scale(0.015625)"/>
     <path id="TimesNewRomanPSMT-4c" d="M 3669 1172 
L 3772 1150 
L 3409 0 
L 128 0 
L 128 116 
L 288 116 
Q 556 116 672 291 
Q 738 391 738 753 
L 738 3488 
Q 738 3884 650 3984 
Q 528 4122 288 4122 
L 128 4122 
L 128 4238 
L 2047 4238 
L 2047 4122 
Q 1709 4125 1573 4059 
Q 1438 3994 1388 3894 
Q 1338 3794 1338 3416 
L 1338 753 
Q 1338 494 1388 397 
Q 1425 331 1503 300 
Q 1581 269 1991 269 
L 2300 269 
Q 2788 269 2984 341 
Q 3181 413 3343 595 
Q 3506 778 3669 1172 
z
" transform="scale(0.015625)"/>
     <path id="TimesNewRomanPSMT-62" d="M 984 2369 
Q 1400 2947 1881 2947 
Q 2322 2947 2650 2570 
Q 2978 2194 2978 1541 
Q 2978 778 2472 313 
Q 2038 -88 1503 -88 
Q 1253 -88 995 3 
Q 738 94 469 275 
L 469 3241 
Q 469 3728 445 3840 
Q 422 3953 372 3993 
Q 322 4034 247 4034 
Q 159 4034 28 3984 
L -16 4094 
L 844 4444 
L 984 4444 
L 984 2369 
z
M 984 2169 
L 984 456 
Q 1144 300 1314 220 
Q 1484 141 1663 141 
Q 1947 141 2192 453 
Q 2438 766 2438 1363 
Q 2438 1913 2192 2208 
Q 1947 2503 1634 2503 
Q 1469 2503 1303 2419 
Q 1178 2356 984 2169 
z
" transform="scale(0.015625)"/>
    </defs>
    <use xlink:href="#TimesNewRomanPSMT-43"/>
    <use xlink:href="#TimesNewRomanPSMT-6f" x="66.699219"/>
    <use xlink:href="#TimesNewRomanPSMT-6d" x="116.699219"/>
    <use xlink:href="#TimesNewRomanPSMT-70" x="194.482422"/>
    <use xlink:href="#TimesNewRomanPSMT-61" x="244.482422"/>
    <use xlink:href="#TimesNewRomanPSMT-72" x="288.867188"/>
    <use xlink:href="#TimesNewRomanPSMT-69" x="322.167969"/>
    <use xlink:href="#TimesNewRomanPSMT-73" x="349.951172"/>
    <use xlink:href="#TimesNewRomanPSMT-6f" x="388.867188"/>
    <use xlink:href="#TimesNewRomanPSMT-6e" x="438.867188"/>
    <use xlink:href="#TimesNewRomanPSMT-20" x="488.867188"/>
    <use xlink:href="#TimesNewRomanPSMT-63" x="513.867188"/>
    <use xlink:href="#TimesNewRomanPSMT-68" x="558.251953"/>
    <use xlink:href="#TimesNewRomanPSMT-61" x="608.251953"/>
    <use xlink:href="#TimesNewRomanPSMT-72" x="652.636719"/>
    <use xlink:href="#TimesNewRomanPSMT-74" x="685.9375"/>
    <use xlink:href="#TimesNewRomanPSMT-20" x="713.720703"/>
    <use xlink:href="#TimesNewRomanPSMT-6f" x="738.720703"/>
    <use xlink:href="#TimesNewRomanPSMT-66" x="788.720703"/>
    <use xlink:href="#TimesNewRomanPSMT-20" x="822.021484"/>
    <use xlink:href="#TimesNewRomanPSMT-4d" x="847.021484"/>
    <use xlink:href="#TimesNewRomanPSMT-55" x="935.9375"/>
    <use xlink:href="#TimesNewRomanPSMT-46" x="1008.154297"/>
    <use xlink:href="#TimesNewRomanPSMT-4c" x="1063.769531"/>
    <use xlink:href="#TimesNewRomanPSMT-20" x="1121.103516"/>
    <use xlink:href="#TimesNewRomanPSMT-76" x="1146.103516"/>
    <use xlink:href="#TimesNewRomanPSMT-61" x="1196.103516"/>
    <use xlink:href="#TimesNewRomanPSMT-72" x="1240.488281"/>
    <use xlink:href="#TimesNewRomanPSMT-69" x="1273.789062"/>
    <use xlink:href="#TimesNewRomanPSMT-61" x="1301.572266"/>
    <use xlink:href="#TimesNewRomanPSMT-62" x="1345.957031"/>
    <use xlink:href="#TimesNewRomanPSMT-6c" x="1395.957031"/>
    <use xlink:href="#TimesNewRomanPSMT-65" x="1423.740234"/>
    <use xlink:href="#TimesNewRomanPSMT-20" x="1468.125"/>
    <use xlink:href="#TimesNewRomanPSMT-6f" x="1493.125"/>
    <use xlink:href="#TimesNewRomanPSMT-66" x="1543.125"/>
    <use xlink:href="#TimesNewRomanPSMT-20" x="1576.425781"/>
    <use xlink:href="#TimesNewRomanPSMT-74" x="1601.425781"/>
    <use xlink:href="#TimesNewRomanPSMT-68" x="1629.208984"/>
    <use xlink:href="#TimesNewRomanPSMT-72" x="1679.208984"/>
    <use xlink:href="#TimesNewRomanPSMT-65" x="1712.509766"/>
    <use xlink:href="#TimesNewRomanPSMT-65" x="1756.894531"/>
    <use xlink:href="#TimesNewRomanPSMT-20" x="1801.279297"/>
    <use xlink:href="#TimesNewRomanPSMT-6d" x="1826.279297"/>
    <use xlink:href="#TimesNewRomanPSMT-6f" x="1904.0625"/>
    <use xlink:href="#TimesNewRomanPSMT-64" x="1954.0625"/>
    <use xlink:href="#TimesNewRomanPSMT-65" x="2004.0625"/>
    <use xlink:href="#TimesNewRomanPSMT-6c" x="2048.447266"/>
    <use xlink:href="#TimesNewRomanPSMT-73" x="2076.230469"/>
   </g>
  </g>
 </g>
 <defs>
  <clipPath id="pdd1c3e1c26">
   <rect x="42.921875" y="43.92" width="196.941176" height="166.32"/>
  </clipPath>
  <clipPath id="p1067c6f17e">
   <rect x="279.251287" y="43.92" width="196.941176" height="166.32"/>
  </clipPath>
  <clipPath id="pe960177dce">
   <rect x="515.580699" y="43.92" width="196.941176" height="166.32"/>
  </clipPath>
 </defs>
</svg>
