<?xml version="1.0" encoding="utf-8" standalone="no"?>
<!DOCTYPE svg PUBLIC "-//W3C//DTD SVG 1.1//EN"
  "http://www.w3.org/Graphics/SVG/1.1/DTD/svg11.dtd">
<svg xmlns:xlink="http://www.w3.org/1999/xlink" width="721.706322pt" height="246.605625pt" viewBox="0 0 721.706322 246.605625" xmlns="http://www.w3.org/2000/svg" version="1.1">
 <metadata>
  <rdf:RDF xmlns:dc="http://purl.org/dc/elements/1.1/" xmlns:cc="http://creativecommons.org/ns#" xmlns:rdf="http://www.w3.org/1999/02/22-rdf-syntax-ns#">
   <cc:Work>
    <dc:type rdf:resource="http://purl.org/dc/dcmitype/StillImage"/>
    <dc:date>2024-01-03T22:40:22.939865</dc:date>
    <dc:format>image/svg+xml</dc:format>
    <dc:creator>
     <cc:Agent>
      <dc:title>Matplotlib v3.7.2, https://matplotlib.org/</dc:title>
     </cc:Agent>
    </dc:creator>
   </cc:Work>
  </rdf:RDF>
 </metadata>
 <defs>
  <style type="text/css">*{stroke-linejoin: round; stroke-linecap: butt}</style>
 </defs>
 <g id="figure_1">
  <g id="patch_1">
   <path d="M 0 246.605625 
L 721.706322 246.605625 
L 721.706322 0 
L 0 0 
z
" style="fill: #ffffff"/>
  </g>
  <g id="axes_1">
   <g id="patch_2">
    <path d="M 37.921875 210.24 
L 234.863051 210.24 
L 234.863051 43.92 
L 37.921875 43.92 
z
" style="fill: #ffffff"/>
   </g>
   <g id="matplotlib.axis_1">
    <g id="xtick_1">
     <g id="line2d_1">
      <defs>
       <path id="m9a15306ada" d="M 0 0 
L 0 3.5 
" style="stroke: #000000; stroke-width: 0.8"/>
      </defs>
      <g>
       <use xlink:href="#m9a15306ada" x="46.873747" y="210.24" style="stroke: #000000; stroke-width: 0.8"/>
      </g>
     </g>
     <g id="text_1">
      <!-- 0 -->
      <g transform="translate(44.373747 224.18375) scale(0.1 -0.1)">
       <defs>
        <path id="TimesNewRomanPSMT-30" d="M 231 2094 
Q 231 2819 450 3342 
Q 669 3866 1031 4122 
Q 1313 4325 1613 4325 
Q 2100 4325 2488 3828 
Q 2972 3213 2972 2159 
Q 2972 1422 2759 906 
Q 2547 391 2217 158 
Q 1888 -75 1581 -75 
Q 975 -75 572 641 
Q 231 1244 231 2094 
z
M 844 2016 
Q 844 1141 1059 588 
Q 1238 122 1591 122 
Q 1759 122 1940 273 
Q 2122 425 2216 781 
Q 2359 1319 2359 2297 
Q 2359 3022 2209 3506 
Q 2097 3866 1919 4016 
Q 1791 4119 1609 4119 
Q 1397 4119 1231 3928 
Q 1006 3669 925 3112 
Q 844 2556 844 2016 
z
" transform="scale(0.015625)"/>
       </defs>
       <use xlink:href="#TimesNewRomanPSMT-30"/>
      </g>
     </g>
    </g>
    <g id="xtick_2">
     <g id="line2d_2">
      <g>
       <use xlink:href="#m9a15306ada" x="93.742185" y="210.24" style="stroke: #000000; stroke-width: 0.8"/>
      </g>
     </g>
     <g id="text_2">
      <!-- 50 -->
      <g transform="translate(88.742185 224.18375) scale(0.1 -0.1)">
       <defs>
        <path id="TimesNewRomanPSMT-35" d="M 2778 4238 
L 2534 3706 
L 1259 3706 
L 981 3138 
Q 1809 3016 2294 2522 
Q 2709 2097 2709 1522 
Q 2709 1188 2573 903 
Q 2438 619 2231 419 
Q 2025 219 1772 97 
Q 1413 -75 1034 -75 
Q 653 -75 479 54 
Q 306 184 306 341 
Q 306 428 378 495 
Q 450 563 559 563 
Q 641 563 702 538 
Q 763 513 909 409 
Q 1144 247 1384 247 
Q 1750 247 2026 523 
Q 2303 800 2303 1197 
Q 2303 1581 2056 1914 
Q 1809 2247 1375 2428 
Q 1034 2569 447 2591 
L 1259 4238 
L 2778 4238 
z
" transform="scale(0.015625)"/>
       </defs>
       <use xlink:href="#TimesNewRomanPSMT-35"/>
       <use xlink:href="#TimesNewRomanPSMT-30" x="50"/>
      </g>
     </g>
    </g>
    <g id="xtick_3">
     <g id="line2d_3">
      <g>
       <use xlink:href="#m9a15306ada" x="140.610623" y="210.24" style="stroke: #000000; stroke-width: 0.8"/>
      </g>
     </g>
     <g id="text_3">
      <!-- 100 -->
      <g transform="translate(133.110623 224.18375) scale(0.1 -0.1)">
       <defs>
        <path id="TimesNewRomanPSMT-31" d="M 750 3822 
L 1781 4325 
L 1884 4325 
L 1884 747 
Q 1884 391 1914 303 
Q 1944 216 2037 169 
Q 2131 122 2419 116 
L 2419 0 
L 825 0 
L 825 116 
Q 1125 122 1212 167 
Q 1300 213 1334 289 
Q 1369 366 1369 747 
L 1369 3034 
Q 1369 3497 1338 3628 
Q 1316 3728 1258 3775 
Q 1200 3822 1119 3822 
Q 1003 3822 797 3725 
L 750 3822 
z
" transform="scale(0.015625)"/>
       </defs>
       <use xlink:href="#TimesNewRomanPSMT-31"/>
       <use xlink:href="#TimesNewRomanPSMT-30" x="50"/>
       <use xlink:href="#TimesNewRomanPSMT-30" x="100"/>
      </g>
     </g>
    </g>
    <g id="xtick_4">
     <g id="line2d_4">
      <g>
       <use xlink:href="#m9a15306ada" x="187.479061" y="210.24" style="stroke: #000000; stroke-width: 0.8"/>
      </g>
     </g>
     <g id="text_4">
      <!-- 150 -->
      <g transform="translate(179.979061 224.18375) scale(0.1 -0.1)">
       <use xlink:href="#TimesNewRomanPSMT-31"/>
       <use xlink:href="#TimesNewRomanPSMT-35" x="50"/>
       <use xlink:href="#TimesNewRomanPSMT-30" x="100"/>
      </g>
     </g>
    </g>
    <g id="xtick_5">
     <g id="line2d_5">
      <g>
       <use xlink:href="#m9a15306ada" x="234.347499" y="210.24" style="stroke: #000000; stroke-width: 0.8"/>
      </g>
     </g>
     <g id="text_5">
      <!-- 200 -->
      <g transform="translate(226.847499 224.18375) scale(0.1 -0.1)">
       <defs>
        <path id="TimesNewRomanPSMT-32" d="M 2934 816 
L 2638 0 
L 138 0 
L 138 116 
Q 1241 1122 1691 1759 
Q 2141 2397 2141 2925 
Q 2141 3328 1894 3587 
Q 1647 3847 1303 3847 
Q 991 3847 742 3664 
Q 494 3481 375 3128 
L 259 3128 
Q 338 3706 661 4015 
Q 984 4325 1469 4325 
Q 1984 4325 2329 3994 
Q 2675 3663 2675 3213 
Q 2675 2891 2525 2569 
Q 2294 2063 1775 1497 
Q 997 647 803 472 
L 1909 472 
Q 2247 472 2383 497 
Q 2519 522 2628 598 
Q 2738 675 2819 816 
L 2934 816 
z
" transform="scale(0.015625)"/>
       </defs>
       <use xlink:href="#TimesNewRomanPSMT-32"/>
       <use xlink:href="#TimesNewRomanPSMT-30" x="50"/>
       <use xlink:href="#TimesNewRomanPSMT-30" x="100"/>
      </g>
     </g>
    </g>
    <g id="text_6">
     <!-- times -->
     <g transform="translate(125.559651 237.266563) scale(0.1 -0.1)">
      <defs>
       <path id="TimesNewRomanPSMT-74" d="M 1031 3803 
L 1031 2863 
L 1700 2863 
L 1700 2644 
L 1031 2644 
L 1031 788 
Q 1031 509 1111 412 
Q 1191 316 1316 316 
Q 1419 316 1516 380 
Q 1613 444 1666 569 
L 1788 569 
Q 1678 263 1478 108 
Q 1278 -47 1066 -47 
Q 922 -47 784 33 
Q 647 113 581 261 
Q 516 409 516 719 
L 516 2644 
L 63 2644 
L 63 2747 
Q 234 2816 414 2980 
Q 594 3144 734 3369 
Q 806 3488 934 3803 
L 1031 3803 
z
" transform="scale(0.015625)"/>
       <path id="TimesNewRomanPSMT-69" d="M 928 4444 
Q 1059 4444 1151 4351 
Q 1244 4259 1244 4128 
Q 1244 3997 1151 3903 
Q 1059 3809 928 3809 
Q 797 3809 703 3903 
Q 609 3997 609 4128 
Q 609 4259 701 4351 
Q 794 4444 928 4444 
z
M 1188 2947 
L 1188 647 
Q 1188 378 1227 289 
Q 1266 200 1342 156 
Q 1419 113 1622 113 
L 1622 0 
L 231 0 
L 231 113 
Q 441 113 512 153 
Q 584 194 626 287 
Q 669 381 669 647 
L 669 1750 
Q 669 2216 641 2353 
Q 619 2453 572 2492 
Q 525 2531 444 2531 
Q 356 2531 231 2484 
L 188 2597 
L 1050 2947 
L 1188 2947 
z
" transform="scale(0.015625)"/>
       <path id="TimesNewRomanPSMT-6d" d="M 1050 2338 
Q 1363 2650 1419 2697 
Q 1559 2816 1721 2881 
Q 1884 2947 2044 2947 
Q 2313 2947 2506 2790 
Q 2700 2634 2766 2338 
Q 3088 2713 3309 2830 
Q 3531 2947 3766 2947 
Q 3994 2947 4170 2830 
Q 4347 2713 4450 2447 
Q 4519 2266 4519 1878 
L 4519 647 
Q 4519 378 4559 278 
Q 4591 209 4675 161 
Q 4759 113 4950 113 
L 4950 0 
L 3538 0 
L 3538 113 
L 3597 113 
Q 3781 113 3884 184 
Q 3956 234 3988 344 
Q 4000 397 4000 647 
L 4000 1878 
Q 4000 2228 3916 2372 
Q 3794 2572 3525 2572 
Q 3359 2572 3192 2489 
Q 3025 2406 2788 2181 
L 2781 2147 
L 2788 2013 
L 2788 647 
Q 2788 353 2820 281 
Q 2853 209 2943 161 
Q 3034 113 3253 113 
L 3253 0 
L 1806 0 
L 1806 113 
Q 2044 113 2133 169 
Q 2222 225 2256 338 
Q 2272 391 2272 647 
L 2272 1878 
Q 2272 2228 2169 2381 
Q 2031 2581 1784 2581 
Q 1616 2581 1450 2491 
Q 1191 2353 1050 2181 
L 1050 647 
Q 1050 366 1089 281 
Q 1128 197 1204 155 
Q 1281 113 1516 113 
L 1516 0 
L 100 0 
L 100 113 
Q 297 113 375 155 
Q 453 197 493 289 
Q 534 381 534 647 
L 534 1741 
Q 534 2213 506 2350 
Q 484 2453 437 2492 
Q 391 2531 309 2531 
Q 222 2531 100 2484 
L 53 2597 
L 916 2947 
L 1050 2947 
L 1050 2338 
z
" transform="scale(0.015625)"/>
       <path id="TimesNewRomanPSMT-65" d="M 681 1784 
Q 678 1147 991 784 
Q 1303 422 1725 422 
Q 2006 422 2214 576 
Q 2422 731 2563 1106 
L 2659 1044 
Q 2594 616 2278 264 
Q 1963 -88 1488 -88 
Q 972 -88 605 314 
Q 238 716 238 1394 
Q 238 2128 614 2539 
Q 991 2950 1559 2950 
Q 2041 2950 2350 2633 
Q 2659 2316 2659 1784 
L 681 1784 
z
M 681 1966 
L 2006 1966 
Q 1991 2241 1941 2353 
Q 1863 2528 1708 2628 
Q 1553 2728 1384 2728 
Q 1125 2728 920 2526 
Q 716 2325 681 1966 
z
" transform="scale(0.015625)"/>
       <path id="TimesNewRomanPSMT-73" d="M 2050 2947 
L 2050 1972 
L 1947 1972 
Q 1828 2431 1642 2597 
Q 1456 2763 1169 2763 
Q 950 2763 815 2647 
Q 681 2531 681 2391 
Q 681 2216 781 2091 
Q 878 1963 1175 1819 
L 1631 1597 
Q 2266 1288 2266 781 
Q 2266 391 1970 151 
Q 1675 -88 1309 -88 
Q 1047 -88 709 6 
Q 606 38 541 38 
Q 469 38 428 -44 
L 325 -44 
L 325 978 
L 428 978 
Q 516 541 762 319 
Q 1009 97 1316 97 
Q 1531 97 1667 223 
Q 1803 350 1803 528 
Q 1803 744 1651 891 
Q 1500 1038 1047 1263 
Q 594 1488 453 1669 
Q 313 1847 313 2119 
Q 313 2472 555 2709 
Q 797 2947 1181 2947 
Q 1350 2947 1591 2875 
Q 1750 2828 1803 2828 
Q 1853 2828 1881 2850 
Q 1909 2872 1947 2947 
L 2050 2947 
z
" transform="scale(0.015625)"/>
      </defs>
      <use xlink:href="#TimesNewRomanPSMT-74"/>
      <use xlink:href="#TimesNewRomanPSMT-69" x="27.783203"/>
      <use xlink:href="#TimesNewRomanPSMT-6d" x="55.566406"/>
      <use xlink:href="#TimesNewRomanPSMT-65" x="133.349609"/>
      <use xlink:href="#TimesNewRomanPSMT-73" x="177.734375"/>
     </g>
    </g>
   </g>
   <g id="matplotlib.axis_2">
    <g id="ytick_1">
     <g id="line2d_6">
      <defs>
       <path id="me4c6c13cfb" d="M 0 0 
L -3.5 0 
" style="stroke: #000000; stroke-width: 0.8"/>
      </defs>
      <g>
       <use xlink:href="#me4c6c13cfb" x="37.921875" y="207.873754" style="stroke: #000000; stroke-width: 0.8"/>
      </g>
     </g>
     <g id="text_7">
      <!-- −1 -->
      <g transform="translate(20.282812 211.345629) scale(0.1 -0.1)">
       <defs>
        <path id="TimesNewRomanPSMT-2212" d="M 3484 2000 
L 116 2000 
L 116 2256 
L 3484 2256 
L 3484 2000 
z
" transform="scale(0.015625)"/>
       </defs>
       <use xlink:href="#TimesNewRomanPSMT-2212"/>
       <use xlink:href="#TimesNewRomanPSMT-31" x="56.396484"/>
      </g>
     </g>
    </g>
    <g id="ytick_2">
     <g id="line2d_7">
      <g>
       <use xlink:href="#me4c6c13cfb" x="37.921875" y="170.254242" style="stroke: #000000; stroke-width: 0.8"/>
      </g>
     </g>
     <g id="text_8">
      <!-- 0 -->
      <g transform="translate(25.921875 173.726117) scale(0.1 -0.1)">
       <use xlink:href="#TimesNewRomanPSMT-30"/>
      </g>
     </g>
    </g>
    <g id="ytick_3">
     <g id="line2d_8">
      <g>
       <use xlink:href="#me4c6c13cfb" x="37.921875" y="132.63473" style="stroke: #000000; stroke-width: 0.8"/>
      </g>
     </g>
     <g id="text_9">
      <!-- 1 -->
      <g transform="translate(25.921875 136.106605) scale(0.1 -0.1)">
       <use xlink:href="#TimesNewRomanPSMT-31"/>
      </g>
     </g>
    </g>
    <g id="ytick_4">
     <g id="line2d_9">
      <g>
       <use xlink:href="#me4c6c13cfb" x="37.921875" y="95.015218" style="stroke: #000000; stroke-width: 0.8"/>
      </g>
     </g>
     <g id="text_10">
      <!-- 2 -->
      <g transform="translate(25.921875 98.487093) scale(0.1 -0.1)">
       <use xlink:href="#TimesNewRomanPSMT-32"/>
      </g>
     </g>
    </g>
    <g id="ytick_5">
     <g id="line2d_10">
      <g>
       <use xlink:href="#me4c6c13cfb" x="37.921875" y="57.395706" style="stroke: #000000; stroke-width: 0.8"/>
      </g>
     </g>
     <g id="text_11">
      <!-- 3 -->
      <g transform="translate(25.921875 60.867581) scale(0.1 -0.1)">
       <defs>
        <path id="TimesNewRomanPSMT-33" d="M 325 3431 
Q 506 3859 782 4092 
Q 1059 4325 1472 4325 
Q 1981 4325 2253 3994 
Q 2459 3747 2459 3466 
Q 2459 3003 1878 2509 
Q 2269 2356 2469 2072 
Q 2669 1788 2669 1403 
Q 2669 853 2319 450 
Q 1863 -75 997 -75 
Q 569 -75 414 31 
Q 259 138 259 259 
Q 259 350 332 419 
Q 406 488 509 488 
Q 588 488 669 463 
Q 722 447 909 348 
Q 1097 250 1169 231 
Q 1284 197 1416 197 
Q 1734 197 1970 444 
Q 2206 691 2206 1028 
Q 2206 1275 2097 1509 
Q 2016 1684 1919 1775 
Q 1784 1900 1550 2001 
Q 1316 2103 1072 2103 
L 972 2103 
L 972 2197 
Q 1219 2228 1467 2375 
Q 1716 2522 1828 2728 
Q 1941 2934 1941 3181 
Q 1941 3503 1739 3701 
Q 1538 3900 1238 3900 
Q 753 3900 428 3381 
L 325 3431 
z
" transform="scale(0.015625)"/>
       </defs>
       <use xlink:href="#TimesNewRomanPSMT-33"/>
      </g>
     </g>
    </g>
    <g id="text_12">
     <!-- values -->
     <g transform="translate(14.14375 139.854219) rotate(-90) scale(0.1 -0.1)">
      <defs>
       <path id="TimesNewRomanPSMT-76" d="M 53 2863 
L 1400 2863 
L 1400 2747 
L 1313 2747 
Q 1191 2747 1127 2687 
Q 1063 2628 1063 2528 
Q 1063 2419 1128 2269 
L 1794 688 
L 2463 2328 
Q 2534 2503 2534 2594 
Q 2534 2638 2509 2666 
Q 2475 2713 2422 2730 
Q 2369 2747 2206 2747 
L 2206 2863 
L 3141 2863 
L 3141 2747 
Q 2978 2734 2916 2681 
Q 2806 2588 2719 2369 
L 1703 -88 
L 1575 -88 
L 553 2328 
Q 484 2497 421 2570 
Q 359 2644 263 2694 
Q 209 2722 53 2747 
L 53 2863 
z
" transform="scale(0.015625)"/>
       <path id="TimesNewRomanPSMT-61" d="M 1822 413 
Q 1381 72 1269 19 
Q 1100 -59 909 -59 
Q 613 -59 420 144 
Q 228 347 228 678 
Q 228 888 322 1041 
Q 450 1253 767 1440 
Q 1084 1628 1822 1897 
L 1822 2009 
Q 1822 2438 1686 2597 
Q 1550 2756 1291 2756 
Q 1094 2756 978 2650 
Q 859 2544 859 2406 
L 866 2225 
Q 866 2081 792 2003 
Q 719 1925 600 1925 
Q 484 1925 411 2006 
Q 338 2088 338 2228 
Q 338 2497 613 2722 
Q 888 2947 1384 2947 
Q 1766 2947 2009 2819 
Q 2194 2722 2281 2516 
Q 2338 2381 2338 1966 
L 2338 994 
Q 2338 584 2353 492 
Q 2369 400 2405 369 
Q 2441 338 2488 338 
Q 2538 338 2575 359 
Q 2641 400 2828 588 
L 2828 413 
Q 2478 -56 2159 -56 
Q 2006 -56 1915 50 
Q 1825 156 1822 413 
z
M 1822 616 
L 1822 1706 
Q 1350 1519 1213 1441 
Q 966 1303 859 1153 
Q 753 1003 753 825 
Q 753 600 887 451 
Q 1022 303 1197 303 
Q 1434 303 1822 616 
z
" transform="scale(0.015625)"/>
       <path id="TimesNewRomanPSMT-6c" d="M 1184 4444 
L 1184 647 
Q 1184 378 1223 290 
Q 1263 203 1344 158 
Q 1425 113 1647 113 
L 1647 0 
L 244 0 
L 244 113 
Q 441 113 512 153 
Q 584 194 625 287 
Q 666 381 666 647 
L 666 3247 
Q 666 3731 644 3842 
Q 622 3953 573 3993 
Q 525 4034 450 4034 
Q 369 4034 244 3984 
L 191 4094 
L 1044 4444 
L 1184 4444 
z
" transform="scale(0.015625)"/>
       <path id="TimesNewRomanPSMT-75" d="M 2709 2863 
L 2709 1128 
Q 2709 631 2732 520 
Q 2756 409 2807 365 
Q 2859 322 2928 322 
Q 3025 322 3147 375 
L 3191 266 
L 2334 -88 
L 2194 -88 
L 2194 519 
Q 1825 119 1631 15 
Q 1438 -88 1222 -88 
Q 981 -88 804 51 
Q 628 191 559 409 
Q 491 628 491 1028 
L 491 2306 
Q 491 2509 447 2587 
Q 403 2666 317 2708 
Q 231 2750 6 2747 
L 6 2863 
L 1009 2863 
L 1009 947 
Q 1009 547 1148 422 
Q 1288 297 1484 297 
Q 1619 297 1789 381 
Q 1959 466 2194 703 
L 2194 2325 
Q 2194 2569 2105 2655 
Q 2016 2741 1734 2747 
L 1734 2863 
L 2709 2863 
z
" transform="scale(0.015625)"/>
      </defs>
      <use xlink:href="#TimesNewRomanPSMT-76"/>
      <use xlink:href="#TimesNewRomanPSMT-61" x="50"/>
      <use xlink:href="#TimesNewRomanPSMT-6c" x="94.384766"/>
      <use xlink:href="#TimesNewRomanPSMT-75" x="122.167969"/>
      <use xlink:href="#TimesNewRomanPSMT-65" x="172.167969"/>
      <use xlink:href="#TimesNewRomanPSMT-73" x="216.552734"/>
     </g>
    </g>
   </g>
   <g id="line2d_11">
    <path d="M 46.873747 56.869023 
L 47.811115 77.033099 
L 48.748484 97.197141 
L 49.685853 114.803078 
L 50.623222 122.364596 
L 51.56059 127.405619 
L 52.497959 129.926131 
L 53.435328 132.446625 
L 54.372697 129.926131 
L 55.310065 129.926131 
L 56.247434 114.803078 
L 57.184803 114.803078 
L 58.122172 124.885107 
L 59.059541 107.279171 
L 59.996909 92.156135 
L 60.934278 66.951069 
L 61.871647 74.512587 
L 62.809016 89.63564 
L 63.746384 124.885107 
L 64.683753 147.569678 
L 65.621122 137.487649 
L 66.558491 122.364596 
L 67.495859 107.279171 
L 68.433228 89.63564 
L 69.370597 79.553594 
L 70.307966 89.63564 
L 71.245334 107.279171 
L 72.182703 122.364596 
L 73.120072 127.405619 
L 74.057441 134.967137 
L 74.994809 134.967137 
L 75.932178 134.967137 
L 76.869547 137.487649 
L 77.806916 134.967137 
L 78.744284 122.364596 
L 79.681653 122.364596 
L 80.619022 137.487649 
L 81.556391 122.364596 
L 82.49376 129.926131 
L 83.431128 107.279171 
L 84.368497 147.569678 
L 85.305866 137.487649 
L 86.243235 137.487649 
L 87.180603 124.885107 
L 88.117972 112.282566 
L 89.055341 112.282566 
L 89.99271 87.115112 
L 90.930078 94.676646 
L 91.867447 87.115112 
L 92.804816 102.238164 
L 93.742185 114.803078 
L 94.679553 127.405619 
L 95.616922 134.967137 
L 96.554291 134.967137 
L 97.49166 142.528655 
L 98.429028 140.00816 
L 99.366397 134.967137 
L 100.303766 140.00816 
L 101.241135 124.885107 
L 102.178503 102.238164 
L 103.115872 117.323589 
L 104.053241 119.844101 
L 104.99061 114.803078 
L 105.927979 124.885107 
L 106.865347 117.323589 
L 107.802716 112.282566 
L 108.740085 102.238164 
L 109.677454 87.115112 
L 110.614822 84.594617 
L 111.552191 82.074105 
L 112.48956 66.951069 
L 113.426929 59.389551 
L 114.364297 66.951069 
L 115.301666 77.033099 
L 116.239035 89.63564 
L 117.176404 104.758676 
L 118.113772 127.405619 
L 119.051141 129.926131 
L 119.98851 132.446625 
L 120.925879 132.446625 
L 121.863247 134.967137 
L 122.800616 132.446625 
L 123.737985 127.405619 
L 124.675354 114.803078 
L 125.612722 122.364596 
L 126.550091 129.926131 
L 127.48746 124.885107 
L 128.424829 132.446625 
L 129.362198 132.446625 
L 130.299566 132.446625 
L 131.236935 134.967137 
L 132.174304 132.446625 
L 133.111673 122.364596 
L 134.049041 109.762071 
L 134.98641 87.115112 
L 135.923779 84.594617 
L 136.861148 89.63564 
" clip-path="url(#pe8b0ccd110)" style="fill: none; stroke: #21266e; stroke-width: 0.9; stroke-linecap: square"/>
   </g>
   <g id="line2d_12">
    <path d="M 136.861148 89.63564 
L 137.798516 94.676646 
L 138.735885 112.282566 
L 139.673254 122.364596 
L 140.610623 132.446625 
L 141.547991 132.446625 
L 142.48536 140.00816 
L 143.422729 140.00816 
L 144.360098 140.00816 
L 145.297466 137.487649 
L 146.234835 122.364596 
L 147.172204 107.279171 
L 148.109573 145.049167 
L 149.046941 122.364596 
L 149.98431 102.238164 
L 150.921679 79.553594 
L 151.859048 89.63564 
L 152.796417 102.238164 
L 153.733785 124.885107 
L 154.671154 150.09019 
L 155.608523 150.09019 
L 156.545892 124.885107 
L 157.48326 107.279171 
L 158.420629 89.63564 
L 159.357998 89.63564 
L 160.295367 97.197141 
L 161.232735 114.803078 
L 162.170104 119.844101 
L 163.107473 132.446625 
L 164.044842 140.00816 
L 164.98221 142.528655 
L 165.919579 142.528655 
L 166.856948 142.528655 
L 167.794317 142.528655 
L 168.731685 132.446625 
L 169.669054 114.803078 
L 170.606423 124.885107 
L 171.543792 137.487649 
L 172.48116 134.967137 
L 173.418529 129.926131 
L 174.355898 127.405619 
L 175.293267 117.323589 
L 176.230636 102.238164 
L 177.168004 109.762071 
L 178.105373 104.758676 
L 179.042742 84.594617 
L 179.980111 74.512587 
L 180.917479 66.951069 
L 181.854848 87.115112 
L 182.792217 92.156135 
L 183.729586 109.762071 
L 184.666954 122.364596 
L 185.604323 129.926131 
L 186.541692 132.446625 
L 187.479061 134.967137 
L 188.416429 137.487649 
L 189.353798 140.00816 
L 190.291167 140.00816 
L 191.228536 132.446625 
L 192.165904 114.803078 
L 193.103273 112.282566 
L 194.040642 124.885107 
L 194.978011 124.885107 
L 195.915379 112.282566 
L 196.852748 114.803078 
L 197.790117 117.323589 
L 198.727486 112.282566 
L 199.664855 102.238164 
L 200.602223 102.238164 
L 201.539592 92.156135 
L 202.476961 74.512587 
L 203.41433 64.430541 
L 204.351698 77.033099 
L 205.289067 84.594617 
L 206.226436 99.717653 
L 207.163805 119.844101 
L 208.101173 127.405619 
L 209.038542 134.967137 
L 209.975911 132.446625 
L 210.91328 142.528655 
L 211.850648 142.528655 
L 212.788017 137.487649 
L 213.725386 127.405619 
L 214.662755 102.238164 
L 215.600123 109.762071 
L 216.537492 117.323589 
L 217.474861 112.282566 
L 218.41223 114.803078 
L 219.349598 109.762071 
L 220.286967 109.762071 
L 221.224336 107.279171 
L 222.161705 89.63564 
L 223.099074 94.676646 
L 224.036442 87.115112 
L 224.973811 64.430541 
L 225.91118 54.348528 
" clip-path="url(#pe8b0ccd110)" style="fill: none; stroke: #21266e; stroke-width: 0.9; stroke-linecap: square"/>
   </g>
   <g id="line2d_13">
    <path d="M 136.861148 63.645383 
L 137.798516 61.749062 
L 138.735885 66.649654 
L 139.673254 69.823936 
L 140.610623 68.731454 
L 141.547991 66.803661 
L 142.48536 63.691557 
L 143.422729 53.140849 
L 144.360098 51.48 
L 145.297466 80.571959 
L 146.234835 108.916259 
L 147.172204 118.118921 
L 148.109573 128.085602 
L 149.046941 159.353166 
L 149.98431 149.063825 
L 150.921679 159.998653 
L 151.859048 173.717066 
L 152.796417 182.818045 
L 153.733785 188.533329 
L 154.671154 191.2084 
L 155.608523 196.325396 
L 156.545892 201.901075 
L 157.48326 185.918525 
L 158.420629 145.304772 
L 159.357998 108.833568 
L 160.295367 97.964332 
L 161.232735 96.939633 
L 162.170104 97.344449 
L 163.107473 101.784285 
L 164.044842 111.210926 
L 164.98221 122.667301 
L 165.919579 125.408341 
L 166.856948 110.667433 
L 167.794317 107.340404 
L 168.731685 124.301357 
L 169.669054 135.941635 
L 170.606423 153.024671 
L 171.543792 166.623516 
L 172.48116 144.210506 
L 173.418529 143.629022 
L 174.355898 153.762485 
L 175.293267 166.12639 
L 176.230636 177.38861 
L 177.168004 187.52794 
L 178.105373 198.130268 
L 179.042742 202.68 
L 179.980111 181.333617 
L 180.917479 136.30694 
L 181.854848 99.849709 
L 182.792217 91.473491 
L 183.729586 91.943385 
L 184.666954 94.548758 
L 185.604323 101.349392 
L 186.541692 111.077651 
L 187.479061 118.056819 
L 188.416429 114.994918 
L 189.353798 110.462576 
L 190.291167 125.121594 
L 191.228536 139.659143 
L 192.165904 145.6333 
L 193.103273 170.151552 
L 194.040642 170.328304 
L 194.978011 154.867537 
L 195.915379 156.878317 
L 196.852748 164.933312 
L 197.790117 173.568506 
L 198.727486 181.512519 
L 199.664855 189.810916 
L 200.602223 199.456868 
L 201.539592 201.720972 
L 202.476961 177.2373 
L 203.41433 135.739043 
L 204.351698 113.015214 
L 205.289067 109.484656 
L 206.226436 108.778606 
L 207.163805 110.811576 
L 208.101173 117.197119 
L 209.038542 126.268921 
L 209.975911 133.490462 
L 210.91328 130.526024 
L 211.850648 122.400458 
L 212.788017 131.40339 
L 213.725386 142.748468 
L 214.662755 148.431277 
L 215.600123 174.964376 
L 216.537492 162.966427 
L 217.474861 150.181648 
L 218.41223 153.671758 
L 219.349598 162.759417 
L 220.286967 170.943331 
L 221.224336 178.111253 
L 222.161705 186.438225 
L 223.099074 195.545674 
L 224.036442 192.606305 
L 224.973811 162.932317 
L 225.91118 124.462654 
" clip-path="url(#pe8b0ccd110)" style="fill: none; stroke: #d70005; stroke-width: 0.9; stroke-linecap: square"/>
   </g>
   <g id="patch_3">
    <path d="M 37.921875 210.24 
L 37.921875 43.92 
" style="fill: none; stroke: #000000; stroke-width: 0.8; stroke-linejoin: miter; stroke-linecap: square"/>
   </g>
   <g id="patch_4">
    <path d="M 234.863051 210.24 
L 234.863051 43.92 
" style="fill: none; stroke: #000000; stroke-width: 0.8; stroke-linejoin: miter; stroke-linecap: square"/>
   </g>
   <g id="patch_5">
    <path d="M 37.921875 210.24 
L 234.863051 210.24 
" style="fill: none; stroke: #000000; stroke-width: 0.8; stroke-linejoin: miter; stroke-linecap: square"/>
   </g>
   <g id="patch_6">
    <path d="M 37.921875 43.92 
L 234.863051 43.92 
" style="fill: none; stroke: #000000; stroke-width: 0.8; stroke-linejoin: miter; stroke-linecap: square"/>
   </g>
   <g id="text_13">
    <!-- lstm_short model -->
    <g transform="translate(94.559338 37.92) scale(0.12 -0.12)">
     <defs>
      <path id="TimesNewRomanPSMT-5f" d="M 3256 -1381 
L -53 -1381 
L -53 -1119 
L 3256 -1119 
L 3256 -1381 
z
" transform="scale(0.015625)"/>
      <path id="TimesNewRomanPSMT-68" d="M 1041 4444 
L 1041 2350 
Q 1388 2731 1591 2839 
Q 1794 2947 1997 2947 
Q 2241 2947 2416 2812 
Q 2591 2678 2675 2391 
Q 2734 2191 2734 1659 
L 2734 647 
Q 2734 375 2778 275 
Q 2809 200 2884 156 
Q 2959 113 3159 113 
L 3159 0 
L 1753 0 
L 1753 113 
L 1819 113 
Q 2019 113 2097 173 
Q 2175 234 2206 353 
Q 2216 403 2216 647 
L 2216 1659 
Q 2216 2128 2167 2275 
Q 2119 2422 2012 2495 
Q 1906 2569 1756 2569 
Q 1603 2569 1437 2487 
Q 1272 2406 1041 2159 
L 1041 647 
Q 1041 353 1073 281 
Q 1106 209 1195 161 
Q 1284 113 1503 113 
L 1503 0 
L 84 0 
L 84 113 
Q 275 113 384 172 
Q 447 203 484 290 
Q 522 378 522 647 
L 522 3238 
Q 522 3728 498 3840 
Q 475 3953 426 3993 
Q 378 4034 297 4034 
Q 231 4034 84 3984 
L 41 4094 
L 897 4444 
L 1041 4444 
z
" transform="scale(0.015625)"/>
      <path id="TimesNewRomanPSMT-6f" d="M 1600 2947 
Q 2250 2947 2644 2453 
Q 2978 2031 2978 1484 
Q 2978 1100 2793 706 
Q 2609 313 2286 112 
Q 1963 -88 1566 -88 
Q 919 -88 538 428 
Q 216 863 216 1403 
Q 216 1797 411 2186 
Q 606 2575 925 2761 
Q 1244 2947 1600 2947 
z
M 1503 2744 
Q 1338 2744 1170 2645 
Q 1003 2547 900 2300 
Q 797 2053 797 1666 
Q 797 1041 1045 587 
Q 1294 134 1700 134 
Q 2003 134 2200 384 
Q 2397 634 2397 1244 
Q 2397 2006 2069 2444 
Q 1847 2744 1503 2744 
z
" transform="scale(0.015625)"/>
      <path id="TimesNewRomanPSMT-72" d="M 1038 2947 
L 1038 2303 
Q 1397 2947 1775 2947 
Q 1947 2947 2059 2842 
Q 2172 2738 2172 2600 
Q 2172 2478 2090 2393 
Q 2009 2309 1897 2309 
Q 1788 2309 1652 2417 
Q 1516 2525 1450 2525 
Q 1394 2525 1328 2463 
Q 1188 2334 1038 2041 
L 1038 669 
Q 1038 431 1097 309 
Q 1138 225 1241 169 
Q 1344 113 1538 113 
L 1538 0 
L 72 0 
L 72 113 
Q 291 113 397 181 
Q 475 231 506 341 
Q 522 394 522 644 
L 522 1753 
Q 522 2253 501 2348 
Q 481 2444 426 2487 
Q 372 2531 291 2531 
Q 194 2531 72 2484 
L 41 2597 
L 906 2947 
L 1038 2947 
z
" transform="scale(0.015625)"/>
      <path id="TimesNewRomanPSMT-20" transform="scale(0.015625)"/>
      <path id="TimesNewRomanPSMT-64" d="M 2222 322 
Q 2013 103 1813 7 
Q 1613 -88 1381 -88 
Q 913 -88 563 304 
Q 213 697 213 1313 
Q 213 1928 600 2439 
Q 988 2950 1597 2950 
Q 1975 2950 2222 2709 
L 2222 3238 
Q 2222 3728 2198 3840 
Q 2175 3953 2125 3993 
Q 2075 4034 2000 4034 
Q 1919 4034 1784 3984 
L 1744 4094 
L 2597 4444 
L 2738 4444 
L 2738 1134 
Q 2738 631 2761 520 
Q 2784 409 2836 365 
Q 2888 322 2956 322 
Q 3041 322 3181 375 
L 3216 266 
L 2366 -88 
L 2222 -88 
L 2222 322 
z
M 2222 541 
L 2222 2016 
Q 2203 2228 2109 2403 
Q 2016 2578 1861 2667 
Q 1706 2756 1559 2756 
Q 1284 2756 1069 2509 
Q 784 2184 784 1559 
Q 784 928 1059 592 
Q 1334 256 1672 256 
Q 1956 256 2222 541 
z
" transform="scale(0.015625)"/>
     </defs>
     <use xlink:href="#TimesNewRomanPSMT-6c"/>
     <use xlink:href="#TimesNewRomanPSMT-73" x="27.783203"/>
     <use xlink:href="#TimesNewRomanPSMT-74" x="66.699219"/>
     <use xlink:href="#TimesNewRomanPSMT-6d" x="94.482422"/>
     <use xlink:href="#TimesNewRomanPSMT-5f" x="172.265625"/>
     <use xlink:href="#TimesNewRomanPSMT-73" x="222.265625"/>
     <use xlink:href="#TimesNewRomanPSMT-68" x="261.181641"/>
     <use xlink:href="#TimesNewRomanPSMT-6f" x="311.181641"/>
     <use xlink:href="#TimesNewRomanPSMT-72" x="361.181641"/>
     <use xlink:href="#TimesNewRomanPSMT-74" x="394.482422"/>
     <use xlink:href="#TimesNewRomanPSMT-20" x="422.265625"/>
     <use xlink:href="#TimesNewRomanPSMT-6d" x="447.265625"/>
     <use xlink:href="#TimesNewRomanPSMT-6f" x="525.048828"/>
     <use xlink:href="#TimesNewRomanPSMT-64" x="575.048828"/>
     <use xlink:href="#TimesNewRomanPSMT-65" x="625.048828"/>
     <use xlink:href="#TimesNewRomanPSMT-6c" x="669.433594"/>
    </g>
   </g>
   <g id="legend_1">
    <g id="patch_7">
     <path d="M 43.521875 206.24 
L 112.915625 206.24 
Q 114.515625 206.24 114.515625 204.64 
L 114.515625 182.8175 
Q 114.515625 181.2175 112.915625 181.2175 
L 43.521875 181.2175 
Q 41.921875 181.2175 41.921875 182.8175 
L 41.921875 204.64 
Q 41.921875 206.24 43.521875 206.24 
z
" style="fill: #ffffff; opacity: 0.8; stroke: #cccccc; stroke-linejoin: miter"/>
    </g>
    <g id="line2d_14">
     <path d="M 45.121875 187.2175 
L 53.121875 187.2175 
L 61.121875 187.2175 
" style="fill: none; stroke: #21266e; stroke-width: 0.9; stroke-linecap: square"/>
    </g>
    <g id="text_14">
     <!-- Ground Truth -->
     <g transform="translate(67.521875 190.0175) scale(0.08 -0.08)">
      <defs>
       <path id="TimesNewRomanPSMT-47" d="M 3928 4334 
L 4038 2997 
L 3928 2997 
Q 3763 3497 3500 3750 
Q 3122 4116 2528 4116 
Q 1719 4116 1297 3475 
Q 944 2934 944 2188 
Q 944 1581 1178 1081 
Q 1413 581 1792 348 
Q 2172 116 2572 116 
Q 2806 116 3025 175 
Q 3244 234 3447 350 
L 3447 1575 
Q 3447 1894 3398 1992 
Q 3350 2091 3248 2142 
Q 3147 2194 2891 2194 
L 2891 2313 
L 4531 2313 
L 4531 2194 
L 4453 2194 
Q 4209 2194 4119 2031 
Q 4056 1916 4056 1575 
L 4056 278 
Q 3697 84 3347 -6 
Q 2997 -97 2569 -97 
Q 1341 -97 703 691 
Q 225 1281 225 2053 
Q 225 2613 494 3125 
Q 813 3734 1369 4063 
Q 1834 4334 2469 4334 
Q 2700 4334 2889 4296 
Q 3078 4259 3425 4131 
Q 3600 4066 3659 4066 
Q 3719 4066 3761 4120 
Q 3803 4175 3813 4334 
L 3928 4334 
z
" transform="scale(0.015625)"/>
       <path id="TimesNewRomanPSMT-6e" d="M 1034 2341 
Q 1538 2947 1994 2947 
Q 2228 2947 2397 2830 
Q 2566 2713 2666 2444 
Q 2734 2256 2734 1869 
L 2734 647 
Q 2734 375 2778 278 
Q 2813 200 2889 156 
Q 2966 113 3172 113 
L 3172 0 
L 1756 0 
L 1756 113 
L 1816 113 
Q 2016 113 2095 173 
Q 2175 234 2206 353 
Q 2219 400 2219 647 
L 2219 1819 
Q 2219 2209 2117 2386 
Q 2016 2563 1775 2563 
Q 1403 2563 1034 2156 
L 1034 647 
Q 1034 356 1069 288 
Q 1113 197 1189 155 
Q 1266 113 1500 113 
L 1500 0 
L 84 0 
L 84 113 
L 147 113 
Q 366 113 442 223 
Q 519 334 519 647 
L 519 1709 
Q 519 2225 495 2337 
Q 472 2450 423 2490 
Q 375 2531 294 2531 
Q 206 2531 84 2484 
L 38 2597 
L 900 2947 
L 1034 2947 
L 1034 2341 
z
" transform="scale(0.015625)"/>
       <path id="TimesNewRomanPSMT-54" d="M 3703 4238 
L 3750 3244 
L 3631 3244 
Q 3597 3506 3538 3619 
Q 3441 3800 3280 3886 
Q 3119 3972 2856 3972 
L 2259 3972 
L 2259 734 
Q 2259 344 2344 247 
Q 2463 116 2709 116 
L 2856 116 
L 2856 0 
L 1059 0 
L 1059 116 
L 1209 116 
Q 1478 116 1591 278 
Q 1659 378 1659 734 
L 1659 3972 
L 1150 3972 
Q 853 3972 728 3928 
Q 566 3869 450 3700 
Q 334 3531 313 3244 
L 194 3244 
L 244 4238 
L 3703 4238 
z
" transform="scale(0.015625)"/>
      </defs>
      <use xlink:href="#TimesNewRomanPSMT-47"/>
      <use xlink:href="#TimesNewRomanPSMT-72" x="72.216797"/>
      <use xlink:href="#TimesNewRomanPSMT-6f" x="105.517578"/>
      <use xlink:href="#TimesNewRomanPSMT-75" x="155.517578"/>
      <use xlink:href="#TimesNewRomanPSMT-6e" x="205.517578"/>
      <use xlink:href="#TimesNewRomanPSMT-64" x="255.517578"/>
      <use xlink:href="#TimesNewRomanPSMT-20" x="305.517578"/>
      <use xlink:href="#TimesNewRomanPSMT-54" x="328.767578"/>
      <use xlink:href="#TimesNewRomanPSMT-72" x="386.351562"/>
      <use xlink:href="#TimesNewRomanPSMT-75" x="419.652344"/>
      <use xlink:href="#TimesNewRomanPSMT-74" x="469.652344"/>
      <use xlink:href="#TimesNewRomanPSMT-68" x="497.435547"/>
     </g>
    </g>
    <g id="line2d_15">
     <path d="M 45.121875 198.52875 
L 53.121875 198.52875 
L 61.121875 198.52875 
" style="fill: none; stroke: #d70005; stroke-width: 0.9; stroke-linecap: square"/>
    </g>
    <g id="text_15">
     <!-- prediction -->
     <g transform="translate(67.521875 201.32875) scale(0.08 -0.08)">
      <defs>
       <path id="TimesNewRomanPSMT-70" d="M -6 2578 
L 875 2934 
L 994 2934 
L 994 2266 
Q 1216 2644 1439 2795 
Q 1663 2947 1909 2947 
Q 2341 2947 2628 2609 
Q 2981 2197 2981 1534 
Q 2981 794 2556 309 
Q 2206 -88 1675 -88 
Q 1444 -88 1275 -22 
Q 1150 25 994 166 
L 994 -706 
Q 994 -1000 1030 -1079 
Q 1066 -1159 1155 -1206 
Q 1244 -1253 1478 -1253 
L 1478 -1369 
L -22 -1369 
L -22 -1253 
L 56 -1253 
Q 228 -1256 350 -1188 
Q 409 -1153 442 -1076 
Q 475 -1000 475 -688 
L 475 2019 
Q 475 2297 450 2372 
Q 425 2447 370 2484 
Q 316 2522 222 2522 
Q 147 2522 31 2478 
L -6 2578 
z
M 994 2081 
L 994 1013 
Q 994 666 1022 556 
Q 1066 375 1236 237 
Q 1406 100 1666 100 
Q 1978 100 2172 344 
Q 2425 663 2425 1241 
Q 2425 1897 2138 2250 
Q 1938 2494 1663 2494 
Q 1513 2494 1366 2419 
Q 1253 2363 994 2081 
z
" transform="scale(0.015625)"/>
       <path id="TimesNewRomanPSMT-63" d="M 2631 1088 
Q 2516 522 2178 217 
Q 1841 -88 1431 -88 
Q 944 -88 581 321 
Q 219 731 219 1428 
Q 219 2103 620 2525 
Q 1022 2947 1584 2947 
Q 2006 2947 2278 2723 
Q 2550 2500 2550 2259 
Q 2550 2141 2473 2067 
Q 2397 1994 2259 1994 
Q 2075 1994 1981 2113 
Q 1928 2178 1911 2362 
Q 1894 2547 1784 2644 
Q 1675 2738 1481 2738 
Q 1169 2738 978 2506 
Q 725 2200 725 1697 
Q 725 1184 976 792 
Q 1228 400 1656 400 
Q 1963 400 2206 609 
Q 2378 753 2541 1131 
L 2631 1088 
z
" transform="scale(0.015625)"/>
      </defs>
      <use xlink:href="#TimesNewRomanPSMT-70"/>
      <use xlink:href="#TimesNewRomanPSMT-72" x="50"/>
      <use xlink:href="#TimesNewRomanPSMT-65" x="83.300781"/>
      <use xlink:href="#TimesNewRomanPSMT-64" x="127.685547"/>
      <use xlink:href="#TimesNewRomanPSMT-69" x="177.685547"/>
      <use xlink:href="#TimesNewRomanPSMT-63" x="205.46875"/>
      <use xlink:href="#TimesNewRomanPSMT-74" x="249.853516"/>
      <use xlink:href="#TimesNewRomanPSMT-69" x="277.636719"/>
      <use xlink:href="#TimesNewRomanPSMT-6f" x="305.419922"/>
      <use xlink:href="#TimesNewRomanPSMT-6e" x="355.419922"/>
     </g>
    </g>
   </g>
  </g>
  <g id="axes_2">
   <g id="patch_8">
    <path d="M 274.251287 210.24 
L 471.192463 210.24 
L 471.192463 43.92 
L 274.251287 43.92 
z
" style="fill: #ffffff"/>
   </g>
   <g id="matplotlib.axis_3">
    <g id="xtick_6">
     <g id="line2d_16">
      <g>
       <use xlink:href="#m9a15306ada" x="283.203158" y="210.24" style="stroke: #000000; stroke-width: 0.8"/>
      </g>
     </g>
     <g id="text_16">
      <!-- 0 -->
      <g transform="translate(280.703158 224.18375) scale(0.1 -0.1)">
       <use xlink:href="#TimesNewRomanPSMT-30"/>
      </g>
     </g>
    </g>
    <g id="xtick_7">
     <g id="line2d_17">
      <g>
       <use xlink:href="#m9a15306ada" x="330.071596" y="210.24" style="stroke: #000000; stroke-width: 0.8"/>
      </g>
     </g>
     <g id="text_17">
      <!-- 50 -->
      <g transform="translate(325.071596 224.18375) scale(0.1 -0.1)">
       <use xlink:href="#TimesNewRomanPSMT-35"/>
       <use xlink:href="#TimesNewRomanPSMT-30" x="50"/>
      </g>
     </g>
    </g>
    <g id="xtick_8">
     <g id="line2d_18">
      <g>
       <use xlink:href="#m9a15306ada" x="376.940034" y="210.24" style="stroke: #000000; stroke-width: 0.8"/>
      </g>
     </g>
     <g id="text_18">
      <!-- 100 -->
      <g transform="translate(369.440034 224.18375) scale(0.1 -0.1)">
       <use xlink:href="#TimesNewRomanPSMT-31"/>
       <use xlink:href="#TimesNewRomanPSMT-30" x="50"/>
       <use xlink:href="#TimesNewRomanPSMT-30" x="100"/>
      </g>
     </g>
    </g>
    <g id="xtick_9">
     <g id="line2d_19">
      <g>
       <use xlink:href="#m9a15306ada" x="423.808472" y="210.24" style="stroke: #000000; stroke-width: 0.8"/>
      </g>
     </g>
     <g id="text_19">
      <!-- 150 -->
      <g transform="translate(416.308472 224.18375) scale(0.1 -0.1)">
       <use xlink:href="#TimesNewRomanPSMT-31"/>
       <use xlink:href="#TimesNewRomanPSMT-35" x="50"/>
       <use xlink:href="#TimesNewRomanPSMT-30" x="100"/>
      </g>
     </g>
    </g>
    <g id="xtick_10">
     <g id="line2d_20">
      <g>
       <use xlink:href="#m9a15306ada" x="470.67691" y="210.24" style="stroke: #000000; stroke-width: 0.8"/>
      </g>
     </g>
     <g id="text_20">
      <!-- 200 -->
      <g transform="translate(463.17691 224.18375) scale(0.1 -0.1)">
       <use xlink:href="#TimesNewRomanPSMT-32"/>
       <use xlink:href="#TimesNewRomanPSMT-30" x="50"/>
       <use xlink:href="#TimesNewRomanPSMT-30" x="100"/>
      </g>
     </g>
    </g>
    <g id="text_21">
     <!-- times -->
     <g transform="translate(361.889063 237.266563) scale(0.1 -0.1)">
      <use xlink:href="#TimesNewRomanPSMT-74"/>
      <use xlink:href="#TimesNewRomanPSMT-69" x="27.783203"/>
      <use xlink:href="#TimesNewRomanPSMT-6d" x="55.566406"/>
      <use xlink:href="#TimesNewRomanPSMT-65" x="133.349609"/>
      <use xlink:href="#TimesNewRomanPSMT-73" x="177.734375"/>
     </g>
    </g>
   </g>
   <g id="matplotlib.axis_4">
    <g id="ytick_6">
     <g id="line2d_21">
      <g>
       <use xlink:href="#me4c6c13cfb" x="274.251287" y="206.062954" style="stroke: #000000; stroke-width: 0.8"/>
      </g>
     </g>
     <g id="text_22">
      <!-- −1 -->
      <g transform="translate(256.612224 209.534829) scale(0.1 -0.1)">
       <use xlink:href="#TimesNewRomanPSMT-2212"/>
       <use xlink:href="#TimesNewRomanPSMT-31" x="56.396484"/>
      </g>
     </g>
    </g>
    <g id="ytick_7">
     <g id="line2d_22">
      <g>
       <use xlink:href="#me4c6c13cfb" x="274.251287" y="168.184258" style="stroke: #000000; stroke-width: 0.8"/>
      </g>
     </g>
     <g id="text_23">
      <!-- 0 -->
      <g transform="translate(262.251287 171.656133) scale(0.1 -0.1)">
       <use xlink:href="#TimesNewRomanPSMT-30"/>
      </g>
     </g>
    </g>
    <g id="ytick_8">
     <g id="line2d_23">
      <g>
       <use xlink:href="#me4c6c13cfb" x="274.251287" y="130.305563" style="stroke: #000000; stroke-width: 0.8"/>
      </g>
     </g>
     <g id="text_24">
      <!-- 1 -->
      <g transform="translate(262.251287 133.777438) scale(0.1 -0.1)">
       <use xlink:href="#TimesNewRomanPSMT-31"/>
      </g>
     </g>
    </g>
    <g id="ytick_9">
     <g id="line2d_24">
      <g>
       <use xlink:href="#me4c6c13cfb" x="274.251287" y="92.426867" style="stroke: #000000; stroke-width: 0.8"/>
      </g>
     </g>
     <g id="text_25">
      <!-- 2 -->
      <g transform="translate(262.251287 95.898742) scale(0.1 -0.1)">
       <use xlink:href="#TimesNewRomanPSMT-32"/>
      </g>
     </g>
    </g>
    <g id="ytick_10">
     <g id="line2d_25">
      <g>
       <use xlink:href="#me4c6c13cfb" x="274.251287" y="54.548172" style="stroke: #000000; stroke-width: 0.8"/>
      </g>
     </g>
     <g id="text_26">
      <!-- 3 -->
      <g transform="translate(262.251287 58.020047) scale(0.1 -0.1)">
       <use xlink:href="#TimesNewRomanPSMT-33"/>
      </g>
     </g>
    </g>
    <g id="text_27">
     <!-- values -->
     <g transform="translate(250.473162 139.854219) rotate(-90) scale(0.1 -0.1)">
      <use xlink:href="#TimesNewRomanPSMT-76"/>
      <use xlink:href="#TimesNewRomanPSMT-61" x="50"/>
      <use xlink:href="#TimesNewRomanPSMT-6c" x="94.384766"/>
      <use xlink:href="#TimesNewRomanPSMT-75" x="122.167969"/>
      <use xlink:href="#TimesNewRomanPSMT-65" x="172.167969"/>
      <use xlink:href="#TimesNewRomanPSMT-73" x="216.552734"/>
     </g>
    </g>
   </g>
   <g id="line2d_26">
    <path d="M 283.203158 54.01786 
L 284.140527 74.320858 
L 285.077896 94.623823 
L 286.015265 112.351058 
L 286.952633 119.964672 
L 287.890002 125.040426 
L 288.827371 127.578302 
L 289.76474 130.116163 
L 290.702109 127.578302 
L 291.639477 127.578302 
L 292.576846 112.351058 
L 293.514215 112.351058 
L 294.451584 122.502549 
L 295.388952 104.775314 
L 296.326321 89.548086 
L 297.26369 64.169368 
L 298.201059 71.782982 
L 299.138427 87.010226 
L 300.075796 122.502549 
L 301.013165 145.343407 
L 301.950534 135.191916 
L 302.887902 119.964672 
L 303.825271 104.775314 
L 304.76264 87.010226 
L 305.700009 76.858719 
L 306.637377 87.010226 
L 307.574746 104.775314 
L 308.512115 119.964672 
L 309.449484 125.040426 
L 310.386852 132.654039 
L 311.324221 132.654039 
L 312.26159 132.654039 
L 313.198959 135.191916 
L 314.136328 132.654039 
L 315.073696 119.964672 
L 316.011065 119.964672 
L 316.948434 135.191916 
L 317.885803 119.964672 
L 318.823171 127.578302 
L 319.76054 104.775314 
L 320.697909 145.343407 
L 321.635278 135.191916 
L 322.572646 135.191916 
L 323.510015 122.502549 
L 324.447384 109.813181 
L 325.384753 109.813181 
L 326.322121 84.472332 
L 327.25949 92.085963 
L 328.196859 84.472332 
L 329.134228 99.699577 
L 330.071596 112.351058 
L 331.008965 125.040426 
L 331.946334 132.654039 
L 332.883703 132.654039 
L 333.821071 140.267653 
L 334.75844 137.729793 
L 335.695809 132.654039 
L 336.633178 137.729793 
L 337.570547 122.502549 
L 338.507915 99.699577 
L 339.445284 114.888935 
L 340.382653 117.426812 
L 341.320022 112.351058 
L 342.25739 122.502549 
L 343.194759 114.888935 
L 344.132128 109.813181 
L 345.069497 99.699577 
L 346.006865 84.472332 
L 346.944234 81.934472 
L 347.881603 79.396595 
L 348.818972 64.169368 
L 349.75634 56.555754 
L 350.693709 64.169368 
L 351.631078 74.320858 
L 352.568447 87.010226 
L 353.505815 102.237454 
L 354.443184 125.040426 
L 355.380553 127.578302 
L 356.317922 130.116163 
L 357.25529 130.116163 
L 358.192659 132.654039 
L 359.130028 130.116163 
L 360.067397 125.040426 
L 361.004766 112.351058 
L 361.942134 119.964672 
L 362.879503 127.578302 
L 363.816872 122.502549 
L 364.754241 130.116163 
L 365.691609 130.116163 
L 366.628978 130.116163 
L 367.566347 132.654039 
L 368.503716 130.116163 
L 369.441084 119.964672 
L 370.378453 107.275321 
L 371.315822 84.472332 
L 372.253191 81.934472 
L 373.190559 87.010226 
" clip-path="url(#p9f13d3745a)" style="fill: none; stroke: #21266e; stroke-width: 0.9; stroke-linecap: square"/>
   </g>
   <g id="line2d_27">
    <path d="M 373.190559 87.010226 
L 374.127928 92.085963 
L 375.065297 109.813181 
L 376.002666 119.964672 
L 376.940034 130.116163 
L 377.877403 130.116163 
L 378.814772 137.729793 
L 379.752141 137.729793 
L 380.689509 137.729793 
L 381.626878 135.191916 
L 382.564247 119.964672 
L 383.501616 104.775314 
L 384.438984 142.80553 
L 385.376353 119.964672 
L 386.313722 99.699577 
L 387.251091 76.858719 
L 388.18846 87.010226 
L 389.125828 99.699577 
L 390.063197 122.502549 
L 391.000566 147.881284 
L 391.937935 147.881284 
L 392.875303 122.502549 
L 393.812672 104.775314 
L 394.750041 87.010226 
L 395.68741 87.010226 
L 396.624778 94.623823 
L 397.562147 112.351058 
L 398.499516 117.426812 
L 399.436885 130.116163 
L 400.374253 137.729793 
L 401.311622 140.267653 
L 402.248991 140.267653 
L 403.18636 140.267653 
L 404.123728 140.267653 
L 405.061097 130.116163 
L 405.998466 112.351058 
L 406.935835 122.502549 
L 407.873203 135.191916 
L 408.810572 132.654039 
L 409.747941 127.578302 
L 410.68531 125.040426 
L 411.622679 114.888935 
L 412.560047 99.699577 
L 413.497416 107.275321 
L 414.434785 102.237454 
L 415.372154 81.934472 
L 416.309522 71.782982 
L 417.246891 64.169368 
L 418.18426 84.472332 
L 419.121629 89.548086 
L 420.058997 107.275321 
L 420.996366 119.964672 
L 421.933735 127.578302 
L 422.871104 130.116163 
L 423.808472 132.654039 
L 424.745841 135.191916 
L 425.68321 137.729793 
L 426.620579 137.729793 
L 427.557947 130.116163 
L 428.495316 112.351058 
L 429.432685 109.813181 
L 430.370054 122.502549 
L 431.307422 122.502549 
L 432.244791 109.813181 
L 433.18216 112.351058 
L 434.119529 114.888935 
L 435.056898 109.813181 
L 435.994266 99.699577 
L 436.931635 99.699577 
L 437.869004 89.548086 
L 438.806373 71.782982 
L 439.743741 61.631474 
L 440.68111 74.320858 
L 441.618479 81.934472 
L 442.555848 97.1617 
L 443.493216 117.426812 
L 444.430585 125.040426 
L 445.367954 132.654039 
L 446.305323 130.116163 
L 447.242691 140.267653 
L 448.18006 140.267653 
L 449.117429 135.191916 
L 450.054798 125.040426 
L 450.992166 99.699577 
L 451.929535 107.275321 
L 452.866904 114.888935 
L 453.804273 109.813181 
L 454.741641 112.351058 
L 455.67901 107.275321 
L 456.616379 107.275321 
L 457.553748 104.775314 
L 458.491117 87.010226 
L 459.428485 92.085963 
L 460.365854 84.472332 
L 461.303223 61.631474 
L 462.240592 51.48 
" clip-path="url(#p9f13d3745a)" style="fill: none; stroke: #21266e; stroke-width: 0.9; stroke-linecap: square"/>
   </g>
   <g id="line2d_28">
    <path d="M 373.190559 100.43895 
L 374.127928 98.171751 
L 375.065297 100.518048 
L 376.002666 101.818837 
L 376.940034 102.589869 
L 377.877403 105.945543 
L 378.814772 117.741908 
L 379.752141 130.713136 
L 380.689509 133.805094 
L 381.626878 129.32452 
L 382.564247 124.715391 
L 383.501616 125.828078 
L 384.438984 131.226563 
L 385.376353 143.993954 
L 386.313722 167.799657 
L 387.251091 192.628504 
L 388.18846 202.68 
L 389.125828 198.804401 
L 390.063197 187.396151 
L 391.000566 172.642265 
L 391.937935 164.625678 
L 392.875303 153.693472 
L 393.812672 146.21126 
L 394.750041 140.87856 
L 395.68741 144.381263 
L 396.624778 148.056801 
L 397.562147 150.734744 
L 398.499516 150.223566 
L 399.436885 152.501691 
L 400.374253 158.041756 
L 401.311622 162.040649 
L 402.248991 157.936019 
L 403.18636 153.452084 
L 404.123728 149.255548 
L 405.061097 145.288598 
L 405.998466 144.693003 
L 406.935835 151.230932 
L 407.873203 162.015251 
L 408.810572 176.060233 
L 409.747941 182.297014 
L 410.68531 179.431552 
L 411.622679 172.029547 
L 412.560047 162.253734 
L 413.497416 154.000242 
L 414.434785 146.531023 
L 415.372154 142.231956 
L 416.309522 130.24223 
L 417.246891 122.088299 
L 418.18426 115.126963 
L 419.121629 112.492031 
L 420.058997 112.209031 
L 420.996366 115.562504 
L 421.933735 120.824624 
L 422.871104 131.766093 
L 423.808472 145.562586 
L 424.745841 156.748721 
L 425.68321 161.549128 
L 426.620579 166.131262 
L 427.557947 166.567338 
L 428.495316 169.644761 
L 429.432685 169.838677 
L 430.370054 169.425448 
L 431.307422 170.183955 
L 432.244791 167.592446 
L 433.18216 165.909615 
L 434.119529 162.098343 
L 435.056898 157.463835 
L 435.994266 153.449919 
L 436.931635 146.51491 
L 437.869004 139.076577 
L 438.806373 138.253913 
L 439.743741 134.911146 
L 440.68111 133.301269 
L 441.618479 134.19108 
L 442.555848 136.414298 
L 443.493216 139.949217 
L 444.430585 146.579368 
L 445.367954 150.955803 
L 446.305323 155.098372 
L 447.242691 152.809033 
L 448.18006 151.063908 
L 449.117429 147.60634 
L 450.054798 147.372675 
L 450.992166 149.471218 
L 451.929535 158.685411 
L 452.866904 164.659587 
L 453.804273 170.145851 
L 454.741641 171.841305 
L 455.67901 167.592849 
L 456.616379 164.933624 
L 457.553748 156.898135 
L 458.491117 144.280915 
L 459.428485 138.700898 
L 460.365854 134.365894 
L 461.303223 133.166643 
L 462.240592 129.932723 
" clip-path="url(#p9f13d3745a)" style="fill: none; stroke: #d70005; stroke-width: 0.9; stroke-linecap: square"/>
   </g>
   <g id="patch_9">
    <path d="M 274.251287 210.24 
L 274.251287 43.92 
" style="fill: none; stroke: #000000; stroke-width: 0.8; stroke-linejoin: miter; stroke-linecap: square"/>
   </g>
   <g id="patch_10">
    <path d="M 471.192463 210.24 
L 471.192463 43.92 
" style="fill: none; stroke: #000000; stroke-width: 0.8; stroke-linejoin: miter; stroke-linecap: square"/>
   </g>
   <g id="patch_11">
    <path d="M 274.251287 210.24 
L 471.192463 210.24 
" style="fill: none; stroke: #000000; stroke-width: 0.8; stroke-linejoin: miter; stroke-linecap: square"/>
   </g>
   <g id="patch_12">
    <path d="M 274.251287 43.92 
L 471.192463 43.92 
" style="fill: none; stroke: #000000; stroke-width: 0.8; stroke-linejoin: miter; stroke-linecap: square"/>
   </g>
   <g id="text_28">
    <!-- transformer_short model -->
    <g transform="translate(313.2375 37.92) scale(0.12 -0.12)">
     <defs>
      <path id="TimesNewRomanPSMT-66" d="M 1319 2638 
L 1319 756 
Q 1319 356 1406 250 
Q 1522 113 1716 113 
L 1975 113 
L 1975 0 
L 266 0 
L 266 113 
L 394 113 
Q 519 113 622 175 
Q 725 238 764 344 
Q 803 450 803 756 
L 803 2638 
L 247 2638 
L 247 2863 
L 803 2863 
L 803 3050 
Q 803 3478 940 3775 
Q 1078 4072 1361 4255 
Q 1644 4438 1997 4438 
Q 2325 4438 2600 4225 
Q 2781 4084 2781 3909 
Q 2781 3816 2700 3733 
Q 2619 3650 2525 3650 
Q 2453 3650 2373 3701 
Q 2294 3753 2178 3923 
Q 2063 4094 1966 4153 
Q 1869 4213 1750 4213 
Q 1606 4213 1506 4136 
Q 1406 4059 1362 3898 
Q 1319 3738 1319 3069 
L 1319 2863 
L 2056 2863 
L 2056 2638 
L 1319 2638 
z
" transform="scale(0.015625)"/>
     </defs>
     <use xlink:href="#TimesNewRomanPSMT-74"/>
     <use xlink:href="#TimesNewRomanPSMT-72" x="27.783203"/>
     <use xlink:href="#TimesNewRomanPSMT-61" x="61.083984"/>
     <use xlink:href="#TimesNewRomanPSMT-6e" x="105.46875"/>
     <use xlink:href="#TimesNewRomanPSMT-73" x="155.46875"/>
     <use xlink:href="#TimesNewRomanPSMT-66" x="194.384766"/>
     <use xlink:href="#TimesNewRomanPSMT-6f" x="227.685547"/>
     <use xlink:href="#TimesNewRomanPSMT-72" x="277.685547"/>
     <use xlink:href="#TimesNewRomanPSMT-6d" x="310.986328"/>
     <use xlink:href="#TimesNewRomanPSMT-65" x="388.769531"/>
     <use xlink:href="#TimesNewRomanPSMT-72" x="433.154297"/>
     <use xlink:href="#TimesNewRomanPSMT-5f" x="466.455078"/>
     <use xlink:href="#TimesNewRomanPSMT-73" x="516.455078"/>
     <use xlink:href="#TimesNewRomanPSMT-68" x="555.371094"/>
     <use xlink:href="#TimesNewRomanPSMT-6f" x="605.371094"/>
     <use xlink:href="#TimesNewRomanPSMT-72" x="655.371094"/>
     <use xlink:href="#TimesNewRomanPSMT-74" x="688.671875"/>
     <use xlink:href="#TimesNewRomanPSMT-20" x="716.455078"/>
     <use xlink:href="#TimesNewRomanPSMT-6d" x="741.455078"/>
     <use xlink:href="#TimesNewRomanPSMT-6f" x="819.238281"/>
     <use xlink:href="#TimesNewRomanPSMT-64" x="869.238281"/>
     <use xlink:href="#TimesNewRomanPSMT-65" x="919.238281"/>
     <use xlink:href="#TimesNewRomanPSMT-6c" x="963.623047"/>
    </g>
   </g>
   <g id="legend_2">
    <g id="patch_13">
     <path d="M 279.851287 206.24 
L 349.245037 206.24 
Q 350.845037 206.24 350.845037 204.64 
L 350.845037 182.8175 
Q 350.845037 181.2175 349.245037 181.2175 
L 279.851287 181.2175 
Q 278.251287 181.2175 278.251287 182.8175 
L 278.251287 204.64 
Q 278.251287 206.24 279.851287 206.24 
z
" style="fill: #ffffff; opacity: 0.8; stroke: #cccccc; stroke-linejoin: miter"/>
    </g>
    <g id="line2d_29">
     <path d="M 281.451287 187.2175 
L 289.451287 187.2175 
L 297.451287 187.2175 
" style="fill: none; stroke: #21266e; stroke-width: 0.9; stroke-linecap: square"/>
    </g>
    <g id="text_29">
     <!-- Ground Truth -->
     <g transform="translate(303.851287 190.0175) scale(0.08 -0.08)">
      <use xlink:href="#TimesNewRomanPSMT-47"/>
      <use xlink:href="#TimesNewRomanPSMT-72" x="72.216797"/>
      <use xlink:href="#TimesNewRomanPSMT-6f" x="105.517578"/>
      <use xlink:href="#TimesNewRomanPSMT-75" x="155.517578"/>
      <use xlink:href="#TimesNewRomanPSMT-6e" x="205.517578"/>
      <use xlink:href="#TimesNewRomanPSMT-64" x="255.517578"/>
      <use xlink:href="#TimesNewRomanPSMT-20" x="305.517578"/>
      <use xlink:href="#TimesNewRomanPSMT-54" x="328.767578"/>
      <use xlink:href="#TimesNewRomanPSMT-72" x="386.351562"/>
      <use xlink:href="#TimesNewRomanPSMT-75" x="419.652344"/>
      <use xlink:href="#TimesNewRomanPSMT-74" x="469.652344"/>
      <use xlink:href="#TimesNewRomanPSMT-68" x="497.435547"/>
     </g>
    </g>
    <g id="line2d_30">
     <path d="M 281.451287 198.52875 
L 289.451287 198.52875 
L 297.451287 198.52875 
" style="fill: none; stroke: #d70005; stroke-width: 0.9; stroke-linecap: square"/>
    </g>
    <g id="text_30">
     <!-- prediction -->
     <g transform="translate(303.851287 201.32875) scale(0.08 -0.08)">
      <use xlink:href="#TimesNewRomanPSMT-70"/>
      <use xlink:href="#TimesNewRomanPSMT-72" x="50"/>
      <use xlink:href="#TimesNewRomanPSMT-65" x="83.300781"/>
      <use xlink:href="#TimesNewRomanPSMT-64" x="127.685547"/>
      <use xlink:href="#TimesNewRomanPSMT-69" x="177.685547"/>
      <use xlink:href="#TimesNewRomanPSMT-63" x="205.46875"/>
      <use xlink:href="#TimesNewRomanPSMT-74" x="249.853516"/>
      <use xlink:href="#TimesNewRomanPSMT-69" x="277.636719"/>
      <use xlink:href="#TimesNewRomanPSMT-6f" x="305.419922"/>
      <use xlink:href="#TimesNewRomanPSMT-6e" x="355.419922"/>
     </g>
    </g>
   </g>
  </g>
  <g id="axes_3">
   <g id="patch_14">
    <path d="M 510.580699 210.24 
L 707.521875 210.24 
L 707.521875 43.92 
L 510.580699 43.92 
z
" style="fill: #ffffff"/>
   </g>
   <g id="matplotlib.axis_5">
    <g id="xtick_11">
     <g id="line2d_31">
      <g>
       <use xlink:href="#m9a15306ada" x="519.53257" y="210.24" style="stroke: #000000; stroke-width: 0.8"/>
      </g>
     </g>
     <g id="text_31">
      <!-- 0 -->
      <g transform="translate(517.03257 224.18375) scale(0.1 -0.1)">
       <use xlink:href="#TimesNewRomanPSMT-30"/>
      </g>
     </g>
    </g>
    <g id="xtick_12">
     <g id="line2d_32">
      <g>
       <use xlink:href="#m9a15306ada" x="566.401008" y="210.24" style="stroke: #000000; stroke-width: 0.8"/>
      </g>
     </g>
     <g id="text_32">
      <!-- 50 -->
      <g transform="translate(561.401008 224.18375) scale(0.1 -0.1)">
       <use xlink:href="#TimesNewRomanPSMT-35"/>
       <use xlink:href="#TimesNewRomanPSMT-30" x="50"/>
      </g>
     </g>
    </g>
    <g id="xtick_13">
     <g id="line2d_33">
      <g>
       <use xlink:href="#m9a15306ada" x="613.269446" y="210.24" style="stroke: #000000; stroke-width: 0.8"/>
      </g>
     </g>
     <g id="text_33">
      <!-- 100 -->
      <g transform="translate(605.769446 224.18375) scale(0.1 -0.1)">
       <use xlink:href="#TimesNewRomanPSMT-31"/>
       <use xlink:href="#TimesNewRomanPSMT-30" x="50"/>
       <use xlink:href="#TimesNewRomanPSMT-30" x="100"/>
      </g>
     </g>
    </g>
    <g id="xtick_14">
     <g id="line2d_34">
      <g>
       <use xlink:href="#m9a15306ada" x="660.137884" y="210.24" style="stroke: #000000; stroke-width: 0.8"/>
      </g>
     </g>
     <g id="text_34">
      <!-- 150 -->
      <g transform="translate(652.637884 224.18375) scale(0.1 -0.1)">
       <use xlink:href="#TimesNewRomanPSMT-31"/>
       <use xlink:href="#TimesNewRomanPSMT-35" x="50"/>
       <use xlink:href="#TimesNewRomanPSMT-30" x="100"/>
      </g>
     </g>
    </g>
    <g id="xtick_15">
     <g id="line2d_35">
      <g>
       <use xlink:href="#m9a15306ada" x="707.006322" y="210.24" style="stroke: #000000; stroke-width: 0.8"/>
      </g>
     </g>
     <g id="text_35">
      <!-- 200 -->
      <g transform="translate(699.506322 224.18375) scale(0.1 -0.1)">
       <use xlink:href="#TimesNewRomanPSMT-32"/>
       <use xlink:href="#TimesNewRomanPSMT-30" x="50"/>
       <use xlink:href="#TimesNewRomanPSMT-30" x="100"/>
      </g>
     </g>
    </g>
    <g id="text_36">
     <!-- times -->
     <g transform="translate(598.218474 237.266563) scale(0.1 -0.1)">
      <use xlink:href="#TimesNewRomanPSMT-74"/>
      <use xlink:href="#TimesNewRomanPSMT-69" x="27.783203"/>
      <use xlink:href="#TimesNewRomanPSMT-6d" x="55.566406"/>
      <use xlink:href="#TimesNewRomanPSMT-65" x="133.349609"/>
      <use xlink:href="#TimesNewRomanPSMT-73" x="177.734375"/>
     </g>
    </g>
   </g>
   <g id="matplotlib.axis_6">
    <g id="ytick_11">
     <g id="line2d_36">
      <g>
       <use xlink:href="#me4c6c13cfb" x="510.580699" y="204.818772" style="stroke: #000000; stroke-width: 0.8"/>
      </g>
     </g>
     <g id="text_37">
      <!-- 0.5 -->
      <g transform="translate(491.080699 208.290647) scale(0.1 -0.1)">
       <defs>
        <path id="TimesNewRomanPSMT-2e" d="M 800 606 
Q 947 606 1047 504 
Q 1147 403 1147 259 
Q 1147 116 1045 14 
Q 944 -88 800 -88 
Q 656 -88 554 14 
Q 453 116 453 259 
Q 453 406 554 506 
Q 656 606 800 606 
z
" transform="scale(0.015625)"/>
       </defs>
       <use xlink:href="#TimesNewRomanPSMT-30"/>
       <use xlink:href="#TimesNewRomanPSMT-2e" x="50"/>
       <use xlink:href="#TimesNewRomanPSMT-35" x="75"/>
      </g>
     </g>
    </g>
    <g id="ytick_12">
     <g id="line2d_37">
      <g>
       <use xlink:href="#me4c6c13cfb" x="510.580699" y="175.113468" style="stroke: #000000; stroke-width: 0.8"/>
      </g>
     </g>
     <g id="text_38">
      <!-- 1.0 -->
      <g transform="translate(491.080699 178.585343) scale(0.1 -0.1)">
       <use xlink:href="#TimesNewRomanPSMT-31"/>
       <use xlink:href="#TimesNewRomanPSMT-2e" x="50"/>
       <use xlink:href="#TimesNewRomanPSMT-30" x="75"/>
      </g>
     </g>
    </g>
    <g id="ytick_13">
     <g id="line2d_38">
      <g>
       <use xlink:href="#me4c6c13cfb" x="510.580699" y="145.408165" style="stroke: #000000; stroke-width: 0.8"/>
      </g>
     </g>
     <g id="text_39">
      <!-- 1.5 -->
      <g transform="translate(491.080699 148.88004) scale(0.1 -0.1)">
       <use xlink:href="#TimesNewRomanPSMT-31"/>
       <use xlink:href="#TimesNewRomanPSMT-2e" x="50"/>
       <use xlink:href="#TimesNewRomanPSMT-35" x="75"/>
      </g>
     </g>
    </g>
    <g id="ytick_14">
     <g id="line2d_39">
      <g>
       <use xlink:href="#me4c6c13cfb" x="510.580699" y="115.702862" style="stroke: #000000; stroke-width: 0.8"/>
      </g>
     </g>
     <g id="text_40">
      <!-- 2.0 -->
      <g transform="translate(491.080699 119.174737) scale(0.1 -0.1)">
       <use xlink:href="#TimesNewRomanPSMT-32"/>
       <use xlink:href="#TimesNewRomanPSMT-2e" x="50"/>
       <use xlink:href="#TimesNewRomanPSMT-30" x="75"/>
      </g>
     </g>
    </g>
    <g id="ytick_15">
     <g id="line2d_40">
      <g>
       <use xlink:href="#me4c6c13cfb" x="510.580699" y="85.997558" style="stroke: #000000; stroke-width: 0.8"/>
      </g>
     </g>
     <g id="text_41">
      <!-- 2.5 -->
      <g transform="translate(491.080699 89.469433) scale(0.1 -0.1)">
       <use xlink:href="#TimesNewRomanPSMT-32"/>
       <use xlink:href="#TimesNewRomanPSMT-2e" x="50"/>
       <use xlink:href="#TimesNewRomanPSMT-35" x="75"/>
      </g>
     </g>
    </g>
    <g id="ytick_16">
     <g id="line2d_41">
      <g>
       <use xlink:href="#me4c6c13cfb" x="510.580699" y="56.292255" style="stroke: #000000; stroke-width: 0.8"/>
      </g>
     </g>
     <g id="text_42">
      <!-- 3.0 -->
      <g transform="translate(491.080699 59.76413) scale(0.1 -0.1)">
       <use xlink:href="#TimesNewRomanPSMT-33"/>
       <use xlink:href="#TimesNewRomanPSMT-2e" x="50"/>
       <use xlink:href="#TimesNewRomanPSMT-30" x="75"/>
      </g>
     </g>
    </g>
    <g id="text_43">
     <!-- values -->
     <g transform="translate(484.941636 139.854219) rotate(-90) scale(0.1 -0.1)">
      <use xlink:href="#TimesNewRomanPSMT-76"/>
      <use xlink:href="#TimesNewRomanPSMT-61" x="50"/>
      <use xlink:href="#TimesNewRomanPSMT-6c" x="94.384766"/>
      <use xlink:href="#TimesNewRomanPSMT-75" x="122.167969"/>
      <use xlink:href="#TimesNewRomanPSMT-65" x="172.167969"/>
      <use xlink:href="#TimesNewRomanPSMT-73" x="216.552734"/>
     </g>
    </g>
   </g>
   <g id="line2d_42">
    <path d="M 519.53257 55.460491 
L 520.469939 87.304604 
L 521.407308 119.148664 
L 522.344676 146.952836 
L 523.282045 158.894362 
L 524.219414 166.855396 
L 525.156783 170.835914 
L 526.094152 174.816405 
L 527.03152 170.835914 
L 527.968889 170.835914 
L 528.906258 146.952836 
L 529.843627 146.952836 
L 530.780995 162.874879 
L 531.718364 135.070707 
L 532.655733 111.187655 
L 533.593102 71.382561 
L 534.53047 83.324086 
L 535.467839 107.207164 
L 536.405208 162.874879 
L 537.342577 198.699483 
L 538.279945 182.777439 
L 539.217314 158.894362 
L 540.154683 135.070707 
L 541.092052 107.207164 
L 542.02942 91.285095 
L 542.966789 107.207164 
L 543.904158 135.070707 
L 544.841527 158.894362 
L 545.778895 166.855396 
L 546.716264 178.796922 
L 547.653633 178.796922 
L 548.591002 178.796922 
L 549.528371 182.777439 
L 550.465739 178.796922 
L 551.403108 158.894362 
L 552.340477 158.894362 
L 553.277846 182.777439 
L 554.215214 158.894362 
L 555.152583 170.835914 
L 556.089952 135.070707 
L 557.027321 198.699483 
L 557.964689 182.777439 
L 558.902058 182.777439 
L 559.839427 162.874879 
L 560.776796 142.972318 
L 561.714164 142.972318 
L 562.651533 103.226621 
L 563.588902 115.168173 
L 564.526271 103.226621 
L 565.463639 127.109698 
L 566.401008 146.952836 
L 567.338377 166.855396 
L 568.275746 178.796922 
L 569.213114 178.796922 
L 570.150483 190.738448 
L 571.087852 186.757957 
L 572.025221 178.796922 
L 572.96259 186.757957 
L 573.899958 162.874879 
L 574.837327 127.109698 
L 575.774696 150.933353 
L 576.712065 154.91387 
L 577.649433 146.952836 
L 578.586802 162.874879 
L 579.524171 150.933353 
L 580.46154 142.972318 
L 581.398908 127.109698 
L 582.336277 103.226621 
L 583.273646 99.24613 
L 584.211015 95.265612 
L 585.148383 71.382561 
L 586.085752 59.441035 
L 587.023121 71.382561 
L 587.96049 87.304604 
L 588.897858 107.207164 
L 589.835227 131.090216 
L 590.772596 166.855396 
L 591.709965 170.835914 
L 592.647333 174.816405 
L 593.584702 174.816405 
L 594.522071 178.796922 
L 595.45944 174.816405 
L 596.396809 166.855396 
L 597.334177 146.952836 
L 598.271546 158.894362 
L 599.208915 170.835914 
L 600.146284 162.874879 
L 601.083652 174.816405 
L 602.021021 174.816405 
L 602.95839 174.816405 
L 603.895759 178.796922 
L 604.833127 174.816405 
L 605.770496 158.894362 
L 606.707865 138.991827 
L 607.645234 103.226621 
L 608.582602 99.24613 
L 609.519971 107.207164 
" clip-path="url(#p85efb26e9c)" style="fill: none; stroke: #21266e; stroke-width: 0.9; stroke-linecap: square"/>
   </g>
   <g id="line2d_43">
    <path d="M 609.519971 107.207164 
L 610.45734 115.168173 
L 611.394709 142.972318 
L 612.332077 158.894362 
L 613.269446 174.816405 
L 614.206815 174.816405 
L 615.144184 186.757957 
L 616.081552 186.757957 
L 617.018921 186.757957 
L 617.95629 182.777439 
L 618.893659 158.894362 
L 619.831028 135.070707 
L 620.768396 194.718965 
L 621.705765 158.894362 
L 622.643134 127.109698 
L 623.580503 91.285095 
L 624.517871 107.207164 
L 625.45524 127.109698 
L 626.392609 162.874879 
L 627.329978 202.68 
L 628.267346 202.68 
L 629.204715 162.874879 
L 630.142084 135.070707 
L 631.079453 107.207164 
L 632.016821 107.207164 
L 632.95419 119.148664 
L 633.891559 146.952836 
L 634.828928 154.91387 
L 635.766296 174.816405 
L 636.703665 186.757957 
L 637.641034 190.738448 
L 638.578403 190.738448 
L 639.515771 190.738448 
L 640.45314 190.738448 
L 641.390509 174.816405 
L 642.327878 146.952836 
L 643.265247 162.874879 
L 644.202615 182.777439 
L 645.139984 178.796922 
L 646.077353 170.835914 
L 647.014722 166.855396 
L 647.95209 150.933353 
L 648.889459 127.109698 
L 649.826828 138.991827 
L 650.764197 131.090216 
L 651.701565 99.24613 
L 652.638934 83.324086 
L 653.576303 71.382561 
L 654.513672 103.226621 
L 655.45104 111.187655 
L 656.388409 138.991827 
L 657.325778 158.894362 
L 658.263147 170.835914 
L 659.200515 174.816405 
L 660.137884 178.796922 
L 661.075253 182.777439 
L 662.012622 186.757957 
L 662.94999 186.757957 
L 663.887359 174.816405 
L 664.824728 146.952836 
L 665.762097 142.972318 
L 666.699466 162.874879 
L 667.636834 162.874879 
L 668.574203 142.972318 
L 669.511572 146.952836 
L 670.448941 150.933353 
L 671.386309 142.972318 
L 672.323678 127.109698 
L 673.261047 127.109698 
L 674.198416 111.187655 
L 675.135784 83.324086 
L 676.073153 67.402017 
L 677.010522 87.304604 
L 677.947891 99.24613 
L 678.885259 123.129181 
L 679.822628 154.91387 
L 680.759997 166.855396 
L 681.697366 178.796922 
L 682.634734 174.816405 
L 683.572103 190.738448 
L 684.509472 190.738448 
L 685.446841 182.777439 
L 686.384209 166.855396 
L 687.321578 127.109698 
L 688.258947 138.991827 
L 689.196316 150.933353 
L 690.133685 142.972318 
L 691.071053 146.952836 
L 692.008422 138.991827 
L 692.945791 138.991827 
L 693.88316 135.070707 
L 694.820528 107.207164 
L 695.757897 115.168173 
L 696.695266 103.226621 
L 697.632635 67.402017 
L 698.570003 51.48 
" clip-path="url(#p85efb26e9c)" style="fill: none; stroke: #21266e; stroke-width: 0.9; stroke-linecap: square"/>
   </g>
   <g id="line2d_44">
    <path d="M 609.519971 96.363343 
L 610.45734 103.444731 
L 611.394709 128.86928 
L 612.332077 146.224645 
L 613.269446 160.507769 
L 614.206815 177.309869 
L 615.144184 184.883029 
L 616.081552 190.658016 
L 617.018921 186.811298 
L 617.95629 183.365721 
L 618.893659 174.031631 
L 619.831028 152.79746 
L 620.768396 155.637953 
L 621.705765 158.078237 
L 622.643134 149.735337 
L 623.580503 147.697642 
L 624.517871 155.856382 
L 625.45524 154.518312 
L 626.392609 159.547438 
L 627.329978 146.911426 
L 628.267346 135.250241 
L 629.204715 122.052353 
L 630.142084 112.874887 
L 631.079453 102.64081 
L 632.016821 99.986564 
L 632.95419 112.204825 
L 633.891559 131.788082 
L 634.828928 160.258862 
L 635.766296 170.495304 
L 636.703665 178.887337 
L 637.641034 188.821604 
L 638.578403 185.993903 
L 639.515771 182.450203 
L 640.45314 175.4351 
L 641.390509 161.78357 
L 642.327878 159.173918 
L 643.265247 156.450351 
L 644.202615 154.198107 
L 645.139984 147.333811 
L 646.077353 154.40987 
L 647.014722 159.872361 
L 647.95209 159.149928 
L 648.889459 162.192392 
L 649.826828 161.404756 
L 650.764197 148.504557 
L 651.701565 132.426466 
L 652.638934 116.386678 
L 653.576303 116.919698 
L 654.513672 104.500867 
L 655.45104 125.457852 
L 656.388409 134.226881 
L 657.325778 162.441857 
L 658.263147 176.437737 
L 659.200515 184.763367 
L 660.137884 185.333533 
L 661.075253 183.985438 
L 662.012622 184.219528 
L 662.94999 176.000816 
L 663.887359 161.916287 
L 664.824728 155.537038 
L 665.762097 156.410594 
L 666.699466 156.836241 
L 667.636834 147.413558 
L 668.574203 159.757199 
L 669.511572 161.081123 
L 670.448941 152.448506 
L 671.386309 156.882843 
L 672.323678 151.560549 
L 673.261047 145.136807 
L 674.198416 135.88531 
L 675.135784 115.61939 
L 676.073153 104.543696 
L 677.010522 101.431769 
L 677.947891 111.005455 
L 678.885259 141.669794 
L 679.822628 160.081747 
L 680.759997 167.654597 
L 681.697366 178.285838 
L 682.634734 183.582771 
L 683.572103 187.754039 
L 684.509472 184.9766 
L 685.446841 178.921801 
L 686.384209 164.437656 
L 687.321578 153.900935 
L 688.258947 153.696236 
L 689.196316 150.154247 
L 690.133685 157.497166 
L 691.071053 151.052333 
L 692.008422 158.254449 
L 692.945791 155.866464 
L 693.88316 163.45845 
L 694.820528 149.240672 
L 695.757897 149.107563 
L 696.695266 134.724724 
L 697.632635 119.19958 
L 698.570003 113.823574 
" clip-path="url(#p85efb26e9c)" style="fill: none; stroke: #d70005; stroke-width: 0.9; stroke-linecap: square"/>
   </g>
   <g id="patch_15">
    <path d="M 510.580699 210.24 
L 510.580699 43.92 
" style="fill: none; stroke: #000000; stroke-width: 0.8; stroke-linejoin: miter; stroke-linecap: square"/>
   </g>
   <g id="patch_16">
    <path d="M 707.521875 210.24 
L 707.521875 43.92 
" style="fill: none; stroke: #000000; stroke-width: 0.8; stroke-linejoin: miter; stroke-linecap: square"/>
   </g>
   <g id="patch_17">
    <path d="M 510.580699 210.24 
L 707.521875 210.24 
" style="fill: none; stroke: #000000; stroke-width: 0.8; stroke-linejoin: miter; stroke-linecap: square"/>
   </g>
   <g id="patch_18">
    <path d="M 510.580699 43.92 
L 707.521875 43.92 
" style="fill: none; stroke: #000000; stroke-width: 0.8; stroke-linejoin: miter; stroke-linecap: square"/>
   </g>
   <g id="text_44">
    <!-- my_former_short model -->
    <g transform="translate(550.563474 37.92) scale(0.12 -0.12)">
     <defs>
      <path id="TimesNewRomanPSMT-79" d="M 38 2863 
L 1372 2863 
L 1372 2747 
L 1306 2747 
Q 1166 2747 1095 2686 
Q 1025 2625 1025 2534 
Q 1025 2413 1128 2197 
L 1825 753 
L 2466 2334 
Q 2519 2463 2519 2588 
Q 2519 2644 2497 2672 
Q 2472 2706 2419 2726 
Q 2366 2747 2231 2747 
L 2231 2863 
L 3163 2863 
L 3163 2747 
Q 3047 2734 2984 2696 
Q 2922 2659 2847 2556 
Q 2819 2513 2741 2316 
L 1575 -541 
Q 1406 -956 1132 -1168 
Q 859 -1381 606 -1381 
Q 422 -1381 303 -1275 
Q 184 -1169 184 -1031 
Q 184 -900 270 -820 
Q 356 -741 506 -741 
Q 609 -741 788 -809 
Q 913 -856 944 -856 
Q 1038 -856 1148 -759 
Q 1259 -663 1372 -384 
L 1575 113 
L 547 2272 
Q 500 2369 397 2513 
Q 319 2622 269 2659 
Q 197 2709 38 2747 
L 38 2863 
z
" transform="scale(0.015625)"/>
     </defs>
     <use xlink:href="#TimesNewRomanPSMT-6d"/>
     <use xlink:href="#TimesNewRomanPSMT-79" x="77.783203"/>
     <use xlink:href="#TimesNewRomanPSMT-5f" x="127.783203"/>
     <use xlink:href="#TimesNewRomanPSMT-66" x="177.783203"/>
     <use xlink:href="#TimesNewRomanPSMT-6f" x="211.083984"/>
     <use xlink:href="#TimesNewRomanPSMT-72" x="261.083984"/>
     <use xlink:href="#TimesNewRomanPSMT-6d" x="294.384766"/>
     <use xlink:href="#TimesNewRomanPSMT-65" x="372.167969"/>
     <use xlink:href="#TimesNewRomanPSMT-72" x="416.552734"/>
     <use xlink:href="#TimesNewRomanPSMT-5f" x="449.853516"/>
     <use xlink:href="#TimesNewRomanPSMT-73" x="499.853516"/>
     <use xlink:href="#TimesNewRomanPSMT-68" x="538.769531"/>
     <use xlink:href="#TimesNewRomanPSMT-6f" x="588.769531"/>
     <use xlink:href="#TimesNewRomanPSMT-72" x="638.769531"/>
     <use xlink:href="#TimesNewRomanPSMT-74" x="672.070312"/>
     <use xlink:href="#TimesNewRomanPSMT-20" x="699.853516"/>
     <use xlink:href="#TimesNewRomanPSMT-6d" x="724.853516"/>
     <use xlink:href="#TimesNewRomanPSMT-6f" x="802.636719"/>
     <use xlink:href="#TimesNewRomanPSMT-64" x="852.636719"/>
     <use xlink:href="#TimesNewRomanPSMT-65" x="902.636719"/>
     <use xlink:href="#TimesNewRomanPSMT-6c" x="947.021484"/>
    </g>
   </g>
   <g id="legend_3">
    <g id="patch_19">
     <path d="M 516.180699 206.24 
L 585.574449 206.24 
Q 587.174449 206.24 587.174449 204.64 
L 587.174449 182.8175 
Q 587.174449 181.2175 585.574449 181.2175 
L 516.180699 181.2175 
Q 514.580699 181.2175 514.580699 182.8175 
L 514.580699 204.64 
Q 514.580699 206.24 516.180699 206.24 
z
" style="fill: #ffffff; opacity: 0.8; stroke: #cccccc; stroke-linejoin: miter"/>
    </g>
    <g id="line2d_45">
     <path d="M 517.780699 187.2175 
L 525.780699 187.2175 
L 533.780699 187.2175 
" style="fill: none; stroke: #21266e; stroke-width: 0.9; stroke-linecap: square"/>
    </g>
    <g id="text_45">
     <!-- Ground Truth -->
     <g transform="translate(540.180699 190.0175) scale(0.08 -0.08)">
      <use xlink:href="#TimesNewRomanPSMT-47"/>
      <use xlink:href="#TimesNewRomanPSMT-72" x="72.216797"/>
      <use xlink:href="#TimesNewRomanPSMT-6f" x="105.517578"/>
      <use xlink:href="#TimesNewRomanPSMT-75" x="155.517578"/>
      <use xlink:href="#TimesNewRomanPSMT-6e" x="205.517578"/>
      <use xlink:href="#TimesNewRomanPSMT-64" x="255.517578"/>
      <use xlink:href="#TimesNewRomanPSMT-20" x="305.517578"/>
      <use xlink:href="#TimesNewRomanPSMT-54" x="328.767578"/>
      <use xlink:href="#TimesNewRomanPSMT-72" x="386.351562"/>
      <use xlink:href="#TimesNewRomanPSMT-75" x="419.652344"/>
      <use xlink:href="#TimesNewRomanPSMT-74" x="469.652344"/>
      <use xlink:href="#TimesNewRomanPSMT-68" x="497.435547"/>
     </g>
    </g>
    <g id="line2d_46">
     <path d="M 517.780699 198.52875 
L 525.780699 198.52875 
L 533.780699 198.52875 
" style="fill: none; stroke: #d70005; stroke-width: 0.9; stroke-linecap: square"/>
    </g>
    <g id="text_46">
     <!-- prediction -->
     <g transform="translate(540.180699 201.32875) scale(0.08 -0.08)">
      <use xlink:href="#TimesNewRomanPSMT-70"/>
      <use xlink:href="#TimesNewRomanPSMT-72" x="50"/>
      <use xlink:href="#TimesNewRomanPSMT-65" x="83.300781"/>
      <use xlink:href="#TimesNewRomanPSMT-64" x="127.685547"/>
      <use xlink:href="#TimesNewRomanPSMT-69" x="177.685547"/>
      <use xlink:href="#TimesNewRomanPSMT-63" x="205.46875"/>
      <use xlink:href="#TimesNewRomanPSMT-74" x="249.853516"/>
      <use xlink:href="#TimesNewRomanPSMT-69" x="277.636719"/>
      <use xlink:href="#TimesNewRomanPSMT-6f" x="305.419922"/>
      <use xlink:href="#TimesNewRomanPSMT-6e" x="355.419922"/>
     </g>
    </g>
   </g>
  </g>
  <g id="text_47">
   <!-- Comparison chart of HULL variable of three models -->
   <g transform="translate(193.606875 18.31) scale(0.16 -0.16)">
    <defs>
     <path id="TimesNewRomanPSMT-43" d="M 3853 4334 
L 3950 2894 
L 3853 2894 
Q 3659 3541 3300 3825 
Q 2941 4109 2438 4109 
Q 2016 4109 1675 3895 
Q 1334 3681 1139 3212 
Q 944 2744 944 2047 
Q 944 1472 1128 1050 
Q 1313 628 1683 403 
Q 2053 178 2528 178 
Q 2941 178 3256 354 
Q 3572 531 3950 1056 
L 4047 994 
Q 3728 428 3303 165 
Q 2878 -97 2294 -97 
Q 1241 -97 663 684 
Q 231 1266 231 2053 
Q 231 2688 515 3219 
Q 800 3750 1298 4042 
Q 1797 4334 2388 4334 
Q 2847 4334 3294 4109 
Q 3425 4041 3481 4041 
Q 3566 4041 3628 4100 
Q 3709 4184 3744 4334 
L 3853 4334 
z
" transform="scale(0.015625)"/>
     <path id="TimesNewRomanPSMT-48" d="M 1316 2272 
L 3284 2272 
L 3284 3484 
Q 3284 3809 3244 3913 
Q 3213 3991 3113 4047 
Q 2978 4122 2828 4122 
L 2678 4122 
L 2678 4238 
L 4491 4238 
L 4491 4122 
L 4341 4122 
Q 4191 4122 4056 4050 
Q 3956 4000 3920 3898 
Q 3884 3797 3884 3484 
L 3884 750 
Q 3884 428 3925 325 
Q 3956 247 4053 191 
Q 4191 116 4341 116 
L 4491 116 
L 4491 0 
L 2678 0 
L 2678 116 
L 2828 116 
Q 3088 116 3206 269 
Q 3284 369 3284 750 
L 3284 2041 
L 1316 2041 
L 1316 750 
Q 1316 428 1356 325 
Q 1388 247 1488 191 
Q 1622 116 1772 116 
L 1925 116 
L 1925 0 
L 109 0 
L 109 116 
L 259 116 
Q 522 116 641 269 
Q 716 369 716 750 
L 716 3484 
Q 716 3809 675 3913 
Q 644 3991 547 4047 
Q 409 4122 259 4122 
L 109 4122 
L 109 4238 
L 1925 4238 
L 1925 4122 
L 1772 4122 
Q 1622 4122 1488 4050 
Q 1391 4000 1353 3898 
Q 1316 3797 1316 3484 
L 1316 2272 
z
" transform="scale(0.015625)"/>
     <path id="TimesNewRomanPSMT-55" d="M 3053 4122 
L 3053 4238 
L 4553 4238 
L 4553 4122 
L 4394 4122 
Q 4144 4122 4009 3913 
Q 3944 3816 3944 3463 
L 3944 1744 
Q 3944 1106 3817 754 
Q 3691 403 3320 151 
Q 2950 -100 2313 -100 
Q 1619 -100 1259 140 
Q 900 381 750 788 
Q 650 1066 650 1831 
L 650 3488 
Q 650 3878 542 4000 
Q 434 4122 194 4122 
L 34 4122 
L 34 4238 
L 1866 4238 
L 1866 4122 
L 1703 4122 
Q 1441 4122 1328 3956 
Q 1250 3844 1250 3488 
L 1250 1641 
Q 1250 1394 1295 1075 
Q 1341 756 1459 578 
Q 1578 400 1801 284 
Q 2025 169 2350 169 
Q 2766 169 3094 350 
Q 3422 531 3542 814 
Q 3663 1097 3663 1772 
L 3663 3488 
Q 3663 3884 3575 3984 
Q 3453 4122 3213 4122 
L 3053 4122 
z
" transform="scale(0.015625)"/>
     <path id="TimesNewRomanPSMT-4c" d="M 3669 1172 
L 3772 1150 
L 3409 0 
L 128 0 
L 128 116 
L 288 116 
Q 556 116 672 291 
Q 738 391 738 753 
L 738 3488 
Q 738 3884 650 3984 
Q 528 4122 288 4122 
L 128 4122 
L 128 4238 
L 2047 4238 
L 2047 4122 
Q 1709 4125 1573 4059 
Q 1438 3994 1388 3894 
Q 1338 3794 1338 3416 
L 1338 753 
Q 1338 494 1388 397 
Q 1425 331 1503 300 
Q 1581 269 1991 269 
L 2300 269 
Q 2788 269 2984 341 
Q 3181 413 3343 595 
Q 3506 778 3669 1172 
z
" transform="scale(0.015625)"/>
     <path id="TimesNewRomanPSMT-62" d="M 984 2369 
Q 1400 2947 1881 2947 
Q 2322 2947 2650 2570 
Q 2978 2194 2978 1541 
Q 2978 778 2472 313 
Q 2038 -88 1503 -88 
Q 1253 -88 995 3 
Q 738 94 469 275 
L 469 3241 
Q 469 3728 445 3840 
Q 422 3953 372 3993 
Q 322 4034 247 4034 
Q 159 4034 28 3984 
L -16 4094 
L 844 4444 
L 984 4444 
L 984 2369 
z
M 984 2169 
L 984 456 
Q 1144 300 1314 220 
Q 1484 141 1663 141 
Q 1947 141 2192 453 
Q 2438 766 2438 1363 
Q 2438 1913 2192 2208 
Q 1947 2503 1634 2503 
Q 1469 2503 1303 2419 
Q 1178 2356 984 2169 
z
" transform="scale(0.015625)"/>
    </defs>
    <use xlink:href="#TimesNewRomanPSMT-43"/>
    <use xlink:href="#TimesNewRomanPSMT-6f" x="66.699219"/>
    <use xlink:href="#TimesNewRomanPSMT-6d" x="116.699219"/>
    <use xlink:href="#TimesNewRomanPSMT-70" x="194.482422"/>
    <use xlink:href="#TimesNewRomanPSMT-61" x="244.482422"/>
    <use xlink:href="#TimesNewRomanPSMT-72" x="288.867188"/>
    <use xlink:href="#TimesNewRomanPSMT-69" x="322.167969"/>
    <use xlink:href="#TimesNewRomanPSMT-73" x="349.951172"/>
    <use xlink:href="#TimesNewRomanPSMT-6f" x="388.867188"/>
    <use xlink:href="#TimesNewRomanPSMT-6e" x="438.867188"/>
    <use xlink:href="#TimesNewRomanPSMT-20" x="488.867188"/>
    <use xlink:href="#TimesNewRomanPSMT-63" x="513.867188"/>
    <use xlink:href="#TimesNewRomanPSMT-68" x="558.251953"/>
    <use xlink:href="#TimesNewRomanPSMT-61" x="608.251953"/>
    <use xlink:href="#TimesNewRomanPSMT-72" x="652.636719"/>
    <use xlink:href="#TimesNewRomanPSMT-74" x="685.9375"/>
    <use xlink:href="#TimesNewRomanPSMT-20" x="713.720703"/>
    <use xlink:href="#TimesNewRomanPSMT-6f" x="738.720703"/>
    <use xlink:href="#TimesNewRomanPSMT-66" x="788.720703"/>
    <use xlink:href="#TimesNewRomanPSMT-20" x="822.021484"/>
    <use xlink:href="#TimesNewRomanPSMT-48" x="847.021484"/>
    <use xlink:href="#TimesNewRomanPSMT-55" x="919.238281"/>
    <use xlink:href="#TimesNewRomanPSMT-4c" x="991.455078"/>
    <use xlink:href="#TimesNewRomanPSMT-4c" x="1052.539062"/>
    <use xlink:href="#TimesNewRomanPSMT-20" x="1109.873047"/>
    <use xlink:href="#TimesNewRomanPSMT-76" x="1134.873047"/>
    <use xlink:href="#TimesNewRomanPSMT-61" x="1184.873047"/>
    <use xlink:href="#TimesNewRomanPSMT-72" x="1229.257812"/>
    <use xlink:href="#TimesNewRomanPSMT-69" x="1262.558594"/>
    <use xlink:href="#TimesNewRomanPSMT-61" x="1290.341797"/>
    <use xlink:href="#TimesNewRomanPSMT-62" x="1334.726562"/>
    <use xlink:href="#TimesNewRomanPSMT-6c" x="1384.726562"/>
    <use xlink:href="#TimesNewRomanPSMT-65" x="1412.509766"/>
    <use xlink:href="#TimesNewRomanPSMT-20" x="1456.894531"/>
    <use xlink:href="#TimesNewRomanPSMT-6f" x="1481.894531"/>
    <use xlink:href="#TimesNewRomanPSMT-66" x="1531.894531"/>
    <use xlink:href="#TimesNewRomanPSMT-20" x="1565.195312"/>
    <use xlink:href="#TimesNewRomanPSMT-74" x="1590.195312"/>
    <use xlink:href="#TimesNewRomanPSMT-68" x="1617.978516"/>
    <use xlink:href="#TimesNewRomanPSMT-72" x="1667.978516"/>
    <use xlink:href="#TimesNewRomanPSMT-65" x="1701.279297"/>
    <use xlink:href="#TimesNewRomanPSMT-65" x="1745.664062"/>
    <use xlink:href="#TimesNewRomanPSMT-20" x="1790.048828"/>
    <use xlink:href="#TimesNewRomanPSMT-6d" x="1815.048828"/>
    <use xlink:href="#TimesNewRomanPSMT-6f" x="1892.832031"/>
    <use xlink:href="#TimesNewRomanPSMT-64" x="1942.832031"/>
    <use xlink:href="#TimesNewRomanPSMT-65" x="1992.832031"/>
    <use xlink:href="#TimesNewRomanPSMT-6c" x="2037.216797"/>
    <use xlink:href="#TimesNewRomanPSMT-73" x="2065"/>
   </g>
  </g>
 </g>
 <defs>
  <clipPath id="pe8b0ccd110">
   <rect x="37.921875" y="43.92" width="196.941176" height="166.32"/>
  </clipPath>
  <clipPath id="p9f13d3745a">
   <rect x="274.251287" y="43.92" width="196.941176" height="166.32"/>
  </clipPath>
  <clipPath id="p85efb26e9c">
   <rect x="510.580699" y="43.92" width="196.941176" height="166.32"/>
  </clipPath>
 </defs>
</svg>
