<?xml version="1.0" encoding="utf-8" standalone="no"?>
<!DOCTYPE svg PUBLIC "-//W3C//DTD SVG 1.1//EN"
  "http://www.w3.org/Graphics/SVG/1.1/DTD/svg11.dtd">
<svg xmlns:xlink="http://www.w3.org/1999/xlink" width="716.06726pt" height="246.605625pt" viewBox="0 0 716.06726 246.605625" xmlns="http://www.w3.org/2000/svg" version="1.1">
 <metadata>
  <rdf:RDF xmlns:dc="http://purl.org/dc/elements/1.1/" xmlns:cc="http://creativecommons.org/ns#" xmlns:rdf="http://www.w3.org/1999/02/22-rdf-syntax-ns#">
   <cc:Work>
    <dc:type rdf:resource="http://purl.org/dc/dcmitype/StillImage"/>
    <dc:date>2024-01-03T22:40:24.011748</dc:date>
    <dc:format>image/svg+xml</dc:format>
    <dc:creator>
     <cc:Agent>
      <dc:title>Matplotlib v3.7.2, https://matplotlib.org/</dc:title>
     </cc:Agent>
    </dc:creator>
   </cc:Work>
  </rdf:RDF>
 </metadata>
 <defs>
  <style type="text/css">*{stroke-linejoin: round; stroke-linecap: butt}</style>
 </defs>
 <g id="figure_1">
  <g id="patch_1">
   <path d="M 0 246.605625 
L 716.06726 246.605625 
L 716.06726 0 
L 0 0 
z
" style="fill: #ffffff"/>
  </g>
  <g id="axes_1">
   <g id="patch_2">
    <path d="M 32.282813 210.24 
L 229.223989 210.24 
L 229.223989 43.92 
L 32.282813 43.92 
z
" style="fill: #ffffff"/>
   </g>
   <g id="matplotlib.axis_1">
    <g id="xtick_1">
     <g id="line2d_1">
      <defs>
       <path id="m228520dbf3" d="M 0 0 
L 0 3.5 
" style="stroke: #000000; stroke-width: 0.8"/>
      </defs>
      <g>
       <use xlink:href="#m228520dbf3" x="41.234684" y="210.24" style="stroke: #000000; stroke-width: 0.8"/>
      </g>
     </g>
     <g id="text_1">
      <!-- 0 -->
      <g transform="translate(38.734684 224.18375) scale(0.1 -0.1)">
       <defs>
        <path id="TimesNewRomanPSMT-30" d="M 231 2094 
Q 231 2819 450 3342 
Q 669 3866 1031 4122 
Q 1313 4325 1613 4325 
Q 2100 4325 2488 3828 
Q 2972 3213 2972 2159 
Q 2972 1422 2759 906 
Q 2547 391 2217 158 
Q 1888 -75 1581 -75 
Q 975 -75 572 641 
Q 231 1244 231 2094 
z
M 844 2016 
Q 844 1141 1059 588 
Q 1238 122 1591 122 
Q 1759 122 1940 273 
Q 2122 425 2216 781 
Q 2359 1319 2359 2297 
Q 2359 3022 2209 3506 
Q 2097 3866 1919 4016 
Q 1791 4119 1609 4119 
Q 1397 4119 1231 3928 
Q 1006 3669 925 3112 
Q 844 2556 844 2016 
z
" transform="scale(0.015625)"/>
       </defs>
       <use xlink:href="#TimesNewRomanPSMT-30"/>
      </g>
     </g>
    </g>
    <g id="xtick_2">
     <g id="line2d_2">
      <g>
       <use xlink:href="#m228520dbf3" x="88.103122" y="210.24" style="stroke: #000000; stroke-width: 0.8"/>
      </g>
     </g>
     <g id="text_2">
      <!-- 50 -->
      <g transform="translate(83.103122 224.18375) scale(0.1 -0.1)">
       <defs>
        <path id="TimesNewRomanPSMT-35" d="M 2778 4238 
L 2534 3706 
L 1259 3706 
L 981 3138 
Q 1809 3016 2294 2522 
Q 2709 2097 2709 1522 
Q 2709 1188 2573 903 
Q 2438 619 2231 419 
Q 2025 219 1772 97 
Q 1413 -75 1034 -75 
Q 653 -75 479 54 
Q 306 184 306 341 
Q 306 428 378 495 
Q 450 563 559 563 
Q 641 563 702 538 
Q 763 513 909 409 
Q 1144 247 1384 247 
Q 1750 247 2026 523 
Q 2303 800 2303 1197 
Q 2303 1581 2056 1914 
Q 1809 2247 1375 2428 
Q 1034 2569 447 2591 
L 1259 4238 
L 2778 4238 
z
" transform="scale(0.015625)"/>
       </defs>
       <use xlink:href="#TimesNewRomanPSMT-35"/>
       <use xlink:href="#TimesNewRomanPSMT-30" x="50"/>
      </g>
     </g>
    </g>
    <g id="xtick_3">
     <g id="line2d_3">
      <g>
       <use xlink:href="#m228520dbf3" x="134.97156" y="210.24" style="stroke: #000000; stroke-width: 0.8"/>
      </g>
     </g>
     <g id="text_3">
      <!-- 100 -->
      <g transform="translate(127.47156 224.18375) scale(0.1 -0.1)">
       <defs>
        <path id="TimesNewRomanPSMT-31" d="M 750 3822 
L 1781 4325 
L 1884 4325 
L 1884 747 
Q 1884 391 1914 303 
Q 1944 216 2037 169 
Q 2131 122 2419 116 
L 2419 0 
L 825 0 
L 825 116 
Q 1125 122 1212 167 
Q 1300 213 1334 289 
Q 1369 366 1369 747 
L 1369 3034 
Q 1369 3497 1338 3628 
Q 1316 3728 1258 3775 
Q 1200 3822 1119 3822 
Q 1003 3822 797 3725 
L 750 3822 
z
" transform="scale(0.015625)"/>
       </defs>
       <use xlink:href="#TimesNewRomanPSMT-31"/>
       <use xlink:href="#TimesNewRomanPSMT-30" x="50"/>
       <use xlink:href="#TimesNewRomanPSMT-30" x="100"/>
      </g>
     </g>
    </g>
    <g id="xtick_4">
     <g id="line2d_4">
      <g>
       <use xlink:href="#m228520dbf3" x="181.839998" y="210.24" style="stroke: #000000; stroke-width: 0.8"/>
      </g>
     </g>
     <g id="text_4">
      <!-- 150 -->
      <g transform="translate(174.339998 224.18375) scale(0.1 -0.1)">
       <use xlink:href="#TimesNewRomanPSMT-31"/>
       <use xlink:href="#TimesNewRomanPSMT-35" x="50"/>
       <use xlink:href="#TimesNewRomanPSMT-30" x="100"/>
      </g>
     </g>
    </g>
    <g id="xtick_5">
     <g id="line2d_5">
      <g>
       <use xlink:href="#m228520dbf3" x="228.708436" y="210.24" style="stroke: #000000; stroke-width: 0.8"/>
      </g>
     </g>
     <g id="text_5">
      <!-- 200 -->
      <g transform="translate(221.208436 224.18375) scale(0.1 -0.1)">
       <defs>
        <path id="TimesNewRomanPSMT-32" d="M 2934 816 
L 2638 0 
L 138 0 
L 138 116 
Q 1241 1122 1691 1759 
Q 2141 2397 2141 2925 
Q 2141 3328 1894 3587 
Q 1647 3847 1303 3847 
Q 991 3847 742 3664 
Q 494 3481 375 3128 
L 259 3128 
Q 338 3706 661 4015 
Q 984 4325 1469 4325 
Q 1984 4325 2329 3994 
Q 2675 3663 2675 3213 
Q 2675 2891 2525 2569 
Q 2294 2063 1775 1497 
Q 997 647 803 472 
L 1909 472 
Q 2247 472 2383 497 
Q 2519 522 2628 598 
Q 2738 675 2819 816 
L 2934 816 
z
" transform="scale(0.015625)"/>
       </defs>
       <use xlink:href="#TimesNewRomanPSMT-32"/>
       <use xlink:href="#TimesNewRomanPSMT-30" x="50"/>
       <use xlink:href="#TimesNewRomanPSMT-30" x="100"/>
      </g>
     </g>
    </g>
    <g id="text_6">
     <!-- times -->
     <g transform="translate(119.920588 237.266563) scale(0.1 -0.1)">
      <defs>
       <path id="TimesNewRomanPSMT-74" d="M 1031 3803 
L 1031 2863 
L 1700 2863 
L 1700 2644 
L 1031 2644 
L 1031 788 
Q 1031 509 1111 412 
Q 1191 316 1316 316 
Q 1419 316 1516 380 
Q 1613 444 1666 569 
L 1788 569 
Q 1678 263 1478 108 
Q 1278 -47 1066 -47 
Q 922 -47 784 33 
Q 647 113 581 261 
Q 516 409 516 719 
L 516 2644 
L 63 2644 
L 63 2747 
Q 234 2816 414 2980 
Q 594 3144 734 3369 
Q 806 3488 934 3803 
L 1031 3803 
z
" transform="scale(0.015625)"/>
       <path id="TimesNewRomanPSMT-69" d="M 928 4444 
Q 1059 4444 1151 4351 
Q 1244 4259 1244 4128 
Q 1244 3997 1151 3903 
Q 1059 3809 928 3809 
Q 797 3809 703 3903 
Q 609 3997 609 4128 
Q 609 4259 701 4351 
Q 794 4444 928 4444 
z
M 1188 2947 
L 1188 647 
Q 1188 378 1227 289 
Q 1266 200 1342 156 
Q 1419 113 1622 113 
L 1622 0 
L 231 0 
L 231 113 
Q 441 113 512 153 
Q 584 194 626 287 
Q 669 381 669 647 
L 669 1750 
Q 669 2216 641 2353 
Q 619 2453 572 2492 
Q 525 2531 444 2531 
Q 356 2531 231 2484 
L 188 2597 
L 1050 2947 
L 1188 2947 
z
" transform="scale(0.015625)"/>
       <path id="TimesNewRomanPSMT-6d" d="M 1050 2338 
Q 1363 2650 1419 2697 
Q 1559 2816 1721 2881 
Q 1884 2947 2044 2947 
Q 2313 2947 2506 2790 
Q 2700 2634 2766 2338 
Q 3088 2713 3309 2830 
Q 3531 2947 3766 2947 
Q 3994 2947 4170 2830 
Q 4347 2713 4450 2447 
Q 4519 2266 4519 1878 
L 4519 647 
Q 4519 378 4559 278 
Q 4591 209 4675 161 
Q 4759 113 4950 113 
L 4950 0 
L 3538 0 
L 3538 113 
L 3597 113 
Q 3781 113 3884 184 
Q 3956 234 3988 344 
Q 4000 397 4000 647 
L 4000 1878 
Q 4000 2228 3916 2372 
Q 3794 2572 3525 2572 
Q 3359 2572 3192 2489 
Q 3025 2406 2788 2181 
L 2781 2147 
L 2788 2013 
L 2788 647 
Q 2788 353 2820 281 
Q 2853 209 2943 161 
Q 3034 113 3253 113 
L 3253 0 
L 1806 0 
L 1806 113 
Q 2044 113 2133 169 
Q 2222 225 2256 338 
Q 2272 391 2272 647 
L 2272 1878 
Q 2272 2228 2169 2381 
Q 2031 2581 1784 2581 
Q 1616 2581 1450 2491 
Q 1191 2353 1050 2181 
L 1050 647 
Q 1050 366 1089 281 
Q 1128 197 1204 155 
Q 1281 113 1516 113 
L 1516 0 
L 100 0 
L 100 113 
Q 297 113 375 155 
Q 453 197 493 289 
Q 534 381 534 647 
L 534 1741 
Q 534 2213 506 2350 
Q 484 2453 437 2492 
Q 391 2531 309 2531 
Q 222 2531 100 2484 
L 53 2597 
L 916 2947 
L 1050 2947 
L 1050 2338 
z
" transform="scale(0.015625)"/>
       <path id="TimesNewRomanPSMT-65" d="M 681 1784 
Q 678 1147 991 784 
Q 1303 422 1725 422 
Q 2006 422 2214 576 
Q 2422 731 2563 1106 
L 2659 1044 
Q 2594 616 2278 264 
Q 1963 -88 1488 -88 
Q 972 -88 605 314 
Q 238 716 238 1394 
Q 238 2128 614 2539 
Q 991 2950 1559 2950 
Q 2041 2950 2350 2633 
Q 2659 2316 2659 1784 
L 681 1784 
z
M 681 1966 
L 2006 1966 
Q 1991 2241 1941 2353 
Q 1863 2528 1708 2628 
Q 1553 2728 1384 2728 
Q 1125 2728 920 2526 
Q 716 2325 681 1966 
z
" transform="scale(0.015625)"/>
       <path id="TimesNewRomanPSMT-73" d="M 2050 2947 
L 2050 1972 
L 1947 1972 
Q 1828 2431 1642 2597 
Q 1456 2763 1169 2763 
Q 950 2763 815 2647 
Q 681 2531 681 2391 
Q 681 2216 781 2091 
Q 878 1963 1175 1819 
L 1631 1597 
Q 2266 1288 2266 781 
Q 2266 391 1970 151 
Q 1675 -88 1309 -88 
Q 1047 -88 709 6 
Q 606 38 541 38 
Q 469 38 428 -44 
L 325 -44 
L 325 978 
L 428 978 
Q 516 541 762 319 
Q 1009 97 1316 97 
Q 1531 97 1667 223 
Q 1803 350 1803 528 
Q 1803 744 1651 891 
Q 1500 1038 1047 1263 
Q 594 1488 453 1669 
Q 313 1847 313 2119 
Q 313 2472 555 2709 
Q 797 2947 1181 2947 
Q 1350 2947 1591 2875 
Q 1750 2828 1803 2828 
Q 1853 2828 1881 2850 
Q 1909 2872 1947 2947 
L 2050 2947 
z
" transform="scale(0.015625)"/>
      </defs>
      <use xlink:href="#TimesNewRomanPSMT-74"/>
      <use xlink:href="#TimesNewRomanPSMT-69" x="27.783203"/>
      <use xlink:href="#TimesNewRomanPSMT-6d" x="55.566406"/>
      <use xlink:href="#TimesNewRomanPSMT-65" x="133.349609"/>
      <use xlink:href="#TimesNewRomanPSMT-73" x="177.734375"/>
     </g>
    </g>
   </g>
   <g id="matplotlib.axis_2">
    <g id="ytick_1">
     <g id="line2d_6">
      <defs>
       <path id="mcde36bc9d9" d="M 0 0 
L -3.5 0 
" style="stroke: #000000; stroke-width: 0.8"/>
      </defs>
      <g>
       <use xlink:href="#mcde36bc9d9" x="32.282813" y="194.488493" style="stroke: #000000; stroke-width: 0.8"/>
      </g>
     </g>
     <g id="text_7">
      <!-- 2 -->
      <g transform="translate(20.282813 197.960368) scale(0.1 -0.1)">
       <use xlink:href="#TimesNewRomanPSMT-32"/>
      </g>
     </g>
    </g>
    <g id="ytick_2">
     <g id="line2d_7">
      <g>
       <use xlink:href="#mcde36bc9d9" x="32.282813" y="154.136214" style="stroke: #000000; stroke-width: 0.8"/>
      </g>
     </g>
     <g id="text_8">
      <!-- 3 -->
      <g transform="translate(20.282813 157.608089) scale(0.1 -0.1)">
       <defs>
        <path id="TimesNewRomanPSMT-33" d="M 325 3431 
Q 506 3859 782 4092 
Q 1059 4325 1472 4325 
Q 1981 4325 2253 3994 
Q 2459 3747 2459 3466 
Q 2459 3003 1878 2509 
Q 2269 2356 2469 2072 
Q 2669 1788 2669 1403 
Q 2669 853 2319 450 
Q 1863 -75 997 -75 
Q 569 -75 414 31 
Q 259 138 259 259 
Q 259 350 332 419 
Q 406 488 509 488 
Q 588 488 669 463 
Q 722 447 909 348 
Q 1097 250 1169 231 
Q 1284 197 1416 197 
Q 1734 197 1970 444 
Q 2206 691 2206 1028 
Q 2206 1275 2097 1509 
Q 2016 1684 1919 1775 
Q 1784 1900 1550 2001 
Q 1316 2103 1072 2103 
L 972 2103 
L 972 2197 
Q 1219 2228 1467 2375 
Q 1716 2522 1828 2728 
Q 1941 2934 1941 3181 
Q 1941 3503 1739 3701 
Q 1538 3900 1238 3900 
Q 753 3900 428 3381 
L 325 3431 
z
" transform="scale(0.015625)"/>
       </defs>
       <use xlink:href="#TimesNewRomanPSMT-33"/>
      </g>
     </g>
    </g>
    <g id="ytick_3">
     <g id="line2d_8">
      <g>
       <use xlink:href="#mcde36bc9d9" x="32.282813" y="113.783935" style="stroke: #000000; stroke-width: 0.8"/>
      </g>
     </g>
     <g id="text_9">
      <!-- 4 -->
      <g transform="translate(20.282813 117.25581) scale(0.1 -0.1)">
       <defs>
        <path id="TimesNewRomanPSMT-34" d="M 2978 1563 
L 2978 1119 
L 2409 1119 
L 2409 0 
L 1894 0 
L 1894 1119 
L 100 1119 
L 100 1519 
L 2066 4325 
L 2409 4325 
L 2409 1563 
L 2978 1563 
z
M 1894 1563 
L 1894 3666 
L 406 1563 
L 1894 1563 
z
" transform="scale(0.015625)"/>
       </defs>
       <use xlink:href="#TimesNewRomanPSMT-34"/>
      </g>
     </g>
    </g>
    <g id="ytick_4">
     <g id="line2d_9">
      <g>
       <use xlink:href="#mcde36bc9d9" x="32.282813" y="73.431656" style="stroke: #000000; stroke-width: 0.8"/>
      </g>
     </g>
     <g id="text_10">
      <!-- 5 -->
      <g transform="translate(20.282813 76.903531) scale(0.1 -0.1)">
       <use xlink:href="#TimesNewRomanPSMT-35"/>
      </g>
     </g>
    </g>
    <g id="text_11">
     <!-- values -->
     <g transform="translate(14.14375 139.854219) rotate(-90) scale(0.1 -0.1)">
      <defs>
       <path id="TimesNewRomanPSMT-76" d="M 53 2863 
L 1400 2863 
L 1400 2747 
L 1313 2747 
Q 1191 2747 1127 2687 
Q 1063 2628 1063 2528 
Q 1063 2419 1128 2269 
L 1794 688 
L 2463 2328 
Q 2534 2503 2534 2594 
Q 2534 2638 2509 2666 
Q 2475 2713 2422 2730 
Q 2369 2747 2206 2747 
L 2206 2863 
L 3141 2863 
L 3141 2747 
Q 2978 2734 2916 2681 
Q 2806 2588 2719 2369 
L 1703 -88 
L 1575 -88 
L 553 2328 
Q 484 2497 421 2570 
Q 359 2644 263 2694 
Q 209 2722 53 2747 
L 53 2863 
z
" transform="scale(0.015625)"/>
       <path id="TimesNewRomanPSMT-61" d="M 1822 413 
Q 1381 72 1269 19 
Q 1100 -59 909 -59 
Q 613 -59 420 144 
Q 228 347 228 678 
Q 228 888 322 1041 
Q 450 1253 767 1440 
Q 1084 1628 1822 1897 
L 1822 2009 
Q 1822 2438 1686 2597 
Q 1550 2756 1291 2756 
Q 1094 2756 978 2650 
Q 859 2544 859 2406 
L 866 2225 
Q 866 2081 792 2003 
Q 719 1925 600 1925 
Q 484 1925 411 2006 
Q 338 2088 338 2228 
Q 338 2497 613 2722 
Q 888 2947 1384 2947 
Q 1766 2947 2009 2819 
Q 2194 2722 2281 2516 
Q 2338 2381 2338 1966 
L 2338 994 
Q 2338 584 2353 492 
Q 2369 400 2405 369 
Q 2441 338 2488 338 
Q 2538 338 2575 359 
Q 2641 400 2828 588 
L 2828 413 
Q 2478 -56 2159 -56 
Q 2006 -56 1915 50 
Q 1825 156 1822 413 
z
M 1822 616 
L 1822 1706 
Q 1350 1519 1213 1441 
Q 966 1303 859 1153 
Q 753 1003 753 825 
Q 753 600 887 451 
Q 1022 303 1197 303 
Q 1434 303 1822 616 
z
" transform="scale(0.015625)"/>
       <path id="TimesNewRomanPSMT-6c" d="M 1184 4444 
L 1184 647 
Q 1184 378 1223 290 
Q 1263 203 1344 158 
Q 1425 113 1647 113 
L 1647 0 
L 244 0 
L 244 113 
Q 441 113 512 153 
Q 584 194 625 287 
Q 666 381 666 647 
L 666 3247 
Q 666 3731 644 3842 
Q 622 3953 573 3993 
Q 525 4034 450 4034 
Q 369 4034 244 3984 
L 191 4094 
L 1044 4444 
L 1184 4444 
z
" transform="scale(0.015625)"/>
       <path id="TimesNewRomanPSMT-75" d="M 2709 2863 
L 2709 1128 
Q 2709 631 2732 520 
Q 2756 409 2807 365 
Q 2859 322 2928 322 
Q 3025 322 3147 375 
L 3191 266 
L 2334 -88 
L 2194 -88 
L 2194 519 
Q 1825 119 1631 15 
Q 1438 -88 1222 -88 
Q 981 -88 804 51 
Q 628 191 559 409 
Q 491 628 491 1028 
L 491 2306 
Q 491 2509 447 2587 
Q 403 2666 317 2708 
Q 231 2750 6 2747 
L 6 2863 
L 1009 2863 
L 1009 947 
Q 1009 547 1148 422 
Q 1288 297 1484 297 
Q 1619 297 1789 381 
Q 1959 466 2194 703 
L 2194 2325 
Q 2194 2569 2105 2655 
Q 2016 2741 1734 2747 
L 1734 2863 
L 2709 2863 
z
" transform="scale(0.015625)"/>
      </defs>
      <use xlink:href="#TimesNewRomanPSMT-76"/>
      <use xlink:href="#TimesNewRomanPSMT-61" x="50"/>
      <use xlink:href="#TimesNewRomanPSMT-6c" x="94.384766"/>
      <use xlink:href="#TimesNewRomanPSMT-75" x="122.167969"/>
      <use xlink:href="#TimesNewRomanPSMT-65" x="172.167969"/>
      <use xlink:href="#TimesNewRomanPSMT-73" x="216.552734"/>
     </g>
    </g>
   </g>
   <g id="line2d_10">
    <path d="M 41.234684 82.228444 
L 42.172053 115.398034 
L 43.109422 143.68497 
L 44.04679 167.048937 
L 44.984159 183.028452 
L 45.921528 190.372555 
L 46.858897 195.295535 
L 47.796265 196.546458 
L 48.733634 191.623478 
L 49.671003 180.566956 
L 50.608372 138.76199 
L 51.545741 131.377536 
L 52.483109 159.664484 
L 53.420478 174.393064 
L 54.357847 152.280008 
L 55.295216 174.393064 
L 56.232584 186.700497 
L 57.169953 190.372555 
L 58.107322 190.372555 
L 59.044691 180.566956 
L 59.982059 147.357027 
L 60.919428 132.628448 
L 61.856797 98.207958 
L 62.794166 89.612932 
L 63.731534 98.207958 
L 64.668903 120.321003 
L 65.606272 153.530931 
L 66.543641 176.854548 
L 67.481009 189.161993 
L 68.418378 196.546458 
L 69.355747 199.007942 
L 70.293116 200.218516 
L 71.230484 194.084974 
L 72.167853 181.777517 
L 73.105222 143.68497 
L 74.042591 140.012924 
L 74.97996 158.41355 
L 75.917328 173.182479 
L 76.854697 146.146466 
L 77.792066 171.931568 
L 78.729435 184.239013 
L 79.666803 174.393064 
L 80.604172 168.25951 
L 81.541541 146.146466 
L 82.47891 119.110441 
L 83.416278 120.321003 
L 84.353647 100.669454 
L 85.291016 101.880016 
L 86.228385 111.725953 
L 87.165753 138.76199 
L 88.103122 159.664484 
L 89.040491 181.777517 
L 89.97786 196.546458 
L 90.915228 199.007942 
L 91.852597 201.429089 
L 92.789966 202.68 
L 93.727335 201.429089 
L 94.664703 189.161993 
L 95.602072 143.68497 
L 96.539441 108.053895 
L 97.47681 126.454556 
L 98.414179 125.243971 
L 99.351547 114.187449 
L 100.288916 106.803008 
L 101.226285 106.803008 
L 102.163654 103.130927 
L 103.101022 95.746462 
L 104.038391 94.535877 
L 104.97576 90.823493 
L 105.913129 79.766971 
L 106.850497 55.192431 
L 107.787866 53.941519 
L 108.725235 55.192431 
L 109.662604 77.305475 
L 110.599972 98.207958 
L 111.537341 125.243971 
L 112.47471 157.202988 
L 113.412079 169.510433 
L 114.349447 179.316044 
L 115.286816 179.316044 
L 116.224185 176.854548 
L 117.161554 163.33653 
L 118.098922 127.705467 
L 119.036291 104.341488 
L 119.97366 126.454556 
L 120.911029 142.434059 
L 121.848398 130.166952 
L 122.785766 137.551428 
L 123.723135 147.357027 
L 124.660504 144.895543 
L 125.597873 138.76199 
L 126.535241 138.76199 
L 127.47261 114.187449 
L 128.409979 105.592423 
L 129.347348 77.305475 
L 130.284716 73.633418 
L 131.222085 79.766971 
" clip-path="url(#pe581efc1d0)" style="fill: none; stroke: #21266e; stroke-width: 0.9; stroke-linecap: square"/>
   </g>
   <g id="line2d_11">
    <path d="M 131.222085 79.766971 
L 132.159454 101.880016 
L 133.096823 127.705467 
L 134.034191 155.952065 
L 134.97156 176.854548 
L 135.908929 185.449586 
L 136.846298 191.623478 
L 137.783666 191.623478 
L 138.721035 191.623478 
L 139.658404 180.566956 
L 140.595773 125.243971 
L 141.533141 98.207958 
L 142.47051 132.628448 
L 143.407879 164.587453 
L 144.345248 164.587453 
L 145.282617 173.182479 
L 146.219985 186.700497 
L 147.157354 185.449586 
L 148.094723 179.316044 
L 149.032092 178.105471 
L 149.96946 153.530931 
L 150.906829 133.839021 
L 151.844198 98.207958 
L 152.781567 84.68994 
L 153.718935 88.361997 
L 154.656304 111.725953 
L 155.593673 140.012924 
L 156.531042 158.41355 
L 157.46841 181.777517 
L 158.405779 190.372555 
L 159.343148 197.757031 
L 160.280517 197.757031 
L 161.217885 197.757031 
L 162.155254 187.911071 
L 163.092623 153.530931 
L 164.029992 117.859507 
L 164.96736 135.089944 
L 165.904729 159.664484 
L 166.842098 140.012924 
L 167.779467 143.68497 
L 168.716836 141.223486 
L 169.654204 130.166952 
L 170.591573 125.243971 
L 171.528942 121.571937 
L 172.466311 94.535877 
L 173.403679 79.766971 
L 174.341048 65.038368 
L 175.278417 60.115399 
L 176.215786 79.766971 
L 177.153154 104.341488 
L 178.090523 136.300505 
L 179.027892 163.33653 
L 179.965261 176.854548 
L 180.902629 185.449586 
L 181.839998 190.372555 
L 182.777367 191.623478 
L 183.714736 191.623478 
L 184.652104 185.449586 
L 185.589473 157.202988 
L 186.526842 121.571937 
L 187.464211 115.398034 
L 188.401579 127.705467 
L 189.338948 111.725953 
L 190.276317 119.110441 
L 191.213686 120.321003 
L 192.151055 120.321003 
L 193.088423 116.648945 
L 194.025792 110.475065 
L 194.963161 89.612932 
L 195.90053 90.823493 
L 196.837898 65.038368 
L 197.775267 65.038368 
L 198.712636 73.633418 
L 199.650005 94.535877 
L 200.587373 128.91604 
L 201.524742 155.952065 
L 202.462111 176.854548 
L 203.39948 186.700497 
L 204.336848 187.911071 
L 205.274217 191.623478 
L 206.211586 190.372555 
L 207.148955 181.777517 
L 208.086323 147.357027 
L 209.023692 119.110441 
L 209.961061 125.243971 
L 210.89843 128.91604 
L 211.835798 109.26448 
L 212.773167 111.725953 
L 213.710536 114.187449 
L 214.647905 117.859507 
L 215.585274 111.725953 
L 216.522642 99.41852 
L 217.460011 88.361997 
L 218.39738 83.439029 
L 219.334749 58.864488 
L 220.272117 51.48 
" clip-path="url(#pe581efc1d0)" style="fill: none; stroke: #21266e; stroke-width: 0.9; stroke-linecap: square"/>
   </g>
   <g id="line2d_12">
    <path d="M 131.222085 140.129857 
L 132.159454 131.376245 
L 133.096823 142.980261 
L 134.034191 139.713042 
L 134.97156 126.077337 
L 135.908929 109.938298 
L 136.846298 91.563448 
L 137.783666 71.721704 
L 138.721035 88.590813 
L 139.658404 152.109145 
L 140.595773 166.988608 
L 141.533141 148.336837 
L 142.47051 140.580128 
L 143.407879 171.490776 
L 144.345248 178.943955 
L 145.282617 184.891696 
L 146.219985 176.824335 
L 147.157354 159.088754 
L 148.094723 146.527105 
L 149.032092 139.04294 
L 149.96946 140.977602 
L 150.906829 155.674059 
L 151.844198 180.166056 
L 152.781567 200.039344 
L 153.718935 189.855474 
L 154.656304 184.155686 
L 155.593673 188.967494 
L 156.531042 192.640439 
L 157.46841 192.724109 
L 158.405779 188.325828 
L 159.343148 177.918636 
L 160.280517 161.561832 
L 161.217885 144.063026 
L 162.155254 155.573521 
L 163.092623 160.069463 
L 164.029992 144.064943 
L 164.96736 148.786559 
L 165.904729 169.361907 
L 166.842098 170.449329 
L 167.779467 169.954795 
L 168.716836 160.19558 
L 169.654204 147.657014 
L 170.591573 140.413291 
L 171.528942 139.58845 
L 172.466311 145.781896 
L 173.403679 158.119815 
L 174.341048 177.115844 
L 175.278417 181.032057 
L 176.215786 156.072857 
L 177.153154 147.144588 
L 178.090523 152.479208 
L 179.027892 157.028968 
L 179.965261 158.189757 
L 180.902629 154.7908 
L 181.839998 143.856317 
L 182.777367 127.594462 
L 183.714736 132.774589 
L 184.652104 164.451035 
L 185.589473 156.455049 
L 186.526842 138.706769 
L 187.464211 155.162695 
L 188.401579 165.719364 
L 189.338948 168.244654 
L 190.276317 167.797566 
L 191.213686 156.449925 
L 192.151055 143.020622 
L 193.088423 136.009231 
L 194.025792 136.027273 
L 194.963161 142.4821 
L 195.90053 156.160728 
L 196.837898 178.311143 
L 197.775267 181.178854 
L 198.712636 170.600654 
L 199.650005 172.806265 
L 200.587373 177.95461 
L 201.524742 180.093745 
L 202.462111 179.25809 
L 203.39948 174.217525 
L 204.336848 163.346189 
L 205.274217 148.482577 
L 206.211586 145.842662 
L 207.148955 161.534711 
L 208.086323 150.616736 
L 209.023692 135.961156 
L 209.961061 158.08512 
L 210.89843 160.880827 
L 211.835798 162.919166 
L 212.773167 160.486048 
L 213.710536 149.6142 
L 214.647905 138.410414 
L 215.585274 132.64164 
L 216.522642 133.010654 
L 217.460011 140.109479 
L 218.39738 156.907398 
L 219.334749 177.512127 
L 220.272117 172.672376 
" clip-path="url(#pe581efc1d0)" style="fill: none; stroke: #d70005; stroke-width: 0.9; stroke-linecap: square"/>
   </g>
   <g id="patch_3">
    <path d="M 32.282813 210.24 
L 32.282813 43.92 
" style="fill: none; stroke: #000000; stroke-width: 0.8; stroke-linejoin: miter; stroke-linecap: square"/>
   </g>
   <g id="patch_4">
    <path d="M 229.223989 210.24 
L 229.223989 43.92 
" style="fill: none; stroke: #000000; stroke-width: 0.8; stroke-linejoin: miter; stroke-linecap: square"/>
   </g>
   <g id="patch_5">
    <path d="M 32.282813 210.24 
L 229.223989 210.24 
" style="fill: none; stroke: #000000; stroke-width: 0.8; stroke-linejoin: miter; stroke-linecap: square"/>
   </g>
   <g id="patch_6">
    <path d="M 32.282813 43.92 
L 229.223989 43.92 
" style="fill: none; stroke: #000000; stroke-width: 0.8; stroke-linejoin: miter; stroke-linecap: square"/>
   </g>
   <g id="text_12">
    <!-- lstm_short model -->
    <g transform="translate(88.920276 37.92) scale(0.12 -0.12)">
     <defs>
      <path id="TimesNewRomanPSMT-5f" d="M 3256 -1381 
L -53 -1381 
L -53 -1119 
L 3256 -1119 
L 3256 -1381 
z
" transform="scale(0.015625)"/>
      <path id="TimesNewRomanPSMT-68" d="M 1041 4444 
L 1041 2350 
Q 1388 2731 1591 2839 
Q 1794 2947 1997 2947 
Q 2241 2947 2416 2812 
Q 2591 2678 2675 2391 
Q 2734 2191 2734 1659 
L 2734 647 
Q 2734 375 2778 275 
Q 2809 200 2884 156 
Q 2959 113 3159 113 
L 3159 0 
L 1753 0 
L 1753 113 
L 1819 113 
Q 2019 113 2097 173 
Q 2175 234 2206 353 
Q 2216 403 2216 647 
L 2216 1659 
Q 2216 2128 2167 2275 
Q 2119 2422 2012 2495 
Q 1906 2569 1756 2569 
Q 1603 2569 1437 2487 
Q 1272 2406 1041 2159 
L 1041 647 
Q 1041 353 1073 281 
Q 1106 209 1195 161 
Q 1284 113 1503 113 
L 1503 0 
L 84 0 
L 84 113 
Q 275 113 384 172 
Q 447 203 484 290 
Q 522 378 522 647 
L 522 3238 
Q 522 3728 498 3840 
Q 475 3953 426 3993 
Q 378 4034 297 4034 
Q 231 4034 84 3984 
L 41 4094 
L 897 4444 
L 1041 4444 
z
" transform="scale(0.015625)"/>
      <path id="TimesNewRomanPSMT-6f" d="M 1600 2947 
Q 2250 2947 2644 2453 
Q 2978 2031 2978 1484 
Q 2978 1100 2793 706 
Q 2609 313 2286 112 
Q 1963 -88 1566 -88 
Q 919 -88 538 428 
Q 216 863 216 1403 
Q 216 1797 411 2186 
Q 606 2575 925 2761 
Q 1244 2947 1600 2947 
z
M 1503 2744 
Q 1338 2744 1170 2645 
Q 1003 2547 900 2300 
Q 797 2053 797 1666 
Q 797 1041 1045 587 
Q 1294 134 1700 134 
Q 2003 134 2200 384 
Q 2397 634 2397 1244 
Q 2397 2006 2069 2444 
Q 1847 2744 1503 2744 
z
" transform="scale(0.015625)"/>
      <path id="TimesNewRomanPSMT-72" d="M 1038 2947 
L 1038 2303 
Q 1397 2947 1775 2947 
Q 1947 2947 2059 2842 
Q 2172 2738 2172 2600 
Q 2172 2478 2090 2393 
Q 2009 2309 1897 2309 
Q 1788 2309 1652 2417 
Q 1516 2525 1450 2525 
Q 1394 2525 1328 2463 
Q 1188 2334 1038 2041 
L 1038 669 
Q 1038 431 1097 309 
Q 1138 225 1241 169 
Q 1344 113 1538 113 
L 1538 0 
L 72 0 
L 72 113 
Q 291 113 397 181 
Q 475 231 506 341 
Q 522 394 522 644 
L 522 1753 
Q 522 2253 501 2348 
Q 481 2444 426 2487 
Q 372 2531 291 2531 
Q 194 2531 72 2484 
L 41 2597 
L 906 2947 
L 1038 2947 
z
" transform="scale(0.015625)"/>
      <path id="TimesNewRomanPSMT-20" transform="scale(0.015625)"/>
      <path id="TimesNewRomanPSMT-64" d="M 2222 322 
Q 2013 103 1813 7 
Q 1613 -88 1381 -88 
Q 913 -88 563 304 
Q 213 697 213 1313 
Q 213 1928 600 2439 
Q 988 2950 1597 2950 
Q 1975 2950 2222 2709 
L 2222 3238 
Q 2222 3728 2198 3840 
Q 2175 3953 2125 3993 
Q 2075 4034 2000 4034 
Q 1919 4034 1784 3984 
L 1744 4094 
L 2597 4444 
L 2738 4444 
L 2738 1134 
Q 2738 631 2761 520 
Q 2784 409 2836 365 
Q 2888 322 2956 322 
Q 3041 322 3181 375 
L 3216 266 
L 2366 -88 
L 2222 -88 
L 2222 322 
z
M 2222 541 
L 2222 2016 
Q 2203 2228 2109 2403 
Q 2016 2578 1861 2667 
Q 1706 2756 1559 2756 
Q 1284 2756 1069 2509 
Q 784 2184 784 1559 
Q 784 928 1059 592 
Q 1334 256 1672 256 
Q 1956 256 2222 541 
z
" transform="scale(0.015625)"/>
     </defs>
     <use xlink:href="#TimesNewRomanPSMT-6c"/>
     <use xlink:href="#TimesNewRomanPSMT-73" x="27.783203"/>
     <use xlink:href="#TimesNewRomanPSMT-74" x="66.699219"/>
     <use xlink:href="#TimesNewRomanPSMT-6d" x="94.482422"/>
     <use xlink:href="#TimesNewRomanPSMT-5f" x="172.265625"/>
     <use xlink:href="#TimesNewRomanPSMT-73" x="222.265625"/>
     <use xlink:href="#TimesNewRomanPSMT-68" x="261.181641"/>
     <use xlink:href="#TimesNewRomanPSMT-6f" x="311.181641"/>
     <use xlink:href="#TimesNewRomanPSMT-72" x="361.181641"/>
     <use xlink:href="#TimesNewRomanPSMT-74" x="394.482422"/>
     <use xlink:href="#TimesNewRomanPSMT-20" x="422.265625"/>
     <use xlink:href="#TimesNewRomanPSMT-6d" x="447.265625"/>
     <use xlink:href="#TimesNewRomanPSMT-6f" x="525.048828"/>
     <use xlink:href="#TimesNewRomanPSMT-64" x="575.048828"/>
     <use xlink:href="#TimesNewRomanPSMT-65" x="625.048828"/>
     <use xlink:href="#TimesNewRomanPSMT-6c" x="669.433594"/>
    </g>
   </g>
   <g id="legend_1">
    <g id="patch_7">
     <path d="M 37.882813 206.24 
L 107.276563 206.24 
Q 108.876563 206.24 108.876563 204.64 
L 108.876563 182.8175 
Q 108.876563 181.2175 107.276563 181.2175 
L 37.882813 181.2175 
Q 36.282813 181.2175 36.282813 182.8175 
L 36.282813 204.64 
Q 36.282813 206.24 37.882813 206.24 
z
" style="fill: #ffffff; opacity: 0.8; stroke: #cccccc; stroke-linejoin: miter"/>
    </g>
    <g id="line2d_13">
     <path d="M 39.482813 187.2175 
L 47.482813 187.2175 
L 55.482813 187.2175 
" style="fill: none; stroke: #21266e; stroke-width: 0.9; stroke-linecap: square"/>
    </g>
    <g id="text_13">
     <!-- Ground Truth -->
     <g transform="translate(61.882813 190.0175) scale(0.08 -0.08)">
      <defs>
       <path id="TimesNewRomanPSMT-47" d="M 3928 4334 
L 4038 2997 
L 3928 2997 
Q 3763 3497 3500 3750 
Q 3122 4116 2528 4116 
Q 1719 4116 1297 3475 
Q 944 2934 944 2188 
Q 944 1581 1178 1081 
Q 1413 581 1792 348 
Q 2172 116 2572 116 
Q 2806 116 3025 175 
Q 3244 234 3447 350 
L 3447 1575 
Q 3447 1894 3398 1992 
Q 3350 2091 3248 2142 
Q 3147 2194 2891 2194 
L 2891 2313 
L 4531 2313 
L 4531 2194 
L 4453 2194 
Q 4209 2194 4119 2031 
Q 4056 1916 4056 1575 
L 4056 278 
Q 3697 84 3347 -6 
Q 2997 -97 2569 -97 
Q 1341 -97 703 691 
Q 225 1281 225 2053 
Q 225 2613 494 3125 
Q 813 3734 1369 4063 
Q 1834 4334 2469 4334 
Q 2700 4334 2889 4296 
Q 3078 4259 3425 4131 
Q 3600 4066 3659 4066 
Q 3719 4066 3761 4120 
Q 3803 4175 3813 4334 
L 3928 4334 
z
" transform="scale(0.015625)"/>
       <path id="TimesNewRomanPSMT-6e" d="M 1034 2341 
Q 1538 2947 1994 2947 
Q 2228 2947 2397 2830 
Q 2566 2713 2666 2444 
Q 2734 2256 2734 1869 
L 2734 647 
Q 2734 375 2778 278 
Q 2813 200 2889 156 
Q 2966 113 3172 113 
L 3172 0 
L 1756 0 
L 1756 113 
L 1816 113 
Q 2016 113 2095 173 
Q 2175 234 2206 353 
Q 2219 400 2219 647 
L 2219 1819 
Q 2219 2209 2117 2386 
Q 2016 2563 1775 2563 
Q 1403 2563 1034 2156 
L 1034 647 
Q 1034 356 1069 288 
Q 1113 197 1189 155 
Q 1266 113 1500 113 
L 1500 0 
L 84 0 
L 84 113 
L 147 113 
Q 366 113 442 223 
Q 519 334 519 647 
L 519 1709 
Q 519 2225 495 2337 
Q 472 2450 423 2490 
Q 375 2531 294 2531 
Q 206 2531 84 2484 
L 38 2597 
L 900 2947 
L 1034 2947 
L 1034 2341 
z
" transform="scale(0.015625)"/>
       <path id="TimesNewRomanPSMT-54" d="M 3703 4238 
L 3750 3244 
L 3631 3244 
Q 3597 3506 3538 3619 
Q 3441 3800 3280 3886 
Q 3119 3972 2856 3972 
L 2259 3972 
L 2259 734 
Q 2259 344 2344 247 
Q 2463 116 2709 116 
L 2856 116 
L 2856 0 
L 1059 0 
L 1059 116 
L 1209 116 
Q 1478 116 1591 278 
Q 1659 378 1659 734 
L 1659 3972 
L 1150 3972 
Q 853 3972 728 3928 
Q 566 3869 450 3700 
Q 334 3531 313 3244 
L 194 3244 
L 244 4238 
L 3703 4238 
z
" transform="scale(0.015625)"/>
      </defs>
      <use xlink:href="#TimesNewRomanPSMT-47"/>
      <use xlink:href="#TimesNewRomanPSMT-72" x="72.216797"/>
      <use xlink:href="#TimesNewRomanPSMT-6f" x="105.517578"/>
      <use xlink:href="#TimesNewRomanPSMT-75" x="155.517578"/>
      <use xlink:href="#TimesNewRomanPSMT-6e" x="205.517578"/>
      <use xlink:href="#TimesNewRomanPSMT-64" x="255.517578"/>
      <use xlink:href="#TimesNewRomanPSMT-20" x="305.517578"/>
      <use xlink:href="#TimesNewRomanPSMT-54" x="328.767578"/>
      <use xlink:href="#TimesNewRomanPSMT-72" x="386.351562"/>
      <use xlink:href="#TimesNewRomanPSMT-75" x="419.652344"/>
      <use xlink:href="#TimesNewRomanPSMT-74" x="469.652344"/>
      <use xlink:href="#TimesNewRomanPSMT-68" x="497.435547"/>
     </g>
    </g>
    <g id="line2d_14">
     <path d="M 39.482813 198.52875 
L 47.482813 198.52875 
L 55.482813 198.52875 
" style="fill: none; stroke: #d70005; stroke-width: 0.9; stroke-linecap: square"/>
    </g>
    <g id="text_14">
     <!-- prediction -->
     <g transform="translate(61.882813 201.32875) scale(0.08 -0.08)">
      <defs>
       <path id="TimesNewRomanPSMT-70" d="M -6 2578 
L 875 2934 
L 994 2934 
L 994 2266 
Q 1216 2644 1439 2795 
Q 1663 2947 1909 2947 
Q 2341 2947 2628 2609 
Q 2981 2197 2981 1534 
Q 2981 794 2556 309 
Q 2206 -88 1675 -88 
Q 1444 -88 1275 -22 
Q 1150 25 994 166 
L 994 -706 
Q 994 -1000 1030 -1079 
Q 1066 -1159 1155 -1206 
Q 1244 -1253 1478 -1253 
L 1478 -1369 
L -22 -1369 
L -22 -1253 
L 56 -1253 
Q 228 -1256 350 -1188 
Q 409 -1153 442 -1076 
Q 475 -1000 475 -688 
L 475 2019 
Q 475 2297 450 2372 
Q 425 2447 370 2484 
Q 316 2522 222 2522 
Q 147 2522 31 2478 
L -6 2578 
z
M 994 2081 
L 994 1013 
Q 994 666 1022 556 
Q 1066 375 1236 237 
Q 1406 100 1666 100 
Q 1978 100 2172 344 
Q 2425 663 2425 1241 
Q 2425 1897 2138 2250 
Q 1938 2494 1663 2494 
Q 1513 2494 1366 2419 
Q 1253 2363 994 2081 
z
" transform="scale(0.015625)"/>
       <path id="TimesNewRomanPSMT-63" d="M 2631 1088 
Q 2516 522 2178 217 
Q 1841 -88 1431 -88 
Q 944 -88 581 321 
Q 219 731 219 1428 
Q 219 2103 620 2525 
Q 1022 2947 1584 2947 
Q 2006 2947 2278 2723 
Q 2550 2500 2550 2259 
Q 2550 2141 2473 2067 
Q 2397 1994 2259 1994 
Q 2075 1994 1981 2113 
Q 1928 2178 1911 2362 
Q 1894 2547 1784 2644 
Q 1675 2738 1481 2738 
Q 1169 2738 978 2506 
Q 725 2200 725 1697 
Q 725 1184 976 792 
Q 1228 400 1656 400 
Q 1963 400 2206 609 
Q 2378 753 2541 1131 
L 2631 1088 
z
" transform="scale(0.015625)"/>
      </defs>
      <use xlink:href="#TimesNewRomanPSMT-70"/>
      <use xlink:href="#TimesNewRomanPSMT-72" x="50"/>
      <use xlink:href="#TimesNewRomanPSMT-65" x="83.300781"/>
      <use xlink:href="#TimesNewRomanPSMT-64" x="127.685547"/>
      <use xlink:href="#TimesNewRomanPSMT-69" x="177.685547"/>
      <use xlink:href="#TimesNewRomanPSMT-63" x="205.46875"/>
      <use xlink:href="#TimesNewRomanPSMT-74" x="249.853516"/>
      <use xlink:href="#TimesNewRomanPSMT-69" x="277.636719"/>
      <use xlink:href="#TimesNewRomanPSMT-6f" x="305.419922"/>
      <use xlink:href="#TimesNewRomanPSMT-6e" x="355.419922"/>
     </g>
    </g>
   </g>
  </g>
  <g id="axes_2">
   <g id="patch_8">
    <path d="M 268.612224 210.24 
L 465.553401 210.24 
L 465.553401 43.92 
L 268.612224 43.92 
z
" style="fill: #ffffff"/>
   </g>
   <g id="matplotlib.axis_3">
    <g id="xtick_6">
     <g id="line2d_15">
      <g>
       <use xlink:href="#m228520dbf3" x="277.564096" y="210.24" style="stroke: #000000; stroke-width: 0.8"/>
      </g>
     </g>
     <g id="text_15">
      <!-- 0 -->
      <g transform="translate(275.064096 224.18375) scale(0.1 -0.1)">
       <use xlink:href="#TimesNewRomanPSMT-30"/>
      </g>
     </g>
    </g>
    <g id="xtick_7">
     <g id="line2d_16">
      <g>
       <use xlink:href="#m228520dbf3" x="324.432534" y="210.24" style="stroke: #000000; stroke-width: 0.8"/>
      </g>
     </g>
     <g id="text_16">
      <!-- 50 -->
      <g transform="translate(319.432534 224.18375) scale(0.1 -0.1)">
       <use xlink:href="#TimesNewRomanPSMT-35"/>
       <use xlink:href="#TimesNewRomanPSMT-30" x="50"/>
      </g>
     </g>
    </g>
    <g id="xtick_8">
     <g id="line2d_17">
      <g>
       <use xlink:href="#m228520dbf3" x="371.300972" y="210.24" style="stroke: #000000; stroke-width: 0.8"/>
      </g>
     </g>
     <g id="text_17">
      <!-- 100 -->
      <g transform="translate(363.800972 224.18375) scale(0.1 -0.1)">
       <use xlink:href="#TimesNewRomanPSMT-31"/>
       <use xlink:href="#TimesNewRomanPSMT-30" x="50"/>
       <use xlink:href="#TimesNewRomanPSMT-30" x="100"/>
      </g>
     </g>
    </g>
    <g id="xtick_9">
     <g id="line2d_18">
      <g>
       <use xlink:href="#m228520dbf3" x="418.16941" y="210.24" style="stroke: #000000; stroke-width: 0.8"/>
      </g>
     </g>
     <g id="text_18">
      <!-- 150 -->
      <g transform="translate(410.66941 224.18375) scale(0.1 -0.1)">
       <use xlink:href="#TimesNewRomanPSMT-31"/>
       <use xlink:href="#TimesNewRomanPSMT-35" x="50"/>
       <use xlink:href="#TimesNewRomanPSMT-30" x="100"/>
      </g>
     </g>
    </g>
    <g id="xtick_10">
     <g id="line2d_19">
      <g>
       <use xlink:href="#m228520dbf3" x="465.037848" y="210.24" style="stroke: #000000; stroke-width: 0.8"/>
      </g>
     </g>
     <g id="text_19">
      <!-- 200 -->
      <g transform="translate(457.537848 224.18375) scale(0.1 -0.1)">
       <use xlink:href="#TimesNewRomanPSMT-32"/>
       <use xlink:href="#TimesNewRomanPSMT-30" x="50"/>
       <use xlink:href="#TimesNewRomanPSMT-30" x="100"/>
      </g>
     </g>
    </g>
    <g id="text_20">
     <!-- times -->
     <g transform="translate(356.25 237.266563) scale(0.1 -0.1)">
      <use xlink:href="#TimesNewRomanPSMT-74"/>
      <use xlink:href="#TimesNewRomanPSMT-69" x="27.783203"/>
      <use xlink:href="#TimesNewRomanPSMT-6d" x="55.566406"/>
      <use xlink:href="#TimesNewRomanPSMT-65" x="133.349609"/>
      <use xlink:href="#TimesNewRomanPSMT-73" x="177.734375"/>
     </g>
    </g>
   </g>
   <g id="matplotlib.axis_4">
    <g id="ytick_5">
     <g id="line2d_20">
      <g>
       <use xlink:href="#mcde36bc9d9" x="268.612224" y="194.488493" style="stroke: #000000; stroke-width: 0.8"/>
      </g>
     </g>
     <g id="text_21">
      <!-- 2 -->
      <g transform="translate(256.612224 197.960368) scale(0.1 -0.1)">
       <use xlink:href="#TimesNewRomanPSMT-32"/>
      </g>
     </g>
    </g>
    <g id="ytick_6">
     <g id="line2d_21">
      <g>
       <use xlink:href="#mcde36bc9d9" x="268.612224" y="154.136214" style="stroke: #000000; stroke-width: 0.8"/>
      </g>
     </g>
     <g id="text_22">
      <!-- 3 -->
      <g transform="translate(256.612224 157.608089) scale(0.1 -0.1)">
       <use xlink:href="#TimesNewRomanPSMT-33"/>
      </g>
     </g>
    </g>
    <g id="ytick_7">
     <g id="line2d_22">
      <g>
       <use xlink:href="#mcde36bc9d9" x="268.612224" y="113.783935" style="stroke: #000000; stroke-width: 0.8"/>
      </g>
     </g>
     <g id="text_23">
      <!-- 4 -->
      <g transform="translate(256.612224 117.25581) scale(0.1 -0.1)">
       <use xlink:href="#TimesNewRomanPSMT-34"/>
      </g>
     </g>
    </g>
    <g id="ytick_8">
     <g id="line2d_23">
      <g>
       <use xlink:href="#mcde36bc9d9" x="268.612224" y="73.431656" style="stroke: #000000; stroke-width: 0.8"/>
      </g>
     </g>
     <g id="text_24">
      <!-- 5 -->
      <g transform="translate(256.612224 76.903531) scale(0.1 -0.1)">
       <use xlink:href="#TimesNewRomanPSMT-35"/>
      </g>
     </g>
    </g>
    <g id="text_25">
     <!-- values -->
     <g transform="translate(250.473162 139.854219) rotate(-90) scale(0.1 -0.1)">
      <use xlink:href="#TimesNewRomanPSMT-76"/>
      <use xlink:href="#TimesNewRomanPSMT-61" x="50"/>
      <use xlink:href="#TimesNewRomanPSMT-6c" x="94.384766"/>
      <use xlink:href="#TimesNewRomanPSMT-75" x="122.167969"/>
      <use xlink:href="#TimesNewRomanPSMT-65" x="172.167969"/>
      <use xlink:href="#TimesNewRomanPSMT-73" x="216.552734"/>
     </g>
    </g>
   </g>
   <g id="line2d_24">
    <path d="M 277.564096 82.228444 
L 278.501465 115.398034 
L 279.438833 143.68497 
L 280.376202 167.048937 
L 281.313571 183.028452 
L 282.25094 190.372555 
L 283.188308 195.295535 
L 284.125677 196.546458 
L 285.063046 191.623478 
L 286.000415 180.566956 
L 286.937784 138.76199 
L 287.875152 131.377536 
L 288.812521 159.664484 
L 289.74989 174.393064 
L 290.687259 152.280008 
L 291.624627 174.393064 
L 292.561996 186.700497 
L 293.499365 190.372555 
L 294.436734 190.372555 
L 295.374102 180.566956 
L 296.311471 147.357027 
L 297.24884 132.628448 
L 298.186209 98.207958 
L 299.123577 89.612932 
L 300.060946 98.207958 
L 300.998315 120.321003 
L 301.935684 153.530931 
L 302.873052 176.854548 
L 303.810421 189.161993 
L 304.74779 196.546458 
L 305.685159 199.007942 
L 306.622527 200.218516 
L 307.559896 194.084974 
L 308.497265 181.777517 
L 309.434634 143.68497 
L 310.372003 140.012924 
L 311.309371 158.41355 
L 312.24674 173.182479 
L 313.184109 146.146466 
L 314.121478 171.931568 
L 315.058846 184.239013 
L 315.996215 174.393064 
L 316.933584 168.25951 
L 317.870953 146.146466 
L 318.808321 119.110441 
L 319.74569 120.321003 
L 320.683059 100.669454 
L 321.620428 101.880016 
L 322.557796 111.725953 
L 323.495165 138.76199 
L 324.432534 159.664484 
L 325.369903 181.777517 
L 326.307271 196.546458 
L 327.24464 199.007942 
L 328.182009 201.429089 
L 329.119378 202.68 
L 330.056746 201.429089 
L 330.994115 189.161993 
L 331.931484 143.68497 
L 332.868853 108.053895 
L 333.806222 126.454556 
L 334.74359 125.243971 
L 335.680959 114.187449 
L 336.618328 106.803008 
L 337.555697 106.803008 
L 338.493065 103.130927 
L 339.430434 95.746462 
L 340.367803 94.535877 
L 341.305172 90.823493 
L 342.24254 79.766971 
L 343.179909 55.192431 
L 344.117278 53.941519 
L 345.054647 55.192431 
L 345.992015 77.305475 
L 346.929384 98.207958 
L 347.866753 125.243971 
L 348.804122 157.202988 
L 349.74149 169.510433 
L 350.678859 179.316044 
L 351.616228 179.316044 
L 352.553597 176.854548 
L 353.490965 163.33653 
L 354.428334 127.705467 
L 355.365703 104.341488 
L 356.303072 126.454556 
L 357.240441 142.434059 
L 358.177809 130.166952 
L 359.115178 137.551428 
L 360.052547 147.357027 
L 360.989916 144.895543 
L 361.927284 138.76199 
L 362.864653 138.76199 
L 363.802022 114.187449 
L 364.739391 105.592423 
L 365.676759 77.305475 
L 366.614128 73.633418 
L 367.551497 79.766971 
" clip-path="url(#p31aacc9fd2)" style="fill: none; stroke: #21266e; stroke-width: 0.9; stroke-linecap: square"/>
   </g>
   <g id="line2d_25">
    <path d="M 367.551497 79.766971 
L 368.488866 101.880016 
L 369.426234 127.705467 
L 370.363603 155.952065 
L 371.300972 176.854548 
L 372.238341 185.449586 
L 373.175709 191.623478 
L 374.113078 191.623478 
L 375.050447 191.623478 
L 375.987816 180.566956 
L 376.925184 125.243971 
L 377.862553 98.207958 
L 378.799922 132.628448 
L 379.737291 164.587453 
L 380.67466 164.587453 
L 381.612028 173.182479 
L 382.549397 186.700497 
L 383.486766 185.449586 
L 384.424135 179.316044 
L 385.361503 178.105471 
L 386.298872 153.530931 
L 387.236241 133.839021 
L 388.17361 98.207958 
L 389.110978 84.68994 
L 390.048347 88.361997 
L 390.985716 111.725953 
L 391.923085 140.012924 
L 392.860453 158.41355 
L 393.797822 181.777517 
L 394.735191 190.372555 
L 395.67256 197.757031 
L 396.609928 197.757031 
L 397.547297 197.757031 
L 398.484666 187.911071 
L 399.422035 153.530931 
L 400.359403 117.859507 
L 401.296772 135.089944 
L 402.234141 159.664484 
L 403.17151 140.012924 
L 404.108879 143.68497 
L 405.046247 141.223486 
L 405.983616 130.166952 
L 406.920985 125.243971 
L 407.858354 121.571937 
L 408.795722 94.535877 
L 409.733091 79.766971 
L 410.67046 65.038368 
L 411.607829 60.115399 
L 412.545197 79.766971 
L 413.482566 104.341488 
L 414.419935 136.300505 
L 415.357304 163.33653 
L 416.294672 176.854548 
L 417.232041 185.449586 
L 418.16941 190.372555 
L 419.106779 191.623478 
L 420.044147 191.623478 
L 420.981516 185.449586 
L 421.918885 157.202988 
L 422.856254 121.571937 
L 423.793622 115.398034 
L 424.730991 127.705467 
L 425.66836 111.725953 
L 426.605729 119.110441 
L 427.543098 120.321003 
L 428.480466 120.321003 
L 429.417835 116.648945 
L 430.355204 110.475065 
L 431.292573 89.612932 
L 432.229941 90.823493 
L 433.16731 65.038368 
L 434.104679 65.038368 
L 435.042048 73.633418 
L 435.979416 94.535877 
L 436.916785 128.91604 
L 437.854154 155.952065 
L 438.791523 176.854548 
L 439.728891 186.700497 
L 440.66626 187.911071 
L 441.603629 191.623478 
L 442.540998 190.372555 
L 443.478366 181.777517 
L 444.415735 147.357027 
L 445.353104 119.110441 
L 446.290473 125.243971 
L 447.227841 128.91604 
L 448.16521 109.26448 
L 449.102579 111.725953 
L 450.039948 114.187449 
L 450.977317 117.859507 
L 451.914685 111.725953 
L 452.852054 99.41852 
L 453.789423 88.361997 
L 454.726792 83.439029 
L 455.66416 58.864488 
L 456.601529 51.48 
" clip-path="url(#p31aacc9fd2)" style="fill: none; stroke: #21266e; stroke-width: 0.9; stroke-linecap: square"/>
   </g>
   <g id="line2d_26">
    <path d="M 367.551497 87.29799 
L 368.488866 100.041333 
L 369.426234 105.806596 
L 370.363603 111.298456 
L 371.300972 113.735984 
L 372.238341 119.639442 
L 373.175709 132.453623 
L 374.113078 146.843467 
L 375.050447 159.835198 
L 375.987816 164.986372 
L 376.925184 167.278761 
L 377.862553 168.237543 
L 378.799922 166.540492 
L 379.737291 164.497658 
L 380.67466 157.363791 
L 381.612028 153.900153 
L 382.549397 153.124162 
L 383.486766 154.488053 
L 384.424135 155.313754 
L 385.361503 154.353922 
L 386.298872 153.04123 
L 387.236241 151.165128 
L 388.17361 149.530828 
L 389.110978 146.93267 
L 390.048347 148.010253 
L 390.985716 148.11956 
L 391.923085 150.090736 
L 392.860453 151.78857 
L 393.797822 153.42791 
L 394.735191 155.767676 
L 395.67256 158.25512 
L 396.609928 159.441001 
L 397.547297 160.945903 
L 398.484666 162.608223 
L 399.422035 164.455026 
L 400.359403 165.120774 
L 401.296772 163.633647 
L 402.234141 161.649207 
L 403.17151 158.183136 
L 404.108879 152.084554 
L 405.046247 148.093843 
L 405.983616 144.942996 
L 406.920985 139.93774 
L 407.858354 136.915152 
L 408.795722 134.344276 
L 409.733091 129.402397 
L 410.67046 124.969304 
L 411.607829 121.897136 
L 412.545197 121.652734 
L 413.482566 120.056616 
L 414.419935 122.534649 
L 415.357304 126.430428 
L 416.294672 131.688907 
L 417.232041 139.542033 
L 418.16941 147.790426 
L 419.106779 154.833408 
L 420.044147 157.178372 
L 420.981516 160.536791 
L 421.918885 163.73048 
L 422.856254 163.531225 
L 423.793622 159.65944 
L 424.730991 159.565145 
L 425.66836 155.761846 
L 426.605729 152.701061 
L 427.543098 150.827674 
L 428.480466 148.036603 
L 429.417835 142.894089 
L 430.355204 139.643745 
L 431.292573 138.461653 
L 432.229941 137.568504 
L 433.16731 136.909475 
L 434.104679 134.96872 
L 435.042048 134.028564 
L 435.979416 135.818789 
L 436.916785 139.012526 
L 437.854154 143.516454 
L 438.791523 148.478473 
L 439.728891 151.812411 
L 440.66626 155.353658 
L 441.603629 157.097716 
L 442.540998 159.709618 
L 443.478366 161.260501 
L 444.415735 161.639712 
L 445.353104 161.162332 
L 446.290473 162.132179 
L 447.227841 159.078843 
L 448.16521 156.351945 
L 449.102579 153.292762 
L 450.039948 148.747477 
L 450.977317 146.657112 
L 451.914685 147.440326 
L 452.852054 144.72373 
L 453.789423 142.031063 
L 454.726792 140.701689 
L 455.66416 139.526986 
L 456.601529 138.609121 
" clip-path="url(#p31aacc9fd2)" style="fill: none; stroke: #d70005; stroke-width: 0.9; stroke-linecap: square"/>
   </g>
   <g id="patch_9">
    <path d="M 268.612224 210.24 
L 268.612224 43.92 
" style="fill: none; stroke: #000000; stroke-width: 0.8; stroke-linejoin: miter; stroke-linecap: square"/>
   </g>
   <g id="patch_10">
    <path d="M 465.553401 210.24 
L 465.553401 43.92 
" style="fill: none; stroke: #000000; stroke-width: 0.8; stroke-linejoin: miter; stroke-linecap: square"/>
   </g>
   <g id="patch_11">
    <path d="M 268.612224 210.24 
L 465.553401 210.24 
" style="fill: none; stroke: #000000; stroke-width: 0.8; stroke-linejoin: miter; stroke-linecap: square"/>
   </g>
   <g id="patch_12">
    <path d="M 268.612224 43.92 
L 465.553401 43.92 
" style="fill: none; stroke: #000000; stroke-width: 0.8; stroke-linejoin: miter; stroke-linecap: square"/>
   </g>
   <g id="text_26">
    <!-- transformer_short model -->
    <g transform="translate(307.598437 37.92) scale(0.12 -0.12)">
     <defs>
      <path id="TimesNewRomanPSMT-66" d="M 1319 2638 
L 1319 756 
Q 1319 356 1406 250 
Q 1522 113 1716 113 
L 1975 113 
L 1975 0 
L 266 0 
L 266 113 
L 394 113 
Q 519 113 622 175 
Q 725 238 764 344 
Q 803 450 803 756 
L 803 2638 
L 247 2638 
L 247 2863 
L 803 2863 
L 803 3050 
Q 803 3478 940 3775 
Q 1078 4072 1361 4255 
Q 1644 4438 1997 4438 
Q 2325 4438 2600 4225 
Q 2781 4084 2781 3909 
Q 2781 3816 2700 3733 
Q 2619 3650 2525 3650 
Q 2453 3650 2373 3701 
Q 2294 3753 2178 3923 
Q 2063 4094 1966 4153 
Q 1869 4213 1750 4213 
Q 1606 4213 1506 4136 
Q 1406 4059 1362 3898 
Q 1319 3738 1319 3069 
L 1319 2863 
L 2056 2863 
L 2056 2638 
L 1319 2638 
z
" transform="scale(0.015625)"/>
     </defs>
     <use xlink:href="#TimesNewRomanPSMT-74"/>
     <use xlink:href="#TimesNewRomanPSMT-72" x="27.783203"/>
     <use xlink:href="#TimesNewRomanPSMT-61" x="61.083984"/>
     <use xlink:href="#TimesNewRomanPSMT-6e" x="105.46875"/>
     <use xlink:href="#TimesNewRomanPSMT-73" x="155.46875"/>
     <use xlink:href="#TimesNewRomanPSMT-66" x="194.384766"/>
     <use xlink:href="#TimesNewRomanPSMT-6f" x="227.685547"/>
     <use xlink:href="#TimesNewRomanPSMT-72" x="277.685547"/>
     <use xlink:href="#TimesNewRomanPSMT-6d" x="310.986328"/>
     <use xlink:href="#TimesNewRomanPSMT-65" x="388.769531"/>
     <use xlink:href="#TimesNewRomanPSMT-72" x="433.154297"/>
     <use xlink:href="#TimesNewRomanPSMT-5f" x="466.455078"/>
     <use xlink:href="#TimesNewRomanPSMT-73" x="516.455078"/>
     <use xlink:href="#TimesNewRomanPSMT-68" x="555.371094"/>
     <use xlink:href="#TimesNewRomanPSMT-6f" x="605.371094"/>
     <use xlink:href="#TimesNewRomanPSMT-72" x="655.371094"/>
     <use xlink:href="#TimesNewRomanPSMT-74" x="688.671875"/>
     <use xlink:href="#TimesNewRomanPSMT-20" x="716.455078"/>
     <use xlink:href="#TimesNewRomanPSMT-6d" x="741.455078"/>
     <use xlink:href="#TimesNewRomanPSMT-6f" x="819.238281"/>
     <use xlink:href="#TimesNewRomanPSMT-64" x="869.238281"/>
     <use xlink:href="#TimesNewRomanPSMT-65" x="919.238281"/>
     <use xlink:href="#TimesNewRomanPSMT-6c" x="963.623047"/>
    </g>
   </g>
   <g id="legend_2">
    <g id="patch_13">
     <path d="M 274.212224 206.24 
L 343.605974 206.24 
Q 345.205974 206.24 345.205974 204.64 
L 345.205974 182.8175 
Q 345.205974 181.2175 343.605974 181.2175 
L 274.212224 181.2175 
Q 272.612224 181.2175 272.612224 182.8175 
L 272.612224 204.64 
Q 272.612224 206.24 274.212224 206.24 
z
" style="fill: #ffffff; opacity: 0.8; stroke: #cccccc; stroke-linejoin: miter"/>
    </g>
    <g id="line2d_27">
     <path d="M 275.812224 187.2175 
L 283.812224 187.2175 
L 291.812224 187.2175 
" style="fill: none; stroke: #21266e; stroke-width: 0.9; stroke-linecap: square"/>
    </g>
    <g id="text_27">
     <!-- Ground Truth -->
     <g transform="translate(298.212224 190.0175) scale(0.08 -0.08)">
      <use xlink:href="#TimesNewRomanPSMT-47"/>
      <use xlink:href="#TimesNewRomanPSMT-72" x="72.216797"/>
      <use xlink:href="#TimesNewRomanPSMT-6f" x="105.517578"/>
      <use xlink:href="#TimesNewRomanPSMT-75" x="155.517578"/>
      <use xlink:href="#TimesNewRomanPSMT-6e" x="205.517578"/>
      <use xlink:href="#TimesNewRomanPSMT-64" x="255.517578"/>
      <use xlink:href="#TimesNewRomanPSMT-20" x="305.517578"/>
      <use xlink:href="#TimesNewRomanPSMT-54" x="328.767578"/>
      <use xlink:href="#TimesNewRomanPSMT-72" x="386.351562"/>
      <use xlink:href="#TimesNewRomanPSMT-75" x="419.652344"/>
      <use xlink:href="#TimesNewRomanPSMT-74" x="469.652344"/>
      <use xlink:href="#TimesNewRomanPSMT-68" x="497.435547"/>
     </g>
    </g>
    <g id="line2d_28">
     <path d="M 275.812224 198.52875 
L 283.812224 198.52875 
L 291.812224 198.52875 
" style="fill: none; stroke: #d70005; stroke-width: 0.9; stroke-linecap: square"/>
    </g>
    <g id="text_28">
     <!-- prediction -->
     <g transform="translate(298.212224 201.32875) scale(0.08 -0.08)">
      <use xlink:href="#TimesNewRomanPSMT-70"/>
      <use xlink:href="#TimesNewRomanPSMT-72" x="50"/>
      <use xlink:href="#TimesNewRomanPSMT-65" x="83.300781"/>
      <use xlink:href="#TimesNewRomanPSMT-64" x="127.685547"/>
      <use xlink:href="#TimesNewRomanPSMT-69" x="177.685547"/>
      <use xlink:href="#TimesNewRomanPSMT-63" x="205.46875"/>
      <use xlink:href="#TimesNewRomanPSMT-74" x="249.853516"/>
      <use xlink:href="#TimesNewRomanPSMT-69" x="277.636719"/>
      <use xlink:href="#TimesNewRomanPSMT-6f" x="305.419922"/>
      <use xlink:href="#TimesNewRomanPSMT-6e" x="355.419922"/>
     </g>
    </g>
   </g>
  </g>
  <g id="axes_3">
   <g id="patch_14">
    <path d="M 504.941636 210.24 
L 701.882812 210.24 
L 701.882812 43.92 
L 504.941636 43.92 
z
" style="fill: #ffffff"/>
   </g>
   <g id="matplotlib.axis_5">
    <g id="xtick_11">
     <g id="line2d_29">
      <g>
       <use xlink:href="#m228520dbf3" x="513.893508" y="210.24" style="stroke: #000000; stroke-width: 0.8"/>
      </g>
     </g>
     <g id="text_29">
      <!-- 0 -->
      <g transform="translate(511.393508 224.18375) scale(0.1 -0.1)">
       <use xlink:href="#TimesNewRomanPSMT-30"/>
      </g>
     </g>
    </g>
    <g id="xtick_12">
     <g id="line2d_30">
      <g>
       <use xlink:href="#m228520dbf3" x="560.761946" y="210.24" style="stroke: #000000; stroke-width: 0.8"/>
      </g>
     </g>
     <g id="text_30">
      <!-- 50 -->
      <g transform="translate(555.761946 224.18375) scale(0.1 -0.1)">
       <use xlink:href="#TimesNewRomanPSMT-35"/>
       <use xlink:href="#TimesNewRomanPSMT-30" x="50"/>
      </g>
     </g>
    </g>
    <g id="xtick_13">
     <g id="line2d_31">
      <g>
       <use xlink:href="#m228520dbf3" x="607.630384" y="210.24" style="stroke: #000000; stroke-width: 0.8"/>
      </g>
     </g>
     <g id="text_31">
      <!-- 100 -->
      <g transform="translate(600.130384 224.18375) scale(0.1 -0.1)">
       <use xlink:href="#TimesNewRomanPSMT-31"/>
       <use xlink:href="#TimesNewRomanPSMT-30" x="50"/>
       <use xlink:href="#TimesNewRomanPSMT-30" x="100"/>
      </g>
     </g>
    </g>
    <g id="xtick_14">
     <g id="line2d_32">
      <g>
       <use xlink:href="#m228520dbf3" x="654.498822" y="210.24" style="stroke: #000000; stroke-width: 0.8"/>
      </g>
     </g>
     <g id="text_32">
      <!-- 150 -->
      <g transform="translate(646.998822 224.18375) scale(0.1 -0.1)">
       <use xlink:href="#TimesNewRomanPSMT-31"/>
       <use xlink:href="#TimesNewRomanPSMT-35" x="50"/>
       <use xlink:href="#TimesNewRomanPSMT-30" x="100"/>
      </g>
     </g>
    </g>
    <g id="xtick_15">
     <g id="line2d_33">
      <g>
       <use xlink:href="#m228520dbf3" x="701.36726" y="210.24" style="stroke: #000000; stroke-width: 0.8"/>
      </g>
     </g>
     <g id="text_33">
      <!-- 200 -->
      <g transform="translate(693.86726 224.18375) scale(0.1 -0.1)">
       <use xlink:href="#TimesNewRomanPSMT-32"/>
       <use xlink:href="#TimesNewRomanPSMT-30" x="50"/>
       <use xlink:href="#TimesNewRomanPSMT-30" x="100"/>
      </g>
     </g>
    </g>
    <g id="text_34">
     <!-- times -->
     <g transform="translate(592.579412 237.266563) scale(0.1 -0.1)">
      <use xlink:href="#TimesNewRomanPSMT-74"/>
      <use xlink:href="#TimesNewRomanPSMT-69" x="27.783203"/>
      <use xlink:href="#TimesNewRomanPSMT-6d" x="55.566406"/>
      <use xlink:href="#TimesNewRomanPSMT-65" x="133.349609"/>
      <use xlink:href="#TimesNewRomanPSMT-73" x="177.734375"/>
     </g>
    </g>
   </g>
   <g id="matplotlib.axis_6">
    <g id="ytick_9">
     <g id="line2d_34">
      <g>
       <use xlink:href="#mcde36bc9d9" x="504.941636" y="194.488493" style="stroke: #000000; stroke-width: 0.8"/>
      </g>
     </g>
     <g id="text_35">
      <!-- 2 -->
      <g transform="translate(492.941636 197.960368) scale(0.1 -0.1)">
       <use xlink:href="#TimesNewRomanPSMT-32"/>
      </g>
     </g>
    </g>
    <g id="ytick_10">
     <g id="line2d_35">
      <g>
       <use xlink:href="#mcde36bc9d9" x="504.941636" y="154.136214" style="stroke: #000000; stroke-width: 0.8"/>
      </g>
     </g>
     <g id="text_36">
      <!-- 3 -->
      <g transform="translate(492.941636 157.608089) scale(0.1 -0.1)">
       <use xlink:href="#TimesNewRomanPSMT-33"/>
      </g>
     </g>
    </g>
    <g id="ytick_11">
     <g id="line2d_36">
      <g>
       <use xlink:href="#mcde36bc9d9" x="504.941636" y="113.783935" style="stroke: #000000; stroke-width: 0.8"/>
      </g>
     </g>
     <g id="text_37">
      <!-- 4 -->
      <g transform="translate(492.941636 117.25581) scale(0.1 -0.1)">
       <use xlink:href="#TimesNewRomanPSMT-34"/>
      </g>
     </g>
    </g>
    <g id="ytick_12">
     <g id="line2d_37">
      <g>
       <use xlink:href="#mcde36bc9d9" x="504.941636" y="73.431656" style="stroke: #000000; stroke-width: 0.8"/>
      </g>
     </g>
     <g id="text_38">
      <!-- 5 -->
      <g transform="translate(492.941636 76.903531) scale(0.1 -0.1)">
       <use xlink:href="#TimesNewRomanPSMT-35"/>
      </g>
     </g>
    </g>
    <g id="text_39">
     <!-- values -->
     <g transform="translate(486.802574 139.854219) rotate(-90) scale(0.1 -0.1)">
      <use xlink:href="#TimesNewRomanPSMT-76"/>
      <use xlink:href="#TimesNewRomanPSMT-61" x="50"/>
      <use xlink:href="#TimesNewRomanPSMT-6c" x="94.384766"/>
      <use xlink:href="#TimesNewRomanPSMT-75" x="122.167969"/>
      <use xlink:href="#TimesNewRomanPSMT-65" x="172.167969"/>
      <use xlink:href="#TimesNewRomanPSMT-73" x="216.552734"/>
     </g>
    </g>
   </g>
   <g id="line2d_38">
    <path d="M 513.893508 82.228444 
L 514.830876 115.398034 
L 515.768245 143.68497 
L 516.705614 167.048937 
L 517.642983 183.028452 
L 518.580351 190.372555 
L 519.51772 195.295535 
L 520.455089 196.546458 
L 521.392458 191.623478 
L 522.329827 180.566956 
L 523.267195 138.76199 
L 524.204564 131.377536 
L 525.141933 159.664484 
L 526.079302 174.393064 
L 527.01667 152.280008 
L 527.954039 174.393064 
L 528.891408 186.700497 
L 529.828777 190.372555 
L 530.766145 190.372555 
L 531.703514 180.566956 
L 532.640883 147.357027 
L 533.578252 132.628448 
L 534.51562 98.207958 
L 535.452989 89.612932 
L 536.390358 98.207958 
L 537.327727 120.321003 
L 538.265095 153.530931 
L 539.202464 176.854548 
L 540.139833 189.161993 
L 541.077202 196.546458 
L 542.01457 199.007942 
L 542.951939 200.218516 
L 543.889308 194.084974 
L 544.826677 181.777517 
L 545.764046 143.68497 
L 546.701414 140.012924 
L 547.638783 158.41355 
L 548.576152 173.182479 
L 549.513521 146.146466 
L 550.450889 171.931568 
L 551.388258 184.239013 
L 552.325627 174.393064 
L 553.262996 168.25951 
L 554.200364 146.146466 
L 555.137733 119.110441 
L 556.075102 120.321003 
L 557.012471 100.669454 
L 557.949839 101.880016 
L 558.887208 111.725953 
L 559.824577 138.76199 
L 560.761946 159.664484 
L 561.699314 181.777517 
L 562.636683 196.546458 
L 563.574052 199.007942 
L 564.511421 201.429089 
L 565.448789 202.68 
L 566.386158 201.429089 
L 567.323527 189.161993 
L 568.260896 143.68497 
L 569.198265 108.053895 
L 570.135633 126.454556 
L 571.073002 125.243971 
L 572.010371 114.187449 
L 572.94774 106.803008 
L 573.885108 106.803008 
L 574.822477 103.130927 
L 575.759846 95.746462 
L 576.697215 94.535877 
L 577.634583 90.823493 
L 578.571952 79.766971 
L 579.509321 55.192431 
L 580.44669 53.941519 
L 581.384058 55.192431 
L 582.321427 77.305475 
L 583.258796 98.207958 
L 584.196165 125.243971 
L 585.133533 157.202988 
L 586.070902 169.510433 
L 587.008271 179.316044 
L 587.94564 179.316044 
L 588.883008 176.854548 
L 589.820377 163.33653 
L 590.757746 127.705467 
L 591.695115 104.341488 
L 592.632484 126.454556 
L 593.569852 142.434059 
L 594.507221 130.166952 
L 595.44459 137.551428 
L 596.381959 147.357027 
L 597.319327 144.895543 
L 598.256696 138.76199 
L 599.194065 138.76199 
L 600.131434 114.187449 
L 601.068802 105.592423 
L 602.006171 77.305475 
L 602.94354 73.633418 
L 603.880909 79.766971 
" clip-path="url(#pb619b6e274)" style="fill: none; stroke: #21266e; stroke-width: 0.9; stroke-linecap: square"/>
   </g>
   <g id="line2d_39">
    <path d="M 603.880909 79.766971 
L 604.818277 101.880016 
L 605.755646 127.705467 
L 606.693015 155.952065 
L 607.630384 176.854548 
L 608.567752 185.449586 
L 609.505121 191.623478 
L 610.44249 191.623478 
L 611.379859 191.623478 
L 612.317227 180.566956 
L 613.254596 125.243971 
L 614.191965 98.207958 
L 615.129334 132.628448 
L 616.066703 164.587453 
L 617.004071 164.587453 
L 617.94144 173.182479 
L 618.878809 186.700497 
L 619.816178 185.449586 
L 620.753546 179.316044 
L 621.690915 178.105471 
L 622.628284 153.530931 
L 623.565653 133.839021 
L 624.503021 98.207958 
L 625.44039 84.68994 
L 626.377759 88.361997 
L 627.315128 111.725953 
L 628.252496 140.012924 
L 629.189865 158.41355 
L 630.127234 181.777517 
L 631.064603 190.372555 
L 632.001971 197.757031 
L 632.93934 197.757031 
L 633.876709 197.757031 
L 634.814078 187.911071 
L 635.751446 153.530931 
L 636.688815 117.859507 
L 637.626184 135.089944 
L 638.563553 159.664484 
L 639.500922 140.012924 
L 640.43829 143.68497 
L 641.375659 141.223486 
L 642.313028 130.166952 
L 643.250397 125.243971 
L 644.187765 121.571937 
L 645.125134 94.535877 
L 646.062503 79.766971 
L 646.999872 65.038368 
L 647.93724 60.115399 
L 648.874609 79.766971 
L 649.811978 104.341488 
L 650.749347 136.300505 
L 651.686715 163.33653 
L 652.624084 176.854548 
L 653.561453 185.449586 
L 654.498822 190.372555 
L 655.43619 191.623478 
L 656.373559 191.623478 
L 657.310928 185.449586 
L 658.248297 157.202988 
L 659.185665 121.571937 
L 660.123034 115.398034 
L 661.060403 127.705467 
L 661.997772 111.725953 
L 662.935141 119.110441 
L 663.872509 120.321003 
L 664.809878 120.321003 
L 665.747247 116.648945 
L 666.684616 110.475065 
L 667.621984 89.612932 
L 668.559353 90.823493 
L 669.496722 65.038368 
L 670.434091 65.038368 
L 671.371459 73.633418 
L 672.308828 94.535877 
L 673.246197 128.91604 
L 674.183566 155.952065 
L 675.120934 176.854548 
L 676.058303 186.700497 
L 676.995672 187.911071 
L 677.933041 191.623478 
L 678.870409 190.372555 
L 679.807778 181.777517 
L 680.745147 147.357027 
L 681.682516 119.110441 
L 682.619884 125.243971 
L 683.557253 128.91604 
L 684.494622 109.26448 
L 685.431991 111.725953 
L 686.36936 114.187449 
L 687.306728 117.859507 
L 688.244097 111.725953 
L 689.181466 99.41852 
L 690.118835 88.361997 
L 691.056203 83.439029 
L 691.993572 58.864488 
L 692.930941 51.48 
" clip-path="url(#pb619b6e274)" style="fill: none; stroke: #21266e; stroke-width: 0.9; stroke-linecap: square"/>
   </g>
   <g id="line2d_40">
    <path d="M 603.880909 85.22699 
L 604.818277 98.440558 
L 605.755646 121.147027 
L 606.693015 144.238344 
L 607.630384 161.445585 
L 608.567752 176.04491 
L 609.505121 184.113312 
L 610.44249 184.348941 
L 611.379859 177.27802 
L 612.317227 163.922703 
L 613.254596 141.505922 
L 614.191965 118.499026 
L 615.129334 127.279496 
L 616.066703 136.750797 
L 617.004071 137.780648 
L 617.94144 139.818446 
L 618.878809 140.116541 
L 619.816178 134.748925 
L 620.753546 134.044475 
L 621.690915 122.616835 
L 622.628284 106.423978 
L 623.565653 97.712429 
L 624.503021 87.610325 
L 625.44039 81.719731 
L 626.377759 84.529299 
L 627.315128 100.393047 
L 628.252496 121.26007 
L 629.189865 151.906064 
L 630.127234 165.994054 
L 631.064603 173.963161 
L 632.001971 190.832859 
L 632.93934 180.421575 
L 633.876709 173.503104 
L 634.814078 158.606181 
L 635.751446 134.410006 
L 636.688815 122.170615 
L 637.626184 125.978393 
L 638.563553 130.417172 
L 639.500922 133.195205 
L 640.43829 138.305066 
L 641.375659 143.485431 
L 642.313028 141.021432 
L 643.250397 137.728654 
L 644.187765 134.007448 
L 645.125134 118.611617 
L 646.062503 104.127957 
L 646.999872 93.058762 
L 647.93724 91.702659 
L 648.874609 85.798471 
L 649.811978 107.615427 
L 650.749347 131.987199 
L 651.686715 156.872332 
L 652.624084 168.509655 
L 653.561453 181.896164 
L 654.498822 186.147644 
L 655.43619 188.307835 
L 656.373559 180.06913 
L 657.310928 160.477623 
L 658.248297 137.635327 
L 659.185665 123.158955 
L 660.123034 125.695927 
L 661.060403 132.498337 
L 661.997772 134.752294 
L 662.935141 144.596467 
L 663.872509 145.166891 
L 664.809878 138.537213 
L 665.747247 134.801197 
L 666.684616 128.616161 
L 667.621984 112.197707 
L 668.559353 106.418014 
L 669.496722 93.375378 
L 670.434091 89.781108 
L 671.371459 88.907885 
L 672.308828 104.750528 
L 673.246197 133.546786 
L 674.183566 150.388294 
L 675.120934 169.250559 
L 676.058303 180.7287 
L 676.995672 192.628749 
L 677.933041 192.595987 
L 678.870409 177.932037 
L 679.807778 161.587472 
L 680.745147 139.416186 
L 681.682516 123.190914 
L 682.619884 124.736229 
L 683.557253 131.384352 
L 684.494622 136.69244 
L 685.431991 143.96382 
L 686.36936 143.831541 
L 687.306728 141.576688 
L 688.244097 138.006633 
L 689.181466 131.0293 
L 690.118835 117.735916 
L 691.056203 114.699952 
L 691.993572 101.755941 
L 692.930941 93.833191 
" clip-path="url(#pb619b6e274)" style="fill: none; stroke: #d70005; stroke-width: 0.9; stroke-linecap: square"/>
   </g>
   <g id="patch_15">
    <path d="M 504.941636 210.24 
L 504.941636 43.92 
" style="fill: none; stroke: #000000; stroke-width: 0.8; stroke-linejoin: miter; stroke-linecap: square"/>
   </g>
   <g id="patch_16">
    <path d="M 701.882812 210.24 
L 701.882812 43.92 
" style="fill: none; stroke: #000000; stroke-width: 0.8; stroke-linejoin: miter; stroke-linecap: square"/>
   </g>
   <g id="patch_17">
    <path d="M 504.941636 210.24 
L 701.882812 210.24 
" style="fill: none; stroke: #000000; stroke-width: 0.8; stroke-linejoin: miter; stroke-linecap: square"/>
   </g>
   <g id="patch_18">
    <path d="M 504.941636 43.92 
L 701.882812 43.92 
" style="fill: none; stroke: #000000; stroke-width: 0.8; stroke-linejoin: miter; stroke-linecap: square"/>
   </g>
   <g id="text_40">
    <!-- my_former_short model -->
    <g transform="translate(544.924412 37.92) scale(0.12 -0.12)">
     <defs>
      <path id="TimesNewRomanPSMT-79" d="M 38 2863 
L 1372 2863 
L 1372 2747 
L 1306 2747 
Q 1166 2747 1095 2686 
Q 1025 2625 1025 2534 
Q 1025 2413 1128 2197 
L 1825 753 
L 2466 2334 
Q 2519 2463 2519 2588 
Q 2519 2644 2497 2672 
Q 2472 2706 2419 2726 
Q 2366 2747 2231 2747 
L 2231 2863 
L 3163 2863 
L 3163 2747 
Q 3047 2734 2984 2696 
Q 2922 2659 2847 2556 
Q 2819 2513 2741 2316 
L 1575 -541 
Q 1406 -956 1132 -1168 
Q 859 -1381 606 -1381 
Q 422 -1381 303 -1275 
Q 184 -1169 184 -1031 
Q 184 -900 270 -820 
Q 356 -741 506 -741 
Q 609 -741 788 -809 
Q 913 -856 944 -856 
Q 1038 -856 1148 -759 
Q 1259 -663 1372 -384 
L 1575 113 
L 547 2272 
Q 500 2369 397 2513 
Q 319 2622 269 2659 
Q 197 2709 38 2747 
L 38 2863 
z
" transform="scale(0.015625)"/>
     </defs>
     <use xlink:href="#TimesNewRomanPSMT-6d"/>
     <use xlink:href="#TimesNewRomanPSMT-79" x="77.783203"/>
     <use xlink:href="#TimesNewRomanPSMT-5f" x="127.783203"/>
     <use xlink:href="#TimesNewRomanPSMT-66" x="177.783203"/>
     <use xlink:href="#TimesNewRomanPSMT-6f" x="211.083984"/>
     <use xlink:href="#TimesNewRomanPSMT-72" x="261.083984"/>
     <use xlink:href="#TimesNewRomanPSMT-6d" x="294.384766"/>
     <use xlink:href="#TimesNewRomanPSMT-65" x="372.167969"/>
     <use xlink:href="#TimesNewRomanPSMT-72" x="416.552734"/>
     <use xlink:href="#TimesNewRomanPSMT-5f" x="449.853516"/>
     <use xlink:href="#TimesNewRomanPSMT-73" x="499.853516"/>
     <use xlink:href="#TimesNewRomanPSMT-68" x="538.769531"/>
     <use xlink:href="#TimesNewRomanPSMT-6f" x="588.769531"/>
     <use xlink:href="#TimesNewRomanPSMT-72" x="638.769531"/>
     <use xlink:href="#TimesNewRomanPSMT-74" x="672.070312"/>
     <use xlink:href="#TimesNewRomanPSMT-20" x="699.853516"/>
     <use xlink:href="#TimesNewRomanPSMT-6d" x="724.853516"/>
     <use xlink:href="#TimesNewRomanPSMT-6f" x="802.636719"/>
     <use xlink:href="#TimesNewRomanPSMT-64" x="852.636719"/>
     <use xlink:href="#TimesNewRomanPSMT-65" x="902.636719"/>
     <use xlink:href="#TimesNewRomanPSMT-6c" x="947.021484"/>
    </g>
   </g>
   <g id="legend_3">
    <g id="patch_19">
     <path d="M 510.541636 206.24 
L 579.935386 206.24 
Q 581.535386 206.24 581.535386 204.64 
L 581.535386 182.8175 
Q 581.535386 181.2175 579.935386 181.2175 
L 510.541636 181.2175 
Q 508.941636 181.2175 508.941636 182.8175 
L 508.941636 204.64 
Q 508.941636 206.24 510.541636 206.24 
z
" style="fill: #ffffff; opacity: 0.8; stroke: #cccccc; stroke-linejoin: miter"/>
    </g>
    <g id="line2d_41">
     <path d="M 512.141636 187.2175 
L 520.141636 187.2175 
L 528.141636 187.2175 
" style="fill: none; stroke: #21266e; stroke-width: 0.9; stroke-linecap: square"/>
    </g>
    <g id="text_41">
     <!-- Ground Truth -->
     <g transform="translate(534.541636 190.0175) scale(0.08 -0.08)">
      <use xlink:href="#TimesNewRomanPSMT-47"/>
      <use xlink:href="#TimesNewRomanPSMT-72" x="72.216797"/>
      <use xlink:href="#TimesNewRomanPSMT-6f" x="105.517578"/>
      <use xlink:href="#TimesNewRomanPSMT-75" x="155.517578"/>
      <use xlink:href="#TimesNewRomanPSMT-6e" x="205.517578"/>
      <use xlink:href="#TimesNewRomanPSMT-64" x="255.517578"/>
      <use xlink:href="#TimesNewRomanPSMT-20" x="305.517578"/>
      <use xlink:href="#TimesNewRomanPSMT-54" x="328.767578"/>
      <use xlink:href="#TimesNewRomanPSMT-72" x="386.351562"/>
      <use xlink:href="#TimesNewRomanPSMT-75" x="419.652344"/>
      <use xlink:href="#TimesNewRomanPSMT-74" x="469.652344"/>
      <use xlink:href="#TimesNewRomanPSMT-68" x="497.435547"/>
     </g>
    </g>
    <g id="line2d_42">
     <path d="M 512.141636 198.52875 
L 520.141636 198.52875 
L 528.141636 198.52875 
" style="fill: none; stroke: #d70005; stroke-width: 0.9; stroke-linecap: square"/>
    </g>
    <g id="text_42">
     <!-- prediction -->
     <g transform="translate(534.541636 201.32875) scale(0.08 -0.08)">
      <use xlink:href="#TimesNewRomanPSMT-70"/>
      <use xlink:href="#TimesNewRomanPSMT-72" x="50"/>
      <use xlink:href="#TimesNewRomanPSMT-65" x="83.300781"/>
      <use xlink:href="#TimesNewRomanPSMT-64" x="127.685547"/>
      <use xlink:href="#TimesNewRomanPSMT-69" x="177.685547"/>
      <use xlink:href="#TimesNewRomanPSMT-63" x="205.46875"/>
      <use xlink:href="#TimesNewRomanPSMT-74" x="249.853516"/>
      <use xlink:href="#TimesNewRomanPSMT-69" x="277.636719"/>
      <use xlink:href="#TimesNewRomanPSMT-6f" x="305.419922"/>
      <use xlink:href="#TimesNewRomanPSMT-6e" x="355.419922"/>
     </g>
    </g>
   </g>
  </g>
  <g id="text_43">
   <!-- Comparison chart of LUFL variable of three models -->
   <g transform="translate(189.296562 18.31) scale(0.16 -0.16)">
    <defs>
     <path id="TimesNewRomanPSMT-43" d="M 3853 4334 
L 3950 2894 
L 3853 2894 
Q 3659 3541 3300 3825 
Q 2941 4109 2438 4109 
Q 2016 4109 1675 3895 
Q 1334 3681 1139 3212 
Q 944 2744 944 2047 
Q 944 1472 1128 1050 
Q 1313 628 1683 403 
Q 2053 178 2528 178 
Q 2941 178 3256 354 
Q 3572 531 3950 1056 
L 4047 994 
Q 3728 428 3303 165 
Q 2878 -97 2294 -97 
Q 1241 -97 663 684 
Q 231 1266 231 2053 
Q 231 2688 515 3219 
Q 800 3750 1298 4042 
Q 1797 4334 2388 4334 
Q 2847 4334 3294 4109 
Q 3425 4041 3481 4041 
Q 3566 4041 3628 4100 
Q 3709 4184 3744 4334 
L 3853 4334 
z
" transform="scale(0.015625)"/>
     <path id="TimesNewRomanPSMT-4c" d="M 3669 1172 
L 3772 1150 
L 3409 0 
L 128 0 
L 128 116 
L 288 116 
Q 556 116 672 291 
Q 738 391 738 753 
L 738 3488 
Q 738 3884 650 3984 
Q 528 4122 288 4122 
L 128 4122 
L 128 4238 
L 2047 4238 
L 2047 4122 
Q 1709 4125 1573 4059 
Q 1438 3994 1388 3894 
Q 1338 3794 1338 3416 
L 1338 753 
Q 1338 494 1388 397 
Q 1425 331 1503 300 
Q 1581 269 1991 269 
L 2300 269 
Q 2788 269 2984 341 
Q 3181 413 3343 595 
Q 3506 778 3669 1172 
z
" transform="scale(0.015625)"/>
     <path id="TimesNewRomanPSMT-55" d="M 3053 4122 
L 3053 4238 
L 4553 4238 
L 4553 4122 
L 4394 4122 
Q 4144 4122 4009 3913 
Q 3944 3816 3944 3463 
L 3944 1744 
Q 3944 1106 3817 754 
Q 3691 403 3320 151 
Q 2950 -100 2313 -100 
Q 1619 -100 1259 140 
Q 900 381 750 788 
Q 650 1066 650 1831 
L 650 3488 
Q 650 3878 542 4000 
Q 434 4122 194 4122 
L 34 4122 
L 34 4238 
L 1866 4238 
L 1866 4122 
L 1703 4122 
Q 1441 4122 1328 3956 
Q 1250 3844 1250 3488 
L 1250 1641 
Q 1250 1394 1295 1075 
Q 1341 756 1459 578 
Q 1578 400 1801 284 
Q 2025 169 2350 169 
Q 2766 169 3094 350 
Q 3422 531 3542 814 
Q 3663 1097 3663 1772 
L 3663 3488 
Q 3663 3884 3575 3984 
Q 3453 4122 3213 4122 
L 3053 4122 
z
" transform="scale(0.015625)"/>
     <path id="TimesNewRomanPSMT-46" d="M 1309 4006 
L 1309 2341 
L 2081 2341 
Q 2347 2341 2470 2458 
Q 2594 2575 2634 2922 
L 2750 2922 
L 2750 1488 
L 2634 1488 
Q 2631 1734 2570 1850 
Q 2509 1966 2401 2023 
Q 2294 2081 2081 2081 
L 1309 2081 
L 1309 750 
Q 1309 428 1350 325 
Q 1381 247 1481 191 
Q 1619 116 1769 116 
L 1922 116 
L 1922 0 
L 103 0 
L 103 116 
L 253 116 
Q 516 116 634 269 
Q 709 369 709 750 
L 709 3488 
Q 709 3809 669 3913 
Q 638 3991 541 4047 
Q 406 4122 253 4122 
L 103 4122 
L 103 4238 
L 3256 4238 
L 3297 3306 
L 3188 3306 
Q 3106 3603 2998 3742 
Q 2891 3881 2733 3943 
Q 2575 4006 2244 4006 
L 1309 4006 
z
" transform="scale(0.015625)"/>
     <path id="TimesNewRomanPSMT-62" d="M 984 2369 
Q 1400 2947 1881 2947 
Q 2322 2947 2650 2570 
Q 2978 2194 2978 1541 
Q 2978 778 2472 313 
Q 2038 -88 1503 -88 
Q 1253 -88 995 3 
Q 738 94 469 275 
L 469 3241 
Q 469 3728 445 3840 
Q 422 3953 372 3993 
Q 322 4034 247 4034 
Q 159 4034 28 3984 
L -16 4094 
L 844 4444 
L 984 4444 
L 984 2369 
z
M 984 2169 
L 984 456 
Q 1144 300 1314 220 
Q 1484 141 1663 141 
Q 1947 141 2192 453 
Q 2438 766 2438 1363 
Q 2438 1913 2192 2208 
Q 1947 2503 1634 2503 
Q 1469 2503 1303 2419 
Q 1178 2356 984 2169 
z
" transform="scale(0.015625)"/>
    </defs>
    <use xlink:href="#TimesNewRomanPSMT-43"/>
    <use xlink:href="#TimesNewRomanPSMT-6f" x="66.699219"/>
    <use xlink:href="#TimesNewRomanPSMT-6d" x="116.699219"/>
    <use xlink:href="#TimesNewRomanPSMT-70" x="194.482422"/>
    <use xlink:href="#TimesNewRomanPSMT-61" x="244.482422"/>
    <use xlink:href="#TimesNewRomanPSMT-72" x="288.867188"/>
    <use xlink:href="#TimesNewRomanPSMT-69" x="322.167969"/>
    <use xlink:href="#TimesNewRomanPSMT-73" x="349.951172"/>
    <use xlink:href="#TimesNewRomanPSMT-6f" x="388.867188"/>
    <use xlink:href="#TimesNewRomanPSMT-6e" x="438.867188"/>
    <use xlink:href="#TimesNewRomanPSMT-20" x="488.867188"/>
    <use xlink:href="#TimesNewRomanPSMT-63" x="513.867188"/>
    <use xlink:href="#TimesNewRomanPSMT-68" x="558.251953"/>
    <use xlink:href="#TimesNewRomanPSMT-61" x="608.251953"/>
    <use xlink:href="#TimesNewRomanPSMT-72" x="652.636719"/>
    <use xlink:href="#TimesNewRomanPSMT-74" x="685.9375"/>
    <use xlink:href="#TimesNewRomanPSMT-20" x="713.720703"/>
    <use xlink:href="#TimesNewRomanPSMT-6f" x="738.720703"/>
    <use xlink:href="#TimesNewRomanPSMT-66" x="788.720703"/>
    <use xlink:href="#TimesNewRomanPSMT-20" x="822.021484"/>
    <use xlink:href="#TimesNewRomanPSMT-4c" x="847.021484"/>
    <use xlink:href="#TimesNewRomanPSMT-55" x="908.105469"/>
    <use xlink:href="#TimesNewRomanPSMT-46" x="980.322266"/>
    <use xlink:href="#TimesNewRomanPSMT-4c" x="1035.9375"/>
    <use xlink:href="#TimesNewRomanPSMT-20" x="1093.271484"/>
    <use xlink:href="#TimesNewRomanPSMT-76" x="1118.271484"/>
    <use xlink:href="#TimesNewRomanPSMT-61" x="1168.271484"/>
    <use xlink:href="#TimesNewRomanPSMT-72" x="1212.65625"/>
    <use xlink:href="#TimesNewRomanPSMT-69" x="1245.957031"/>
    <use xlink:href="#TimesNewRomanPSMT-61" x="1273.740234"/>
    <use xlink:href="#TimesNewRomanPSMT-62" x="1318.125"/>
    <use xlink:href="#TimesNewRomanPSMT-6c" x="1368.125"/>
    <use xlink:href="#TimesNewRomanPSMT-65" x="1395.908203"/>
    <use xlink:href="#TimesNewRomanPSMT-20" x="1440.292969"/>
    <use xlink:href="#TimesNewRomanPSMT-6f" x="1465.292969"/>
    <use xlink:href="#TimesNewRomanPSMT-66" x="1515.292969"/>
    <use xlink:href="#TimesNewRomanPSMT-20" x="1548.59375"/>
    <use xlink:href="#TimesNewRomanPSMT-74" x="1573.59375"/>
    <use xlink:href="#TimesNewRomanPSMT-68" x="1601.376953"/>
    <use xlink:href="#TimesNewRomanPSMT-72" x="1651.376953"/>
    <use xlink:href="#TimesNewRomanPSMT-65" x="1684.677734"/>
    <use xlink:href="#TimesNewRomanPSMT-65" x="1729.0625"/>
    <use xlink:href="#TimesNewRomanPSMT-20" x="1773.447266"/>
    <use xlink:href="#TimesNewRomanPSMT-6d" x="1798.447266"/>
    <use xlink:href="#TimesNewRomanPSMT-6f" x="1876.230469"/>
    <use xlink:href="#TimesNewRomanPSMT-64" x="1926.230469"/>
    <use xlink:href="#TimesNewRomanPSMT-65" x="1976.230469"/>
    <use xlink:href="#TimesNewRomanPSMT-6c" x="2020.615234"/>
    <use xlink:href="#TimesNewRomanPSMT-73" x="2048.398438"/>
   </g>
  </g>
 </g>
 <defs>
  <clipPath id="pe581efc1d0">
   <rect x="32.282813" y="43.92" width="196.941176" height="166.32"/>
  </clipPath>
  <clipPath id="p31aacc9fd2">
   <rect x="268.612224" y="43.92" width="196.941176" height="166.32"/>
  </clipPath>
  <clipPath id="pb619b6e274">
   <rect x="504.941636" y="43.92" width="196.941176" height="166.32"/>
  </clipPath>
 </defs>
</svg>
