<?xml version="1.0" encoding="utf-8" standalone="no"?>
<!DOCTYPE svg PUBLIC "-//W3C//DTD SVG 1.1//EN"
  "http://www.w3.org/Graphics/SVG/1.1/DTD/svg11.dtd">
<svg xmlns:xlink="http://www.w3.org/1999/xlink" width="729.206322pt" height="246.605625pt" viewBox="0 0 729.206322 246.605625" xmlns="http://www.w3.org/2000/svg" version="1.1">
 <metadata>
  <rdf:RDF xmlns:dc="http://purl.org/dc/elements/1.1/" xmlns:cc="http://creativecommons.org/ns#" xmlns:rdf="http://www.w3.org/1999/02/22-rdf-syntax-ns#">
   <cc:Work>
    <dc:type rdf:resource="http://purl.org/dc/dcmitype/StillImage"/>
    <dc:date>2024-01-03T22:40:23.671812</dc:date>
    <dc:format>image/svg+xml</dc:format>
    <dc:creator>
     <cc:Agent>
      <dc:title>Matplotlib v3.7.2, https://matplotlib.org/</dc:title>
     </cc:Agent>
    </dc:creator>
   </cc:Work>
  </rdf:RDF>
 </metadata>
 <defs>
  <style type="text/css">*{stroke-linejoin: round; stroke-linecap: butt}</style>
 </defs>
 <g id="figure_1">
  <g id="patch_1">
   <path d="M 0 246.605625 
L 729.206322 246.605625 
L 729.206322 0 
L 0 0 
z
" style="fill: #ffffff"/>
  </g>
  <g id="axes_1">
   <g id="patch_2">
    <path d="M 45.421875 210.24 
L 242.363051 210.24 
L 242.363051 43.92 
L 45.421875 43.92 
z
" style="fill: #ffffff"/>
   </g>
   <g id="matplotlib.axis_1">
    <g id="xtick_1">
     <g id="line2d_1">
      <defs>
       <path id="me7152b581b" d="M 0 0 
L 0 3.5 
" style="stroke: #000000; stroke-width: 0.8"/>
      </defs>
      <g>
       <use xlink:href="#me7152b581b" x="54.373747" y="210.24" style="stroke: #000000; stroke-width: 0.8"/>
      </g>
     </g>
     <g id="text_1">
      <!-- 0 -->
      <g transform="translate(51.873747 224.18375) scale(0.1 -0.1)">
       <defs>
        <path id="TimesNewRomanPSMT-30" d="M 231 2094 
Q 231 2819 450 3342 
Q 669 3866 1031 4122 
Q 1313 4325 1613 4325 
Q 2100 4325 2488 3828 
Q 2972 3213 2972 2159 
Q 2972 1422 2759 906 
Q 2547 391 2217 158 
Q 1888 -75 1581 -75 
Q 975 -75 572 641 
Q 231 1244 231 2094 
z
M 844 2016 
Q 844 1141 1059 588 
Q 1238 122 1591 122 
Q 1759 122 1940 273 
Q 2122 425 2216 781 
Q 2359 1319 2359 2297 
Q 2359 3022 2209 3506 
Q 2097 3866 1919 4016 
Q 1791 4119 1609 4119 
Q 1397 4119 1231 3928 
Q 1006 3669 925 3112 
Q 844 2556 844 2016 
z
" transform="scale(0.015625)"/>
       </defs>
       <use xlink:href="#TimesNewRomanPSMT-30"/>
      </g>
     </g>
    </g>
    <g id="xtick_2">
     <g id="line2d_2">
      <g>
       <use xlink:href="#me7152b581b" x="101.242185" y="210.24" style="stroke: #000000; stroke-width: 0.8"/>
      </g>
     </g>
     <g id="text_2">
      <!-- 50 -->
      <g transform="translate(96.242185 224.18375) scale(0.1 -0.1)">
       <defs>
        <path id="TimesNewRomanPSMT-35" d="M 2778 4238 
L 2534 3706 
L 1259 3706 
L 981 3138 
Q 1809 3016 2294 2522 
Q 2709 2097 2709 1522 
Q 2709 1188 2573 903 
Q 2438 619 2231 419 
Q 2025 219 1772 97 
Q 1413 -75 1034 -75 
Q 653 -75 479 54 
Q 306 184 306 341 
Q 306 428 378 495 
Q 450 563 559 563 
Q 641 563 702 538 
Q 763 513 909 409 
Q 1144 247 1384 247 
Q 1750 247 2026 523 
Q 2303 800 2303 1197 
Q 2303 1581 2056 1914 
Q 1809 2247 1375 2428 
Q 1034 2569 447 2591 
L 1259 4238 
L 2778 4238 
z
" transform="scale(0.015625)"/>
       </defs>
       <use xlink:href="#TimesNewRomanPSMT-35"/>
       <use xlink:href="#TimesNewRomanPSMT-30" x="50"/>
      </g>
     </g>
    </g>
    <g id="xtick_3">
     <g id="line2d_3">
      <g>
       <use xlink:href="#me7152b581b" x="148.110623" y="210.24" style="stroke: #000000; stroke-width: 0.8"/>
      </g>
     </g>
     <g id="text_3">
      <!-- 100 -->
      <g transform="translate(140.610623 224.18375) scale(0.1 -0.1)">
       <defs>
        <path id="TimesNewRomanPSMT-31" d="M 750 3822 
L 1781 4325 
L 1884 4325 
L 1884 747 
Q 1884 391 1914 303 
Q 1944 216 2037 169 
Q 2131 122 2419 116 
L 2419 0 
L 825 0 
L 825 116 
Q 1125 122 1212 167 
Q 1300 213 1334 289 
Q 1369 366 1369 747 
L 1369 3034 
Q 1369 3497 1338 3628 
Q 1316 3728 1258 3775 
Q 1200 3822 1119 3822 
Q 1003 3822 797 3725 
L 750 3822 
z
" transform="scale(0.015625)"/>
       </defs>
       <use xlink:href="#TimesNewRomanPSMT-31"/>
       <use xlink:href="#TimesNewRomanPSMT-30" x="50"/>
       <use xlink:href="#TimesNewRomanPSMT-30" x="100"/>
      </g>
     </g>
    </g>
    <g id="xtick_4">
     <g id="line2d_4">
      <g>
       <use xlink:href="#me7152b581b" x="194.979061" y="210.24" style="stroke: #000000; stroke-width: 0.8"/>
      </g>
     </g>
     <g id="text_4">
      <!-- 150 -->
      <g transform="translate(187.479061 224.18375) scale(0.1 -0.1)">
       <use xlink:href="#TimesNewRomanPSMT-31"/>
       <use xlink:href="#TimesNewRomanPSMT-35" x="50"/>
       <use xlink:href="#TimesNewRomanPSMT-30" x="100"/>
      </g>
     </g>
    </g>
    <g id="xtick_5">
     <g id="line2d_5">
      <g>
       <use xlink:href="#me7152b581b" x="241.847499" y="210.24" style="stroke: #000000; stroke-width: 0.8"/>
      </g>
     </g>
     <g id="text_5">
      <!-- 200 -->
      <g transform="translate(234.347499 224.18375) scale(0.1 -0.1)">
       <defs>
        <path id="TimesNewRomanPSMT-32" d="M 2934 816 
L 2638 0 
L 138 0 
L 138 116 
Q 1241 1122 1691 1759 
Q 2141 2397 2141 2925 
Q 2141 3328 1894 3587 
Q 1647 3847 1303 3847 
Q 991 3847 742 3664 
Q 494 3481 375 3128 
L 259 3128 
Q 338 3706 661 4015 
Q 984 4325 1469 4325 
Q 1984 4325 2329 3994 
Q 2675 3663 2675 3213 
Q 2675 2891 2525 2569 
Q 2294 2063 1775 1497 
Q 997 647 803 472 
L 1909 472 
Q 2247 472 2383 497 
Q 2519 522 2628 598 
Q 2738 675 2819 816 
L 2934 816 
z
" transform="scale(0.015625)"/>
       </defs>
       <use xlink:href="#TimesNewRomanPSMT-32"/>
       <use xlink:href="#TimesNewRomanPSMT-30" x="50"/>
       <use xlink:href="#TimesNewRomanPSMT-30" x="100"/>
      </g>
     </g>
    </g>
    <g id="text_6">
     <!-- times -->
     <g transform="translate(133.059651 237.266563) scale(0.1 -0.1)">
      <defs>
       <path id="TimesNewRomanPSMT-74" d="M 1031 3803 
L 1031 2863 
L 1700 2863 
L 1700 2644 
L 1031 2644 
L 1031 788 
Q 1031 509 1111 412 
Q 1191 316 1316 316 
Q 1419 316 1516 380 
Q 1613 444 1666 569 
L 1788 569 
Q 1678 263 1478 108 
Q 1278 -47 1066 -47 
Q 922 -47 784 33 
Q 647 113 581 261 
Q 516 409 516 719 
L 516 2644 
L 63 2644 
L 63 2747 
Q 234 2816 414 2980 
Q 594 3144 734 3369 
Q 806 3488 934 3803 
L 1031 3803 
z
" transform="scale(0.015625)"/>
       <path id="TimesNewRomanPSMT-69" d="M 928 4444 
Q 1059 4444 1151 4351 
Q 1244 4259 1244 4128 
Q 1244 3997 1151 3903 
Q 1059 3809 928 3809 
Q 797 3809 703 3903 
Q 609 3997 609 4128 
Q 609 4259 701 4351 
Q 794 4444 928 4444 
z
M 1188 2947 
L 1188 647 
Q 1188 378 1227 289 
Q 1266 200 1342 156 
Q 1419 113 1622 113 
L 1622 0 
L 231 0 
L 231 113 
Q 441 113 512 153 
Q 584 194 626 287 
Q 669 381 669 647 
L 669 1750 
Q 669 2216 641 2353 
Q 619 2453 572 2492 
Q 525 2531 444 2531 
Q 356 2531 231 2484 
L 188 2597 
L 1050 2947 
L 1188 2947 
z
" transform="scale(0.015625)"/>
       <path id="TimesNewRomanPSMT-6d" d="M 1050 2338 
Q 1363 2650 1419 2697 
Q 1559 2816 1721 2881 
Q 1884 2947 2044 2947 
Q 2313 2947 2506 2790 
Q 2700 2634 2766 2338 
Q 3088 2713 3309 2830 
Q 3531 2947 3766 2947 
Q 3994 2947 4170 2830 
Q 4347 2713 4450 2447 
Q 4519 2266 4519 1878 
L 4519 647 
Q 4519 378 4559 278 
Q 4591 209 4675 161 
Q 4759 113 4950 113 
L 4950 0 
L 3538 0 
L 3538 113 
L 3597 113 
Q 3781 113 3884 184 
Q 3956 234 3988 344 
Q 4000 397 4000 647 
L 4000 1878 
Q 4000 2228 3916 2372 
Q 3794 2572 3525 2572 
Q 3359 2572 3192 2489 
Q 3025 2406 2788 2181 
L 2781 2147 
L 2788 2013 
L 2788 647 
Q 2788 353 2820 281 
Q 2853 209 2943 161 
Q 3034 113 3253 113 
L 3253 0 
L 1806 0 
L 1806 113 
Q 2044 113 2133 169 
Q 2222 225 2256 338 
Q 2272 391 2272 647 
L 2272 1878 
Q 2272 2228 2169 2381 
Q 2031 2581 1784 2581 
Q 1616 2581 1450 2491 
Q 1191 2353 1050 2181 
L 1050 647 
Q 1050 366 1089 281 
Q 1128 197 1204 155 
Q 1281 113 1516 113 
L 1516 0 
L 100 0 
L 100 113 
Q 297 113 375 155 
Q 453 197 493 289 
Q 534 381 534 647 
L 534 1741 
Q 534 2213 506 2350 
Q 484 2453 437 2492 
Q 391 2531 309 2531 
Q 222 2531 100 2484 
L 53 2597 
L 916 2947 
L 1050 2947 
L 1050 2338 
z
" transform="scale(0.015625)"/>
       <path id="TimesNewRomanPSMT-65" d="M 681 1784 
Q 678 1147 991 784 
Q 1303 422 1725 422 
Q 2006 422 2214 576 
Q 2422 731 2563 1106 
L 2659 1044 
Q 2594 616 2278 264 
Q 1963 -88 1488 -88 
Q 972 -88 605 314 
Q 238 716 238 1394 
Q 238 2128 614 2539 
Q 991 2950 1559 2950 
Q 2041 2950 2350 2633 
Q 2659 2316 2659 1784 
L 681 1784 
z
M 681 1966 
L 2006 1966 
Q 1991 2241 1941 2353 
Q 1863 2528 1708 2628 
Q 1553 2728 1384 2728 
Q 1125 2728 920 2526 
Q 716 2325 681 1966 
z
" transform="scale(0.015625)"/>
       <path id="TimesNewRomanPSMT-73" d="M 2050 2947 
L 2050 1972 
L 1947 1972 
Q 1828 2431 1642 2597 
Q 1456 2763 1169 2763 
Q 950 2763 815 2647 
Q 681 2531 681 2391 
Q 681 2216 781 2091 
Q 878 1963 1175 1819 
L 1631 1597 
Q 2266 1288 2266 781 
Q 2266 391 1970 151 
Q 1675 -88 1309 -88 
Q 1047 -88 709 6 
Q 606 38 541 38 
Q 469 38 428 -44 
L 325 -44 
L 325 978 
L 428 978 
Q 516 541 762 319 
Q 1009 97 1316 97 
Q 1531 97 1667 223 
Q 1803 350 1803 528 
Q 1803 744 1651 891 
Q 1500 1038 1047 1263 
Q 594 1488 453 1669 
Q 313 1847 313 2119 
Q 313 2472 555 2709 
Q 797 2947 1181 2947 
Q 1350 2947 1591 2875 
Q 1750 2828 1803 2828 
Q 1853 2828 1881 2850 
Q 1909 2872 1947 2947 
L 2050 2947 
z
" transform="scale(0.015625)"/>
      </defs>
      <use xlink:href="#TimesNewRomanPSMT-74"/>
      <use xlink:href="#TimesNewRomanPSMT-69" x="27.783203"/>
      <use xlink:href="#TimesNewRomanPSMT-6d" x="55.566406"/>
      <use xlink:href="#TimesNewRomanPSMT-65" x="133.349609"/>
      <use xlink:href="#TimesNewRomanPSMT-73" x="177.734375"/>
     </g>
    </g>
   </g>
   <g id="matplotlib.axis_2">
    <g id="ytick_1">
     <g id="line2d_6">
      <defs>
       <path id="me1e749ebbc" d="M 0 0 
L -3.5 0 
" style="stroke: #000000; stroke-width: 0.8"/>
      </defs>
      <g>
       <use xlink:href="#me1e749ebbc" x="45.421875" y="197.440348" style="stroke: #000000; stroke-width: 0.8"/>
      </g>
     </g>
     <g id="text_7">
      <!-- −2.0 -->
      <g transform="translate(20.282812 200.912223) scale(0.1 -0.1)">
       <defs>
        <path id="TimesNewRomanPSMT-2212" d="M 3484 2000 
L 116 2000 
L 116 2256 
L 3484 2256 
L 3484 2000 
z
" transform="scale(0.015625)"/>
        <path id="TimesNewRomanPSMT-2e" d="M 800 606 
Q 947 606 1047 504 
Q 1147 403 1147 259 
Q 1147 116 1045 14 
Q 944 -88 800 -88 
Q 656 -88 554 14 
Q 453 116 453 259 
Q 453 406 554 506 
Q 656 606 800 606 
z
" transform="scale(0.015625)"/>
       </defs>
       <use xlink:href="#TimesNewRomanPSMT-2212"/>
       <use xlink:href="#TimesNewRomanPSMT-32" x="56.396484"/>
       <use xlink:href="#TimesNewRomanPSMT-2e" x="106.396484"/>
       <use xlink:href="#TimesNewRomanPSMT-30" x="131.396484"/>
      </g>
     </g>
    </g>
    <g id="ytick_2">
     <g id="line2d_7">
      <g>
       <use xlink:href="#me1e749ebbc" x="45.421875" y="176.107352" style="stroke: #000000; stroke-width: 0.8"/>
      </g>
     </g>
     <g id="text_8">
      <!-- −1.5 -->
      <g transform="translate(20.282812 179.579227) scale(0.1 -0.1)">
       <use xlink:href="#TimesNewRomanPSMT-2212"/>
       <use xlink:href="#TimesNewRomanPSMT-31" x="56.396484"/>
       <use xlink:href="#TimesNewRomanPSMT-2e" x="106.396484"/>
       <use xlink:href="#TimesNewRomanPSMT-35" x="131.396484"/>
      </g>
     </g>
    </g>
    <g id="ytick_3">
     <g id="line2d_8">
      <g>
       <use xlink:href="#me1e749ebbc" x="45.421875" y="154.774356" style="stroke: #000000; stroke-width: 0.8"/>
      </g>
     </g>
     <g id="text_9">
      <!-- −1.0 -->
      <g transform="translate(20.282812 158.246231) scale(0.1 -0.1)">
       <use xlink:href="#TimesNewRomanPSMT-2212"/>
       <use xlink:href="#TimesNewRomanPSMT-31" x="56.396484"/>
       <use xlink:href="#TimesNewRomanPSMT-2e" x="106.396484"/>
       <use xlink:href="#TimesNewRomanPSMT-30" x="131.396484"/>
      </g>
     </g>
    </g>
    <g id="ytick_4">
     <g id="line2d_9">
      <g>
       <use xlink:href="#me1e749ebbc" x="45.421875" y="133.441361" style="stroke: #000000; stroke-width: 0.8"/>
      </g>
     </g>
     <g id="text_10">
      <!-- −0.5 -->
      <g transform="translate(20.282812 136.913236) scale(0.1 -0.1)">
       <use xlink:href="#TimesNewRomanPSMT-2212"/>
       <use xlink:href="#TimesNewRomanPSMT-30" x="56.396484"/>
       <use xlink:href="#TimesNewRomanPSMT-2e" x="106.396484"/>
       <use xlink:href="#TimesNewRomanPSMT-35" x="131.396484"/>
      </g>
     </g>
    </g>
    <g id="ytick_5">
     <g id="line2d_10">
      <g>
       <use xlink:href="#me1e749ebbc" x="45.421875" y="112.108365" style="stroke: #000000; stroke-width: 0.8"/>
      </g>
     </g>
     <g id="text_11">
      <!-- 0.0 -->
      <g transform="translate(25.921875 115.58024) scale(0.1 -0.1)">
       <use xlink:href="#TimesNewRomanPSMT-30"/>
       <use xlink:href="#TimesNewRomanPSMT-2e" x="50"/>
       <use xlink:href="#TimesNewRomanPSMT-30" x="75"/>
      </g>
     </g>
    </g>
    <g id="ytick_6">
     <g id="line2d_11">
      <g>
       <use xlink:href="#me1e749ebbc" x="45.421875" y="90.77537" style="stroke: #000000; stroke-width: 0.8"/>
      </g>
     </g>
     <g id="text_12">
      <!-- 0.5 -->
      <g transform="translate(25.921875 94.247245) scale(0.1 -0.1)">
       <use xlink:href="#TimesNewRomanPSMT-30"/>
       <use xlink:href="#TimesNewRomanPSMT-2e" x="50"/>
       <use xlink:href="#TimesNewRomanPSMT-35" x="75"/>
      </g>
     </g>
    </g>
    <g id="ytick_7">
     <g id="line2d_12">
      <g>
       <use xlink:href="#me1e749ebbc" x="45.421875" y="69.442374" style="stroke: #000000; stroke-width: 0.8"/>
      </g>
     </g>
     <g id="text_13">
      <!-- 1.0 -->
      <g transform="translate(25.921875 72.914249) scale(0.1 -0.1)">
       <use xlink:href="#TimesNewRomanPSMT-31"/>
       <use xlink:href="#TimesNewRomanPSMT-2e" x="50"/>
       <use xlink:href="#TimesNewRomanPSMT-30" x="75"/>
      </g>
     </g>
    </g>
    <g id="ytick_8">
     <g id="line2d_13">
      <g>
       <use xlink:href="#me1e749ebbc" x="45.421875" y="48.109379" style="stroke: #000000; stroke-width: 0.8"/>
      </g>
     </g>
     <g id="text_14">
      <!-- 1.5 -->
      <g transform="translate(25.921875 51.581254) scale(0.1 -0.1)">
       <use xlink:href="#TimesNewRomanPSMT-31"/>
       <use xlink:href="#TimesNewRomanPSMT-2e" x="50"/>
       <use xlink:href="#TimesNewRomanPSMT-35" x="75"/>
      </g>
     </g>
    </g>
    <g id="text_15">
     <!-- values -->
     <g transform="translate(14.14375 139.854219) rotate(-90) scale(0.1 -0.1)">
      <defs>
       <path id="TimesNewRomanPSMT-76" d="M 53 2863 
L 1400 2863 
L 1400 2747 
L 1313 2747 
Q 1191 2747 1127 2687 
Q 1063 2628 1063 2528 
Q 1063 2419 1128 2269 
L 1794 688 
L 2463 2328 
Q 2534 2503 2534 2594 
Q 2534 2638 2509 2666 
Q 2475 2713 2422 2730 
Q 2369 2747 2206 2747 
L 2206 2863 
L 3141 2863 
L 3141 2747 
Q 2978 2734 2916 2681 
Q 2806 2588 2719 2369 
L 1703 -88 
L 1575 -88 
L 553 2328 
Q 484 2497 421 2570 
Q 359 2644 263 2694 
Q 209 2722 53 2747 
L 53 2863 
z
" transform="scale(0.015625)"/>
       <path id="TimesNewRomanPSMT-61" d="M 1822 413 
Q 1381 72 1269 19 
Q 1100 -59 909 -59 
Q 613 -59 420 144 
Q 228 347 228 678 
Q 228 888 322 1041 
Q 450 1253 767 1440 
Q 1084 1628 1822 1897 
L 1822 2009 
Q 1822 2438 1686 2597 
Q 1550 2756 1291 2756 
Q 1094 2756 978 2650 
Q 859 2544 859 2406 
L 866 2225 
Q 866 2081 792 2003 
Q 719 1925 600 1925 
Q 484 1925 411 2006 
Q 338 2088 338 2228 
Q 338 2497 613 2722 
Q 888 2947 1384 2947 
Q 1766 2947 2009 2819 
Q 2194 2722 2281 2516 
Q 2338 2381 2338 1966 
L 2338 994 
Q 2338 584 2353 492 
Q 2369 400 2405 369 
Q 2441 338 2488 338 
Q 2538 338 2575 359 
Q 2641 400 2828 588 
L 2828 413 
Q 2478 -56 2159 -56 
Q 2006 -56 1915 50 
Q 1825 156 1822 413 
z
M 1822 616 
L 1822 1706 
Q 1350 1519 1213 1441 
Q 966 1303 859 1153 
Q 753 1003 753 825 
Q 753 600 887 451 
Q 1022 303 1197 303 
Q 1434 303 1822 616 
z
" transform="scale(0.015625)"/>
       <path id="TimesNewRomanPSMT-6c" d="M 1184 4444 
L 1184 647 
Q 1184 378 1223 290 
Q 1263 203 1344 158 
Q 1425 113 1647 113 
L 1647 0 
L 244 0 
L 244 113 
Q 441 113 512 153 
Q 584 194 625 287 
Q 666 381 666 647 
L 666 3247 
Q 666 3731 644 3842 
Q 622 3953 573 3993 
Q 525 4034 450 4034 
Q 369 4034 244 3984 
L 191 4094 
L 1044 4444 
L 1184 4444 
z
" transform="scale(0.015625)"/>
       <path id="TimesNewRomanPSMT-75" d="M 2709 2863 
L 2709 1128 
Q 2709 631 2732 520 
Q 2756 409 2807 365 
Q 2859 322 2928 322 
Q 3025 322 3147 375 
L 3191 266 
L 2334 -88 
L 2194 -88 
L 2194 519 
Q 1825 119 1631 15 
Q 1438 -88 1222 -88 
Q 981 -88 804 51 
Q 628 191 559 409 
Q 491 628 491 1028 
L 491 2306 
Q 491 2509 447 2587 
Q 403 2666 317 2708 
Q 231 2750 6 2747 
L 6 2863 
L 1009 2863 
L 1009 947 
Q 1009 547 1148 422 
Q 1288 297 1484 297 
Q 1619 297 1789 381 
Q 1959 466 2194 703 
L 2194 2325 
Q 2194 2569 2105 2655 
Q 2016 2741 1734 2747 
L 1734 2863 
L 2709 2863 
z
" transform="scale(0.015625)"/>
      </defs>
      <use xlink:href="#TimesNewRomanPSMT-76"/>
      <use xlink:href="#TimesNewRomanPSMT-61" x="50"/>
      <use xlink:href="#TimesNewRomanPSMT-6c" x="94.384766"/>
      <use xlink:href="#TimesNewRomanPSMT-75" x="122.167969"/>
      <use xlink:href="#TimesNewRomanPSMT-65" x="172.167969"/>
      <use xlink:href="#TimesNewRomanPSMT-73" x="216.552734"/>
     </g>
    </g>
   </g>
   <g id="line2d_14">
    <path d="M 54.373747 51.48 
L 55.311115 59.031878 
L 56.248484 78.743564 
L 57.185853 87.831424 
L 58.123222 93.932652 
L 59.06059 98.455249 
L 59.997959 101.48453 
L 60.935328 103.020513 
L 61.872697 103.020513 
L 62.810065 101.48453 
L 63.747434 93.932652 
L 64.684803 90.903371 
L 65.622172 96.961934 
L 66.559541 83.308827 
L 67.496909 66.626405 
L 68.434278 51.48 
L 69.371647 56.002597 
L 70.309016 80.279529 
L 71.246384 101.48453 
L 72.183753 112.108373 
L 73.121122 109.079075 
L 74.058491 99.991232 
L 74.995859 89.367389 
L 75.933228 78.743564 
L 76.870597 66.626405 
L 77.807966 74.220967 
L 78.745334 83.308827 
L 79.682703 93.932652 
L 80.620072 99.991232 
L 81.557441 106.049794 
L 82.494809 106.049794 
L 83.432178 104.513811 
L 84.369547 107.54311 
L 85.306916 106.049794 
L 86.244284 98.455249 
L 87.181653 96.961934 
L 88.119022 106.049794 
L 89.056391 95.425968 
L 89.99376 104.513811 
L 90.931128 77.250248 
L 91.868497 112.108373 
L 92.805866 106.049794 
L 93.743235 107.54311 
L 94.680603 101.48453 
L 95.617972 92.39667 
L 96.555341 89.367389 
L 97.49271 74.220967 
L 98.430078 77.250248 
L 99.367447 75.714283 
L 100.304816 80.279529 
L 101.242185 87.831424 
L 102.179553 99.991232 
L 103.116922 104.513811 
L 104.054291 104.513811 
L 104.99166 106.049794 
L 105.929028 107.54311 
L 106.866397 104.513811 
L 107.803766 106.049794 
L 108.741135 98.455249 
L 109.678503 87.831424 
L 110.615872 93.932652 
L 111.553241 98.455249 
L 112.49061 95.425968 
L 113.427979 103.020513 
L 114.365347 96.961934 
L 115.302716 93.932652 
L 116.240085 86.338108 
L 117.177454 74.220967 
L 118.114822 74.220967 
L 119.052191 78.743564 
L 119.98956 68.119721 
L 120.926929 62.061159 
L 121.864297 66.626405 
L 122.801666 69.65572 
L 123.739035 75.714283 
L 124.676404 86.338108 
L 125.613772 96.961934 
L 126.551141 101.48453 
L 127.48851 101.48453 
L 128.425879 104.513811 
L 129.363247 103.020513 
L 130.300616 103.020513 
L 131.237985 103.020513 
L 132.175354 93.932652 
L 133.112722 98.455249 
L 134.050091 101.48453 
L 134.98746 98.455249 
L 135.924829 103.020513 
L 136.862198 101.48453 
L 137.799566 101.48453 
L 138.736935 106.049794 
L 139.674304 104.513811 
L 140.611673 99.991232 
L 141.549041 89.367389 
L 142.48641 78.743564 
L 143.423779 72.685001 
L 144.361148 78.743564 
" clip-path="url(#p3e23629502)" style="fill: none; stroke: #21266e; stroke-width: 0.9; stroke-linecap: square"/>
   </g>
   <g id="line2d_15">
    <path d="M 144.361148 78.743564 
L 145.298516 80.279529 
L 146.235885 86.338108 
L 147.173254 95.425968 
L 148.110623 101.48453 
L 149.047991 104.513811 
L 149.98536 107.54311 
L 150.922729 106.049794 
L 151.860098 106.049794 
L 152.797466 106.049794 
L 153.734835 101.48453 
L 154.672204 90.903371 
L 155.609573 110.572391 
L 156.546941 98.455249 
L 157.48431 74.220967 
L 158.421679 69.65572 
L 159.359048 60.567843 
L 160.296417 78.743564 
L 161.233785 98.455249 
L 162.171154 115.137654 
L 163.108523 115.137654 
L 164.045892 103.020513 
L 164.98326 90.903371 
L 165.920629 77.250248 
L 166.857998 77.250248 
L 167.795367 81.772845 
L 168.732735 89.367389 
L 169.670104 89.367389 
L 170.607473 101.48453 
L 171.544842 101.48453 
L 172.48221 107.54311 
L 173.419579 107.54311 
L 174.356948 107.54311 
L 175.294317 107.54311 
L 176.231685 104.513811 
L 177.169054 90.903371 
L 178.106423 98.455249 
L 179.043792 107.54311 
L 179.98116 106.049794 
L 180.918529 103.020513 
L 181.855898 99.991232 
L 182.793267 93.932652 
L 183.730636 80.279529 
L 184.668004 89.367389 
L 185.605373 86.338108 
L 186.542742 74.220967 
L 187.480111 69.65572 
L 188.417479 65.09044 
L 189.354848 71.191686 
L 190.292217 78.743564 
L 191.229586 84.802126 
L 192.166954 93.932652 
L 193.104323 98.455249 
L 194.041692 101.48453 
L 194.979061 103.020513 
L 195.916429 104.513811 
L 196.853798 107.54311 
L 197.791167 107.54311 
L 198.728536 104.513811 
L 199.665904 95.425968 
L 200.603273 93.932652 
L 201.540642 101.48453 
L 202.478011 103.020513 
L 203.415379 98.455249 
L 204.352748 95.425968 
L 205.290117 95.425968 
L 206.227486 93.932652 
L 207.164855 86.338108 
L 208.102223 90.903371 
L 209.039592 84.802126 
L 209.976961 65.09044 
L 210.91433 66.626405 
L 211.851698 68.119721 
L 212.789067 72.685001 
L 213.726436 80.279529 
L 214.663805 90.903371 
L 215.601173 98.455249 
L 216.538542 99.991232 
L 217.475911 101.48453 
L 218.41328 109.079075 
L 219.350648 109.079075 
L 220.288017 107.54311 
L 221.225386 104.513811 
L 222.162755 84.802126 
L 223.100123 89.367389 
L 224.037492 96.961934 
L 224.974861 93.932652 
L 225.91223 92.39667 
L 226.849598 87.831424 
L 227.786967 86.338108 
L 228.724336 86.338108 
L 229.661705 80.279529 
L 230.599074 81.772845 
L 231.536442 74.220967 
L 232.473811 63.597124 
L 233.41118 56.002597 
" clip-path="url(#p3e23629502)" style="fill: none; stroke: #21266e; stroke-width: 0.9; stroke-linecap: square"/>
   </g>
   <g id="line2d_16">
    <path d="M 144.361148 66.610987 
L 145.298516 62.952194 
L 146.235885 69.10018 
L 147.173254 74.265301 
L 148.110623 76.450244 
L 149.047991 78.488166 
L 149.98536 79.714647 
L 150.922729 73.444073 
L 151.860098 66.803423 
L 152.797466 82.325504 
L 153.734835 103.748404 
L 154.672204 107.099651 
L 155.609573 118.282744 
L 156.546941 146.946188 
L 157.48431 139.905553 
L 158.421679 153.860779 
L 159.359048 168.55138 
L 160.296417 179.414261 
L 161.233785 186.342676 
L 162.171154 189.934602 
L 163.108523 195.726156 
L 164.045892 200.643522 
L 164.98326 181.215563 
L 165.920629 135.67237 
L 166.857998 101.718724 
L 167.795367 92.590345 
L 168.732735 90.662345 
L 169.670104 90.971759 
L 170.607473 96.051975 
L 171.544842 106.493819 
L 172.48221 119.462937 
L 173.419579 124.724482 
L 174.356948 113.481638 
L 175.294317 107.693104 
L 176.231685 123.872419 
L 177.169054 136.933809 
L 178.106423 155.910377 
L 179.043792 171.726327 
L 179.98116 151.79391 
L 180.918529 151.977437 
L 181.855898 160.435169 
L 182.793267 170.670446 
L 183.730636 180.337113 
L 184.668004 189.307019 
L 185.605373 198.847143 
L 186.542742 201.940603 
L 187.480111 176.805568 
L 188.417479 129.601444 
L 189.354848 99.067537 
L 190.292217 93.172277 
L 191.229586 93.007911 
L 192.166954 96.144983 
L 193.104323 104.364332 
L 194.041692 116.149584 
L 194.979061 126.344562 
L 195.916429 127.146677 
L 196.853798 121.911625 
L 197.791167 129.996947 
L 198.728536 141.674442 
L 199.665904 147.534524 
L 200.603273 173.902553 
L 201.540642 179.265088 
L 202.478011 166.017272 
L 203.415379 167.558128 
L 204.352748 173.673232 
L 205.290117 180.524827 
L 206.227486 186.981727 
L 207.164855 193.883561 
L 208.102223 202.289546 
L 209.039592 202.68 
L 209.976961 172.967199 
L 210.91433 129.346663 
L 211.851698 109.569595 
L 212.789067 106.4107 
L 213.726436 105.726763 
L 214.663805 108.778228 
L 215.601173 116.509013 
L 216.538542 127.229298 
L 217.475911 136.658837 
L 218.41328 136.677414 
L 219.350648 129.274654 
L 220.288017 134.885929 
L 221.225386 146.672177 
L 222.162755 154.854389 
L 223.100123 182.019484 
L 224.037492 173.701528 
L 224.974861 161.719753 
L 225.91223 163.999614 
L 226.849598 170.95086 
L 227.786967 177.334942 
L 228.724336 183.055573 
L 229.661705 190.179133 
L 230.599074 198.177458 
L 231.536442 192.544015 
L 232.473811 157.223461 
L 233.41118 119.044477 
" clip-path="url(#p3e23629502)" style="fill: none; stroke: #d70005; stroke-width: 0.9; stroke-linecap: square"/>
   </g>
   <g id="patch_3">
    <path d="M 45.421875 210.24 
L 45.421875 43.92 
" style="fill: none; stroke: #000000; stroke-width: 0.8; stroke-linejoin: miter; stroke-linecap: square"/>
   </g>
   <g id="patch_4">
    <path d="M 242.363051 210.24 
L 242.363051 43.92 
" style="fill: none; stroke: #000000; stroke-width: 0.8; stroke-linejoin: miter; stroke-linecap: square"/>
   </g>
   <g id="patch_5">
    <path d="M 45.421875 210.24 
L 242.363051 210.24 
" style="fill: none; stroke: #000000; stroke-width: 0.8; stroke-linejoin: miter; stroke-linecap: square"/>
   </g>
   <g id="patch_6">
    <path d="M 45.421875 43.92 
L 242.363051 43.92 
" style="fill: none; stroke: #000000; stroke-width: 0.8; stroke-linejoin: miter; stroke-linecap: square"/>
   </g>
   <g id="text_16">
    <!-- lstm_short model -->
    <g transform="translate(102.059338 37.92) scale(0.12 -0.12)">
     <defs>
      <path id="TimesNewRomanPSMT-5f" d="M 3256 -1381 
L -53 -1381 
L -53 -1119 
L 3256 -1119 
L 3256 -1381 
z
" transform="scale(0.015625)"/>
      <path id="TimesNewRomanPSMT-68" d="M 1041 4444 
L 1041 2350 
Q 1388 2731 1591 2839 
Q 1794 2947 1997 2947 
Q 2241 2947 2416 2812 
Q 2591 2678 2675 2391 
Q 2734 2191 2734 1659 
L 2734 647 
Q 2734 375 2778 275 
Q 2809 200 2884 156 
Q 2959 113 3159 113 
L 3159 0 
L 1753 0 
L 1753 113 
L 1819 113 
Q 2019 113 2097 173 
Q 2175 234 2206 353 
Q 2216 403 2216 647 
L 2216 1659 
Q 2216 2128 2167 2275 
Q 2119 2422 2012 2495 
Q 1906 2569 1756 2569 
Q 1603 2569 1437 2487 
Q 1272 2406 1041 2159 
L 1041 647 
Q 1041 353 1073 281 
Q 1106 209 1195 161 
Q 1284 113 1503 113 
L 1503 0 
L 84 0 
L 84 113 
Q 275 113 384 172 
Q 447 203 484 290 
Q 522 378 522 647 
L 522 3238 
Q 522 3728 498 3840 
Q 475 3953 426 3993 
Q 378 4034 297 4034 
Q 231 4034 84 3984 
L 41 4094 
L 897 4444 
L 1041 4444 
z
" transform="scale(0.015625)"/>
      <path id="TimesNewRomanPSMT-6f" d="M 1600 2947 
Q 2250 2947 2644 2453 
Q 2978 2031 2978 1484 
Q 2978 1100 2793 706 
Q 2609 313 2286 112 
Q 1963 -88 1566 -88 
Q 919 -88 538 428 
Q 216 863 216 1403 
Q 216 1797 411 2186 
Q 606 2575 925 2761 
Q 1244 2947 1600 2947 
z
M 1503 2744 
Q 1338 2744 1170 2645 
Q 1003 2547 900 2300 
Q 797 2053 797 1666 
Q 797 1041 1045 587 
Q 1294 134 1700 134 
Q 2003 134 2200 384 
Q 2397 634 2397 1244 
Q 2397 2006 2069 2444 
Q 1847 2744 1503 2744 
z
" transform="scale(0.015625)"/>
      <path id="TimesNewRomanPSMT-72" d="M 1038 2947 
L 1038 2303 
Q 1397 2947 1775 2947 
Q 1947 2947 2059 2842 
Q 2172 2738 2172 2600 
Q 2172 2478 2090 2393 
Q 2009 2309 1897 2309 
Q 1788 2309 1652 2417 
Q 1516 2525 1450 2525 
Q 1394 2525 1328 2463 
Q 1188 2334 1038 2041 
L 1038 669 
Q 1038 431 1097 309 
Q 1138 225 1241 169 
Q 1344 113 1538 113 
L 1538 0 
L 72 0 
L 72 113 
Q 291 113 397 181 
Q 475 231 506 341 
Q 522 394 522 644 
L 522 1753 
Q 522 2253 501 2348 
Q 481 2444 426 2487 
Q 372 2531 291 2531 
Q 194 2531 72 2484 
L 41 2597 
L 906 2947 
L 1038 2947 
z
" transform="scale(0.015625)"/>
      <path id="TimesNewRomanPSMT-20" transform="scale(0.015625)"/>
      <path id="TimesNewRomanPSMT-64" d="M 2222 322 
Q 2013 103 1813 7 
Q 1613 -88 1381 -88 
Q 913 -88 563 304 
Q 213 697 213 1313 
Q 213 1928 600 2439 
Q 988 2950 1597 2950 
Q 1975 2950 2222 2709 
L 2222 3238 
Q 2222 3728 2198 3840 
Q 2175 3953 2125 3993 
Q 2075 4034 2000 4034 
Q 1919 4034 1784 3984 
L 1744 4094 
L 2597 4444 
L 2738 4444 
L 2738 1134 
Q 2738 631 2761 520 
Q 2784 409 2836 365 
Q 2888 322 2956 322 
Q 3041 322 3181 375 
L 3216 266 
L 2366 -88 
L 2222 -88 
L 2222 322 
z
M 2222 541 
L 2222 2016 
Q 2203 2228 2109 2403 
Q 2016 2578 1861 2667 
Q 1706 2756 1559 2756 
Q 1284 2756 1069 2509 
Q 784 2184 784 1559 
Q 784 928 1059 592 
Q 1334 256 1672 256 
Q 1956 256 2222 541 
z
" transform="scale(0.015625)"/>
     </defs>
     <use xlink:href="#TimesNewRomanPSMT-6c"/>
     <use xlink:href="#TimesNewRomanPSMT-73" x="27.783203"/>
     <use xlink:href="#TimesNewRomanPSMT-74" x="66.699219"/>
     <use xlink:href="#TimesNewRomanPSMT-6d" x="94.482422"/>
     <use xlink:href="#TimesNewRomanPSMT-5f" x="172.265625"/>
     <use xlink:href="#TimesNewRomanPSMT-73" x="222.265625"/>
     <use xlink:href="#TimesNewRomanPSMT-68" x="261.181641"/>
     <use xlink:href="#TimesNewRomanPSMT-6f" x="311.181641"/>
     <use xlink:href="#TimesNewRomanPSMT-72" x="361.181641"/>
     <use xlink:href="#TimesNewRomanPSMT-74" x="394.482422"/>
     <use xlink:href="#TimesNewRomanPSMT-20" x="422.265625"/>
     <use xlink:href="#TimesNewRomanPSMT-6d" x="447.265625"/>
     <use xlink:href="#TimesNewRomanPSMT-6f" x="525.048828"/>
     <use xlink:href="#TimesNewRomanPSMT-64" x="575.048828"/>
     <use xlink:href="#TimesNewRomanPSMT-65" x="625.048828"/>
     <use xlink:href="#TimesNewRomanPSMT-6c" x="669.433594"/>
    </g>
   </g>
   <g id="legend_1">
    <g id="patch_7">
     <path d="M 51.021875 206.24 
L 120.415625 206.24 
Q 122.015625 206.24 122.015625 204.64 
L 122.015625 182.8175 
Q 122.015625 181.2175 120.415625 181.2175 
L 51.021875 181.2175 
Q 49.421875 181.2175 49.421875 182.8175 
L 49.421875 204.64 
Q 49.421875 206.24 51.021875 206.24 
z
" style="fill: #ffffff; opacity: 0.8; stroke: #cccccc; stroke-linejoin: miter"/>
    </g>
    <g id="line2d_17">
     <path d="M 52.621875 187.2175 
L 60.621875 187.2175 
L 68.621875 187.2175 
" style="fill: none; stroke: #21266e; stroke-width: 0.9; stroke-linecap: square"/>
    </g>
    <g id="text_17">
     <!-- Ground Truth -->
     <g transform="translate(75.021875 190.0175) scale(0.08 -0.08)">
      <defs>
       <path id="TimesNewRomanPSMT-47" d="M 3928 4334 
L 4038 2997 
L 3928 2997 
Q 3763 3497 3500 3750 
Q 3122 4116 2528 4116 
Q 1719 4116 1297 3475 
Q 944 2934 944 2188 
Q 944 1581 1178 1081 
Q 1413 581 1792 348 
Q 2172 116 2572 116 
Q 2806 116 3025 175 
Q 3244 234 3447 350 
L 3447 1575 
Q 3447 1894 3398 1992 
Q 3350 2091 3248 2142 
Q 3147 2194 2891 2194 
L 2891 2313 
L 4531 2313 
L 4531 2194 
L 4453 2194 
Q 4209 2194 4119 2031 
Q 4056 1916 4056 1575 
L 4056 278 
Q 3697 84 3347 -6 
Q 2997 -97 2569 -97 
Q 1341 -97 703 691 
Q 225 1281 225 2053 
Q 225 2613 494 3125 
Q 813 3734 1369 4063 
Q 1834 4334 2469 4334 
Q 2700 4334 2889 4296 
Q 3078 4259 3425 4131 
Q 3600 4066 3659 4066 
Q 3719 4066 3761 4120 
Q 3803 4175 3813 4334 
L 3928 4334 
z
" transform="scale(0.015625)"/>
       <path id="TimesNewRomanPSMT-6e" d="M 1034 2341 
Q 1538 2947 1994 2947 
Q 2228 2947 2397 2830 
Q 2566 2713 2666 2444 
Q 2734 2256 2734 1869 
L 2734 647 
Q 2734 375 2778 278 
Q 2813 200 2889 156 
Q 2966 113 3172 113 
L 3172 0 
L 1756 0 
L 1756 113 
L 1816 113 
Q 2016 113 2095 173 
Q 2175 234 2206 353 
Q 2219 400 2219 647 
L 2219 1819 
Q 2219 2209 2117 2386 
Q 2016 2563 1775 2563 
Q 1403 2563 1034 2156 
L 1034 647 
Q 1034 356 1069 288 
Q 1113 197 1189 155 
Q 1266 113 1500 113 
L 1500 0 
L 84 0 
L 84 113 
L 147 113 
Q 366 113 442 223 
Q 519 334 519 647 
L 519 1709 
Q 519 2225 495 2337 
Q 472 2450 423 2490 
Q 375 2531 294 2531 
Q 206 2531 84 2484 
L 38 2597 
L 900 2947 
L 1034 2947 
L 1034 2341 
z
" transform="scale(0.015625)"/>
       <path id="TimesNewRomanPSMT-54" d="M 3703 4238 
L 3750 3244 
L 3631 3244 
Q 3597 3506 3538 3619 
Q 3441 3800 3280 3886 
Q 3119 3972 2856 3972 
L 2259 3972 
L 2259 734 
Q 2259 344 2344 247 
Q 2463 116 2709 116 
L 2856 116 
L 2856 0 
L 1059 0 
L 1059 116 
L 1209 116 
Q 1478 116 1591 278 
Q 1659 378 1659 734 
L 1659 3972 
L 1150 3972 
Q 853 3972 728 3928 
Q 566 3869 450 3700 
Q 334 3531 313 3244 
L 194 3244 
L 244 4238 
L 3703 4238 
z
" transform="scale(0.015625)"/>
      </defs>
      <use xlink:href="#TimesNewRomanPSMT-47"/>
      <use xlink:href="#TimesNewRomanPSMT-72" x="72.216797"/>
      <use xlink:href="#TimesNewRomanPSMT-6f" x="105.517578"/>
      <use xlink:href="#TimesNewRomanPSMT-75" x="155.517578"/>
      <use xlink:href="#TimesNewRomanPSMT-6e" x="205.517578"/>
      <use xlink:href="#TimesNewRomanPSMT-64" x="255.517578"/>
      <use xlink:href="#TimesNewRomanPSMT-20" x="305.517578"/>
      <use xlink:href="#TimesNewRomanPSMT-54" x="328.767578"/>
      <use xlink:href="#TimesNewRomanPSMT-72" x="386.351562"/>
      <use xlink:href="#TimesNewRomanPSMT-75" x="419.652344"/>
      <use xlink:href="#TimesNewRomanPSMT-74" x="469.652344"/>
      <use xlink:href="#TimesNewRomanPSMT-68" x="497.435547"/>
     </g>
    </g>
    <g id="line2d_18">
     <path d="M 52.621875 198.52875 
L 60.621875 198.52875 
L 68.621875 198.52875 
" style="fill: none; stroke: #d70005; stroke-width: 0.9; stroke-linecap: square"/>
    </g>
    <g id="text_18">
     <!-- prediction -->
     <g transform="translate(75.021875 201.32875) scale(0.08 -0.08)">
      <defs>
       <path id="TimesNewRomanPSMT-70" d="M -6 2578 
L 875 2934 
L 994 2934 
L 994 2266 
Q 1216 2644 1439 2795 
Q 1663 2947 1909 2947 
Q 2341 2947 2628 2609 
Q 2981 2197 2981 1534 
Q 2981 794 2556 309 
Q 2206 -88 1675 -88 
Q 1444 -88 1275 -22 
Q 1150 25 994 166 
L 994 -706 
Q 994 -1000 1030 -1079 
Q 1066 -1159 1155 -1206 
Q 1244 -1253 1478 -1253 
L 1478 -1369 
L -22 -1369 
L -22 -1253 
L 56 -1253 
Q 228 -1256 350 -1188 
Q 409 -1153 442 -1076 
Q 475 -1000 475 -688 
L 475 2019 
Q 475 2297 450 2372 
Q 425 2447 370 2484 
Q 316 2522 222 2522 
Q 147 2522 31 2478 
L -6 2578 
z
M 994 2081 
L 994 1013 
Q 994 666 1022 556 
Q 1066 375 1236 237 
Q 1406 100 1666 100 
Q 1978 100 2172 344 
Q 2425 663 2425 1241 
Q 2425 1897 2138 2250 
Q 1938 2494 1663 2494 
Q 1513 2494 1366 2419 
Q 1253 2363 994 2081 
z
" transform="scale(0.015625)"/>
       <path id="TimesNewRomanPSMT-63" d="M 2631 1088 
Q 2516 522 2178 217 
Q 1841 -88 1431 -88 
Q 944 -88 581 321 
Q 219 731 219 1428 
Q 219 2103 620 2525 
Q 1022 2947 1584 2947 
Q 2006 2947 2278 2723 
Q 2550 2500 2550 2259 
Q 2550 2141 2473 2067 
Q 2397 1994 2259 1994 
Q 2075 1994 1981 2113 
Q 1928 2178 1911 2362 
Q 1894 2547 1784 2644 
Q 1675 2738 1481 2738 
Q 1169 2738 978 2506 
Q 725 2200 725 1697 
Q 725 1184 976 792 
Q 1228 400 1656 400 
Q 1963 400 2206 609 
Q 2378 753 2541 1131 
L 2631 1088 
z
" transform="scale(0.015625)"/>
      </defs>
      <use xlink:href="#TimesNewRomanPSMT-70"/>
      <use xlink:href="#TimesNewRomanPSMT-72" x="50"/>
      <use xlink:href="#TimesNewRomanPSMT-65" x="83.300781"/>
      <use xlink:href="#TimesNewRomanPSMT-64" x="127.685547"/>
      <use xlink:href="#TimesNewRomanPSMT-69" x="177.685547"/>
      <use xlink:href="#TimesNewRomanPSMT-63" x="205.46875"/>
      <use xlink:href="#TimesNewRomanPSMT-74" x="249.853516"/>
      <use xlink:href="#TimesNewRomanPSMT-69" x="277.636719"/>
      <use xlink:href="#TimesNewRomanPSMT-6f" x="305.419922"/>
      <use xlink:href="#TimesNewRomanPSMT-6e" x="355.419922"/>
     </g>
    </g>
   </g>
  </g>
  <g id="axes_2">
   <g id="patch_8">
    <path d="M 281.751287 210.24 
L 478.692463 210.24 
L 478.692463 43.92 
L 281.751287 43.92 
z
" style="fill: #ffffff"/>
   </g>
   <g id="matplotlib.axis_3">
    <g id="xtick_6">
     <g id="line2d_19">
      <g>
       <use xlink:href="#me7152b581b" x="290.703158" y="210.24" style="stroke: #000000; stroke-width: 0.8"/>
      </g>
     </g>
     <g id="text_19">
      <!-- 0 -->
      <g transform="translate(288.203158 224.18375) scale(0.1 -0.1)">
       <use xlink:href="#TimesNewRomanPSMT-30"/>
      </g>
     </g>
    </g>
    <g id="xtick_7">
     <g id="line2d_20">
      <g>
       <use xlink:href="#me7152b581b" x="337.571596" y="210.24" style="stroke: #000000; stroke-width: 0.8"/>
      </g>
     </g>
     <g id="text_20">
      <!-- 50 -->
      <g transform="translate(332.571596 224.18375) scale(0.1 -0.1)">
       <use xlink:href="#TimesNewRomanPSMT-35"/>
       <use xlink:href="#TimesNewRomanPSMT-30" x="50"/>
      </g>
     </g>
    </g>
    <g id="xtick_8">
     <g id="line2d_21">
      <g>
       <use xlink:href="#me7152b581b" x="384.440034" y="210.24" style="stroke: #000000; stroke-width: 0.8"/>
      </g>
     </g>
     <g id="text_21">
      <!-- 100 -->
      <g transform="translate(376.940034 224.18375) scale(0.1 -0.1)">
       <use xlink:href="#TimesNewRomanPSMT-31"/>
       <use xlink:href="#TimesNewRomanPSMT-30" x="50"/>
       <use xlink:href="#TimesNewRomanPSMT-30" x="100"/>
      </g>
     </g>
    </g>
    <g id="xtick_9">
     <g id="line2d_22">
      <g>
       <use xlink:href="#me7152b581b" x="431.308472" y="210.24" style="stroke: #000000; stroke-width: 0.8"/>
      </g>
     </g>
     <g id="text_22">
      <!-- 150 -->
      <g transform="translate(423.808472 224.18375) scale(0.1 -0.1)">
       <use xlink:href="#TimesNewRomanPSMT-31"/>
       <use xlink:href="#TimesNewRomanPSMT-35" x="50"/>
       <use xlink:href="#TimesNewRomanPSMT-30" x="100"/>
      </g>
     </g>
    </g>
    <g id="xtick_10">
     <g id="line2d_23">
      <g>
       <use xlink:href="#me7152b581b" x="478.17691" y="210.24" style="stroke: #000000; stroke-width: 0.8"/>
      </g>
     </g>
     <g id="text_23">
      <!-- 200 -->
      <g transform="translate(470.67691 224.18375) scale(0.1 -0.1)">
       <use xlink:href="#TimesNewRomanPSMT-32"/>
       <use xlink:href="#TimesNewRomanPSMT-30" x="50"/>
       <use xlink:href="#TimesNewRomanPSMT-30" x="100"/>
      </g>
     </g>
    </g>
    <g id="text_24">
     <!-- times -->
     <g transform="translate(369.389063 237.266563) scale(0.1 -0.1)">
      <use xlink:href="#TimesNewRomanPSMT-74"/>
      <use xlink:href="#TimesNewRomanPSMT-69" x="27.783203"/>
      <use xlink:href="#TimesNewRomanPSMT-6d" x="55.566406"/>
      <use xlink:href="#TimesNewRomanPSMT-65" x="133.349609"/>
      <use xlink:href="#TimesNewRomanPSMT-73" x="177.734375"/>
     </g>
    </g>
   </g>
   <g id="matplotlib.axis_4">
    <g id="ytick_9">
     <g id="line2d_24">
      <g>
       <use xlink:href="#me1e749ebbc" x="281.751287" y="209.228851" style="stroke: #000000; stroke-width: 0.8"/>
      </g>
     </g>
     <g id="text_25">
      <!-- −1.5 -->
      <g transform="translate(256.612224 212.700726) scale(0.1 -0.1)">
       <use xlink:href="#TimesNewRomanPSMT-2212"/>
       <use xlink:href="#TimesNewRomanPSMT-31" x="56.396484"/>
       <use xlink:href="#TimesNewRomanPSMT-2e" x="106.396484"/>
       <use xlink:href="#TimesNewRomanPSMT-35" x="131.396484"/>
      </g>
     </g>
    </g>
    <g id="ytick_10">
     <g id="line2d_25">
      <g>
       <use xlink:href="#me1e749ebbc" x="281.751287" y="182.226307" style="stroke: #000000; stroke-width: 0.8"/>
      </g>
     </g>
     <g id="text_26">
      <!-- −1.0 -->
      <g transform="translate(256.612224 185.698182) scale(0.1 -0.1)">
       <use xlink:href="#TimesNewRomanPSMT-2212"/>
       <use xlink:href="#TimesNewRomanPSMT-31" x="56.396484"/>
       <use xlink:href="#TimesNewRomanPSMT-2e" x="106.396484"/>
       <use xlink:href="#TimesNewRomanPSMT-30" x="131.396484"/>
      </g>
     </g>
    </g>
    <g id="ytick_11">
     <g id="line2d_26">
      <g>
       <use xlink:href="#me1e749ebbc" x="281.751287" y="155.223764" style="stroke: #000000; stroke-width: 0.8"/>
      </g>
     </g>
     <g id="text_27">
      <!-- −0.5 -->
      <g transform="translate(256.612224 158.695639) scale(0.1 -0.1)">
       <use xlink:href="#TimesNewRomanPSMT-2212"/>
       <use xlink:href="#TimesNewRomanPSMT-30" x="56.396484"/>
       <use xlink:href="#TimesNewRomanPSMT-2e" x="106.396484"/>
       <use xlink:href="#TimesNewRomanPSMT-35" x="131.396484"/>
      </g>
     </g>
    </g>
    <g id="ytick_12">
     <g id="line2d_27">
      <g>
       <use xlink:href="#me1e749ebbc" x="281.751287" y="128.22122" style="stroke: #000000; stroke-width: 0.8"/>
      </g>
     </g>
     <g id="text_28">
      <!-- 0.0 -->
      <g transform="translate(262.251287 131.693095) scale(0.1 -0.1)">
       <use xlink:href="#TimesNewRomanPSMT-30"/>
       <use xlink:href="#TimesNewRomanPSMT-2e" x="50"/>
       <use xlink:href="#TimesNewRomanPSMT-30" x="75"/>
      </g>
     </g>
    </g>
    <g id="ytick_13">
     <g id="line2d_28">
      <g>
       <use xlink:href="#me1e749ebbc" x="281.751287" y="101.218676" style="stroke: #000000; stroke-width: 0.8"/>
      </g>
     </g>
     <g id="text_29">
      <!-- 0.5 -->
      <g transform="translate(262.251287 104.690551) scale(0.1 -0.1)">
       <use xlink:href="#TimesNewRomanPSMT-30"/>
       <use xlink:href="#TimesNewRomanPSMT-2e" x="50"/>
       <use xlink:href="#TimesNewRomanPSMT-35" x="75"/>
      </g>
     </g>
    </g>
    <g id="ytick_14">
     <g id="line2d_29">
      <g>
       <use xlink:href="#me1e749ebbc" x="281.751287" y="74.216132" style="stroke: #000000; stroke-width: 0.8"/>
      </g>
     </g>
     <g id="text_30">
      <!-- 1.0 -->
      <g transform="translate(262.251287 77.688007) scale(0.1 -0.1)">
       <use xlink:href="#TimesNewRomanPSMT-31"/>
       <use xlink:href="#TimesNewRomanPSMT-2e" x="50"/>
       <use xlink:href="#TimesNewRomanPSMT-30" x="75"/>
      </g>
     </g>
    </g>
    <g id="ytick_15">
     <g id="line2d_30">
      <g>
       <use xlink:href="#me1e749ebbc" x="281.751287" y="47.213588" style="stroke: #000000; stroke-width: 0.8"/>
      </g>
     </g>
     <g id="text_31">
      <!-- 1.5 -->
      <g transform="translate(262.251287 50.685463) scale(0.1 -0.1)">
       <use xlink:href="#TimesNewRomanPSMT-31"/>
       <use xlink:href="#TimesNewRomanPSMT-2e" x="50"/>
       <use xlink:href="#TimesNewRomanPSMT-35" x="75"/>
      </g>
     </g>
    </g>
    <g id="text_32">
     <!-- values -->
     <g transform="translate(250.473162 139.854219) rotate(-90) scale(0.1 -0.1)">
      <use xlink:href="#TimesNewRomanPSMT-76"/>
      <use xlink:href="#TimesNewRomanPSMT-61" x="50"/>
      <use xlink:href="#TimesNewRomanPSMT-6c" x="94.384766"/>
      <use xlink:href="#TimesNewRomanPSMT-75" x="122.167969"/>
      <use xlink:href="#TimesNewRomanPSMT-65" x="172.167969"/>
      <use xlink:href="#TimesNewRomanPSMT-73" x="216.552734"/>
     </g>
    </g>
   </g>
   <g id="line2d_31">
    <path d="M 290.703158 51.48 
L 291.640527 61.038897 
L 292.577896 85.989245 
L 293.515265 97.492334 
L 294.452633 105.215051 
L 295.390002 110.939593 
L 296.327371 114.773949 
L 297.26474 116.71814 
L 298.202109 116.71814 
L 299.139477 114.773949 
L 300.076846 105.215051 
L 301.014215 101.380696 
L 301.951584 109.049407 
L 302.888952 91.767793 
L 303.826321 70.651779 
L 304.76369 51.48 
L 305.701059 57.204542 
L 306.638427 87.933415 
L 307.575796 114.773949 
L 308.513165 128.221229 
L 309.450534 124.386852 
L 310.387902 112.883785 
L 311.325271 99.436504 
L 312.26264 85.989245 
L 313.200009 70.651779 
L 314.137377 80.264704 
L 315.074746 91.767793 
L 316.012115 105.215051 
L 316.949484 112.883785 
L 317.886852 120.552496 
L 318.824221 120.552496 
L 319.76159 118.608304 
L 320.698959 122.442682 
L 321.636328 120.552496 
L 322.573696 110.939593 
L 323.511065 109.049407 
L 324.448434 120.552496 
L 325.385803 107.105237 
L 326.323171 118.608304 
L 327.26054 84.099059 
L 328.197909 128.221229 
L 329.135278 120.552496 
L 330.072646 122.442682 
L 331.010015 114.773949 
L 331.947384 103.27086 
L 332.884753 99.436504 
L 333.822121 80.264704 
L 334.75949 84.099059 
L 335.696859 82.154889 
L 336.634228 87.933415 
L 337.571596 97.492334 
L 338.508965 112.883785 
L 339.446334 118.608304 
L 340.383703 118.608304 
L 341.321071 120.552496 
L 342.25844 122.442682 
L 343.195809 118.608304 
L 344.133178 120.552496 
L 345.070547 110.939593 
L 346.007915 97.492334 
L 346.945284 105.215051 
L 347.882653 110.939593 
L 348.820022 107.105237 
L 349.75739 116.71814 
L 350.694759 109.049407 
L 351.632128 105.215051 
L 352.569497 95.602148 
L 353.506865 80.264704 
L 354.444234 80.264704 
L 355.381603 85.989245 
L 356.318972 72.541964 
L 357.25634 64.873253 
L 358.193709 70.651779 
L 359.131078 74.486178 
L 360.068447 82.154889 
L 361.005815 95.602148 
L 361.943184 109.049407 
L 362.880553 114.773949 
L 363.817922 114.773949 
L 364.75529 118.608304 
L 365.692659 116.71814 
L 366.630028 116.71814 
L 367.567397 116.71814 
L 368.504766 105.215051 
L 369.442134 110.939593 
L 370.379503 114.773949 
L 371.316872 110.939593 
L 372.254241 116.71814 
L 373.191609 114.773949 
L 374.128978 114.773949 
L 375.066347 120.552496 
L 376.003716 118.608304 
L 376.941084 112.883785 
L 377.878453 99.436504 
L 378.815822 85.989245 
L 379.753191 78.320534 
L 380.690559 85.989245 
" clip-path="url(#p9bb8fdb253)" style="fill: none; stroke: #21266e; stroke-width: 0.9; stroke-linecap: square"/>
   </g>
   <g id="line2d_32">
    <path d="M 380.690559 85.989245 
L 381.627928 87.933415 
L 382.565297 95.602148 
L 383.502666 107.105237 
L 384.440034 114.773949 
L 385.377403 118.608304 
L 386.314772 122.442682 
L 387.252141 120.552496 
L 388.189509 120.552496 
L 389.126878 120.552496 
L 390.064247 114.773949 
L 391.001616 101.380696 
L 391.938984 126.277038 
L 392.876353 110.939593 
L 393.813722 80.264704 
L 394.751091 74.486178 
L 395.68846 62.983067 
L 396.625828 85.989245 
L 397.563197 110.939593 
L 398.500566 132.055585 
L 399.437935 132.055585 
L 400.375303 116.71814 
L 401.312672 101.380696 
L 402.250041 84.099059 
L 403.18741 84.099059 
L 404.124778 89.823601 
L 405.062147 99.436504 
L 405.999516 99.436504 
L 406.936885 114.773949 
L 407.874253 114.773949 
L 408.811622 122.442682 
L 409.748991 122.442682 
L 410.68636 122.442682 
L 411.623728 122.442682 
L 412.561097 118.608304 
L 413.498466 101.380696 
L 414.435835 110.939593 
L 415.373203 122.442682 
L 416.310572 120.552496 
L 417.247941 116.71814 
L 418.18531 112.883785 
L 419.122679 105.215051 
L 420.060047 87.933415 
L 420.997416 99.436504 
L 421.934785 95.602148 
L 422.872154 80.264704 
L 423.809522 74.486178 
L 424.746891 68.707609 
L 425.68426 76.430348 
L 426.621629 85.989245 
L 427.558997 93.657957 
L 428.496366 105.215051 
L 429.433735 110.939593 
L 430.371104 114.773949 
L 431.308472 116.71814 
L 432.245841 118.608304 
L 433.18321 122.442682 
L 434.120579 122.442682 
L 435.057947 118.608304 
L 435.995316 107.105237 
L 436.932685 105.215051 
L 437.870054 114.773949 
L 438.807422 116.71814 
L 439.744791 110.939593 
L 440.68216 107.105237 
L 441.619529 107.105237 
L 442.556898 105.215051 
L 443.494266 95.602148 
L 444.431635 101.380696 
L 445.369004 93.657957 
L 446.306373 68.707609 
L 447.243741 70.651779 
L 448.18111 72.541964 
L 449.118479 78.320534 
L 450.055848 87.933415 
L 450.993216 101.380696 
L 451.930585 110.939593 
L 452.867954 112.883785 
L 453.805323 114.773949 
L 454.742691 124.386852 
L 455.68006 124.386852 
L 456.617429 122.442682 
L 457.554798 118.608304 
L 458.492166 93.657957 
L 459.429535 99.436504 
L 460.366904 109.049407 
L 461.304273 105.215051 
L 462.241641 103.27086 
L 463.17901 97.492334 
L 464.116379 95.602148 
L 465.053748 95.602148 
L 465.991117 87.933415 
L 466.928485 89.823601 
L 467.865854 80.264704 
L 468.803223 66.817423 
L 469.740592 57.204542 
" clip-path="url(#p9bb8fdb253)" style="fill: none; stroke: #21266e; stroke-width: 0.9; stroke-linecap: square"/>
   </g>
   <g id="line2d_33">
    <path d="M 380.690559 106.870762 
L 381.627928 107.313546 
L 382.565297 106.821972 
L 383.502666 106.362412 
L 384.440034 110.078585 
L 385.377403 111.511948 
L 386.314772 120.499815 
L 387.252141 131.644705 
L 388.189509 125.435219 
L 389.126878 113.549981 
L 390.064247 106.535839 
L 391.001616 108.066435 
L 391.938984 114.17895 
L 392.876353 131.147373 
L 393.813722 162.659106 
L 394.751091 190.476416 
L 395.68846 201.922481 
L 396.625828 202.68 
L 397.563197 186.114366 
L 398.500566 172.51659 
L 399.437935 161.088522 
L 400.375303 151.439434 
L 401.312672 143.135624 
L 402.250041 138.638919 
L 403.18741 143.887448 
L 404.124778 147.372014 
L 405.062147 150.520093 
L 405.999516 150.193536 
L 406.936885 150.98513 
L 407.874253 153.56142 
L 408.811622 157.680325 
L 409.748991 148.587875 
L 410.68636 139.197103 
L 411.623728 128.450684 
L 412.561097 121.109289 
L 413.498466 117.144689 
L 414.435835 123.584934 
L 415.373203 140.082452 
L 416.310572 159.038253 
L 417.247941 170.892303 
L 418.18531 171.661948 
L 419.122679 162.618921 
L 420.060047 153.962151 
L 420.997416 145.441166 
L 421.934785 139.051015 
L 422.872154 135.703821 
L 423.809522 124.260345 
L 424.746891 112.221761 
L 425.68426 107.376115 
L 426.621629 104.694813 
L 427.558997 105.281859 
L 428.496366 105.755198 
L 429.433735 112.511306 
L 430.371104 126.208471 
L 431.308472 142.075478 
L 432.245841 154.211708 
L 433.18321 154.35219 
L 434.120579 154.440121 
L 435.057947 153.495135 
L 435.995316 155.41288 
L 436.932685 161.425206 
L 437.870054 163.767129 
L 438.807422 165.072007 
L 439.744791 163.002939 
L 440.68216 161.866119 
L 441.619529 158.577906 
L 442.556898 154.87973 
L 443.494266 152.31822 
L 444.431635 145.293231 
L 445.369004 137.265495 
L 446.306373 135.172803 
L 447.243741 132.591537 
L 448.18111 130.232597 
L 449.118479 135.164566 
L 450.055848 135.799359 
L 450.993216 141.154747 
L 451.930585 144.80531 
L 452.867954 147.378099 
L 453.805323 148.171998 
L 454.742691 144.969544 
L 455.68006 134.533447 
L 456.617429 127.533996 
L 457.554798 126.228378 
L 458.492166 128.793562 
L 459.429535 137.421319 
L 460.366904 147.569653 
L 461.304273 152.546326 
L 462.241641 160.793694 
L 463.17901 161.427944 
L 464.116379 157.122161 
L 465.053748 147.260308 
L 465.991117 130.786 
L 466.928485 127.243798 
L 467.865854 123.568461 
L 468.803223 121.451168 
L 469.740592 120.430836 
" clip-path="url(#p9bb8fdb253)" style="fill: none; stroke: #d70005; stroke-width: 0.9; stroke-linecap: square"/>
   </g>
   <g id="patch_9">
    <path d="M 281.751287 210.24 
L 281.751287 43.92 
" style="fill: none; stroke: #000000; stroke-width: 0.8; stroke-linejoin: miter; stroke-linecap: square"/>
   </g>
   <g id="patch_10">
    <path d="M 478.692463 210.24 
L 478.692463 43.92 
" style="fill: none; stroke: #000000; stroke-width: 0.8; stroke-linejoin: miter; stroke-linecap: square"/>
   </g>
   <g id="patch_11">
    <path d="M 281.751287 210.24 
L 478.692463 210.24 
" style="fill: none; stroke: #000000; stroke-width: 0.8; stroke-linejoin: miter; stroke-linecap: square"/>
   </g>
   <g id="patch_12">
    <path d="M 281.751287 43.92 
L 478.692463 43.92 
" style="fill: none; stroke: #000000; stroke-width: 0.8; stroke-linejoin: miter; stroke-linecap: square"/>
   </g>
   <g id="text_33">
    <!-- transformer_short model -->
    <g transform="translate(320.7375 37.92) scale(0.12 -0.12)">
     <defs>
      <path id="TimesNewRomanPSMT-66" d="M 1319 2638 
L 1319 756 
Q 1319 356 1406 250 
Q 1522 113 1716 113 
L 1975 113 
L 1975 0 
L 266 0 
L 266 113 
L 394 113 
Q 519 113 622 175 
Q 725 238 764 344 
Q 803 450 803 756 
L 803 2638 
L 247 2638 
L 247 2863 
L 803 2863 
L 803 3050 
Q 803 3478 940 3775 
Q 1078 4072 1361 4255 
Q 1644 4438 1997 4438 
Q 2325 4438 2600 4225 
Q 2781 4084 2781 3909 
Q 2781 3816 2700 3733 
Q 2619 3650 2525 3650 
Q 2453 3650 2373 3701 
Q 2294 3753 2178 3923 
Q 2063 4094 1966 4153 
Q 1869 4213 1750 4213 
Q 1606 4213 1506 4136 
Q 1406 4059 1362 3898 
Q 1319 3738 1319 3069 
L 1319 2863 
L 2056 2863 
L 2056 2638 
L 1319 2638 
z
" transform="scale(0.015625)"/>
     </defs>
     <use xlink:href="#TimesNewRomanPSMT-74"/>
     <use xlink:href="#TimesNewRomanPSMT-72" x="27.783203"/>
     <use xlink:href="#TimesNewRomanPSMT-61" x="61.083984"/>
     <use xlink:href="#TimesNewRomanPSMT-6e" x="105.46875"/>
     <use xlink:href="#TimesNewRomanPSMT-73" x="155.46875"/>
     <use xlink:href="#TimesNewRomanPSMT-66" x="194.384766"/>
     <use xlink:href="#TimesNewRomanPSMT-6f" x="227.685547"/>
     <use xlink:href="#TimesNewRomanPSMT-72" x="277.685547"/>
     <use xlink:href="#TimesNewRomanPSMT-6d" x="310.986328"/>
     <use xlink:href="#TimesNewRomanPSMT-65" x="388.769531"/>
     <use xlink:href="#TimesNewRomanPSMT-72" x="433.154297"/>
     <use xlink:href="#TimesNewRomanPSMT-5f" x="466.455078"/>
     <use xlink:href="#TimesNewRomanPSMT-73" x="516.455078"/>
     <use xlink:href="#TimesNewRomanPSMT-68" x="555.371094"/>
     <use xlink:href="#TimesNewRomanPSMT-6f" x="605.371094"/>
     <use xlink:href="#TimesNewRomanPSMT-72" x="655.371094"/>
     <use xlink:href="#TimesNewRomanPSMT-74" x="688.671875"/>
     <use xlink:href="#TimesNewRomanPSMT-20" x="716.455078"/>
     <use xlink:href="#TimesNewRomanPSMT-6d" x="741.455078"/>
     <use xlink:href="#TimesNewRomanPSMT-6f" x="819.238281"/>
     <use xlink:href="#TimesNewRomanPSMT-64" x="869.238281"/>
     <use xlink:href="#TimesNewRomanPSMT-65" x="919.238281"/>
     <use xlink:href="#TimesNewRomanPSMT-6c" x="963.623047"/>
    </g>
   </g>
   <g id="legend_2">
    <g id="patch_13">
     <path d="M 287.351287 206.24 
L 356.745037 206.24 
Q 358.345037 206.24 358.345037 204.64 
L 358.345037 182.8175 
Q 358.345037 181.2175 356.745037 181.2175 
L 287.351287 181.2175 
Q 285.751287 181.2175 285.751287 182.8175 
L 285.751287 204.64 
Q 285.751287 206.24 287.351287 206.24 
z
" style="fill: #ffffff; opacity: 0.8; stroke: #cccccc; stroke-linejoin: miter"/>
    </g>
    <g id="line2d_34">
     <path d="M 288.951287 187.2175 
L 296.951287 187.2175 
L 304.951287 187.2175 
" style="fill: none; stroke: #21266e; stroke-width: 0.9; stroke-linecap: square"/>
    </g>
    <g id="text_34">
     <!-- Ground Truth -->
     <g transform="translate(311.351287 190.0175) scale(0.08 -0.08)">
      <use xlink:href="#TimesNewRomanPSMT-47"/>
      <use xlink:href="#TimesNewRomanPSMT-72" x="72.216797"/>
      <use xlink:href="#TimesNewRomanPSMT-6f" x="105.517578"/>
      <use xlink:href="#TimesNewRomanPSMT-75" x="155.517578"/>
      <use xlink:href="#TimesNewRomanPSMT-6e" x="205.517578"/>
      <use xlink:href="#TimesNewRomanPSMT-64" x="255.517578"/>
      <use xlink:href="#TimesNewRomanPSMT-20" x="305.517578"/>
      <use xlink:href="#TimesNewRomanPSMT-54" x="328.767578"/>
      <use xlink:href="#TimesNewRomanPSMT-72" x="386.351562"/>
      <use xlink:href="#TimesNewRomanPSMT-75" x="419.652344"/>
      <use xlink:href="#TimesNewRomanPSMT-74" x="469.652344"/>
      <use xlink:href="#TimesNewRomanPSMT-68" x="497.435547"/>
     </g>
    </g>
    <g id="line2d_35">
     <path d="M 288.951287 198.52875 
L 296.951287 198.52875 
L 304.951287 198.52875 
" style="fill: none; stroke: #d70005; stroke-width: 0.9; stroke-linecap: square"/>
    </g>
    <g id="text_35">
     <!-- prediction -->
     <g transform="translate(311.351287 201.32875) scale(0.08 -0.08)">
      <use xlink:href="#TimesNewRomanPSMT-70"/>
      <use xlink:href="#TimesNewRomanPSMT-72" x="50"/>
      <use xlink:href="#TimesNewRomanPSMT-65" x="83.300781"/>
      <use xlink:href="#TimesNewRomanPSMT-64" x="127.685547"/>
      <use xlink:href="#TimesNewRomanPSMT-69" x="177.685547"/>
      <use xlink:href="#TimesNewRomanPSMT-63" x="205.46875"/>
      <use xlink:href="#TimesNewRomanPSMT-74" x="249.853516"/>
      <use xlink:href="#TimesNewRomanPSMT-69" x="277.636719"/>
      <use xlink:href="#TimesNewRomanPSMT-6f" x="305.419922"/>
      <use xlink:href="#TimesNewRomanPSMT-6e" x="355.419922"/>
     </g>
    </g>
   </g>
  </g>
  <g id="axes_3">
   <g id="patch_14">
    <path d="M 518.080699 210.24 
L 715.021875 210.24 
L 715.021875 43.92 
L 518.080699 43.92 
z
" style="fill: #ffffff"/>
   </g>
   <g id="matplotlib.axis_5">
    <g id="xtick_11">
     <g id="line2d_36">
      <g>
       <use xlink:href="#me7152b581b" x="527.03257" y="210.24" style="stroke: #000000; stroke-width: 0.8"/>
      </g>
     </g>
     <g id="text_36">
      <!-- 0 -->
      <g transform="translate(524.53257 224.18375) scale(0.1 -0.1)">
       <use xlink:href="#TimesNewRomanPSMT-30"/>
      </g>
     </g>
    </g>
    <g id="xtick_12">
     <g id="line2d_37">
      <g>
       <use xlink:href="#me7152b581b" x="573.901008" y="210.24" style="stroke: #000000; stroke-width: 0.8"/>
      </g>
     </g>
     <g id="text_37">
      <!-- 50 -->
      <g transform="translate(568.901008 224.18375) scale(0.1 -0.1)">
       <use xlink:href="#TimesNewRomanPSMT-35"/>
       <use xlink:href="#TimesNewRomanPSMT-30" x="50"/>
      </g>
     </g>
    </g>
    <g id="xtick_13">
     <g id="line2d_38">
      <g>
       <use xlink:href="#me7152b581b" x="620.769446" y="210.24" style="stroke: #000000; stroke-width: 0.8"/>
      </g>
     </g>
     <g id="text_38">
      <!-- 100 -->
      <g transform="translate(613.269446 224.18375) scale(0.1 -0.1)">
       <use xlink:href="#TimesNewRomanPSMT-31"/>
       <use xlink:href="#TimesNewRomanPSMT-30" x="50"/>
       <use xlink:href="#TimesNewRomanPSMT-30" x="100"/>
      </g>
     </g>
    </g>
    <g id="xtick_14">
     <g id="line2d_39">
      <g>
       <use xlink:href="#me7152b581b" x="667.637884" y="210.24" style="stroke: #000000; stroke-width: 0.8"/>
      </g>
     </g>
     <g id="text_39">
      <!-- 150 -->
      <g transform="translate(660.137884 224.18375) scale(0.1 -0.1)">
       <use xlink:href="#TimesNewRomanPSMT-31"/>
       <use xlink:href="#TimesNewRomanPSMT-35" x="50"/>
       <use xlink:href="#TimesNewRomanPSMT-30" x="100"/>
      </g>
     </g>
    </g>
    <g id="xtick_15">
     <g id="line2d_40">
      <g>
       <use xlink:href="#me7152b581b" x="714.506322" y="210.24" style="stroke: #000000; stroke-width: 0.8"/>
      </g>
     </g>
     <g id="text_40">
      <!-- 200 -->
      <g transform="translate(707.006322 224.18375) scale(0.1 -0.1)">
       <use xlink:href="#TimesNewRomanPSMT-32"/>
       <use xlink:href="#TimesNewRomanPSMT-30" x="50"/>
       <use xlink:href="#TimesNewRomanPSMT-30" x="100"/>
      </g>
     </g>
    </g>
    <g id="text_41">
     <!-- times -->
     <g transform="translate(605.718474 237.266563) scale(0.1 -0.1)">
      <use xlink:href="#TimesNewRomanPSMT-74"/>
      <use xlink:href="#TimesNewRomanPSMT-69" x="27.783203"/>
      <use xlink:href="#TimesNewRomanPSMT-6d" x="55.566406"/>
      <use xlink:href="#TimesNewRomanPSMT-65" x="133.349609"/>
      <use xlink:href="#TimesNewRomanPSMT-73" x="177.734375"/>
     </g>
    </g>
   </g>
   <g id="matplotlib.axis_6">
    <g id="ytick_16">
     <g id="line2d_41">
      <g>
       <use xlink:href="#me1e749ebbc" x="518.080699" y="195.484818" style="stroke: #000000; stroke-width: 0.8"/>
      </g>
     </g>
     <g id="text_42">
      <!-- 0.00 -->
      <g transform="translate(493.580699 198.956693) scale(0.1 -0.1)">
       <use xlink:href="#TimesNewRomanPSMT-30"/>
       <use xlink:href="#TimesNewRomanPSMT-2e" x="50"/>
       <use xlink:href="#TimesNewRomanPSMT-30" x="75"/>
       <use xlink:href="#TimesNewRomanPSMT-30" x="125"/>
      </g>
     </g>
    </g>
    <g id="ytick_17">
     <g id="line2d_42">
      <g>
       <use xlink:href="#me1e749ebbc" x="518.080699" y="170.149695" style="stroke: #000000; stroke-width: 0.8"/>
      </g>
     </g>
     <g id="text_43">
      <!-- 0.25 -->
      <g transform="translate(493.580699 173.62157) scale(0.1 -0.1)">
       <use xlink:href="#TimesNewRomanPSMT-30"/>
       <use xlink:href="#TimesNewRomanPSMT-2e" x="50"/>
       <use xlink:href="#TimesNewRomanPSMT-32" x="75"/>
       <use xlink:href="#TimesNewRomanPSMT-35" x="125"/>
      </g>
     </g>
    </g>
    <g id="ytick_18">
     <g id="line2d_43">
      <g>
       <use xlink:href="#me1e749ebbc" x="518.080699" y="144.814573" style="stroke: #000000; stroke-width: 0.8"/>
      </g>
     </g>
     <g id="text_44">
      <!-- 0.50 -->
      <g transform="translate(493.580699 148.286448) scale(0.1 -0.1)">
       <use xlink:href="#TimesNewRomanPSMT-30"/>
       <use xlink:href="#TimesNewRomanPSMT-2e" x="50"/>
       <use xlink:href="#TimesNewRomanPSMT-35" x="75"/>
       <use xlink:href="#TimesNewRomanPSMT-30" x="125"/>
      </g>
     </g>
    </g>
    <g id="ytick_19">
     <g id="line2d_44">
      <g>
       <use xlink:href="#me1e749ebbc" x="518.080699" y="119.47945" style="stroke: #000000; stroke-width: 0.8"/>
      </g>
     </g>
     <g id="text_45">
      <!-- 0.75 -->
      <g transform="translate(493.580699 122.951325) scale(0.1 -0.1)">
       <defs>
        <path id="TimesNewRomanPSMT-37" d="M 644 4238 
L 2916 4238 
L 2916 4119 
L 1503 -88 
L 1153 -88 
L 2419 3728 
L 1253 3728 
Q 900 3728 750 3644 
Q 488 3500 328 3200 
L 238 3234 
L 644 4238 
z
" transform="scale(0.015625)"/>
       </defs>
       <use xlink:href="#TimesNewRomanPSMT-30"/>
       <use xlink:href="#TimesNewRomanPSMT-2e" x="50"/>
       <use xlink:href="#TimesNewRomanPSMT-37" x="75"/>
       <use xlink:href="#TimesNewRomanPSMT-35" x="125"/>
      </g>
     </g>
    </g>
    <g id="ytick_20">
     <g id="line2d_45">
      <g>
       <use xlink:href="#me1e749ebbc" x="518.080699" y="94.144328" style="stroke: #000000; stroke-width: 0.8"/>
      </g>
     </g>
     <g id="text_46">
      <!-- 1.00 -->
      <g transform="translate(493.580699 97.616203) scale(0.1 -0.1)">
       <use xlink:href="#TimesNewRomanPSMT-31"/>
       <use xlink:href="#TimesNewRomanPSMT-2e" x="50"/>
       <use xlink:href="#TimesNewRomanPSMT-30" x="75"/>
       <use xlink:href="#TimesNewRomanPSMT-30" x="125"/>
      </g>
     </g>
    </g>
    <g id="ytick_21">
     <g id="line2d_46">
      <g>
       <use xlink:href="#me1e749ebbc" x="518.080699" y="68.809205" style="stroke: #000000; stroke-width: 0.8"/>
      </g>
     </g>
     <g id="text_47">
      <!-- 1.25 -->
      <g transform="translate(493.580699 72.28108) scale(0.1 -0.1)">
       <use xlink:href="#TimesNewRomanPSMT-31"/>
       <use xlink:href="#TimesNewRomanPSMT-2e" x="50"/>
       <use xlink:href="#TimesNewRomanPSMT-32" x="75"/>
       <use xlink:href="#TimesNewRomanPSMT-35" x="125"/>
      </g>
     </g>
    </g>
    <g id="text_48">
     <!-- values -->
     <g transform="translate(487.441636 139.854219) rotate(-90) scale(0.1 -0.1)">
      <use xlink:href="#TimesNewRomanPSMT-76"/>
      <use xlink:href="#TimesNewRomanPSMT-61" x="50"/>
      <use xlink:href="#TimesNewRomanPSMT-6c" x="94.384766"/>
      <use xlink:href="#TimesNewRomanPSMT-75" x="122.167969"/>
      <use xlink:href="#TimesNewRomanPSMT-65" x="172.167969"/>
      <use xlink:href="#TimesNewRomanPSMT-73" x="216.552734"/>
     </g>
    </g>
   </g>
   <g id="line2d_47">
    <path d="M 527.03257 51.48 
L 527.969939 69.417261 
L 528.907308 116.236562 
L 529.844676 137.822096 
L 530.782045 152.313767 
L 531.719414 163.055863 
L 532.656783 170.251028 
L 533.594152 173.899301 
L 534.53152 173.899301 
L 535.468889 170.251028 
L 536.406258 152.313767 
L 537.343627 145.118603 
L 538.280995 159.508932 
L 539.218364 127.08 
L 540.155733 87.455822 
L 541.093102 51.48 
L 542.03047 62.222096 
L 542.967839 119.884795 
L 543.905208 170.251028 
L 544.842577 195.484836 
L 545.779945 188.28963 
L 546.717314 166.704137 
L 547.654683 141.470329 
L 548.592052 116.236562 
L 549.52942 87.455822 
L 550.466789 105.494466 
L 551.404158 127.08 
L 552.341527 152.313767 
L 553.278895 166.704137 
L 554.216264 181.094466 
L 555.153633 181.094466 
L 556.091002 177.446192 
L 557.028371 184.641397 
L 557.965739 181.094466 
L 558.903108 163.055863 
L 559.840477 159.508932 
L 560.777846 181.094466 
L 561.715214 155.860699 
L 562.652583 177.446192 
L 563.589952 112.68963 
L 564.527321 195.484836 
L 565.464689 181.094466 
L 566.402058 184.641397 
L 567.339427 170.251028 
L 568.276796 148.665493 
L 569.214164 141.470329 
L 570.151533 105.494466 
L 571.088902 112.68963 
L 572.026271 109.041397 
L 572.963639 119.884795 
L 573.901008 137.822096 
L 574.838377 166.704137 
L 575.775746 177.446192 
L 576.713114 177.446192 
L 577.650483 181.094466 
L 578.587852 184.641397 
L 579.525221 177.446192 
L 580.46259 181.094466 
L 581.399958 163.055863 
L 582.337327 137.822096 
L 583.274696 152.313767 
L 584.212065 163.055863 
L 585.149433 155.860699 
L 586.086802 173.899301 
L 587.024171 159.508932 
L 587.96154 152.313767 
L 588.898908 134.275164 
L 589.836277 105.494466 
L 590.773646 105.494466 
L 591.711015 116.236562 
L 592.648383 91.002754 
L 593.585752 76.612425 
L 594.523121 87.455822 
L 595.46049 94.651068 
L 596.397858 109.041397 
L 597.335227 134.275164 
L 598.272596 159.508932 
L 599.209965 170.251028 
L 600.147333 170.251028 
L 601.084702 177.446192 
L 602.022071 173.899301 
L 602.95944 173.899301 
L 603.896809 173.899301 
L 604.834177 152.313767 
L 605.771546 163.055863 
L 606.708915 170.251028 
L 607.646284 163.055863 
L 608.583652 173.899301 
L 609.521021 170.251028 
L 610.45839 170.251028 
L 611.395759 181.094466 
L 612.333127 177.446192 
L 613.270496 166.704137 
L 614.207865 141.470329 
L 615.145234 116.236562 
L 616.082602 101.846233 
L 617.019971 116.236562 
" clip-path="url(#p6788120515)" style="fill: none; stroke: #21266e; stroke-width: 0.9; stroke-linecap: square"/>
   </g>
   <g id="line2d_48">
    <path d="M 617.019971 116.236562 
L 617.95734 119.884795 
L 618.894709 134.275164 
L 619.832077 155.860699 
L 620.769446 170.251028 
L 621.706815 177.446192 
L 622.644184 184.641397 
L 623.581552 181.094466 
L 624.518921 181.094466 
L 625.45629 181.094466 
L 626.393659 170.251028 
L 627.331028 145.118603 
L 628.268396 191.836562 
L 629.205765 163.055863 
L 630.143134 105.494466 
L 631.080503 94.651068 
L 632.017871 73.065493 
L 632.95524 116.236562 
L 633.892609 163.055863 
L 634.829978 202.68 
L 635.767346 202.68 
L 636.704715 173.899301 
L 637.642084 145.118603 
L 638.579453 112.68963 
L 639.516821 112.68963 
L 640.45419 123.431726 
L 641.391559 141.470329 
L 642.328928 141.470329 
L 643.266296 170.251028 
L 644.203665 170.251028 
L 645.141034 184.641397 
L 646.078403 184.641397 
L 647.015771 184.641397 
L 647.95314 184.641397 
L 648.890509 177.446192 
L 649.827878 145.118603 
L 650.765247 163.055863 
L 651.702615 184.641397 
L 652.639984 181.094466 
L 653.577353 173.899301 
L 654.514722 166.704137 
L 655.45209 152.313767 
L 656.389459 119.884795 
L 657.326828 141.470329 
L 658.264197 134.275164 
L 659.201565 105.494466 
L 660.138934 94.651068 
L 661.076303 83.80759 
L 662.013672 98.299301 
L 662.95104 116.236562 
L 663.888409 130.626891 
L 664.825778 152.313767 
L 665.763147 163.055863 
L 666.700515 170.251028 
L 667.637884 173.899301 
L 668.575253 177.446192 
L 669.512622 184.641397 
L 670.44999 184.641397 
L 671.387359 177.446192 
L 672.324728 155.860699 
L 673.262097 152.313767 
L 674.199466 170.251028 
L 675.136834 173.899301 
L 676.074203 163.055863 
L 677.011572 155.860699 
L 677.948941 155.860699 
L 678.886309 152.313767 
L 679.823678 134.275164 
L 680.761047 145.118603 
L 681.698416 130.626891 
L 682.635784 83.80759 
L 683.573153 87.455822 
L 684.510522 91.002754 
L 685.447891 101.846233 
L 686.385259 119.884795 
L 687.322628 145.118603 
L 688.259997 163.055863 
L 689.197366 166.704137 
L 690.134734 170.251028 
L 691.072103 188.28963 
L 692.009472 188.28963 
L 692.946841 184.641397 
L 693.884209 177.446192 
L 694.821578 130.626891 
L 695.758947 141.470329 
L 696.696316 159.508932 
L 697.633685 152.313767 
L 698.571053 148.665493 
L 699.508422 137.822096 
L 700.445791 134.275164 
L 701.38316 134.275164 
L 702.320528 119.884795 
L 703.257897 123.431726 
L 704.195266 105.494466 
L 705.132635 80.260658 
L 706.070003 62.222096 
" clip-path="url(#p6788120515)" style="fill: none; stroke: #21266e; stroke-width: 0.9; stroke-linecap: square"/>
   </g>
   <g id="line2d_49">
    <path d="M 617.019971 97.104899 
L 617.95734 102.323868 
L 618.894709 127.390104 
L 619.832077 145.502523 
L 620.769446 159.366157 
L 621.706815 178.030795 
L 622.644184 183.37191 
L 623.581552 191.515203 
L 624.518921 189.328947 
L 625.45629 188.006688 
L 626.393659 179.347386 
L 627.331028 158.435237 
L 628.268396 157.644522 
L 629.205765 159.241567 
L 630.143134 148.892404 
L 631.080503 145.82441 
L 632.017871 155.770328 
L 632.95524 160.512035 
L 633.892609 165.954245 
L 634.829978 152.556746 
L 635.767346 143.65773 
L 636.704715 128.896981 
L 637.642084 120.207422 
L 638.579453 108.26598 
L 639.516821 104.232768 
L 640.45419 111.834526 
L 641.391559 130.974755 
L 642.328928 159.054624 
L 643.266296 169.513003 
L 644.203665 177.959387 
L 645.141034 189.838635 
L 646.078403 187.897353 
L 647.015771 184.208461 
L 647.95314 177.48106 
L 648.890509 166.791938 
L 649.827878 164.379915 
L 650.765247 160.232109 
L 651.702615 155.900665 
L 652.639984 146.1682 
L 653.577353 152.011823 
L 654.514722 159.896274 
L 655.45209 161.477371 
L 656.389459 165.087474 
L 657.326828 164.497938 
L 658.264197 153.189386 
L 659.201565 138.66664 
L 660.138934 121.859928 
L 661.076303 122.844639 
L 662.013672 104.913001 
L 662.95104 126.564275 
L 663.888409 132.295713 
L 664.825778 160.261553 
L 665.763147 178.97187 
L 666.700515 185.180529 
L 667.637884 183.20234 
L 668.575253 185.26299 
L 669.512622 185.991673 
L 670.44999 181.075502 
L 671.387359 165.443826 
L 672.324728 160.217226 
L 673.262097 159.202133 
L 674.199466 158.295273 
L 675.136834 145.995449 
L 676.074203 157.306568 
L 677.011572 160.061969 
L 677.948941 153.482238 
L 678.886309 160.880047 
L 679.823678 155.729057 
L 680.761047 151.136653 
L 681.698416 142.403211 
L 682.635784 121.695944 
L 683.573153 106.81155 
L 684.510522 103.229053 
L 685.447891 110.545911 
L 686.385259 139.662605 
L 687.322628 159.990686 
L 688.259997 167.203997 
L 689.197366 177.962568 
L 690.134734 184.217841 
L 691.072103 189.00298 
L 692.009472 186.758692 
L 692.946841 184.116866 
L 693.884209 168.542037 
L 694.821578 160.054057 
L 695.758947 155.140251 
L 696.696316 150.835357 
L 697.633685 156.989001 
L 698.571053 149.648413 
L 699.508422 158.013637 
L 700.445791 157.267254 
L 701.38316 166.436405 
L 702.320528 152.266258 
L 703.257897 154.121897 
L 704.195266 139.764887 
L 705.132635 124.569945 
L 706.070003 115.730754 
" clip-path="url(#p6788120515)" style="fill: none; stroke: #d70005; stroke-width: 0.9; stroke-linecap: square"/>
   </g>
   <g id="patch_15">
    <path d="M 518.080699 210.24 
L 518.080699 43.92 
" style="fill: none; stroke: #000000; stroke-width: 0.8; stroke-linejoin: miter; stroke-linecap: square"/>
   </g>
   <g id="patch_16">
    <path d="M 715.021875 210.24 
L 715.021875 43.92 
" style="fill: none; stroke: #000000; stroke-width: 0.8; stroke-linejoin: miter; stroke-linecap: square"/>
   </g>
   <g id="patch_17">
    <path d="M 518.080699 210.24 
L 715.021875 210.24 
" style="fill: none; stroke: #000000; stroke-width: 0.8; stroke-linejoin: miter; stroke-linecap: square"/>
   </g>
   <g id="patch_18">
    <path d="M 518.080699 43.92 
L 715.021875 43.92 
" style="fill: none; stroke: #000000; stroke-width: 0.8; stroke-linejoin: miter; stroke-linecap: square"/>
   </g>
   <g id="text_49">
    <!-- my_former_short model -->
    <g transform="translate(558.063474 37.92) scale(0.12 -0.12)">
     <defs>
      <path id="TimesNewRomanPSMT-79" d="M 38 2863 
L 1372 2863 
L 1372 2747 
L 1306 2747 
Q 1166 2747 1095 2686 
Q 1025 2625 1025 2534 
Q 1025 2413 1128 2197 
L 1825 753 
L 2466 2334 
Q 2519 2463 2519 2588 
Q 2519 2644 2497 2672 
Q 2472 2706 2419 2726 
Q 2366 2747 2231 2747 
L 2231 2863 
L 3163 2863 
L 3163 2747 
Q 3047 2734 2984 2696 
Q 2922 2659 2847 2556 
Q 2819 2513 2741 2316 
L 1575 -541 
Q 1406 -956 1132 -1168 
Q 859 -1381 606 -1381 
Q 422 -1381 303 -1275 
Q 184 -1169 184 -1031 
Q 184 -900 270 -820 
Q 356 -741 506 -741 
Q 609 -741 788 -809 
Q 913 -856 944 -856 
Q 1038 -856 1148 -759 
Q 1259 -663 1372 -384 
L 1575 113 
L 547 2272 
Q 500 2369 397 2513 
Q 319 2622 269 2659 
Q 197 2709 38 2747 
L 38 2863 
z
" transform="scale(0.015625)"/>
     </defs>
     <use xlink:href="#TimesNewRomanPSMT-6d"/>
     <use xlink:href="#TimesNewRomanPSMT-79" x="77.783203"/>
     <use xlink:href="#TimesNewRomanPSMT-5f" x="127.783203"/>
     <use xlink:href="#TimesNewRomanPSMT-66" x="177.783203"/>
     <use xlink:href="#TimesNewRomanPSMT-6f" x="211.083984"/>
     <use xlink:href="#TimesNewRomanPSMT-72" x="261.083984"/>
     <use xlink:href="#TimesNewRomanPSMT-6d" x="294.384766"/>
     <use xlink:href="#TimesNewRomanPSMT-65" x="372.167969"/>
     <use xlink:href="#TimesNewRomanPSMT-72" x="416.552734"/>
     <use xlink:href="#TimesNewRomanPSMT-5f" x="449.853516"/>
     <use xlink:href="#TimesNewRomanPSMT-73" x="499.853516"/>
     <use xlink:href="#TimesNewRomanPSMT-68" x="538.769531"/>
     <use xlink:href="#TimesNewRomanPSMT-6f" x="588.769531"/>
     <use xlink:href="#TimesNewRomanPSMT-72" x="638.769531"/>
     <use xlink:href="#TimesNewRomanPSMT-74" x="672.070312"/>
     <use xlink:href="#TimesNewRomanPSMT-20" x="699.853516"/>
     <use xlink:href="#TimesNewRomanPSMT-6d" x="724.853516"/>
     <use xlink:href="#TimesNewRomanPSMT-6f" x="802.636719"/>
     <use xlink:href="#TimesNewRomanPSMT-64" x="852.636719"/>
     <use xlink:href="#TimesNewRomanPSMT-65" x="902.636719"/>
     <use xlink:href="#TimesNewRomanPSMT-6c" x="947.021484"/>
    </g>
   </g>
   <g id="legend_3">
    <g id="patch_19">
     <path d="M 523.680699 206.24 
L 593.074449 206.24 
Q 594.674449 206.24 594.674449 204.64 
L 594.674449 182.8175 
Q 594.674449 181.2175 593.074449 181.2175 
L 523.680699 181.2175 
Q 522.080699 181.2175 522.080699 182.8175 
L 522.080699 204.64 
Q 522.080699 206.24 523.680699 206.24 
z
" style="fill: #ffffff; opacity: 0.8; stroke: #cccccc; stroke-linejoin: miter"/>
    </g>
    <g id="line2d_50">
     <path d="M 525.280699 187.2175 
L 533.280699 187.2175 
L 541.280699 187.2175 
" style="fill: none; stroke: #21266e; stroke-width: 0.9; stroke-linecap: square"/>
    </g>
    <g id="text_50">
     <!-- Ground Truth -->
     <g transform="translate(547.680699 190.0175) scale(0.08 -0.08)">
      <use xlink:href="#TimesNewRomanPSMT-47"/>
      <use xlink:href="#TimesNewRomanPSMT-72" x="72.216797"/>
      <use xlink:href="#TimesNewRomanPSMT-6f" x="105.517578"/>
      <use xlink:href="#TimesNewRomanPSMT-75" x="155.517578"/>
      <use xlink:href="#TimesNewRomanPSMT-6e" x="205.517578"/>
      <use xlink:href="#TimesNewRomanPSMT-64" x="255.517578"/>
      <use xlink:href="#TimesNewRomanPSMT-20" x="305.517578"/>
      <use xlink:href="#TimesNewRomanPSMT-54" x="328.767578"/>
      <use xlink:href="#TimesNewRomanPSMT-72" x="386.351562"/>
      <use xlink:href="#TimesNewRomanPSMT-75" x="419.652344"/>
      <use xlink:href="#TimesNewRomanPSMT-74" x="469.652344"/>
      <use xlink:href="#TimesNewRomanPSMT-68" x="497.435547"/>
     </g>
    </g>
    <g id="line2d_51">
     <path d="M 525.280699 198.52875 
L 533.280699 198.52875 
L 541.280699 198.52875 
" style="fill: none; stroke: #d70005; stroke-width: 0.9; stroke-linecap: square"/>
    </g>
    <g id="text_51">
     <!-- prediction -->
     <g transform="translate(547.680699 201.32875) scale(0.08 -0.08)">
      <use xlink:href="#TimesNewRomanPSMT-70"/>
      <use xlink:href="#TimesNewRomanPSMT-72" x="50"/>
      <use xlink:href="#TimesNewRomanPSMT-65" x="83.300781"/>
      <use xlink:href="#TimesNewRomanPSMT-64" x="127.685547"/>
      <use xlink:href="#TimesNewRomanPSMT-69" x="177.685547"/>
      <use xlink:href="#TimesNewRomanPSMT-63" x="205.46875"/>
      <use xlink:href="#TimesNewRomanPSMT-74" x="249.853516"/>
      <use xlink:href="#TimesNewRomanPSMT-69" x="277.636719"/>
      <use xlink:href="#TimesNewRomanPSMT-6f" x="305.419922"/>
      <use xlink:href="#TimesNewRomanPSMT-6e" x="355.419922"/>
     </g>
    </g>
   </g>
  </g>
  <g id="text_52">
   <!-- Comparison chart of MULL variable of three models -->
   <g transform="translate(199.770625 18.31) scale(0.16 -0.16)">
    <defs>
     <path id="TimesNewRomanPSMT-43" d="M 3853 4334 
L 3950 2894 
L 3853 2894 
Q 3659 3541 3300 3825 
Q 2941 4109 2438 4109 
Q 2016 4109 1675 3895 
Q 1334 3681 1139 3212 
Q 944 2744 944 2047 
Q 944 1472 1128 1050 
Q 1313 628 1683 403 
Q 2053 178 2528 178 
Q 2941 178 3256 354 
Q 3572 531 3950 1056 
L 4047 994 
Q 3728 428 3303 165 
Q 2878 -97 2294 -97 
Q 1241 -97 663 684 
Q 231 1266 231 2053 
Q 231 2688 515 3219 
Q 800 3750 1298 4042 
Q 1797 4334 2388 4334 
Q 2847 4334 3294 4109 
Q 3425 4041 3481 4041 
Q 3566 4041 3628 4100 
Q 3709 4184 3744 4334 
L 3853 4334 
z
" transform="scale(0.015625)"/>
     <path id="TimesNewRomanPSMT-4d" d="M 2619 0 
L 981 3566 
L 981 734 
Q 981 344 1066 247 
Q 1181 116 1431 116 
L 1581 116 
L 1581 0 
L 106 0 
L 106 116 
L 256 116 
Q 525 116 638 278 
Q 706 378 706 734 
L 706 3503 
Q 706 3784 644 3909 
Q 600 4000 483 4061 
Q 366 4122 106 4122 
L 106 4238 
L 1306 4238 
L 2844 922 
L 4356 4238 
L 5556 4238 
L 5556 4122 
L 5409 4122 
Q 5138 4122 5025 3959 
Q 4956 3859 4956 3503 
L 4956 734 
Q 4956 344 5044 247 
Q 5159 116 5409 116 
L 5556 116 
L 5556 0 
L 3756 0 
L 3756 116 
L 3906 116 
Q 4178 116 4288 278 
Q 4356 378 4356 734 
L 4356 3566 
L 2722 0 
L 2619 0 
z
" transform="scale(0.015625)"/>
     <path id="TimesNewRomanPSMT-55" d="M 3053 4122 
L 3053 4238 
L 4553 4238 
L 4553 4122 
L 4394 4122 
Q 4144 4122 4009 3913 
Q 3944 3816 3944 3463 
L 3944 1744 
Q 3944 1106 3817 754 
Q 3691 403 3320 151 
Q 2950 -100 2313 -100 
Q 1619 -100 1259 140 
Q 900 381 750 788 
Q 650 1066 650 1831 
L 650 3488 
Q 650 3878 542 4000 
Q 434 4122 194 4122 
L 34 4122 
L 34 4238 
L 1866 4238 
L 1866 4122 
L 1703 4122 
Q 1441 4122 1328 3956 
Q 1250 3844 1250 3488 
L 1250 1641 
Q 1250 1394 1295 1075 
Q 1341 756 1459 578 
Q 1578 400 1801 284 
Q 2025 169 2350 169 
Q 2766 169 3094 350 
Q 3422 531 3542 814 
Q 3663 1097 3663 1772 
L 3663 3488 
Q 3663 3884 3575 3984 
Q 3453 4122 3213 4122 
L 3053 4122 
z
" transform="scale(0.015625)"/>
     <path id="TimesNewRomanPSMT-4c" d="M 3669 1172 
L 3772 1150 
L 3409 0 
L 128 0 
L 128 116 
L 288 116 
Q 556 116 672 291 
Q 738 391 738 753 
L 738 3488 
Q 738 3884 650 3984 
Q 528 4122 288 4122 
L 128 4122 
L 128 4238 
L 2047 4238 
L 2047 4122 
Q 1709 4125 1573 4059 
Q 1438 3994 1388 3894 
Q 1338 3794 1338 3416 
L 1338 753 
Q 1338 494 1388 397 
Q 1425 331 1503 300 
Q 1581 269 1991 269 
L 2300 269 
Q 2788 269 2984 341 
Q 3181 413 3343 595 
Q 3506 778 3669 1172 
z
" transform="scale(0.015625)"/>
     <path id="TimesNewRomanPSMT-62" d="M 984 2369 
Q 1400 2947 1881 2947 
Q 2322 2947 2650 2570 
Q 2978 2194 2978 1541 
Q 2978 778 2472 313 
Q 2038 -88 1503 -88 
Q 1253 -88 995 3 
Q 738 94 469 275 
L 469 3241 
Q 469 3728 445 3840 
Q 422 3953 372 3993 
Q 322 4034 247 4034 
Q 159 4034 28 3984 
L -16 4094 
L 844 4444 
L 984 4444 
L 984 2369 
z
M 984 2169 
L 984 456 
Q 1144 300 1314 220 
Q 1484 141 1663 141 
Q 1947 141 2192 453 
Q 2438 766 2438 1363 
Q 2438 1913 2192 2208 
Q 1947 2503 1634 2503 
Q 1469 2503 1303 2419 
Q 1178 2356 984 2169 
z
" transform="scale(0.015625)"/>
    </defs>
    <use xlink:href="#TimesNewRomanPSMT-43"/>
    <use xlink:href="#TimesNewRomanPSMT-6f" x="66.699219"/>
    <use xlink:href="#TimesNewRomanPSMT-6d" x="116.699219"/>
    <use xlink:href="#TimesNewRomanPSMT-70" x="194.482422"/>
    <use xlink:href="#TimesNewRomanPSMT-61" x="244.482422"/>
    <use xlink:href="#TimesNewRomanPSMT-72" x="288.867188"/>
    <use xlink:href="#TimesNewRomanPSMT-69" x="322.167969"/>
    <use xlink:href="#TimesNewRomanPSMT-73" x="349.951172"/>
    <use xlink:href="#TimesNewRomanPSMT-6f" x="388.867188"/>
    <use xlink:href="#TimesNewRomanPSMT-6e" x="438.867188"/>
    <use xlink:href="#TimesNewRomanPSMT-20" x="488.867188"/>
    <use xlink:href="#TimesNewRomanPSMT-63" x="513.867188"/>
    <use xlink:href="#TimesNewRomanPSMT-68" x="558.251953"/>
    <use xlink:href="#TimesNewRomanPSMT-61" x="608.251953"/>
    <use xlink:href="#TimesNewRomanPSMT-72" x="652.636719"/>
    <use xlink:href="#TimesNewRomanPSMT-74" x="685.9375"/>
    <use xlink:href="#TimesNewRomanPSMT-20" x="713.720703"/>
    <use xlink:href="#TimesNewRomanPSMT-6f" x="738.720703"/>
    <use xlink:href="#TimesNewRomanPSMT-66" x="788.720703"/>
    <use xlink:href="#TimesNewRomanPSMT-20" x="822.021484"/>
    <use xlink:href="#TimesNewRomanPSMT-4d" x="847.021484"/>
    <use xlink:href="#TimesNewRomanPSMT-55" x="935.9375"/>
    <use xlink:href="#TimesNewRomanPSMT-4c" x="1008.154297"/>
    <use xlink:href="#TimesNewRomanPSMT-4c" x="1069.238281"/>
    <use xlink:href="#TimesNewRomanPSMT-20" x="1126.572266"/>
    <use xlink:href="#TimesNewRomanPSMT-76" x="1151.572266"/>
    <use xlink:href="#TimesNewRomanPSMT-61" x="1201.572266"/>
    <use xlink:href="#TimesNewRomanPSMT-72" x="1245.957031"/>
    <use xlink:href="#TimesNewRomanPSMT-69" x="1279.257812"/>
    <use xlink:href="#TimesNewRomanPSMT-61" x="1307.041016"/>
    <use xlink:href="#TimesNewRomanPSMT-62" x="1351.425781"/>
    <use xlink:href="#TimesNewRomanPSMT-6c" x="1401.425781"/>
    <use xlink:href="#TimesNewRomanPSMT-65" x="1429.208984"/>
    <use xlink:href="#TimesNewRomanPSMT-20" x="1473.59375"/>
    <use xlink:href="#TimesNewRomanPSMT-6f" x="1498.59375"/>
    <use xlink:href="#TimesNewRomanPSMT-66" x="1548.59375"/>
    <use xlink:href="#TimesNewRomanPSMT-20" x="1581.894531"/>
    <use xlink:href="#TimesNewRomanPSMT-74" x="1606.894531"/>
    <use xlink:href="#TimesNewRomanPSMT-68" x="1634.677734"/>
    <use xlink:href="#TimesNewRomanPSMT-72" x="1684.677734"/>
    <use xlink:href="#TimesNewRomanPSMT-65" x="1717.978516"/>
    <use xlink:href="#TimesNewRomanPSMT-65" x="1762.363281"/>
    <use xlink:href="#TimesNewRomanPSMT-20" x="1806.748047"/>
    <use xlink:href="#TimesNewRomanPSMT-6d" x="1831.748047"/>
    <use xlink:href="#TimesNewRomanPSMT-6f" x="1909.53125"/>
    <use xlink:href="#TimesNewRomanPSMT-64" x="1959.53125"/>
    <use xlink:href="#TimesNewRomanPSMT-65" x="2009.53125"/>
    <use xlink:href="#TimesNewRomanPSMT-6c" x="2053.916016"/>
    <use xlink:href="#TimesNewRomanPSMT-73" x="2081.699219"/>
   </g>
  </g>
 </g>
 <defs>
  <clipPath id="p3e23629502">
   <rect x="45.421875" y="43.92" width="196.941176" height="166.32"/>
  </clipPath>
  <clipPath id="p9bb8fdb253">
   <rect x="281.751287" y="43.92" width="196.941176" height="166.32"/>
  </clipPath>
  <clipPath id="p6788120515">
   <rect x="518.080699" y="43.92" width="196.941176" height="166.32"/>
  </clipPath>
 </defs>
</svg>
