<?xml version="1.0" encoding="utf-8" standalone="no"?>
<!DOCTYPE svg PUBLIC "-//W3C//DTD SVG 1.1//EN"
  "http://www.w3.org/Graphics/SVG/1.1/DTD/svg11.dtd">
<svg xmlns:xlink="http://www.w3.org/1999/xlink" width="721.06726pt" height="246.605625pt" viewBox="0 0 721.06726 246.605625" xmlns="http://www.w3.org/2000/svg" version="1.1">
 <metadata>
  <rdf:RDF xmlns:dc="http://purl.org/dc/elements/1.1/" xmlns:cc="http://creativecommons.org/ns#" xmlns:rdf="http://www.w3.org/1999/02/22-rdf-syntax-ns#">
   <cc:Work>
    <dc:type rdf:resource="http://purl.org/dc/dcmitype/StillImage"/>
    <dc:date>2024-01-03T22:40:24.709411</dc:date>
    <dc:format>image/svg+xml</dc:format>
    <dc:creator>
     <cc:Agent>
      <dc:title>Matplotlib v3.7.2, https://matplotlib.org/</dc:title>
     </cc:Agent>
    </dc:creator>
   </cc:Work>
  </rdf:RDF>
 </metadata>
 <defs>
  <style type="text/css">*{stroke-linejoin: round; stroke-linecap: butt}</style>
 </defs>
 <g id="figure_1">
  <g id="patch_1">
   <path d="M 0 246.605625 
L 721.06726 246.605625 
L 721.06726 0 
L 0 0 
z
" style="fill: #ffffff"/>
  </g>
  <g id="axes_1">
   <g id="patch_2">
    <path d="M 37.282812 210.24 
L 234.223989 210.24 
L 234.223989 43.92 
L 37.282812 43.92 
z
" style="fill: #ffffff"/>
   </g>
   <g id="matplotlib.axis_1">
    <g id="xtick_1">
     <g id="line2d_1">
      <defs>
       <path id="m6299d21e68" d="M 0 0 
L 0 3.5 
" style="stroke: #000000; stroke-width: 0.8"/>
      </defs>
      <g>
       <use xlink:href="#m6299d21e68" x="46.234684" y="210.24" style="stroke: #000000; stroke-width: 0.8"/>
      </g>
     </g>
     <g id="text_1">
      <!-- 0 -->
      <g transform="translate(43.734684 224.18375) scale(0.1 -0.1)">
       <defs>
        <path id="TimesNewRomanPSMT-30" d="M 231 2094 
Q 231 2819 450 3342 
Q 669 3866 1031 4122 
Q 1313 4325 1613 4325 
Q 2100 4325 2488 3828 
Q 2972 3213 2972 2159 
Q 2972 1422 2759 906 
Q 2547 391 2217 158 
Q 1888 -75 1581 -75 
Q 975 -75 572 641 
Q 231 1244 231 2094 
z
M 844 2016 
Q 844 1141 1059 588 
Q 1238 122 1591 122 
Q 1759 122 1940 273 
Q 2122 425 2216 781 
Q 2359 1319 2359 2297 
Q 2359 3022 2209 3506 
Q 2097 3866 1919 4016 
Q 1791 4119 1609 4119 
Q 1397 4119 1231 3928 
Q 1006 3669 925 3112 
Q 844 2556 844 2016 
z
" transform="scale(0.015625)"/>
       </defs>
       <use xlink:href="#TimesNewRomanPSMT-30"/>
      </g>
     </g>
    </g>
    <g id="xtick_2">
     <g id="line2d_2">
      <g>
       <use xlink:href="#m6299d21e68" x="93.103122" y="210.24" style="stroke: #000000; stroke-width: 0.8"/>
      </g>
     </g>
     <g id="text_2">
      <!-- 50 -->
      <g transform="translate(88.103122 224.18375) scale(0.1 -0.1)">
       <defs>
        <path id="TimesNewRomanPSMT-35" d="M 2778 4238 
L 2534 3706 
L 1259 3706 
L 981 3138 
Q 1809 3016 2294 2522 
Q 2709 2097 2709 1522 
Q 2709 1188 2573 903 
Q 2438 619 2231 419 
Q 2025 219 1772 97 
Q 1413 -75 1034 -75 
Q 653 -75 479 54 
Q 306 184 306 341 
Q 306 428 378 495 
Q 450 563 559 563 
Q 641 563 702 538 
Q 763 513 909 409 
Q 1144 247 1384 247 
Q 1750 247 2026 523 
Q 2303 800 2303 1197 
Q 2303 1581 2056 1914 
Q 1809 2247 1375 2428 
Q 1034 2569 447 2591 
L 1259 4238 
L 2778 4238 
z
" transform="scale(0.015625)"/>
       </defs>
       <use xlink:href="#TimesNewRomanPSMT-35"/>
       <use xlink:href="#TimesNewRomanPSMT-30" x="50"/>
      </g>
     </g>
    </g>
    <g id="xtick_3">
     <g id="line2d_3">
      <g>
       <use xlink:href="#m6299d21e68" x="139.97156" y="210.24" style="stroke: #000000; stroke-width: 0.8"/>
      </g>
     </g>
     <g id="text_3">
      <!-- 100 -->
      <g transform="translate(132.47156 224.18375) scale(0.1 -0.1)">
       <defs>
        <path id="TimesNewRomanPSMT-31" d="M 750 3822 
L 1781 4325 
L 1884 4325 
L 1884 747 
Q 1884 391 1914 303 
Q 1944 216 2037 169 
Q 2131 122 2419 116 
L 2419 0 
L 825 0 
L 825 116 
Q 1125 122 1212 167 
Q 1300 213 1334 289 
Q 1369 366 1369 747 
L 1369 3034 
Q 1369 3497 1338 3628 
Q 1316 3728 1258 3775 
Q 1200 3822 1119 3822 
Q 1003 3822 797 3725 
L 750 3822 
z
" transform="scale(0.015625)"/>
       </defs>
       <use xlink:href="#TimesNewRomanPSMT-31"/>
       <use xlink:href="#TimesNewRomanPSMT-30" x="50"/>
       <use xlink:href="#TimesNewRomanPSMT-30" x="100"/>
      </g>
     </g>
    </g>
    <g id="xtick_4">
     <g id="line2d_4">
      <g>
       <use xlink:href="#m6299d21e68" x="186.839998" y="210.24" style="stroke: #000000; stroke-width: 0.8"/>
      </g>
     </g>
     <g id="text_4">
      <!-- 150 -->
      <g transform="translate(179.339998 224.18375) scale(0.1 -0.1)">
       <use xlink:href="#TimesNewRomanPSMT-31"/>
       <use xlink:href="#TimesNewRomanPSMT-35" x="50"/>
       <use xlink:href="#TimesNewRomanPSMT-30" x="100"/>
      </g>
     </g>
    </g>
    <g id="xtick_5">
     <g id="line2d_5">
      <g>
       <use xlink:href="#m6299d21e68" x="233.708436" y="210.24" style="stroke: #000000; stroke-width: 0.8"/>
      </g>
     </g>
     <g id="text_5">
      <!-- 200 -->
      <g transform="translate(226.208436 224.18375) scale(0.1 -0.1)">
       <defs>
        <path id="TimesNewRomanPSMT-32" d="M 2934 816 
L 2638 0 
L 138 0 
L 138 116 
Q 1241 1122 1691 1759 
Q 2141 2397 2141 2925 
Q 2141 3328 1894 3587 
Q 1647 3847 1303 3847 
Q 991 3847 742 3664 
Q 494 3481 375 3128 
L 259 3128 
Q 338 3706 661 4015 
Q 984 4325 1469 4325 
Q 1984 4325 2329 3994 
Q 2675 3663 2675 3213 
Q 2675 2891 2525 2569 
Q 2294 2063 1775 1497 
Q 997 647 803 472 
L 1909 472 
Q 2247 472 2383 497 
Q 2519 522 2628 598 
Q 2738 675 2819 816 
L 2934 816 
z
" transform="scale(0.015625)"/>
       </defs>
       <use xlink:href="#TimesNewRomanPSMT-32"/>
       <use xlink:href="#TimesNewRomanPSMT-30" x="50"/>
       <use xlink:href="#TimesNewRomanPSMT-30" x="100"/>
      </g>
     </g>
    </g>
    <g id="text_6">
     <!-- times -->
     <g transform="translate(124.920588 237.266563) scale(0.1 -0.1)">
      <defs>
       <path id="TimesNewRomanPSMT-74" d="M 1031 3803 
L 1031 2863 
L 1700 2863 
L 1700 2644 
L 1031 2644 
L 1031 788 
Q 1031 509 1111 412 
Q 1191 316 1316 316 
Q 1419 316 1516 380 
Q 1613 444 1666 569 
L 1788 569 
Q 1678 263 1478 108 
Q 1278 -47 1066 -47 
Q 922 -47 784 33 
Q 647 113 581 261 
Q 516 409 516 719 
L 516 2644 
L 63 2644 
L 63 2747 
Q 234 2816 414 2980 
Q 594 3144 734 3369 
Q 806 3488 934 3803 
L 1031 3803 
z
" transform="scale(0.015625)"/>
       <path id="TimesNewRomanPSMT-69" d="M 928 4444 
Q 1059 4444 1151 4351 
Q 1244 4259 1244 4128 
Q 1244 3997 1151 3903 
Q 1059 3809 928 3809 
Q 797 3809 703 3903 
Q 609 3997 609 4128 
Q 609 4259 701 4351 
Q 794 4444 928 4444 
z
M 1188 2947 
L 1188 647 
Q 1188 378 1227 289 
Q 1266 200 1342 156 
Q 1419 113 1622 113 
L 1622 0 
L 231 0 
L 231 113 
Q 441 113 512 153 
Q 584 194 626 287 
Q 669 381 669 647 
L 669 1750 
Q 669 2216 641 2353 
Q 619 2453 572 2492 
Q 525 2531 444 2531 
Q 356 2531 231 2484 
L 188 2597 
L 1050 2947 
L 1188 2947 
z
" transform="scale(0.015625)"/>
       <path id="TimesNewRomanPSMT-6d" d="M 1050 2338 
Q 1363 2650 1419 2697 
Q 1559 2816 1721 2881 
Q 1884 2947 2044 2947 
Q 2313 2947 2506 2790 
Q 2700 2634 2766 2338 
Q 3088 2713 3309 2830 
Q 3531 2947 3766 2947 
Q 3994 2947 4170 2830 
Q 4347 2713 4450 2447 
Q 4519 2266 4519 1878 
L 4519 647 
Q 4519 378 4559 278 
Q 4591 209 4675 161 
Q 4759 113 4950 113 
L 4950 0 
L 3538 0 
L 3538 113 
L 3597 113 
Q 3781 113 3884 184 
Q 3956 234 3988 344 
Q 4000 397 4000 647 
L 4000 1878 
Q 4000 2228 3916 2372 
Q 3794 2572 3525 2572 
Q 3359 2572 3192 2489 
Q 3025 2406 2788 2181 
L 2781 2147 
L 2788 2013 
L 2788 647 
Q 2788 353 2820 281 
Q 2853 209 2943 161 
Q 3034 113 3253 113 
L 3253 0 
L 1806 0 
L 1806 113 
Q 2044 113 2133 169 
Q 2222 225 2256 338 
Q 2272 391 2272 647 
L 2272 1878 
Q 2272 2228 2169 2381 
Q 2031 2581 1784 2581 
Q 1616 2581 1450 2491 
Q 1191 2353 1050 2181 
L 1050 647 
Q 1050 366 1089 281 
Q 1128 197 1204 155 
Q 1281 113 1516 113 
L 1516 0 
L 100 0 
L 100 113 
Q 297 113 375 155 
Q 453 197 493 289 
Q 534 381 534 647 
L 534 1741 
Q 534 2213 506 2350 
Q 484 2453 437 2492 
Q 391 2531 309 2531 
Q 222 2531 100 2484 
L 53 2597 
L 916 2947 
L 1050 2947 
L 1050 2338 
z
" transform="scale(0.015625)"/>
       <path id="TimesNewRomanPSMT-65" d="M 681 1784 
Q 678 1147 991 784 
Q 1303 422 1725 422 
Q 2006 422 2214 576 
Q 2422 731 2563 1106 
L 2659 1044 
Q 2594 616 2278 264 
Q 1963 -88 1488 -88 
Q 972 -88 605 314 
Q 238 716 238 1394 
Q 238 2128 614 2539 
Q 991 2950 1559 2950 
Q 2041 2950 2350 2633 
Q 2659 2316 2659 1784 
L 681 1784 
z
M 681 1966 
L 2006 1966 
Q 1991 2241 1941 2353 
Q 1863 2528 1708 2628 
Q 1553 2728 1384 2728 
Q 1125 2728 920 2526 
Q 716 2325 681 1966 
z
" transform="scale(0.015625)"/>
       <path id="TimesNewRomanPSMT-73" d="M 2050 2947 
L 2050 1972 
L 1947 1972 
Q 1828 2431 1642 2597 
Q 1456 2763 1169 2763 
Q 950 2763 815 2647 
Q 681 2531 681 2391 
Q 681 2216 781 2091 
Q 878 1963 1175 1819 
L 1631 1597 
Q 2266 1288 2266 781 
Q 2266 391 1970 151 
Q 1675 -88 1309 -88 
Q 1047 -88 709 6 
Q 606 38 541 38 
Q 469 38 428 -44 
L 325 -44 
L 325 978 
L 428 978 
Q 516 541 762 319 
Q 1009 97 1316 97 
Q 1531 97 1667 223 
Q 1803 350 1803 528 
Q 1803 744 1651 891 
Q 1500 1038 1047 1263 
Q 594 1488 453 1669 
Q 313 1847 313 2119 
Q 313 2472 555 2709 
Q 797 2947 1181 2947 
Q 1350 2947 1591 2875 
Q 1750 2828 1803 2828 
Q 1853 2828 1881 2850 
Q 1909 2872 1947 2947 
L 2050 2947 
z
" transform="scale(0.015625)"/>
      </defs>
      <use xlink:href="#TimesNewRomanPSMT-74"/>
      <use xlink:href="#TimesNewRomanPSMT-69" x="27.783203"/>
      <use xlink:href="#TimesNewRomanPSMT-6d" x="55.566406"/>
      <use xlink:href="#TimesNewRomanPSMT-65" x="133.349609"/>
      <use xlink:href="#TimesNewRomanPSMT-73" x="177.734375"/>
     </g>
    </g>
   </g>
   <g id="matplotlib.axis_2">
    <g id="ytick_1">
     <g id="line2d_6">
      <defs>
       <path id="ma0e8d0978f" d="M 0 0 
L -3.5 0 
" style="stroke: #000000; stroke-width: 0.8"/>
      </defs>
      <g>
       <use xlink:href="#ma0e8d0978f" x="37.282812" y="202.680001" style="stroke: #000000; stroke-width: 0.8"/>
      </g>
     </g>
     <g id="text_7">
      <!-- 0 -->
      <g transform="translate(25.282812 206.151876) scale(0.1 -0.1)">
       <use xlink:href="#TimesNewRomanPSMT-30"/>
      </g>
     </g>
    </g>
    <g id="ytick_2">
     <g id="line2d_7">
      <g>
       <use xlink:href="#ma0e8d0978f" x="37.282812" y="172.06227" style="stroke: #000000; stroke-width: 0.8"/>
      </g>
     </g>
     <g id="text_8">
      <!-- 2 -->
      <g transform="translate(25.282812 175.534145) scale(0.1 -0.1)">
       <use xlink:href="#TimesNewRomanPSMT-32"/>
      </g>
     </g>
    </g>
    <g id="ytick_3">
     <g id="line2d_8">
      <g>
       <use xlink:href="#ma0e8d0978f" x="37.282812" y="141.444539" style="stroke: #000000; stroke-width: 0.8"/>
      </g>
     </g>
     <g id="text_9">
      <!-- 4 -->
      <g transform="translate(25.282812 144.916414) scale(0.1 -0.1)">
       <defs>
        <path id="TimesNewRomanPSMT-34" d="M 2978 1563 
L 2978 1119 
L 2409 1119 
L 2409 0 
L 1894 0 
L 1894 1119 
L 100 1119 
L 100 1519 
L 2066 4325 
L 2409 4325 
L 2409 1563 
L 2978 1563 
z
M 1894 1563 
L 1894 3666 
L 406 1563 
L 1894 1563 
z
" transform="scale(0.015625)"/>
       </defs>
       <use xlink:href="#TimesNewRomanPSMT-34"/>
      </g>
     </g>
    </g>
    <g id="ytick_4">
     <g id="line2d_9">
      <g>
       <use xlink:href="#ma0e8d0978f" x="37.282812" y="110.826808" style="stroke: #000000; stroke-width: 0.8"/>
      </g>
     </g>
     <g id="text_10">
      <!-- 6 -->
      <g transform="translate(25.282812 114.298683) scale(0.1 -0.1)">
       <defs>
        <path id="TimesNewRomanPSMT-36" d="M 2869 4325 
L 2869 4209 
Q 2456 4169 2195 4045 
Q 1934 3922 1679 3669 
Q 1425 3416 1258 3105 
Q 1091 2794 978 2366 
Q 1428 2675 1881 2675 
Q 2316 2675 2634 2325 
Q 2953 1975 2953 1425 
Q 2953 894 2631 456 
Q 2244 -75 1606 -75 
Q 1172 -75 869 213 
Q 275 772 275 1663 
Q 275 2231 503 2743 
Q 731 3256 1154 3653 
Q 1578 4050 1965 4187 
Q 2353 4325 2688 4325 
L 2869 4325 
z
M 925 2138 
Q 869 1716 869 1456 
Q 869 1156 980 804 
Q 1091 453 1309 247 
Q 1469 100 1697 100 
Q 1969 100 2183 356 
Q 2397 613 2397 1088 
Q 2397 1622 2184 2012 
Q 1972 2403 1581 2403 
Q 1463 2403 1327 2353 
Q 1191 2303 925 2138 
z
" transform="scale(0.015625)"/>
       </defs>
       <use xlink:href="#TimesNewRomanPSMT-36"/>
      </g>
     </g>
    </g>
    <g id="ytick_5">
     <g id="line2d_10">
      <g>
       <use xlink:href="#ma0e8d0978f" x="37.282812" y="80.209076" style="stroke: #000000; stroke-width: 0.8"/>
      </g>
     </g>
     <g id="text_11">
      <!-- 8 -->
      <g transform="translate(25.282812 83.680951) scale(0.1 -0.1)">
       <defs>
        <path id="TimesNewRomanPSMT-38" d="M 1228 2134 
Q 725 2547 579 2797 
Q 434 3047 434 3316 
Q 434 3728 753 4026 
Q 1072 4325 1600 4325 
Q 2113 4325 2425 4047 
Q 2738 3769 2738 3413 
Q 2738 3175 2569 2928 
Q 2400 2681 1866 2347 
Q 2416 1922 2594 1678 
Q 2831 1359 2831 1006 
Q 2831 559 2490 242 
Q 2150 -75 1597 -75 
Q 994 -75 656 303 
Q 388 606 388 966 
Q 388 1247 577 1523 
Q 766 1800 1228 2134 
z
M 1719 2469 
Q 2094 2806 2194 3001 
Q 2294 3197 2294 3444 
Q 2294 3772 2109 3958 
Q 1925 4144 1606 4144 
Q 1288 4144 1088 3959 
Q 888 3775 888 3528 
Q 888 3366 970 3203 
Q 1053 3041 1206 2894 
L 1719 2469 
z
M 1375 2016 
Q 1116 1797 991 1539 
Q 866 1281 866 981 
Q 866 578 1086 336 
Q 1306 94 1647 94 
Q 1984 94 2187 284 
Q 2391 475 2391 747 
Q 2391 972 2272 1150 
Q 2050 1481 1375 2016 
z
" transform="scale(0.015625)"/>
       </defs>
       <use xlink:href="#TimesNewRomanPSMT-38"/>
      </g>
     </g>
    </g>
    <g id="ytick_6">
     <g id="line2d_11">
      <g>
       <use xlink:href="#ma0e8d0978f" x="37.282812" y="49.591345" style="stroke: #000000; stroke-width: 0.8"/>
      </g>
     </g>
     <g id="text_12">
      <!-- 10 -->
      <g transform="translate(20.282812 53.06322) scale(0.1 -0.1)">
       <use xlink:href="#TimesNewRomanPSMT-31"/>
       <use xlink:href="#TimesNewRomanPSMT-30" x="50"/>
      </g>
     </g>
    </g>
    <g id="text_13">
     <!-- values -->
     <g transform="translate(14.14375 139.854219) rotate(-90) scale(0.1 -0.1)">
      <defs>
       <path id="TimesNewRomanPSMT-76" d="M 53 2863 
L 1400 2863 
L 1400 2747 
L 1313 2747 
Q 1191 2747 1127 2687 
Q 1063 2628 1063 2528 
Q 1063 2419 1128 2269 
L 1794 688 
L 2463 2328 
Q 2534 2503 2534 2594 
Q 2534 2638 2509 2666 
Q 2475 2713 2422 2730 
Q 2369 2747 2206 2747 
L 2206 2863 
L 3141 2863 
L 3141 2747 
Q 2978 2734 2916 2681 
Q 2806 2588 2719 2369 
L 1703 -88 
L 1575 -88 
L 553 2328 
Q 484 2497 421 2570 
Q 359 2644 263 2694 
Q 209 2722 53 2747 
L 53 2863 
z
" transform="scale(0.015625)"/>
       <path id="TimesNewRomanPSMT-61" d="M 1822 413 
Q 1381 72 1269 19 
Q 1100 -59 909 -59 
Q 613 -59 420 144 
Q 228 347 228 678 
Q 228 888 322 1041 
Q 450 1253 767 1440 
Q 1084 1628 1822 1897 
L 1822 2009 
Q 1822 2438 1686 2597 
Q 1550 2756 1291 2756 
Q 1094 2756 978 2650 
Q 859 2544 859 2406 
L 866 2225 
Q 866 2081 792 2003 
Q 719 1925 600 1925 
Q 484 1925 411 2006 
Q 338 2088 338 2228 
Q 338 2497 613 2722 
Q 888 2947 1384 2947 
Q 1766 2947 2009 2819 
Q 2194 2722 2281 2516 
Q 2338 2381 2338 1966 
L 2338 994 
Q 2338 584 2353 492 
Q 2369 400 2405 369 
Q 2441 338 2488 338 
Q 2538 338 2575 359 
Q 2641 400 2828 588 
L 2828 413 
Q 2478 -56 2159 -56 
Q 2006 -56 1915 50 
Q 1825 156 1822 413 
z
M 1822 616 
L 1822 1706 
Q 1350 1519 1213 1441 
Q 966 1303 859 1153 
Q 753 1003 753 825 
Q 753 600 887 451 
Q 1022 303 1197 303 
Q 1434 303 1822 616 
z
" transform="scale(0.015625)"/>
       <path id="TimesNewRomanPSMT-6c" d="M 1184 4444 
L 1184 647 
Q 1184 378 1223 290 
Q 1263 203 1344 158 
Q 1425 113 1647 113 
L 1647 0 
L 244 0 
L 244 113 
Q 441 113 512 153 
Q 584 194 625 287 
Q 666 381 666 647 
L 666 3247 
Q 666 3731 644 3842 
Q 622 3953 573 3993 
Q 525 4034 450 4034 
Q 369 4034 244 3984 
L 191 4094 
L 1044 4444 
L 1184 4444 
z
" transform="scale(0.015625)"/>
       <path id="TimesNewRomanPSMT-75" d="M 2709 2863 
L 2709 1128 
Q 2709 631 2732 520 
Q 2756 409 2807 365 
Q 2859 322 2928 322 
Q 3025 322 3147 375 
L 3191 266 
L 2334 -88 
L 2194 -88 
L 2194 519 
Q 1825 119 1631 15 
Q 1438 -88 1222 -88 
Q 981 -88 804 51 
Q 628 191 559 409 
Q 491 628 491 1028 
L 491 2306 
Q 491 2509 447 2587 
Q 403 2666 317 2708 
Q 231 2750 6 2747 
L 6 2863 
L 1009 2863 
L 1009 947 
Q 1009 547 1148 422 
Q 1288 297 1484 297 
Q 1619 297 1789 381 
Q 1959 466 2194 703 
L 2194 2325 
Q 2194 2569 2105 2655 
Q 2016 2741 1734 2747 
L 1734 2863 
L 2709 2863 
z
" transform="scale(0.015625)"/>
      </defs>
      <use xlink:href="#TimesNewRomanPSMT-76"/>
      <use xlink:href="#TimesNewRomanPSMT-61" x="50"/>
      <use xlink:href="#TimesNewRomanPSMT-6c" x="94.384766"/>
      <use xlink:href="#TimesNewRomanPSMT-75" x="122.167969"/>
      <use xlink:href="#TimesNewRomanPSMT-65" x="172.167969"/>
      <use xlink:href="#TimesNewRomanPSMT-73" x="216.552734"/>
     </g>
    </g>
   </g>
   <g id="line2d_12">
    <path d="M 46.234684 144.521623 
L 47.172053 144.521623 
L 48.109422 139.14821 
L 49.04679 136.989663 
L 49.984159 136.989663 
L 50.921528 140.219828 
L 51.858897 152.068893 
L 52.796265 144.521623 
L 53.733634 149.910346 
L 54.671003 147.751788 
L 55.608372 152.068893 
L 56.545741 147.751788 
L 57.483109 140.219828 
L 58.420478 127.299145 
L 59.357847 115.450081 
L 60.295216 126.212217 
L 61.232584 126.212217 
L 62.169953 114.378463 
L 63.107322 107.90281 
L 64.044691 105.759574 
L 64.982059 110.061357 
L 65.919428 101.442469 
L 66.856797 110.061357 
L 67.794166 115.450081 
L 68.731534 108.989751 
L 69.668903 110.061357 
L 70.606272 103.601016 
L 71.543641 104.672646 
L 72.481009 103.601016 
L 73.418378 117.608627 
L 74.355747 104.672646 
L 75.293116 106.831192 
L 76.230484 117.608627 
L 77.167853 116.52171 
L 78.105222 127.299145 
L 79.042591 112.219916 
L 79.97996 103.601016 
L 80.917328 99.299233 
L 81.854697 96.069056 
L 82.792066 99.299233 
L 83.729435 85.291621 
L 84.666803 89.608715 
L 85.604172 88.521798 
L 86.541541 88.521798 
L 87.47891 88.521798 
L 88.416278 104.672646 
L 89.353647 93.91051 
L 90.291016 90.680345 
L 91.228385 90.680345 
L 92.165753 92.838891 
L 93.103122 100.370851 
L 94.040491 89.608715 
L 94.97786 112.219916 
L 95.915228 144.521623 
L 96.852597 145.608551 
L 97.789966 153.140511 
L 98.727335 147.751788 
L 99.664703 149.910346 
L 100.602072 153.140511 
L 101.539441 158.529234 
L 102.47681 158.529234 
L 103.414179 158.529234 
L 104.351547 159.600852 
L 105.288916 159.600852 
L 106.226285 155.299058 
L 107.163654 155.299058 
L 108.101022 154.212129 
L 109.038391 146.680169 
L 109.97576 153.140511 
L 110.913129 162.831029 
L 111.850497 163.917957 
L 112.787866 156.370676 
L 113.725235 153.140511 
L 114.662604 149.910346 
L 115.599972 152.068893 
L 116.537341 156.370676 
L 117.47471 149.910346 
L 118.412079 152.068893 
L 119.349447 146.680169 
L 120.286816 149.910346 
L 121.224185 152.068893 
L 122.161554 144.521623 
L 123.098922 139.14821 
L 124.036291 155.299058 
L 124.97366 148.838716 
L 125.911029 150.981964 
L 126.848398 134.831105 
L 127.785766 124.068969 
L 128.723135 119.751875 
L 129.660504 115.450081 
L 130.597873 115.450081 
L 131.535241 117.608627 
L 132.47261 122.982052 
L 133.409979 119.751875 
L 134.347348 124.068969 
L 135.284716 127.299145 
L 136.222085 126.212217 
" clip-path="url(#p01202c0d86)" style="fill: none; stroke: #21266e; stroke-width: 0.9; stroke-linecap: square"/>
   </g>
   <g id="line2d_13">
    <path d="M 136.222085 126.212217 
L 137.159454 127.299145 
L 138.096823 124.068969 
L 139.034191 132.672558 
L 139.97156 141.291446 
L 140.908929 139.14821 
L 141.846298 126.212217 
L 142.783666 135.902734 
L 143.721035 138.061281 
L 144.658404 150.981964 
L 145.595773 171.449917 
L 146.533141 168.21974 
L 147.47051 174.680088 
L 148.407879 169.29137 
L 149.345248 157.442305 
L 150.282617 158.529234 
L 151.219985 150.981964 
L 152.157354 136.989663 
L 153.094723 138.061281 
L 154.032092 139.14821 
L 154.96946 153.140511 
L 155.906829 160.67247 
L 156.844198 162.831029 
L 157.781567 162.831029 
L 158.718935 163.917957 
L 159.656304 164.989575 
L 160.593673 166.061194 
L 161.531042 170.378299 
L 162.46841 169.29137 
L 163.405779 168.21974 
L 164.343148 163.917957 
L 165.280517 155.299058 
L 166.217885 144.521623 
L 167.155254 168.21974 
L 168.092623 139.14821 
L 169.029992 136.989663 
L 169.96736 128.370763 
L 170.904729 125.140598 
L 171.842098 126.212217 
L 172.779467 131.60094 
L 173.716836 133.759487 
L 174.654204 160.67247 
L 175.591573 166.061194 
L 176.528942 156.370676 
L 177.466311 178.981876 
L 178.403679 171.449917 
L 179.341048 161.759399 
L 180.278417 162.831029 
L 181.215786 168.21974 
L 182.153154 171.449917 
L 183.090523 182.212047 
L 184.027892 171.449917 
L 184.965261 167.148122 
L 185.902629 157.442305 
L 186.839998 145.608551 
L 187.777367 153.140511 
L 188.714736 157.442305 
L 189.652104 155.299058 
L 190.589473 166.061194 
L 191.526842 166.061194 
L 192.464211 178.981876 
L 193.401579 194.061112 
L 194.338948 190.830941 
L 195.276317 166.061194 
L 196.213686 170.378299 
L 197.151055 157.442305 
L 198.088423 157.442305 
L 199.025792 158.529234 
L 199.963161 156.370676 
L 200.90053 156.370676 
L 201.837898 148.838716 
L 202.775267 152.068893 
L 203.712636 146.680169 
L 204.650005 149.910346 
L 205.587373 145.608551 
L 206.524742 144.521623 
L 207.462111 140.219828 
L 208.39948 149.910346 
L 209.336848 146.680169 
L 210.274217 153.140511 
L 211.211586 148.838716 
L 212.148955 159.600852 
L 213.086323 164.989575 
L 214.023692 161.759399 
L 214.961061 161.759399 
L 215.89843 172.521535 
L 216.835798 191.91787 
L 217.773167 202.68 
L 218.710536 202.68 
L 219.647905 202.68 
L 220.585274 192.989488 
L 221.522642 202.68 
L 222.460011 202.68 
L 223.39738 202.68 
L 224.334749 202.68 
L 225.272117 202.68 
" clip-path="url(#p01202c0d86)" style="fill: none; stroke: #21266e; stroke-width: 0.9; stroke-linecap: square"/>
   </g>
   <g id="line2d_14">
    <path d="M 136.222085 129.667413 
L 137.159454 144.948677 
L 138.096823 148.912928 
L 139.034191 147.970399 
L 139.97156 142.298602 
L 140.908929 133.471942 
L 141.846298 125.017923 
L 142.783666 115.873743 
L 143.721035 109.821957 
L 144.658404 111.103607 
L 145.595773 104.341942 
L 146.533141 86.75527 
L 147.47051 78.63531 
L 148.407879 69.404125 
L 149.345248 57.324221 
L 150.282617 57.797617 
L 151.219985 64.633316 
L 152.157354 66.022244 
L 153.094723 65.908147 
L 154.032092 66.248279 
L 154.96946 68.662227 
L 155.906829 71.265316 
L 156.844198 72.740172 
L 157.781567 70.694111 
L 158.718935 68.003593 
L 159.656304 68.132387 
L 160.593673 68.620127 
L 161.531042 67.762678 
L 162.46841 65.123139 
L 163.405779 62.517019 
L 164.343148 62.505889 
L 165.280517 62.748228 
L 166.217885 56.969453 
L 167.155254 51.48 
L 168.092623 54.23408 
L 169.029992 57.772342 
L 169.96736 64.27492 
L 170.904729 71.448073 
L 171.842098 69.997558 
L 172.779467 74.455668 
L 173.716836 81.773275 
L 174.654204 83.046161 
L 175.591573 81.558977 
L 176.528942 80.642532 
L 177.466311 81.460627 
L 178.403679 81.026815 
L 179.341048 79.944822 
L 180.278417 77.361122 
L 181.215786 77.952351 
L 182.153154 79.612651 
L 183.090523 78.494514 
L 184.027892 75.68647 
L 184.965261 72.927736 
L 185.902629 71.614664 
L 186.839998 71.9089 
L 187.777367 71.501103 
L 188.714736 69.818329 
L 189.652104 70.814944 
L 190.589473 70.687559 
L 191.526842 66.328015 
L 192.464211 68.290772 
L 193.401579 71.958731 
L 194.338948 71.020986 
L 195.276317 78.751611 
L 196.213686 87.577881 
L 197.151055 90.624831 
L 198.088423 90.17155 
L 199.025792 88.643664 
L 199.963161 87.704067 
L 200.90053 86.107285 
L 201.837898 84.017729 
L 202.775267 79.990068 
L 203.712636 79.327561 
L 204.650005 80.063612 
L 205.587373 79.57356 
L 206.524742 77.901204 
L 207.462111 76.281174 
L 208.39948 76.33056 
L 209.336848 77.850792 
L 210.274217 77.288497 
L 211.211586 73.67314 
L 212.148955 74.555359 
L 213.086323 74.499727 
L 214.023692 72.841471 
L 214.961061 76.825526 
L 215.89843 79.120524 
L 216.835798 77.119778 
L 217.773167 83.041961 
L 218.710536 88.364645 
L 219.647905 89.106574 
L 220.585274 87.178186 
L 221.522642 85.184513 
L 222.460011 83.803632 
L 223.39738 81.883882 
L 224.334749 78.563251 
L 225.272117 74.795663 
" clip-path="url(#p01202c0d86)" style="fill: none; stroke: #d70005; stroke-width: 0.9; stroke-linecap: square"/>
   </g>
   <g id="patch_3">
    <path d="M 37.282812 210.24 
L 37.282812 43.92 
" style="fill: none; stroke: #000000; stroke-width: 0.8; stroke-linejoin: miter; stroke-linecap: square"/>
   </g>
   <g id="patch_4">
    <path d="M 234.223989 210.24 
L 234.223989 43.92 
" style="fill: none; stroke: #000000; stroke-width: 0.8; stroke-linejoin: miter; stroke-linecap: square"/>
   </g>
   <g id="patch_5">
    <path d="M 37.282812 210.24 
L 234.223989 210.24 
" style="fill: none; stroke: #000000; stroke-width: 0.8; stroke-linejoin: miter; stroke-linecap: square"/>
   </g>
   <g id="patch_6">
    <path d="M 37.282812 43.92 
L 234.223989 43.92 
" style="fill: none; stroke: #000000; stroke-width: 0.8; stroke-linejoin: miter; stroke-linecap: square"/>
   </g>
   <g id="text_14">
    <!-- lstm_short model -->
    <g transform="translate(93.920276 37.92) scale(0.12 -0.12)">
     <defs>
      <path id="TimesNewRomanPSMT-5f" d="M 3256 -1381 
L -53 -1381 
L -53 -1119 
L 3256 -1119 
L 3256 -1381 
z
" transform="scale(0.015625)"/>
      <path id="TimesNewRomanPSMT-68" d="M 1041 4444 
L 1041 2350 
Q 1388 2731 1591 2839 
Q 1794 2947 1997 2947 
Q 2241 2947 2416 2812 
Q 2591 2678 2675 2391 
Q 2734 2191 2734 1659 
L 2734 647 
Q 2734 375 2778 275 
Q 2809 200 2884 156 
Q 2959 113 3159 113 
L 3159 0 
L 1753 0 
L 1753 113 
L 1819 113 
Q 2019 113 2097 173 
Q 2175 234 2206 353 
Q 2216 403 2216 647 
L 2216 1659 
Q 2216 2128 2167 2275 
Q 2119 2422 2012 2495 
Q 1906 2569 1756 2569 
Q 1603 2569 1437 2487 
Q 1272 2406 1041 2159 
L 1041 647 
Q 1041 353 1073 281 
Q 1106 209 1195 161 
Q 1284 113 1503 113 
L 1503 0 
L 84 0 
L 84 113 
Q 275 113 384 172 
Q 447 203 484 290 
Q 522 378 522 647 
L 522 3238 
Q 522 3728 498 3840 
Q 475 3953 426 3993 
Q 378 4034 297 4034 
Q 231 4034 84 3984 
L 41 4094 
L 897 4444 
L 1041 4444 
z
" transform="scale(0.015625)"/>
      <path id="TimesNewRomanPSMT-6f" d="M 1600 2947 
Q 2250 2947 2644 2453 
Q 2978 2031 2978 1484 
Q 2978 1100 2793 706 
Q 2609 313 2286 112 
Q 1963 -88 1566 -88 
Q 919 -88 538 428 
Q 216 863 216 1403 
Q 216 1797 411 2186 
Q 606 2575 925 2761 
Q 1244 2947 1600 2947 
z
M 1503 2744 
Q 1338 2744 1170 2645 
Q 1003 2547 900 2300 
Q 797 2053 797 1666 
Q 797 1041 1045 587 
Q 1294 134 1700 134 
Q 2003 134 2200 384 
Q 2397 634 2397 1244 
Q 2397 2006 2069 2444 
Q 1847 2744 1503 2744 
z
" transform="scale(0.015625)"/>
      <path id="TimesNewRomanPSMT-72" d="M 1038 2947 
L 1038 2303 
Q 1397 2947 1775 2947 
Q 1947 2947 2059 2842 
Q 2172 2738 2172 2600 
Q 2172 2478 2090 2393 
Q 2009 2309 1897 2309 
Q 1788 2309 1652 2417 
Q 1516 2525 1450 2525 
Q 1394 2525 1328 2463 
Q 1188 2334 1038 2041 
L 1038 669 
Q 1038 431 1097 309 
Q 1138 225 1241 169 
Q 1344 113 1538 113 
L 1538 0 
L 72 0 
L 72 113 
Q 291 113 397 181 
Q 475 231 506 341 
Q 522 394 522 644 
L 522 1753 
Q 522 2253 501 2348 
Q 481 2444 426 2487 
Q 372 2531 291 2531 
Q 194 2531 72 2484 
L 41 2597 
L 906 2947 
L 1038 2947 
z
" transform="scale(0.015625)"/>
      <path id="TimesNewRomanPSMT-20" transform="scale(0.015625)"/>
      <path id="TimesNewRomanPSMT-64" d="M 2222 322 
Q 2013 103 1813 7 
Q 1613 -88 1381 -88 
Q 913 -88 563 304 
Q 213 697 213 1313 
Q 213 1928 600 2439 
Q 988 2950 1597 2950 
Q 1975 2950 2222 2709 
L 2222 3238 
Q 2222 3728 2198 3840 
Q 2175 3953 2125 3993 
Q 2075 4034 2000 4034 
Q 1919 4034 1784 3984 
L 1744 4094 
L 2597 4444 
L 2738 4444 
L 2738 1134 
Q 2738 631 2761 520 
Q 2784 409 2836 365 
Q 2888 322 2956 322 
Q 3041 322 3181 375 
L 3216 266 
L 2366 -88 
L 2222 -88 
L 2222 322 
z
M 2222 541 
L 2222 2016 
Q 2203 2228 2109 2403 
Q 2016 2578 1861 2667 
Q 1706 2756 1559 2756 
Q 1284 2756 1069 2509 
Q 784 2184 784 1559 
Q 784 928 1059 592 
Q 1334 256 1672 256 
Q 1956 256 2222 541 
z
" transform="scale(0.015625)"/>
     </defs>
     <use xlink:href="#TimesNewRomanPSMT-6c"/>
     <use xlink:href="#TimesNewRomanPSMT-73" x="27.783203"/>
     <use xlink:href="#TimesNewRomanPSMT-74" x="66.699219"/>
     <use xlink:href="#TimesNewRomanPSMT-6d" x="94.482422"/>
     <use xlink:href="#TimesNewRomanPSMT-5f" x="172.265625"/>
     <use xlink:href="#TimesNewRomanPSMT-73" x="222.265625"/>
     <use xlink:href="#TimesNewRomanPSMT-68" x="261.181641"/>
     <use xlink:href="#TimesNewRomanPSMT-6f" x="311.181641"/>
     <use xlink:href="#TimesNewRomanPSMT-72" x="361.181641"/>
     <use xlink:href="#TimesNewRomanPSMT-74" x="394.482422"/>
     <use xlink:href="#TimesNewRomanPSMT-20" x="422.265625"/>
     <use xlink:href="#TimesNewRomanPSMT-6d" x="447.265625"/>
     <use xlink:href="#TimesNewRomanPSMT-6f" x="525.048828"/>
     <use xlink:href="#TimesNewRomanPSMT-64" x="575.048828"/>
     <use xlink:href="#TimesNewRomanPSMT-65" x="625.048828"/>
     <use xlink:href="#TimesNewRomanPSMT-6c" x="669.433594"/>
    </g>
   </g>
   <g id="legend_1">
    <g id="patch_7">
     <path d="M 42.882812 206.24 
L 112.276562 206.24 
Q 113.876562 206.24 113.876562 204.64 
L 113.876562 182.8175 
Q 113.876562 181.2175 112.276562 181.2175 
L 42.882812 181.2175 
Q 41.282812 181.2175 41.282812 182.8175 
L 41.282812 204.64 
Q 41.282812 206.24 42.882812 206.24 
z
" style="fill: #ffffff; opacity: 0.8; stroke: #cccccc; stroke-linejoin: miter"/>
    </g>
    <g id="line2d_15">
     <path d="M 44.482812 187.2175 
L 52.482812 187.2175 
L 60.482812 187.2175 
" style="fill: none; stroke: #21266e; stroke-width: 0.9; stroke-linecap: square"/>
    </g>
    <g id="text_15">
     <!-- Ground Truth -->
     <g transform="translate(66.882812 190.0175) scale(0.08 -0.08)">
      <defs>
       <path id="TimesNewRomanPSMT-47" d="M 3928 4334 
L 4038 2997 
L 3928 2997 
Q 3763 3497 3500 3750 
Q 3122 4116 2528 4116 
Q 1719 4116 1297 3475 
Q 944 2934 944 2188 
Q 944 1581 1178 1081 
Q 1413 581 1792 348 
Q 2172 116 2572 116 
Q 2806 116 3025 175 
Q 3244 234 3447 350 
L 3447 1575 
Q 3447 1894 3398 1992 
Q 3350 2091 3248 2142 
Q 3147 2194 2891 2194 
L 2891 2313 
L 4531 2313 
L 4531 2194 
L 4453 2194 
Q 4209 2194 4119 2031 
Q 4056 1916 4056 1575 
L 4056 278 
Q 3697 84 3347 -6 
Q 2997 -97 2569 -97 
Q 1341 -97 703 691 
Q 225 1281 225 2053 
Q 225 2613 494 3125 
Q 813 3734 1369 4063 
Q 1834 4334 2469 4334 
Q 2700 4334 2889 4296 
Q 3078 4259 3425 4131 
Q 3600 4066 3659 4066 
Q 3719 4066 3761 4120 
Q 3803 4175 3813 4334 
L 3928 4334 
z
" transform="scale(0.015625)"/>
       <path id="TimesNewRomanPSMT-6e" d="M 1034 2341 
Q 1538 2947 1994 2947 
Q 2228 2947 2397 2830 
Q 2566 2713 2666 2444 
Q 2734 2256 2734 1869 
L 2734 647 
Q 2734 375 2778 278 
Q 2813 200 2889 156 
Q 2966 113 3172 113 
L 3172 0 
L 1756 0 
L 1756 113 
L 1816 113 
Q 2016 113 2095 173 
Q 2175 234 2206 353 
Q 2219 400 2219 647 
L 2219 1819 
Q 2219 2209 2117 2386 
Q 2016 2563 1775 2563 
Q 1403 2563 1034 2156 
L 1034 647 
Q 1034 356 1069 288 
Q 1113 197 1189 155 
Q 1266 113 1500 113 
L 1500 0 
L 84 0 
L 84 113 
L 147 113 
Q 366 113 442 223 
Q 519 334 519 647 
L 519 1709 
Q 519 2225 495 2337 
Q 472 2450 423 2490 
Q 375 2531 294 2531 
Q 206 2531 84 2484 
L 38 2597 
L 900 2947 
L 1034 2947 
L 1034 2341 
z
" transform="scale(0.015625)"/>
       <path id="TimesNewRomanPSMT-54" d="M 3703 4238 
L 3750 3244 
L 3631 3244 
Q 3597 3506 3538 3619 
Q 3441 3800 3280 3886 
Q 3119 3972 2856 3972 
L 2259 3972 
L 2259 734 
Q 2259 344 2344 247 
Q 2463 116 2709 116 
L 2856 116 
L 2856 0 
L 1059 0 
L 1059 116 
L 1209 116 
Q 1478 116 1591 278 
Q 1659 378 1659 734 
L 1659 3972 
L 1150 3972 
Q 853 3972 728 3928 
Q 566 3869 450 3700 
Q 334 3531 313 3244 
L 194 3244 
L 244 4238 
L 3703 4238 
z
" transform="scale(0.015625)"/>
      </defs>
      <use xlink:href="#TimesNewRomanPSMT-47"/>
      <use xlink:href="#TimesNewRomanPSMT-72" x="72.216797"/>
      <use xlink:href="#TimesNewRomanPSMT-6f" x="105.517578"/>
      <use xlink:href="#TimesNewRomanPSMT-75" x="155.517578"/>
      <use xlink:href="#TimesNewRomanPSMT-6e" x="205.517578"/>
      <use xlink:href="#TimesNewRomanPSMT-64" x="255.517578"/>
      <use xlink:href="#TimesNewRomanPSMT-20" x="305.517578"/>
      <use xlink:href="#TimesNewRomanPSMT-54" x="328.767578"/>
      <use xlink:href="#TimesNewRomanPSMT-72" x="386.351562"/>
      <use xlink:href="#TimesNewRomanPSMT-75" x="419.652344"/>
      <use xlink:href="#TimesNewRomanPSMT-74" x="469.652344"/>
      <use xlink:href="#TimesNewRomanPSMT-68" x="497.435547"/>
     </g>
    </g>
    <g id="line2d_16">
     <path d="M 44.482812 198.52875 
L 52.482812 198.52875 
L 60.482812 198.52875 
" style="fill: none; stroke: #d70005; stroke-width: 0.9; stroke-linecap: square"/>
    </g>
    <g id="text_16">
     <!-- prediction -->
     <g transform="translate(66.882812 201.32875) scale(0.08 -0.08)">
      <defs>
       <path id="TimesNewRomanPSMT-70" d="M -6 2578 
L 875 2934 
L 994 2934 
L 994 2266 
Q 1216 2644 1439 2795 
Q 1663 2947 1909 2947 
Q 2341 2947 2628 2609 
Q 2981 2197 2981 1534 
Q 2981 794 2556 309 
Q 2206 -88 1675 -88 
Q 1444 -88 1275 -22 
Q 1150 25 994 166 
L 994 -706 
Q 994 -1000 1030 -1079 
Q 1066 -1159 1155 -1206 
Q 1244 -1253 1478 -1253 
L 1478 -1369 
L -22 -1369 
L -22 -1253 
L 56 -1253 
Q 228 -1256 350 -1188 
Q 409 -1153 442 -1076 
Q 475 -1000 475 -688 
L 475 2019 
Q 475 2297 450 2372 
Q 425 2447 370 2484 
Q 316 2522 222 2522 
Q 147 2522 31 2478 
L -6 2578 
z
M 994 2081 
L 994 1013 
Q 994 666 1022 556 
Q 1066 375 1236 237 
Q 1406 100 1666 100 
Q 1978 100 2172 344 
Q 2425 663 2425 1241 
Q 2425 1897 2138 2250 
Q 1938 2494 1663 2494 
Q 1513 2494 1366 2419 
Q 1253 2363 994 2081 
z
" transform="scale(0.015625)"/>
       <path id="TimesNewRomanPSMT-63" d="M 2631 1088 
Q 2516 522 2178 217 
Q 1841 -88 1431 -88 
Q 944 -88 581 321 
Q 219 731 219 1428 
Q 219 2103 620 2525 
Q 1022 2947 1584 2947 
Q 2006 2947 2278 2723 
Q 2550 2500 2550 2259 
Q 2550 2141 2473 2067 
Q 2397 1994 2259 1994 
Q 2075 1994 1981 2113 
Q 1928 2178 1911 2362 
Q 1894 2547 1784 2644 
Q 1675 2738 1481 2738 
Q 1169 2738 978 2506 
Q 725 2200 725 1697 
Q 725 1184 976 792 
Q 1228 400 1656 400 
Q 1963 400 2206 609 
Q 2378 753 2541 1131 
L 2631 1088 
z
" transform="scale(0.015625)"/>
      </defs>
      <use xlink:href="#TimesNewRomanPSMT-70"/>
      <use xlink:href="#TimesNewRomanPSMT-72" x="50"/>
      <use xlink:href="#TimesNewRomanPSMT-65" x="83.300781"/>
      <use xlink:href="#TimesNewRomanPSMT-64" x="127.685547"/>
      <use xlink:href="#TimesNewRomanPSMT-69" x="177.685547"/>
      <use xlink:href="#TimesNewRomanPSMT-63" x="205.46875"/>
      <use xlink:href="#TimesNewRomanPSMT-74" x="249.853516"/>
      <use xlink:href="#TimesNewRomanPSMT-69" x="277.636719"/>
      <use xlink:href="#TimesNewRomanPSMT-6f" x="305.419922"/>
      <use xlink:href="#TimesNewRomanPSMT-6e" x="355.419922"/>
     </g>
    </g>
   </g>
  </g>
  <g id="axes_2">
   <g id="patch_8">
    <path d="M 273.612224 210.24 
L 470.553401 210.24 
L 470.553401 43.92 
L 273.612224 43.92 
z
" style="fill: #ffffff"/>
   </g>
   <g id="matplotlib.axis_3">
    <g id="xtick_6">
     <g id="line2d_17">
      <g>
       <use xlink:href="#m6299d21e68" x="282.564096" y="210.24" style="stroke: #000000; stroke-width: 0.8"/>
      </g>
     </g>
     <g id="text_17">
      <!-- 0 -->
      <g transform="translate(280.064096 224.18375) scale(0.1 -0.1)">
       <use xlink:href="#TimesNewRomanPSMT-30"/>
      </g>
     </g>
    </g>
    <g id="xtick_7">
     <g id="line2d_18">
      <g>
       <use xlink:href="#m6299d21e68" x="329.432534" y="210.24" style="stroke: #000000; stroke-width: 0.8"/>
      </g>
     </g>
     <g id="text_18">
      <!-- 50 -->
      <g transform="translate(324.432534 224.18375) scale(0.1 -0.1)">
       <use xlink:href="#TimesNewRomanPSMT-35"/>
       <use xlink:href="#TimesNewRomanPSMT-30" x="50"/>
      </g>
     </g>
    </g>
    <g id="xtick_8">
     <g id="line2d_19">
      <g>
       <use xlink:href="#m6299d21e68" x="376.300972" y="210.24" style="stroke: #000000; stroke-width: 0.8"/>
      </g>
     </g>
     <g id="text_19">
      <!-- 100 -->
      <g transform="translate(368.800972 224.18375) scale(0.1 -0.1)">
       <use xlink:href="#TimesNewRomanPSMT-31"/>
       <use xlink:href="#TimesNewRomanPSMT-30" x="50"/>
       <use xlink:href="#TimesNewRomanPSMT-30" x="100"/>
      </g>
     </g>
    </g>
    <g id="xtick_9">
     <g id="line2d_20">
      <g>
       <use xlink:href="#m6299d21e68" x="423.16941" y="210.24" style="stroke: #000000; stroke-width: 0.8"/>
      </g>
     </g>
     <g id="text_20">
      <!-- 150 -->
      <g transform="translate(415.66941 224.18375) scale(0.1 -0.1)">
       <use xlink:href="#TimesNewRomanPSMT-31"/>
       <use xlink:href="#TimesNewRomanPSMT-35" x="50"/>
       <use xlink:href="#TimesNewRomanPSMT-30" x="100"/>
      </g>
     </g>
    </g>
    <g id="xtick_10">
     <g id="line2d_21">
      <g>
       <use xlink:href="#m6299d21e68" x="470.037848" y="210.24" style="stroke: #000000; stroke-width: 0.8"/>
      </g>
     </g>
     <g id="text_21">
      <!-- 200 -->
      <g transform="translate(462.537848 224.18375) scale(0.1 -0.1)">
       <use xlink:href="#TimesNewRomanPSMT-32"/>
       <use xlink:href="#TimesNewRomanPSMT-30" x="50"/>
       <use xlink:href="#TimesNewRomanPSMT-30" x="100"/>
      </g>
     </g>
    </g>
    <g id="text_22">
     <!-- times -->
     <g transform="translate(361.25 237.266563) scale(0.1 -0.1)">
      <use xlink:href="#TimesNewRomanPSMT-74"/>
      <use xlink:href="#TimesNewRomanPSMT-69" x="27.783203"/>
      <use xlink:href="#TimesNewRomanPSMT-6d" x="55.566406"/>
      <use xlink:href="#TimesNewRomanPSMT-65" x="133.349609"/>
      <use xlink:href="#TimesNewRomanPSMT-73" x="177.734375"/>
     </g>
    </g>
   </g>
   <g id="matplotlib.axis_4">
    <g id="ytick_7">
     <g id="line2d_22">
      <g>
       <use xlink:href="#ma0e8d0978f" x="273.612224" y="202.680002" style="stroke: #000000; stroke-width: 0.8"/>
      </g>
     </g>
     <g id="text_23">
      <!-- 0 -->
      <g transform="translate(261.612224 206.151877) scale(0.1 -0.1)">
       <use xlink:href="#TimesNewRomanPSMT-30"/>
      </g>
     </g>
    </g>
    <g id="ytick_8">
     <g id="line2d_23">
      <g>
       <use xlink:href="#ma0e8d0978f" x="273.612224" y="168.570211" style="stroke: #000000; stroke-width: 0.8"/>
      </g>
     </g>
     <g id="text_24">
      <!-- 2 -->
      <g transform="translate(261.612224 172.042086) scale(0.1 -0.1)">
       <use xlink:href="#TimesNewRomanPSMT-32"/>
      </g>
     </g>
    </g>
    <g id="ytick_9">
     <g id="line2d_24">
      <g>
       <use xlink:href="#ma0e8d0978f" x="273.612224" y="134.460421" style="stroke: #000000; stroke-width: 0.8"/>
      </g>
     </g>
     <g id="text_25">
      <!-- 4 -->
      <g transform="translate(261.612224 137.932296) scale(0.1 -0.1)">
       <use xlink:href="#TimesNewRomanPSMT-34"/>
      </g>
     </g>
    </g>
    <g id="ytick_10">
     <g id="line2d_25">
      <g>
       <use xlink:href="#ma0e8d0978f" x="273.612224" y="100.350631" style="stroke: #000000; stroke-width: 0.8"/>
      </g>
     </g>
     <g id="text_26">
      <!-- 6 -->
      <g transform="translate(261.612224 103.822506) scale(0.1 -0.1)">
       <use xlink:href="#TimesNewRomanPSMT-36"/>
      </g>
     </g>
    </g>
    <g id="ytick_11">
     <g id="line2d_26">
      <g>
       <use xlink:href="#ma0e8d0978f" x="273.612224" y="66.240841" style="stroke: #000000; stroke-width: 0.8"/>
      </g>
     </g>
     <g id="text_27">
      <!-- 8 -->
      <g transform="translate(261.612224 69.712716) scale(0.1 -0.1)">
       <use xlink:href="#TimesNewRomanPSMT-38"/>
      </g>
     </g>
    </g>
    <g id="text_28">
     <!-- values -->
     <g transform="translate(255.473162 139.854219) rotate(-90) scale(0.1 -0.1)">
      <use xlink:href="#TimesNewRomanPSMT-76"/>
      <use xlink:href="#TimesNewRomanPSMT-61" x="50"/>
      <use xlink:href="#TimesNewRomanPSMT-6c" x="94.384766"/>
      <use xlink:href="#TimesNewRomanPSMT-75" x="122.167969"/>
      <use xlink:href="#TimesNewRomanPSMT-65" x="172.167969"/>
      <use xlink:href="#TimesNewRomanPSMT-73" x="216.552734"/>
     </g>
    </g>
   </g>
   <g id="line2d_27">
    <path d="M 282.564096 137.888457 
L 283.501465 137.888457 
L 284.438833 131.902188 
L 285.376202 129.497451 
L 286.313571 129.497451 
L 287.25094 133.096028 
L 288.188308 146.29652 
L 289.125677 137.888457 
L 290.063046 143.891783 
L 291.000415 141.487034 
L 291.937784 146.29652 
L 292.875152 141.487034 
L 293.812521 133.096028 
L 294.74989 118.701696 
L 295.687259 105.501205 
L 296.624627 117.4908 
L 297.561996 117.4908 
L 298.499365 104.307365 
L 299.436734 97.093142 
L 300.374102 94.705462 
L 301.311471 99.497879 
L 302.24884 89.895976 
L 303.186209 99.497879 
L 304.123577 105.501205 
L 305.060946 98.304051 
L 305.998315 99.497879 
L 306.935684 92.300713 
L 307.873052 93.494565 
L 308.810421 92.300713 
L 309.74779 107.905941 
L 310.685159 93.494565 
L 311.622527 95.899302 
L 312.559896 107.905941 
L 313.497265 106.695057 
L 314.434634 118.701696 
L 315.372003 101.902628 
L 316.309371 92.300713 
L 317.24674 87.508296 
L 318.184109 83.909707 
L 319.121478 87.508296 
L 320.058846 71.903068 
L 320.996215 76.712541 
L 321.933584 75.501657 
L 322.870953 75.501657 
L 323.808321 75.501657 
L 324.74569 93.494565 
L 325.683059 81.50497 
L 326.620428 77.906394 
L 327.557796 77.906394 
L 328.495165 80.31113 
L 329.432534 88.702136 
L 330.369903 76.712541 
L 331.307271 101.902628 
L 332.24464 137.888457 
L 333.182009 139.099354 
L 334.119378 147.49036 
L 335.056746 141.487034 
L 335.994115 143.891783 
L 336.931484 147.49036 
L 337.868853 153.493685 
L 338.806222 153.493685 
L 339.74359 153.493685 
L 340.680959 154.687525 
L 341.618328 154.687525 
L 342.555697 149.895096 
L 343.493065 149.895096 
L 344.430434 148.684199 
L 345.367803 140.293194 
L 346.305172 147.49036 
L 347.24254 158.286115 
L 348.179909 159.497011 
L 349.117278 151.088936 
L 350.054647 147.49036 
L 350.992015 143.891783 
L 351.929384 146.29652 
L 352.866753 151.088936 
L 353.804122 143.891783 
L 354.74149 146.29652 
L 355.678859 140.293194 
L 356.616228 143.891783 
L 357.553597 146.29652 
L 358.490965 137.888457 
L 359.428334 131.902188 
L 360.365703 149.895096 
L 361.303072 142.69793 
L 362.240441 145.085623 
L 363.177809 127.092702 
L 364.115178 115.103107 
L 365.052547 110.293634 
L 365.989916 105.501205 
L 366.927284 105.501205 
L 367.864653 107.905941 
L 368.802022 113.892223 
L 369.739391 110.293634 
L 370.676759 115.103107 
L 371.614128 118.701696 
L 372.551497 117.4908 
" clip-path="url(#p0d636ff96c)" style="fill: none; stroke: #21266e; stroke-width: 0.9; stroke-linecap: square"/>
   </g>
   <g id="line2d_28">
    <path d="M 372.551497 117.4908 
L 373.488866 118.701696 
L 374.426234 115.103107 
L 375.363603 124.687965 
L 376.300972 134.289868 
L 377.238341 131.902188 
L 378.175709 117.4908 
L 379.113078 128.286555 
L 380.050447 130.691291 
L 380.987816 145.085623 
L 381.925184 167.888017 
L 382.862553 164.289428 
L 383.799922 171.4866 
L 384.737291 165.48328 
L 385.67466 152.282789 
L 386.612028 153.493685 
L 387.549397 145.085623 
L 388.486766 129.497451 
L 389.424135 130.691291 
L 390.361503 131.902188 
L 391.298872 147.49036 
L 392.236241 155.881365 
L 393.17361 158.286115 
L 394.110978 158.286115 
L 395.048347 159.497011 
L 395.985716 160.690851 
L 396.923085 161.884691 
L 397.860453 166.694177 
L 398.797822 165.48328 
L 399.735191 164.289428 
L 400.67256 159.497011 
L 401.609928 149.895096 
L 402.547297 137.888457 
L 403.484666 164.289428 
L 404.422035 131.902188 
L 405.359403 129.497451 
L 406.296772 119.895536 
L 407.234141 116.29696 
L 408.17151 117.4908 
L 409.108879 123.494125 
L 410.046247 125.898862 
L 410.983616 155.881365 
L 411.920985 161.884691 
L 412.858354 151.088936 
L 413.795722 176.279023 
L 414.733091 167.888017 
L 415.67046 157.092262 
L 416.607829 158.286115 
L 417.545197 164.289428 
L 418.482566 167.888017 
L 419.419935 179.877606 
L 420.357304 167.888017 
L 421.294672 163.095588 
L 422.232041 152.282789 
L 423.16941 139.099354 
L 424.106779 147.49036 
L 425.044147 152.282789 
L 425.981516 149.895096 
L 426.918885 161.884691 
L 427.856254 161.884691 
L 428.793622 176.279023 
L 429.730991 193.078098 
L 430.66836 189.479515 
L 431.605729 161.884691 
L 432.543098 166.694177 
L 433.480466 152.282789 
L 434.417835 152.282789 
L 435.355204 153.493685 
L 436.292573 151.088936 
L 437.229941 151.088936 
L 438.16731 142.69793 
L 439.104679 146.29652 
L 440.042048 140.293194 
L 440.979416 143.891783 
L 441.916785 139.099354 
L 442.854154 137.888457 
L 443.791523 133.096028 
L 444.728891 143.891783 
L 445.66626 140.293194 
L 446.603629 147.49036 
L 447.540998 142.69793 
L 448.478366 154.687525 
L 449.415735 160.690851 
L 450.353104 157.092262 
L 451.290473 157.092262 
L 452.227841 169.081857 
L 453.16521 190.690411 
L 454.102579 202.68 
L 455.039948 202.68 
L 455.977317 202.68 
L 456.914685 191.884251 
L 457.852054 202.68 
L 458.789423 202.68 
L 459.726792 202.68 
L 460.66416 202.68 
L 461.601529 202.68 
" clip-path="url(#p0d636ff96c)" style="fill: none; stroke: #21266e; stroke-width: 0.9; stroke-linecap: square"/>
   </g>
   <g id="line2d_29">
    <path d="M 372.551497 81.551595 
L 373.488866 78.678505 
L 374.426234 80.812092 
L 375.363603 82.979305 
L 376.300972 84.471927 
L 377.238341 87.006063 
L 378.175709 88.997887 
L 379.113078 82.263376 
L 380.050447 78.212422 
L 380.987816 73.646423 
L 381.925184 68.970044 
L 382.862553 62.530549 
L 383.799922 57.813642 
L 384.737291 51.48 
L 385.67466 51.75368 
L 386.612028 55.506567 
L 387.549397 60.809744 
L 388.486766 67.915376 
L 389.424135 74.192908 
L 390.361503 79.489193 
L 391.298872 83.705284 
L 392.236241 88.247045 
L 393.17361 91.89681 
L 394.110978 91.808748 
L 395.048347 93.342154 
L 395.985716 95.054856 
L 396.923085 95.777156 
L 397.860453 96.468886 
L 398.797822 94.399401 
L 399.735191 94.374807 
L 400.67256 92.83078 
L 401.609928 89.753112 
L 402.547297 86.674712 
L 403.484666 83.458883 
L 404.422035 80.145395 
L 405.359403 77.512244 
L 406.296772 76.108623 
L 407.234141 77.210669 
L 408.17151 79.021807 
L 409.108879 84.187963 
L 410.046247 87.730401 
L 410.983616 93.118254 
L 411.920985 96.160056 
L 412.858354 100.252583 
L 413.795722 103.01522 
L 414.733091 107.182984 
L 415.67046 111.126409 
L 416.607829 115.285825 
L 417.545197 118.40408 
L 418.482566 118.98851 
L 419.419935 122.814759 
L 420.357304 125.218826 
L 421.294672 124.697116 
L 422.232041 124.137503 
L 423.16941 123.640636 
L 424.106779 119.908649 
L 425.044147 115.8873 
L 425.981516 109.000789 
L 426.918885 104.993434 
L 427.856254 103.341565 
L 428.793622 101.743518 
L 429.730991 102.309863 
L 430.66836 102.647977 
L 431.605729 104.126227 
L 432.543098 106.723471 
L 433.480466 109.502237 
L 434.417835 111.950655 
L 435.355204 114.403358 
L 436.292573 117.68298 
L 437.229941 119.534335 
L 438.16731 123.248823 
L 439.104679 125.514554 
L 440.042048 127.253432 
L 440.979416 127.957895 
L 441.916785 127.239355 
L 442.854154 125.843112 
L 443.791523 122.476748 
L 444.728891 121.513442 
L 445.66626 118.809809 
L 446.603629 113.729369 
L 447.540998 109.179531 
L 448.478366 104.495663 
L 449.415735 101.504303 
L 450.353104 94.454754 
L 451.290473 93.506485 
L 452.227841 91.715772 
L 453.16521 95.978114 
L 454.102579 96.559164 
L 455.039948 98.698302 
L 455.977317 102.041326 
L 456.914685 108.365613 
L 457.852054 111.609574 
L 458.789423 114.944839 
L 459.726792 118.003624 
L 460.66416 122.598111 
L 461.601529 126.801034 
" clip-path="url(#p0d636ff96c)" style="fill: none; stroke: #d70005; stroke-width: 0.9; stroke-linecap: square"/>
   </g>
   <g id="patch_9">
    <path d="M 273.612224 210.24 
L 273.612224 43.92 
" style="fill: none; stroke: #000000; stroke-width: 0.8; stroke-linejoin: miter; stroke-linecap: square"/>
   </g>
   <g id="patch_10">
    <path d="M 470.553401 210.24 
L 470.553401 43.92 
" style="fill: none; stroke: #000000; stroke-width: 0.8; stroke-linejoin: miter; stroke-linecap: square"/>
   </g>
   <g id="patch_11">
    <path d="M 273.612224 210.24 
L 470.553401 210.24 
" style="fill: none; stroke: #000000; stroke-width: 0.8; stroke-linejoin: miter; stroke-linecap: square"/>
   </g>
   <g id="patch_12">
    <path d="M 273.612224 43.92 
L 470.553401 43.92 
" style="fill: none; stroke: #000000; stroke-width: 0.8; stroke-linejoin: miter; stroke-linecap: square"/>
   </g>
   <g id="text_29">
    <!-- transformer_short model -->
    <g transform="translate(312.598437 37.92) scale(0.12 -0.12)">
     <defs>
      <path id="TimesNewRomanPSMT-66" d="M 1319 2638 
L 1319 756 
Q 1319 356 1406 250 
Q 1522 113 1716 113 
L 1975 113 
L 1975 0 
L 266 0 
L 266 113 
L 394 113 
Q 519 113 622 175 
Q 725 238 764 344 
Q 803 450 803 756 
L 803 2638 
L 247 2638 
L 247 2863 
L 803 2863 
L 803 3050 
Q 803 3478 940 3775 
Q 1078 4072 1361 4255 
Q 1644 4438 1997 4438 
Q 2325 4438 2600 4225 
Q 2781 4084 2781 3909 
Q 2781 3816 2700 3733 
Q 2619 3650 2525 3650 
Q 2453 3650 2373 3701 
Q 2294 3753 2178 3923 
Q 2063 4094 1966 4153 
Q 1869 4213 1750 4213 
Q 1606 4213 1506 4136 
Q 1406 4059 1362 3898 
Q 1319 3738 1319 3069 
L 1319 2863 
L 2056 2863 
L 2056 2638 
L 1319 2638 
z
" transform="scale(0.015625)"/>
     </defs>
     <use xlink:href="#TimesNewRomanPSMT-74"/>
     <use xlink:href="#TimesNewRomanPSMT-72" x="27.783203"/>
     <use xlink:href="#TimesNewRomanPSMT-61" x="61.083984"/>
     <use xlink:href="#TimesNewRomanPSMT-6e" x="105.46875"/>
     <use xlink:href="#TimesNewRomanPSMT-73" x="155.46875"/>
     <use xlink:href="#TimesNewRomanPSMT-66" x="194.384766"/>
     <use xlink:href="#TimesNewRomanPSMT-6f" x="227.685547"/>
     <use xlink:href="#TimesNewRomanPSMT-72" x="277.685547"/>
     <use xlink:href="#TimesNewRomanPSMT-6d" x="310.986328"/>
     <use xlink:href="#TimesNewRomanPSMT-65" x="388.769531"/>
     <use xlink:href="#TimesNewRomanPSMT-72" x="433.154297"/>
     <use xlink:href="#TimesNewRomanPSMT-5f" x="466.455078"/>
     <use xlink:href="#TimesNewRomanPSMT-73" x="516.455078"/>
     <use xlink:href="#TimesNewRomanPSMT-68" x="555.371094"/>
     <use xlink:href="#TimesNewRomanPSMT-6f" x="605.371094"/>
     <use xlink:href="#TimesNewRomanPSMT-72" x="655.371094"/>
     <use xlink:href="#TimesNewRomanPSMT-74" x="688.671875"/>
     <use xlink:href="#TimesNewRomanPSMT-20" x="716.455078"/>
     <use xlink:href="#TimesNewRomanPSMT-6d" x="741.455078"/>
     <use xlink:href="#TimesNewRomanPSMT-6f" x="819.238281"/>
     <use xlink:href="#TimesNewRomanPSMT-64" x="869.238281"/>
     <use xlink:href="#TimesNewRomanPSMT-65" x="919.238281"/>
     <use xlink:href="#TimesNewRomanPSMT-6c" x="963.623047"/>
    </g>
   </g>
   <g id="legend_2">
    <g id="patch_13">
     <path d="M 279.212224 206.24 
L 348.605974 206.24 
Q 350.205974 206.24 350.205974 204.64 
L 350.205974 182.8175 
Q 350.205974 181.2175 348.605974 181.2175 
L 279.212224 181.2175 
Q 277.612224 181.2175 277.612224 182.8175 
L 277.612224 204.64 
Q 277.612224 206.24 279.212224 206.24 
z
" style="fill: #ffffff; opacity: 0.8; stroke: #cccccc; stroke-linejoin: miter"/>
    </g>
    <g id="line2d_30">
     <path d="M 280.812224 187.2175 
L 288.812224 187.2175 
L 296.812224 187.2175 
" style="fill: none; stroke: #21266e; stroke-width: 0.9; stroke-linecap: square"/>
    </g>
    <g id="text_30">
     <!-- Ground Truth -->
     <g transform="translate(303.212224 190.0175) scale(0.08 -0.08)">
      <use xlink:href="#TimesNewRomanPSMT-47"/>
      <use xlink:href="#TimesNewRomanPSMT-72" x="72.216797"/>
      <use xlink:href="#TimesNewRomanPSMT-6f" x="105.517578"/>
      <use xlink:href="#TimesNewRomanPSMT-75" x="155.517578"/>
      <use xlink:href="#TimesNewRomanPSMT-6e" x="205.517578"/>
      <use xlink:href="#TimesNewRomanPSMT-64" x="255.517578"/>
      <use xlink:href="#TimesNewRomanPSMT-20" x="305.517578"/>
      <use xlink:href="#TimesNewRomanPSMT-54" x="328.767578"/>
      <use xlink:href="#TimesNewRomanPSMT-72" x="386.351562"/>
      <use xlink:href="#TimesNewRomanPSMT-75" x="419.652344"/>
      <use xlink:href="#TimesNewRomanPSMT-74" x="469.652344"/>
      <use xlink:href="#TimesNewRomanPSMT-68" x="497.435547"/>
     </g>
    </g>
    <g id="line2d_31">
     <path d="M 280.812224 198.52875 
L 288.812224 198.52875 
L 296.812224 198.52875 
" style="fill: none; stroke: #d70005; stroke-width: 0.9; stroke-linecap: square"/>
    </g>
    <g id="text_31">
     <!-- prediction -->
     <g transform="translate(303.212224 201.32875) scale(0.08 -0.08)">
      <use xlink:href="#TimesNewRomanPSMT-70"/>
      <use xlink:href="#TimesNewRomanPSMT-72" x="50"/>
      <use xlink:href="#TimesNewRomanPSMT-65" x="83.300781"/>
      <use xlink:href="#TimesNewRomanPSMT-64" x="127.685547"/>
      <use xlink:href="#TimesNewRomanPSMT-69" x="177.685547"/>
      <use xlink:href="#TimesNewRomanPSMT-63" x="205.46875"/>
      <use xlink:href="#TimesNewRomanPSMT-74" x="249.853516"/>
      <use xlink:href="#TimesNewRomanPSMT-69" x="277.636719"/>
      <use xlink:href="#TimesNewRomanPSMT-6f" x="305.419922"/>
      <use xlink:href="#TimesNewRomanPSMT-6e" x="355.419922"/>
     </g>
    </g>
   </g>
  </g>
  <g id="axes_3">
   <g id="patch_14">
    <path d="M 509.941636 210.24 
L 706.882812 210.24 
L 706.882812 43.92 
L 509.941636 43.92 
z
" style="fill: #ffffff"/>
   </g>
   <g id="matplotlib.axis_5">
    <g id="xtick_11">
     <g id="line2d_32">
      <g>
       <use xlink:href="#m6299d21e68" x="518.893508" y="210.24" style="stroke: #000000; stroke-width: 0.8"/>
      </g>
     </g>
     <g id="text_32">
      <!-- 0 -->
      <g transform="translate(516.393508 224.18375) scale(0.1 -0.1)">
       <use xlink:href="#TimesNewRomanPSMT-30"/>
      </g>
     </g>
    </g>
    <g id="xtick_12">
     <g id="line2d_33">
      <g>
       <use xlink:href="#m6299d21e68" x="565.761946" y="210.24" style="stroke: #000000; stroke-width: 0.8"/>
      </g>
     </g>
     <g id="text_33">
      <!-- 50 -->
      <g transform="translate(560.761946 224.18375) scale(0.1 -0.1)">
       <use xlink:href="#TimesNewRomanPSMT-35"/>
       <use xlink:href="#TimesNewRomanPSMT-30" x="50"/>
      </g>
     </g>
    </g>
    <g id="xtick_13">
     <g id="line2d_34">
      <g>
       <use xlink:href="#m6299d21e68" x="612.630384" y="210.24" style="stroke: #000000; stroke-width: 0.8"/>
      </g>
     </g>
     <g id="text_34">
      <!-- 100 -->
      <g transform="translate(605.130384 224.18375) scale(0.1 -0.1)">
       <use xlink:href="#TimesNewRomanPSMT-31"/>
       <use xlink:href="#TimesNewRomanPSMT-30" x="50"/>
       <use xlink:href="#TimesNewRomanPSMT-30" x="100"/>
      </g>
     </g>
    </g>
    <g id="xtick_14">
     <g id="line2d_35">
      <g>
       <use xlink:href="#m6299d21e68" x="659.498822" y="210.24" style="stroke: #000000; stroke-width: 0.8"/>
      </g>
     </g>
     <g id="text_35">
      <!-- 150 -->
      <g transform="translate(651.998822 224.18375) scale(0.1 -0.1)">
       <use xlink:href="#TimesNewRomanPSMT-31"/>
       <use xlink:href="#TimesNewRomanPSMT-35" x="50"/>
       <use xlink:href="#TimesNewRomanPSMT-30" x="100"/>
      </g>
     </g>
    </g>
    <g id="xtick_15">
     <g id="line2d_36">
      <g>
       <use xlink:href="#m6299d21e68" x="706.36726" y="210.24" style="stroke: #000000; stroke-width: 0.8"/>
      </g>
     </g>
     <g id="text_36">
      <!-- 200 -->
      <g transform="translate(698.86726 224.18375) scale(0.1 -0.1)">
       <use xlink:href="#TimesNewRomanPSMT-32"/>
       <use xlink:href="#TimesNewRomanPSMT-30" x="50"/>
       <use xlink:href="#TimesNewRomanPSMT-30" x="100"/>
      </g>
     </g>
    </g>
    <g id="text_37">
     <!-- times -->
     <g transform="translate(597.579412 237.266563) scale(0.1 -0.1)">
      <use xlink:href="#TimesNewRomanPSMT-74"/>
      <use xlink:href="#TimesNewRomanPSMT-69" x="27.783203"/>
      <use xlink:href="#TimesNewRomanPSMT-6d" x="55.566406"/>
      <use xlink:href="#TimesNewRomanPSMT-65" x="133.349609"/>
      <use xlink:href="#TimesNewRomanPSMT-73" x="177.734375"/>
     </g>
    </g>
   </g>
   <g id="matplotlib.axis_6">
    <g id="ytick_12">
     <g id="line2d_37">
      <g>
       <use xlink:href="#ma0e8d0978f" x="509.941636" y="202.680002" style="stroke: #000000; stroke-width: 0.8"/>
      </g>
     </g>
     <g id="text_38">
      <!-- 0 -->
      <g transform="translate(497.941636 206.151877) scale(0.1 -0.1)">
       <use xlink:href="#TimesNewRomanPSMT-30"/>
      </g>
     </g>
    </g>
    <g id="ytick_13">
     <g id="line2d_38">
      <g>
       <use xlink:href="#ma0e8d0978f" x="509.941636" y="163.243381" style="stroke: #000000; stroke-width: 0.8"/>
      </g>
     </g>
     <g id="text_39">
      <!-- 2 -->
      <g transform="translate(497.941636 166.715256) scale(0.1 -0.1)">
       <use xlink:href="#TimesNewRomanPSMT-32"/>
      </g>
     </g>
    </g>
    <g id="ytick_14">
     <g id="line2d_39">
      <g>
       <use xlink:href="#ma0e8d0978f" x="509.941636" y="123.80676" style="stroke: #000000; stroke-width: 0.8"/>
      </g>
     </g>
     <g id="text_40">
      <!-- 4 -->
      <g transform="translate(497.941636 127.278635) scale(0.1 -0.1)">
       <use xlink:href="#TimesNewRomanPSMT-34"/>
      </g>
     </g>
    </g>
    <g id="ytick_15">
     <g id="line2d_40">
      <g>
       <use xlink:href="#ma0e8d0978f" x="509.941636" y="84.37014" style="stroke: #000000; stroke-width: 0.8"/>
      </g>
     </g>
     <g id="text_41">
      <!-- 6 -->
      <g transform="translate(497.941636 87.842015) scale(0.1 -0.1)">
       <use xlink:href="#TimesNewRomanPSMT-36"/>
      </g>
     </g>
    </g>
    <g id="ytick_16">
     <g id="line2d_41">
      <g>
       <use xlink:href="#ma0e8d0978f" x="509.941636" y="44.933519" style="stroke: #000000; stroke-width: 0.8"/>
      </g>
     </g>
     <g id="text_42">
      <!-- 8 -->
      <g transform="translate(497.941636 48.405394) scale(0.1 -0.1)">
       <use xlink:href="#TimesNewRomanPSMT-38"/>
      </g>
     </g>
    </g>
    <g id="text_43">
     <!-- values -->
     <g transform="translate(491.802574 139.854219) rotate(-90) scale(0.1 -0.1)">
      <use xlink:href="#TimesNewRomanPSMT-76"/>
      <use xlink:href="#TimesNewRomanPSMT-61" x="50"/>
      <use xlink:href="#TimesNewRomanPSMT-6c" x="94.384766"/>
      <use xlink:href="#TimesNewRomanPSMT-75" x="122.167969"/>
      <use xlink:href="#TimesNewRomanPSMT-65" x="172.167969"/>
      <use xlink:href="#TimesNewRomanPSMT-73" x="216.552734"/>
     </g>
    </g>
   </g>
   <g id="line2d_42">
    <path d="M 518.893508 127.770143 
L 519.830876 127.770143 
L 520.768245 120.849015 
L 521.705614 118.068737 
L 522.642983 118.068737 
L 523.580351 122.229294 
L 524.51772 137.491269 
L 525.455089 127.770143 
L 526.392458 134.710992 
L 527.329827 131.930699 
L 528.267195 137.491269 
L 529.204564 131.930699 
L 530.141933 122.229294 
L 531.079302 105.587039 
L 532.01667 90.325064 
L 532.954039 104.18704 
L 533.891408 104.18704 
L 534.828777 88.944785 
L 535.766145 80.603937 
L 536.703514 77.84338 
L 537.640883 83.384215 
L 538.578252 72.28281 
L 539.51562 83.384215 
L 540.452989 90.325064 
L 541.390358 82.003951 
L 542.327727 83.384215 
L 543.265095 75.063088 
L 544.202464 76.443381 
L 545.139833 75.063088 
L 546.077202 93.105341 
L 547.01457 76.443381 
L 547.951939 79.223659 
L 548.889308 93.105341 
L 549.826677 91.705357 
L 550.764046 105.587039 
L 551.701414 86.164507 
L 552.638783 75.063088 
L 553.576152 69.522253 
L 554.513521 65.361682 
L 555.450889 69.522253 
L 556.388258 51.48 
L 557.325627 57.040555 
L 558.262996 55.640571 
L 559.200364 55.640571 
L 560.137733 55.640571 
L 561.075102 76.443381 
L 562.012471 62.581405 
L 562.949839 58.420849 
L 563.887208 58.420849 
L 564.824577 61.201126 
L 565.761946 70.902532 
L 566.699314 57.040555 
L 567.636683 86.164507 
L 568.574052 127.770143 
L 569.511421 129.170142 
L 570.448789 138.871548 
L 571.386158 131.930699 
L 572.323527 134.710992 
L 573.260896 138.871548 
L 574.198265 145.812396 
L 575.135633 145.812396 
L 576.073002 145.812396 
L 577.010371 147.192675 
L 577.94774 147.192675 
L 578.885108 141.651825 
L 579.822477 141.651825 
L 580.759846 140.251826 
L 581.697215 130.550421 
L 582.634583 138.871548 
L 583.571952 151.353246 
L 584.509321 152.753245 
L 585.44669 143.032104 
L 586.384058 138.871548 
L 587.321427 134.710992 
L 588.258796 137.491269 
L 589.196165 143.032104 
L 590.133533 134.710992 
L 591.070902 137.491269 
L 592.008271 130.550421 
L 592.94564 134.710992 
L 593.883008 137.491269 
L 594.820377 127.770143 
L 595.757746 120.849015 
L 596.695115 141.651825 
L 597.632484 133.330698 
L 598.569852 136.09127 
L 599.507221 115.288445 
L 600.44459 101.426468 
L 601.381959 95.865913 
L 602.319327 90.325064 
L 603.256696 90.325064 
L 604.194065 93.105341 
L 605.131434 100.026484 
L 606.068802 95.865913 
L 607.006171 101.426468 
L 607.94354 105.587039 
L 608.880909 104.18704 
" clip-path="url(#p05306edc14)" style="fill: none; stroke: #21266e; stroke-width: 0.9; stroke-linecap: square"/>
   </g>
   <g id="line2d_43">
    <path d="M 608.880909 104.18704 
L 609.818277 105.587039 
L 610.755646 101.426468 
L 611.693015 112.508167 
L 612.630384 123.609572 
L 613.567752 120.849015 
L 614.505121 104.18704 
L 615.44249 116.668738 
L 616.379859 119.449016 
L 617.317227 136.09127 
L 618.254596 162.45465 
L 619.191965 158.29408 
L 620.129334 166.615214 
L 621.066703 159.674373 
L 622.004071 144.412397 
L 622.94144 145.812396 
L 623.878809 136.09127 
L 624.816178 118.068737 
L 625.753546 119.449016 
L 626.690915 120.849015 
L 627.628284 138.871548 
L 628.565653 148.572953 
L 629.503021 151.353246 
L 630.44039 151.353246 
L 631.377759 152.753245 
L 632.315128 154.133523 
L 633.252496 155.513802 
L 634.189865 161.074372 
L 635.127234 159.674373 
L 636.064603 158.29408 
L 637.001971 152.753245 
L 637.93934 141.651825 
L 638.876709 127.770143 
L 639.814078 158.29408 
L 640.751446 120.849015 
L 641.688815 118.068737 
L 642.626184 106.967318 
L 643.563553 102.806762 
L 644.500922 104.18704 
L 645.43829 111.127889 
L 646.375659 113.908166 
L 647.313028 148.572953 
L 648.250397 155.513802 
L 649.187765 143.032104 
L 650.125134 172.156056 
L 651.062503 162.45465 
L 651.999872 149.972952 
L 652.93724 151.353246 
L 653.874609 158.29408 
L 654.811978 162.45465 
L 655.749347 176.31662 
L 656.686715 162.45465 
L 657.624084 156.913801 
L 658.561453 144.412397 
L 659.498822 129.170142 
L 660.43619 138.871548 
L 661.373559 144.412397 
L 662.310928 141.651825 
L 663.248297 155.513802 
L 664.185665 155.513802 
L 665.123034 172.156056 
L 666.060403 191.578595 
L 666.997772 187.418032 
L 667.935141 155.513802 
L 668.872509 161.074372 
L 669.809878 144.412397 
L 670.747247 144.412397 
L 671.684616 145.812396 
L 672.621984 143.032104 
L 673.559353 143.032104 
L 674.496722 133.330698 
L 675.434091 137.491269 
L 676.371459 130.550421 
L 677.308828 134.710992 
L 678.246197 129.170142 
L 679.183566 127.770143 
L 680.120934 122.229294 
L 681.058303 134.710992 
L 681.995672 130.550421 
L 682.933041 138.871548 
L 683.870409 133.330698 
L 684.807778 147.192675 
L 685.745147 154.133523 
L 686.682516 149.972952 
L 687.619884 149.972952 
L 688.557253 163.834929 
L 689.494622 188.818031 
L 690.431991 202.68 
L 691.36936 202.68 
L 692.306728 202.68 
L 693.244097 190.198309 
L 694.181466 202.68 
L 695.118835 202.68 
L 696.056203 202.68 
L 696.993572 202.68 
L 697.930941 202.68 
" clip-path="url(#p05306edc14)" style="fill: none; stroke: #21266e; stroke-width: 0.9; stroke-linecap: square"/>
   </g>
   <g id="line2d_44">
    <path d="M 608.880909 102.594985 
L 609.818277 102.818362 
L 610.755646 104.067687 
L 611.693015 100.912376 
L 612.630384 113.708671 
L 613.567752 126.515678 
L 614.505121 129.061032 
L 615.44249 133.603418 
L 616.379859 135.033927 
L 617.317227 140.792586 
L 618.254596 141.978938 
L 619.191965 136.936446 
L 620.129334 128.631519 
L 621.066703 124.021982 
L 622.004071 118.419501 
L 622.94144 115.543014 
L 623.878809 97.67628 
L 624.816178 100.80376 
L 625.753546 99.45503 
L 626.690915 100.354542 
L 627.628284 107.16623 
L 628.565653 107.099284 
L 629.503021 101.894112 
L 630.44039 107.859557 
L 631.377759 108.402698 
L 632.315128 104.170143 
L 633.252496 101.151723 
L 634.189865 104.540926 
L 635.127234 105.608456 
L 636.064603 121.475015 
L 637.001971 125.431518 
L 637.93934 124.192861 
L 638.876709 128.4562 
L 639.814078 130.400603 
L 640.751446 134.631155 
L 641.688815 133.746051 
L 642.626184 125.870142 
L 643.563553 111.954668 
L 644.500922 108.532805 
L 645.43829 93.174436 
L 646.375659 95.982105 
L 647.313028 102.400977 
L 648.250397 88.036109 
L 649.187765 99.075511 
L 650.125134 102.743346 
L 651.062503 102.046901 
L 651.999872 100.830256 
L 652.93724 104.462053 
L 653.874609 104.090264 
L 654.811978 94.983244 
L 655.749347 102.157712 
L 656.686715 100.643247 
L 657.624084 109.458121 
L 658.561453 116.614067 
L 659.498822 128.349358 
L 660.43619 128.696393 
L 661.373559 132.233869 
L 662.310928 131.561193 
L 663.248297 138.163832 
L 664.185665 130.44165 
L 665.123034 126.674077 
L 666.060403 120.644998 
L 666.997772 115.896238 
L 667.935141 104.575703 
L 668.872509 97.553013 
L 669.809878 103.74965 
L 670.747247 104.131101 
L 671.684616 98.8439 
L 672.621984 99.359625 
L 673.559353 109.843194 
L 674.496722 107.398159 
L 675.434091 107.135659 
L 676.371459 110.626105 
L 677.308828 104.155887 
L 678.246197 101.597391 
L 679.183566 101.114219 
L 680.120934 107.908861 
L 681.058303 120.162186 
L 681.995672 121.563093 
L 682.933041 132.309276 
L 683.870409 119.249236 
L 684.807778 128.086941 
L 685.745147 130.888895 
L 686.682516 127.539912 
L 687.619884 122.523658 
L 688.557253 118.220425 
L 689.494622 109.843554 
L 690.431991 106.868377 
L 691.36936 96.334658 
L 692.306728 88.573624 
L 693.244097 92.960909 
L 694.181466 101.885442 
L 695.118835 99.13735 
L 696.056203 103.937118 
L 696.993572 101.358127 
L 697.930941 99.324392 
" clip-path="url(#p05306edc14)" style="fill: none; stroke: #d70005; stroke-width: 0.9; stroke-linecap: square"/>
   </g>
   <g id="patch_15">
    <path d="M 509.941636 210.24 
L 509.941636 43.92 
" style="fill: none; stroke: #000000; stroke-width: 0.8; stroke-linejoin: miter; stroke-linecap: square"/>
   </g>
   <g id="patch_16">
    <path d="M 706.882812 210.24 
L 706.882812 43.92 
" style="fill: none; stroke: #000000; stroke-width: 0.8; stroke-linejoin: miter; stroke-linecap: square"/>
   </g>
   <g id="patch_17">
    <path d="M 509.941636 210.24 
L 706.882812 210.24 
" style="fill: none; stroke: #000000; stroke-width: 0.8; stroke-linejoin: miter; stroke-linecap: square"/>
   </g>
   <g id="patch_18">
    <path d="M 509.941636 43.92 
L 706.882812 43.92 
" style="fill: none; stroke: #000000; stroke-width: 0.8; stroke-linejoin: miter; stroke-linecap: square"/>
   </g>
   <g id="text_44">
    <!-- my_former_short model -->
    <g transform="translate(549.924412 37.92) scale(0.12 -0.12)">
     <defs>
      <path id="TimesNewRomanPSMT-79" d="M 38 2863 
L 1372 2863 
L 1372 2747 
L 1306 2747 
Q 1166 2747 1095 2686 
Q 1025 2625 1025 2534 
Q 1025 2413 1128 2197 
L 1825 753 
L 2466 2334 
Q 2519 2463 2519 2588 
Q 2519 2644 2497 2672 
Q 2472 2706 2419 2726 
Q 2366 2747 2231 2747 
L 2231 2863 
L 3163 2863 
L 3163 2747 
Q 3047 2734 2984 2696 
Q 2922 2659 2847 2556 
Q 2819 2513 2741 2316 
L 1575 -541 
Q 1406 -956 1132 -1168 
Q 859 -1381 606 -1381 
Q 422 -1381 303 -1275 
Q 184 -1169 184 -1031 
Q 184 -900 270 -820 
Q 356 -741 506 -741 
Q 609 -741 788 -809 
Q 913 -856 944 -856 
Q 1038 -856 1148 -759 
Q 1259 -663 1372 -384 
L 1575 113 
L 547 2272 
Q 500 2369 397 2513 
Q 319 2622 269 2659 
Q 197 2709 38 2747 
L 38 2863 
z
" transform="scale(0.015625)"/>
     </defs>
     <use xlink:href="#TimesNewRomanPSMT-6d"/>
     <use xlink:href="#TimesNewRomanPSMT-79" x="77.783203"/>
     <use xlink:href="#TimesNewRomanPSMT-5f" x="127.783203"/>
     <use xlink:href="#TimesNewRomanPSMT-66" x="177.783203"/>
     <use xlink:href="#TimesNewRomanPSMT-6f" x="211.083984"/>
     <use xlink:href="#TimesNewRomanPSMT-72" x="261.083984"/>
     <use xlink:href="#TimesNewRomanPSMT-6d" x="294.384766"/>
     <use xlink:href="#TimesNewRomanPSMT-65" x="372.167969"/>
     <use xlink:href="#TimesNewRomanPSMT-72" x="416.552734"/>
     <use xlink:href="#TimesNewRomanPSMT-5f" x="449.853516"/>
     <use xlink:href="#TimesNewRomanPSMT-73" x="499.853516"/>
     <use xlink:href="#TimesNewRomanPSMT-68" x="538.769531"/>
     <use xlink:href="#TimesNewRomanPSMT-6f" x="588.769531"/>
     <use xlink:href="#TimesNewRomanPSMT-72" x="638.769531"/>
     <use xlink:href="#TimesNewRomanPSMT-74" x="672.070312"/>
     <use xlink:href="#TimesNewRomanPSMT-20" x="699.853516"/>
     <use xlink:href="#TimesNewRomanPSMT-6d" x="724.853516"/>
     <use xlink:href="#TimesNewRomanPSMT-6f" x="802.636719"/>
     <use xlink:href="#TimesNewRomanPSMT-64" x="852.636719"/>
     <use xlink:href="#TimesNewRomanPSMT-65" x="902.636719"/>
     <use xlink:href="#TimesNewRomanPSMT-6c" x="947.021484"/>
    </g>
   </g>
   <g id="legend_3">
    <g id="patch_19">
     <path d="M 515.541636 206.24 
L 584.935386 206.24 
Q 586.535386 206.24 586.535386 204.64 
L 586.535386 182.8175 
Q 586.535386 181.2175 584.935386 181.2175 
L 515.541636 181.2175 
Q 513.941636 181.2175 513.941636 182.8175 
L 513.941636 204.64 
Q 513.941636 206.24 515.541636 206.24 
z
" style="fill: #ffffff; opacity: 0.8; stroke: #cccccc; stroke-linejoin: miter"/>
    </g>
    <g id="line2d_45">
     <path d="M 517.141636 187.2175 
L 525.141636 187.2175 
L 533.141636 187.2175 
" style="fill: none; stroke: #21266e; stroke-width: 0.9; stroke-linecap: square"/>
    </g>
    <g id="text_45">
     <!-- Ground Truth -->
     <g transform="translate(539.541636 190.0175) scale(0.08 -0.08)">
      <use xlink:href="#TimesNewRomanPSMT-47"/>
      <use xlink:href="#TimesNewRomanPSMT-72" x="72.216797"/>
      <use xlink:href="#TimesNewRomanPSMT-6f" x="105.517578"/>
      <use xlink:href="#TimesNewRomanPSMT-75" x="155.517578"/>
      <use xlink:href="#TimesNewRomanPSMT-6e" x="205.517578"/>
      <use xlink:href="#TimesNewRomanPSMT-64" x="255.517578"/>
      <use xlink:href="#TimesNewRomanPSMT-20" x="305.517578"/>
      <use xlink:href="#TimesNewRomanPSMT-54" x="328.767578"/>
      <use xlink:href="#TimesNewRomanPSMT-72" x="386.351562"/>
      <use xlink:href="#TimesNewRomanPSMT-75" x="419.652344"/>
      <use xlink:href="#TimesNewRomanPSMT-74" x="469.652344"/>
      <use xlink:href="#TimesNewRomanPSMT-68" x="497.435547"/>
     </g>
    </g>
    <g id="line2d_46">
     <path d="M 517.141636 198.52875 
L 525.141636 198.52875 
L 533.141636 198.52875 
" style="fill: none; stroke: #d70005; stroke-width: 0.9; stroke-linecap: square"/>
    </g>
    <g id="text_46">
     <!-- prediction -->
     <g transform="translate(539.541636 201.32875) scale(0.08 -0.08)">
      <use xlink:href="#TimesNewRomanPSMT-70"/>
      <use xlink:href="#TimesNewRomanPSMT-72" x="50"/>
      <use xlink:href="#TimesNewRomanPSMT-65" x="83.300781"/>
      <use xlink:href="#TimesNewRomanPSMT-64" x="127.685547"/>
      <use xlink:href="#TimesNewRomanPSMT-69" x="177.685547"/>
      <use xlink:href="#TimesNewRomanPSMT-63" x="205.46875"/>
      <use xlink:href="#TimesNewRomanPSMT-74" x="249.853516"/>
      <use xlink:href="#TimesNewRomanPSMT-69" x="277.636719"/>
      <use xlink:href="#TimesNewRomanPSMT-6f" x="305.419922"/>
      <use xlink:href="#TimesNewRomanPSMT-6e" x="355.419922"/>
     </g>
    </g>
   </g>
  </g>
  <g id="text_47">
   <!-- Comparison chart of OT variable of three models -->
   <g transform="translate(203.471562 18.31) scale(0.16 -0.16)">
    <defs>
     <path id="TimesNewRomanPSMT-43" d="M 3853 4334 
L 3950 2894 
L 3853 2894 
Q 3659 3541 3300 3825 
Q 2941 4109 2438 4109 
Q 2016 4109 1675 3895 
Q 1334 3681 1139 3212 
Q 944 2744 944 2047 
Q 944 1472 1128 1050 
Q 1313 628 1683 403 
Q 2053 178 2528 178 
Q 2941 178 3256 354 
Q 3572 531 3950 1056 
L 4047 994 
Q 3728 428 3303 165 
Q 2878 -97 2294 -97 
Q 1241 -97 663 684 
Q 231 1266 231 2053 
Q 231 2688 515 3219 
Q 800 3750 1298 4042 
Q 1797 4334 2388 4334 
Q 2847 4334 3294 4109 
Q 3425 4041 3481 4041 
Q 3566 4041 3628 4100 
Q 3709 4184 3744 4334 
L 3853 4334 
z
" transform="scale(0.015625)"/>
     <path id="TimesNewRomanPSMT-4f" d="M 2341 4334 
Q 3166 4334 3770 3707 
Q 4375 3081 4375 2144 
Q 4375 1178 3765 540 
Q 3156 -97 2291 -97 
Q 1416 -97 820 525 
Q 225 1147 225 2134 
Q 225 3144 913 3781 
Q 1509 4334 2341 4334 
z
M 2281 4106 
Q 1713 4106 1369 3684 
Q 941 3159 941 2147 
Q 941 1109 1384 550 
Q 1725 125 2284 125 
Q 2881 125 3270 590 
Q 3659 1056 3659 2059 
Q 3659 3147 3231 3681 
Q 2888 4106 2281 4106 
z
" transform="scale(0.015625)"/>
     <path id="TimesNewRomanPSMT-62" d="M 984 2369 
Q 1400 2947 1881 2947 
Q 2322 2947 2650 2570 
Q 2978 2194 2978 1541 
Q 2978 778 2472 313 
Q 2038 -88 1503 -88 
Q 1253 -88 995 3 
Q 738 94 469 275 
L 469 3241 
Q 469 3728 445 3840 
Q 422 3953 372 3993 
Q 322 4034 247 4034 
Q 159 4034 28 3984 
L -16 4094 
L 844 4444 
L 984 4444 
L 984 2369 
z
M 984 2169 
L 984 456 
Q 1144 300 1314 220 
Q 1484 141 1663 141 
Q 1947 141 2192 453 
Q 2438 766 2438 1363 
Q 2438 1913 2192 2208 
Q 1947 2503 1634 2503 
Q 1469 2503 1303 2419 
Q 1178 2356 984 2169 
z
" transform="scale(0.015625)"/>
    </defs>
    <use xlink:href="#TimesNewRomanPSMT-43"/>
    <use xlink:href="#TimesNewRomanPSMT-6f" x="66.699219"/>
    <use xlink:href="#TimesNewRomanPSMT-6d" x="116.699219"/>
    <use xlink:href="#TimesNewRomanPSMT-70" x="194.482422"/>
    <use xlink:href="#TimesNewRomanPSMT-61" x="244.482422"/>
    <use xlink:href="#TimesNewRomanPSMT-72" x="288.867188"/>
    <use xlink:href="#TimesNewRomanPSMT-69" x="322.167969"/>
    <use xlink:href="#TimesNewRomanPSMT-73" x="349.951172"/>
    <use xlink:href="#TimesNewRomanPSMT-6f" x="388.867188"/>
    <use xlink:href="#TimesNewRomanPSMT-6e" x="438.867188"/>
    <use xlink:href="#TimesNewRomanPSMT-20" x="488.867188"/>
    <use xlink:href="#TimesNewRomanPSMT-63" x="513.867188"/>
    <use xlink:href="#TimesNewRomanPSMT-68" x="558.251953"/>
    <use xlink:href="#TimesNewRomanPSMT-61" x="608.251953"/>
    <use xlink:href="#TimesNewRomanPSMT-72" x="652.636719"/>
    <use xlink:href="#TimesNewRomanPSMT-74" x="685.9375"/>
    <use xlink:href="#TimesNewRomanPSMT-20" x="713.720703"/>
    <use xlink:href="#TimesNewRomanPSMT-6f" x="738.720703"/>
    <use xlink:href="#TimesNewRomanPSMT-66" x="788.720703"/>
    <use xlink:href="#TimesNewRomanPSMT-20" x="822.021484"/>
    <use xlink:href="#TimesNewRomanPSMT-4f" x="847.021484"/>
    <use xlink:href="#TimesNewRomanPSMT-54" x="919.238281"/>
    <use xlink:href="#TimesNewRomanPSMT-20" x="978.572266"/>
    <use xlink:href="#TimesNewRomanPSMT-76" x="1003.572266"/>
    <use xlink:href="#TimesNewRomanPSMT-61" x="1053.572266"/>
    <use xlink:href="#TimesNewRomanPSMT-72" x="1097.957031"/>
    <use xlink:href="#TimesNewRomanPSMT-69" x="1131.257812"/>
    <use xlink:href="#TimesNewRomanPSMT-61" x="1159.041016"/>
    <use xlink:href="#TimesNewRomanPSMT-62" x="1203.425781"/>
    <use xlink:href="#TimesNewRomanPSMT-6c" x="1253.425781"/>
    <use xlink:href="#TimesNewRomanPSMT-65" x="1281.208984"/>
    <use xlink:href="#TimesNewRomanPSMT-20" x="1325.59375"/>
    <use xlink:href="#TimesNewRomanPSMT-6f" x="1350.59375"/>
    <use xlink:href="#TimesNewRomanPSMT-66" x="1400.59375"/>
    <use xlink:href="#TimesNewRomanPSMT-20" x="1433.894531"/>
    <use xlink:href="#TimesNewRomanPSMT-74" x="1458.894531"/>
    <use xlink:href="#TimesNewRomanPSMT-68" x="1486.677734"/>
    <use xlink:href="#TimesNewRomanPSMT-72" x="1536.677734"/>
    <use xlink:href="#TimesNewRomanPSMT-65" x="1569.978516"/>
    <use xlink:href="#TimesNewRomanPSMT-65" x="1614.363281"/>
    <use xlink:href="#TimesNewRomanPSMT-20" x="1658.748047"/>
    <use xlink:href="#TimesNewRomanPSMT-6d" x="1683.748047"/>
    <use xlink:href="#TimesNewRomanPSMT-6f" x="1761.53125"/>
    <use xlink:href="#TimesNewRomanPSMT-64" x="1811.53125"/>
    <use xlink:href="#TimesNewRomanPSMT-65" x="1861.53125"/>
    <use xlink:href="#TimesNewRomanPSMT-6c" x="1905.916016"/>
    <use xlink:href="#TimesNewRomanPSMT-73" x="1933.699219"/>
   </g>
  </g>
 </g>
 <defs>
  <clipPath id="p01202c0d86">
   <rect x="37.282812" y="43.92" width="196.941176" height="166.32"/>
  </clipPath>
  <clipPath id="p0d636ff96c">
   <rect x="273.612224" y="43.92" width="196.941176" height="166.32"/>
  </clipPath>
  <clipPath id="p05306edc14">
   <rect x="509.941636" y="43.92" width="196.941176" height="166.32"/>
  </clipPath>
 </defs>
</svg>
